%TF.GenerationSoftware,KiCad,Pcbnew,5.1.6*%
%TF.CreationDate,2020-07-31T05:07:53+02:00*%
%TF.ProjectId,CMM2-JLC,434d4d32-2d4a-44c4-932e-6b696361645f,B*%
%TF.SameCoordinates,Original*%
%TF.FileFunction,Soldermask,Top*%
%TF.FilePolarity,Negative*%
%FSLAX46Y46*%
G04 Gerber Fmt 4.6, Leading zero omitted, Abs format (unit mm)*
G04 Created by KiCad (PCBNEW 5.1.6) date 2020-07-31 05:07:53*
%MOMM*%
%LPD*%
G01*
G04 APERTURE LIST*
%ADD10C,0.375000*%
%ADD11R,0.620000X1.180000*%
%ADD12C,0.620000*%
%ADD13R,0.320000X1.180000*%
%ADD14O,0.920000X1.720000*%
%ADD15O,0.920000X2.020000*%
%ADD16C,1.720000*%
%ADD17C,4.020000*%
%ADD18C,1.620000*%
%ADD19R,1.620000X1.620000*%
%ADD20R,3.020000X4.220000*%
%ADD21R,0.478000X1.530000*%
%ADD22R,1.080000X0.670000*%
%ADD23R,2.420000X2.020000*%
%ADD24R,1.820000X1.020000*%
%ADD25C,1.820000*%
%ADD26R,1.520000X2.020000*%
%ADD27R,3.820000X2.020000*%
%ADD28R,1.070000X1.520000*%
%ADD29O,1.070000X1.520000*%
%ADD30R,3.370000X3.370000*%
%ADD31R,1.020000X0.770000*%
%ADD32O,1.720000X1.720000*%
%ADD33R,1.720000X1.720000*%
%ADD34C,1.020000*%
%ADD35R,0.720000X1.620000*%
%ADD36R,1.220000X2.220000*%
%ADD37R,1.220000X1.520000*%
%ADD38R,1.620000X1.520000*%
%ADD39C,3.020000*%
%ADD40C,2.420000*%
%ADD41C,0.920000*%
%ADD42R,1.290000X7.020000*%
G04 APERTURE END LIST*
D10*
X121317142Y-112214571D02*
X122091238Y-112214571D01*
X121607428Y-111537238D02*
X121607428Y-113278952D01*
X121704190Y-113472476D01*
X121897714Y-113569238D01*
X122091238Y-113569238D01*
X122768571Y-113569238D02*
X122768571Y-111537238D01*
X122768571Y-112311333D02*
X122962095Y-112214571D01*
X123349142Y-112214571D01*
X123542666Y-112311333D01*
X123639428Y-112408095D01*
X123736190Y-112601619D01*
X123736190Y-113182190D01*
X123639428Y-113375714D01*
X123542666Y-113472476D01*
X123349142Y-113569238D01*
X122962095Y-113569238D01*
X122768571Y-113472476D01*
X124510285Y-113472476D02*
X124703809Y-113569238D01*
X125090857Y-113569238D01*
X125284380Y-113472476D01*
X125381142Y-113278952D01*
X125381142Y-113182190D01*
X125284380Y-112988666D01*
X125090857Y-112891904D01*
X124800571Y-112891904D01*
X124607047Y-112795142D01*
X124510285Y-112601619D01*
X124510285Y-112504857D01*
X124607047Y-112311333D01*
X124800571Y-112214571D01*
X125090857Y-112214571D01*
X125284380Y-112311333D01*
X126252000Y-112214571D02*
X126252000Y-114246571D01*
X126252000Y-112311333D02*
X126445523Y-112214571D01*
X126832571Y-112214571D01*
X127026095Y-112311333D01*
X127122857Y-112408095D01*
X127219619Y-112601619D01*
X127219619Y-113182190D01*
X127122857Y-113375714D01*
X127026095Y-113472476D01*
X126832571Y-113569238D01*
X126445523Y-113569238D01*
X126252000Y-113472476D01*
X128961333Y-113569238D02*
X128961333Y-112504857D01*
X128864571Y-112311333D01*
X128671047Y-112214571D01*
X128284000Y-112214571D01*
X128090476Y-112311333D01*
X128961333Y-113472476D02*
X128767809Y-113569238D01*
X128284000Y-113569238D01*
X128090476Y-113472476D01*
X127993714Y-113278952D01*
X127993714Y-113085428D01*
X128090476Y-112891904D01*
X128284000Y-112795142D01*
X128767809Y-112795142D01*
X128961333Y-112698380D01*
X130799809Y-113472476D02*
X130606285Y-113569238D01*
X130219238Y-113569238D01*
X130025714Y-113472476D01*
X129928952Y-113375714D01*
X129832190Y-113182190D01*
X129832190Y-112601619D01*
X129928952Y-112408095D01*
X130025714Y-112311333D01*
X130219238Y-112214571D01*
X130606285Y-112214571D01*
X130799809Y-112311333D01*
X132444761Y-113472476D02*
X132251238Y-113569238D01*
X131864190Y-113569238D01*
X131670666Y-113472476D01*
X131573904Y-113278952D01*
X131573904Y-112504857D01*
X131670666Y-112311333D01*
X131864190Y-112214571D01*
X132251238Y-112214571D01*
X132444761Y-112311333D01*
X132541523Y-112504857D01*
X132541523Y-112698380D01*
X131573904Y-112891904D01*
X133412380Y-113375714D02*
X133509142Y-113472476D01*
X133412380Y-113569238D01*
X133315619Y-113472476D01*
X133412380Y-113375714D01*
X133412380Y-113569238D01*
X135250857Y-113569238D02*
X135250857Y-111537238D01*
X135250857Y-113472476D02*
X135057333Y-113569238D01*
X134670285Y-113569238D01*
X134476761Y-113472476D01*
X134380000Y-113375714D01*
X134283238Y-113182190D01*
X134283238Y-112601619D01*
X134380000Y-112408095D01*
X134476761Y-112311333D01*
X134670285Y-112214571D01*
X135057333Y-112214571D01*
X135250857Y-112311333D01*
X136992571Y-113472476D02*
X136799047Y-113569238D01*
X136412000Y-113569238D01*
X136218476Y-113472476D01*
X136121714Y-113278952D01*
X136121714Y-112504857D01*
X136218476Y-112311333D01*
X136412000Y-112214571D01*
X136799047Y-112214571D01*
X136992571Y-112311333D01*
X137089333Y-112504857D01*
X137089333Y-112698380D01*
X136121714Y-112891904D01*
D11*
%TO.C,J4*%
X39700000Y-26910000D03*
X40500000Y-26910000D03*
X39700000Y-26910000D03*
X40500000Y-26910000D03*
X46100000Y-26910000D03*
X46100000Y-26910000D03*
X45300000Y-26910000D03*
X45300000Y-26910000D03*
D12*
X45790000Y-25850000D03*
X40010000Y-25850000D03*
D13*
X41150000Y-26910000D03*
X42150000Y-26910000D03*
X41650000Y-26910000D03*
X44150000Y-26910000D03*
X44650000Y-26910000D03*
X42650000Y-26910000D03*
X43150000Y-26910000D03*
X43650000Y-26910000D03*
D14*
X38580000Y-22160000D03*
X47220000Y-22160000D03*
D15*
X38580000Y-26330000D03*
X47220000Y-26330000D03*
%TD*%
D16*
%TO.C,J3*%
X111260000Y-24360000D03*
X108720000Y-24360000D03*
X106180000Y-24360000D03*
X103640000Y-24360000D03*
X101100000Y-24360000D03*
X98560000Y-24360000D03*
X96020000Y-24360000D03*
X93480000Y-24360000D03*
X90940000Y-24360000D03*
X88400000Y-24360000D03*
X85860000Y-24360000D03*
X83320000Y-24360000D03*
X80780000Y-24360000D03*
X78240000Y-24360000D03*
X75700000Y-24360000D03*
X73160000Y-24360000D03*
X70620000Y-24360000D03*
X68080000Y-24360000D03*
X65540000Y-24360000D03*
X63000000Y-24360000D03*
X111260000Y-26900000D03*
X108720000Y-26900000D03*
X106180000Y-26900000D03*
X103640000Y-26900000D03*
X101100000Y-26900000D03*
X98560000Y-26900000D03*
X96020000Y-26900000D03*
X93480000Y-26900000D03*
X90940000Y-26900000D03*
X88400000Y-26900000D03*
X85860000Y-26900000D03*
X83320000Y-26900000D03*
X80780000Y-26900000D03*
X78240000Y-26900000D03*
X75700000Y-26900000D03*
X73160000Y-26900000D03*
X70620000Y-26900000D03*
X68080000Y-26900000D03*
X65540000Y-26900000D03*
G36*
G01*
X63607059Y-27760000D02*
X62392941Y-27760000D01*
G75*
G02*
X62140000Y-27507059I0J252941D01*
G01*
X62140000Y-26292941D01*
G75*
G02*
X62392941Y-26040000I252941J0D01*
G01*
X63607059Y-26040000D01*
G75*
G02*
X63860000Y-26292941I0J-252941D01*
G01*
X63860000Y-27507059D01*
G75*
G02*
X63607059Y-27760000I-252941J0D01*
G01*
G37*
%TD*%
%TO.C,C37*%
G36*
G01*
X95643500Y-52869800D02*
X95643500Y-52514800D01*
G75*
G02*
X95796000Y-52362300I152500J0D01*
G01*
X96101000Y-52362300D01*
G75*
G02*
X96253500Y-52514800I0J-152500D01*
G01*
X96253500Y-52869800D01*
G75*
G02*
X96101000Y-53022300I-152500J0D01*
G01*
X95796000Y-53022300D01*
G75*
G02*
X95643500Y-52869800I0J152500D01*
G01*
G37*
G36*
G01*
X94673500Y-52869800D02*
X94673500Y-52514800D01*
G75*
G02*
X94826000Y-52362300I152500J0D01*
G01*
X95131000Y-52362300D01*
G75*
G02*
X95283500Y-52514800I0J-152500D01*
G01*
X95283500Y-52869800D01*
G75*
G02*
X95131000Y-53022300I-152500J0D01*
G01*
X94826000Y-53022300D01*
G75*
G02*
X94673500Y-52869800I0J152500D01*
G01*
G37*
%TD*%
%TO.C,C36*%
G36*
G01*
X71780100Y-66990300D02*
X71425100Y-66990300D01*
G75*
G02*
X71272600Y-66837800I0J152500D01*
G01*
X71272600Y-66532800D01*
G75*
G02*
X71425100Y-66380300I152500J0D01*
G01*
X71780100Y-66380300D01*
G75*
G02*
X71932600Y-66532800I0J-152500D01*
G01*
X71932600Y-66837800D01*
G75*
G02*
X71780100Y-66990300I-152500J0D01*
G01*
G37*
G36*
G01*
X71780100Y-67960300D02*
X71425100Y-67960300D01*
G75*
G02*
X71272600Y-67807800I0J152500D01*
G01*
X71272600Y-67502800D01*
G75*
G02*
X71425100Y-67350300I152500J0D01*
G01*
X71780100Y-67350300D01*
G75*
G02*
X71932600Y-67502800I0J-152500D01*
G01*
X71932600Y-67807800D01*
G75*
G02*
X71780100Y-67960300I-152500J0D01*
G01*
G37*
%TD*%
%TO.C,C35*%
G36*
G01*
X99974700Y-72140600D02*
X100329700Y-72140600D01*
G75*
G02*
X100482200Y-72293100I0J-152500D01*
G01*
X100482200Y-72598100D01*
G75*
G02*
X100329700Y-72750600I-152500J0D01*
G01*
X99974700Y-72750600D01*
G75*
G02*
X99822200Y-72598100I0J152500D01*
G01*
X99822200Y-72293100D01*
G75*
G02*
X99974700Y-72140600I152500J0D01*
G01*
G37*
G36*
G01*
X99974700Y-71170600D02*
X100329700Y-71170600D01*
G75*
G02*
X100482200Y-71323100I0J-152500D01*
G01*
X100482200Y-71628100D01*
G75*
G02*
X100329700Y-71780600I-152500J0D01*
G01*
X99974700Y-71780600D01*
G75*
G02*
X99822200Y-71628100I0J152500D01*
G01*
X99822200Y-71323100D01*
G75*
G02*
X99974700Y-71170600I152500J0D01*
G01*
G37*
%TD*%
%TO.C,C34*%
G36*
G01*
X78018300Y-52857100D02*
X78018300Y-52502100D01*
G75*
G02*
X78170800Y-52349600I152500J0D01*
G01*
X78475800Y-52349600D01*
G75*
G02*
X78628300Y-52502100I0J-152500D01*
G01*
X78628300Y-52857100D01*
G75*
G02*
X78475800Y-53009600I-152500J0D01*
G01*
X78170800Y-53009600D01*
G75*
G02*
X78018300Y-52857100I0J152500D01*
G01*
G37*
G36*
G01*
X77048300Y-52857100D02*
X77048300Y-52502100D01*
G75*
G02*
X77200800Y-52349600I152500J0D01*
G01*
X77505800Y-52349600D01*
G75*
G02*
X77658300Y-52502100I0J-152500D01*
G01*
X77658300Y-52857100D01*
G75*
G02*
X77505800Y-53009600I-152500J0D01*
G01*
X77200800Y-53009600D01*
G75*
G02*
X77048300Y-52857100I0J152500D01*
G01*
G37*
%TD*%
%TO.C,C33*%
G36*
G01*
X100431900Y-78894600D02*
X100786900Y-78894600D01*
G75*
G02*
X100939400Y-79047100I0J-152500D01*
G01*
X100939400Y-79352100D01*
G75*
G02*
X100786900Y-79504600I-152500J0D01*
G01*
X100431900Y-79504600D01*
G75*
G02*
X100279400Y-79352100I0J152500D01*
G01*
X100279400Y-79047100D01*
G75*
G02*
X100431900Y-78894600I152500J0D01*
G01*
G37*
G36*
G01*
X100431900Y-77924600D02*
X100786900Y-77924600D01*
G75*
G02*
X100939400Y-78077100I0J-152500D01*
G01*
X100939400Y-78382100D01*
G75*
G02*
X100786900Y-78534600I-152500J0D01*
G01*
X100431900Y-78534600D01*
G75*
G02*
X100279400Y-78382100I0J152500D01*
G01*
X100279400Y-78077100D01*
G75*
G02*
X100431900Y-77924600I152500J0D01*
G01*
G37*
%TD*%
%TO.C,C32*%
G36*
G01*
X84203200Y-52920600D02*
X84203200Y-52565600D01*
G75*
G02*
X84355700Y-52413100I152500J0D01*
G01*
X84660700Y-52413100D01*
G75*
G02*
X84813200Y-52565600I0J-152500D01*
G01*
X84813200Y-52920600D01*
G75*
G02*
X84660700Y-53073100I-152500J0D01*
G01*
X84355700Y-53073100D01*
G75*
G02*
X84203200Y-52920600I0J152500D01*
G01*
G37*
G36*
G01*
X83233200Y-52920600D02*
X83233200Y-52565600D01*
G75*
G02*
X83385700Y-52413100I152500J0D01*
G01*
X83690700Y-52413100D01*
G75*
G02*
X83843200Y-52565600I0J-152500D01*
G01*
X83843200Y-52920600D01*
G75*
G02*
X83690700Y-53073100I-152500J0D01*
G01*
X83385700Y-53073100D01*
G75*
G02*
X83233200Y-52920600I0J152500D01*
G01*
G37*
%TD*%
%TO.C,C30*%
G36*
G01*
X77472200Y-81851200D02*
X77472200Y-81496200D01*
G75*
G02*
X77624700Y-81343700I152500J0D01*
G01*
X77929700Y-81343700D01*
G75*
G02*
X78082200Y-81496200I0J-152500D01*
G01*
X78082200Y-81851200D01*
G75*
G02*
X77929700Y-82003700I-152500J0D01*
G01*
X77624700Y-82003700D01*
G75*
G02*
X77472200Y-81851200I0J152500D01*
G01*
G37*
G36*
G01*
X76502200Y-81851200D02*
X76502200Y-81496200D01*
G75*
G02*
X76654700Y-81343700I152500J0D01*
G01*
X76959700Y-81343700D01*
G75*
G02*
X77112200Y-81496200I0J-152500D01*
G01*
X77112200Y-81851200D01*
G75*
G02*
X76959700Y-82003700I-152500J0D01*
G01*
X76654700Y-82003700D01*
G75*
G02*
X76502200Y-81851200I0J152500D01*
G01*
G37*
%TD*%
%TO.C,C29*%
G36*
G01*
X100876400Y-65762800D02*
X101231400Y-65762800D01*
G75*
G02*
X101383900Y-65915300I0J-152500D01*
G01*
X101383900Y-66220300D01*
G75*
G02*
X101231400Y-66372800I-152500J0D01*
G01*
X100876400Y-66372800D01*
G75*
G02*
X100723900Y-66220300I0J152500D01*
G01*
X100723900Y-65915300D01*
G75*
G02*
X100876400Y-65762800I152500J0D01*
G01*
G37*
G36*
G01*
X100876400Y-64792800D02*
X101231400Y-64792800D01*
G75*
G02*
X101383900Y-64945300I0J-152500D01*
G01*
X101383900Y-65250300D01*
G75*
G02*
X101231400Y-65402800I-152500J0D01*
G01*
X100876400Y-65402800D01*
G75*
G02*
X100723900Y-65250300I0J152500D01*
G01*
X100723900Y-64945300D01*
G75*
G02*
X100876400Y-64792800I152500J0D01*
G01*
G37*
%TD*%
%TO.C,C28*%
G36*
G01*
X83514900Y-81419900D02*
X83159900Y-81419900D01*
G75*
G02*
X83007400Y-81267400I0J152500D01*
G01*
X83007400Y-80962400D01*
G75*
G02*
X83159900Y-80809900I152500J0D01*
G01*
X83514900Y-80809900D01*
G75*
G02*
X83667400Y-80962400I0J-152500D01*
G01*
X83667400Y-81267400D01*
G75*
G02*
X83514900Y-81419900I-152500J0D01*
G01*
G37*
G36*
G01*
X83514900Y-82389900D02*
X83159900Y-82389900D01*
G75*
G02*
X83007400Y-82237400I0J152500D01*
G01*
X83007400Y-81932400D01*
G75*
G02*
X83159900Y-81779900I152500J0D01*
G01*
X83514900Y-81779900D01*
G75*
G02*
X83667400Y-81932400I0J-152500D01*
G01*
X83667400Y-82237400D01*
G75*
G02*
X83514900Y-82389900I-152500J0D01*
G01*
G37*
%TD*%
%TO.C,C27*%
G36*
G01*
X71133000Y-74246400D02*
X71488000Y-74246400D01*
G75*
G02*
X71640500Y-74398900I0J-152500D01*
G01*
X71640500Y-74703900D01*
G75*
G02*
X71488000Y-74856400I-152500J0D01*
G01*
X71133000Y-74856400D01*
G75*
G02*
X70980500Y-74703900I0J152500D01*
G01*
X70980500Y-74398900D01*
G75*
G02*
X71133000Y-74246400I152500J0D01*
G01*
G37*
G36*
G01*
X71133000Y-73276400D02*
X71488000Y-73276400D01*
G75*
G02*
X71640500Y-73428900I0J-152500D01*
G01*
X71640500Y-73733900D01*
G75*
G02*
X71488000Y-73886400I-152500J0D01*
G01*
X71133000Y-73886400D01*
G75*
G02*
X70980500Y-73733900I0J152500D01*
G01*
X70980500Y-73428900D01*
G75*
G02*
X71133000Y-73276400I152500J0D01*
G01*
G37*
%TD*%
%TO.C,C26*%
G36*
G01*
X100330300Y-59260400D02*
X100685300Y-59260400D01*
G75*
G02*
X100837800Y-59412900I0J-152500D01*
G01*
X100837800Y-59717900D01*
G75*
G02*
X100685300Y-59870400I-152500J0D01*
G01*
X100330300Y-59870400D01*
G75*
G02*
X100177800Y-59717900I0J152500D01*
G01*
X100177800Y-59412900D01*
G75*
G02*
X100330300Y-59260400I152500J0D01*
G01*
G37*
G36*
G01*
X100330300Y-58290400D02*
X100685300Y-58290400D01*
G75*
G02*
X100837800Y-58442900I0J-152500D01*
G01*
X100837800Y-58747900D01*
G75*
G02*
X100685300Y-58900400I-152500J0D01*
G01*
X100330300Y-58900400D01*
G75*
G02*
X100177800Y-58747900I0J152500D01*
G01*
X100177800Y-58442900D01*
G75*
G02*
X100330300Y-58290400I152500J0D01*
G01*
G37*
%TD*%
%TO.C,C25*%
G36*
G01*
X71754700Y-62939000D02*
X71399700Y-62939000D01*
G75*
G02*
X71247200Y-62786500I0J152500D01*
G01*
X71247200Y-62481500D01*
G75*
G02*
X71399700Y-62329000I152500J0D01*
G01*
X71754700Y-62329000D01*
G75*
G02*
X71907200Y-62481500I0J-152500D01*
G01*
X71907200Y-62786500D01*
G75*
G02*
X71754700Y-62939000I-152500J0D01*
G01*
G37*
G36*
G01*
X71754700Y-63909000D02*
X71399700Y-63909000D01*
G75*
G02*
X71247200Y-63756500I0J152500D01*
G01*
X71247200Y-63451500D01*
G75*
G02*
X71399700Y-63299000I152500J0D01*
G01*
X71754700Y-63299000D01*
G75*
G02*
X71907200Y-63451500I0J-152500D01*
G01*
X71907200Y-63756500D01*
G75*
G02*
X71754700Y-63909000I-152500J0D01*
G01*
G37*
%TD*%
%TO.C,C24*%
G36*
G01*
X89156200Y-52907900D02*
X89156200Y-52552900D01*
G75*
G02*
X89308700Y-52400400I152500J0D01*
G01*
X89613700Y-52400400D01*
G75*
G02*
X89766200Y-52552900I0J-152500D01*
G01*
X89766200Y-52907900D01*
G75*
G02*
X89613700Y-53060400I-152500J0D01*
G01*
X89308700Y-53060400D01*
G75*
G02*
X89156200Y-52907900I0J152500D01*
G01*
G37*
G36*
G01*
X88186200Y-52907900D02*
X88186200Y-52552900D01*
G75*
G02*
X88338700Y-52400400I152500J0D01*
G01*
X88643700Y-52400400D01*
G75*
G02*
X88796200Y-52552900I0J-152500D01*
G01*
X88796200Y-52907900D01*
G75*
G02*
X88643700Y-53060400I-152500J0D01*
G01*
X88338700Y-53060400D01*
G75*
G02*
X88186200Y-52907900I0J152500D01*
G01*
G37*
%TD*%
D17*
%TO.C,J2*%
X120815000Y-31330000D03*
X145815000Y-31330000D03*
D18*
X138160000Y-28790000D03*
X135870000Y-28790000D03*
X133580000Y-28790000D03*
X131290000Y-28790000D03*
X129000000Y-28790000D03*
X137015000Y-30770000D03*
X134725000Y-30770000D03*
X132435000Y-30770000D03*
X130145000Y-30770000D03*
X127855000Y-30770000D03*
X138160000Y-32750000D03*
X135870000Y-32750000D03*
X133580000Y-32750000D03*
X131290000Y-32750000D03*
D19*
X129000000Y-32750000D03*
%TD*%
D20*
%TO.C,BT1*%
X52900000Y-86800000D03*
X23900000Y-86800000D03*
%TD*%
D21*
%TO.C,U2*%
X96400000Y-100050000D03*
X95600000Y-100050000D03*
X94800000Y-100050000D03*
X94000000Y-100050000D03*
X93200000Y-100050000D03*
X92400000Y-100050000D03*
X91600000Y-100050000D03*
X90800000Y-100050000D03*
X90000000Y-100050000D03*
X89200000Y-100050000D03*
X88400000Y-100050000D03*
X87600000Y-100050000D03*
X86800000Y-100050000D03*
X86000000Y-100050000D03*
X85200000Y-100050000D03*
X84400000Y-100050000D03*
X83600000Y-100050000D03*
X82800000Y-100050000D03*
X82000000Y-100050000D03*
X81200000Y-100050000D03*
X80400000Y-100050000D03*
X79600000Y-100050000D03*
X78800000Y-100050000D03*
X78000000Y-100050000D03*
X77200000Y-100050000D03*
X76400000Y-100050000D03*
X75600000Y-100050000D03*
X75600000Y-88550000D03*
X76400000Y-88550000D03*
X77200000Y-88550000D03*
X78000000Y-88550000D03*
X78800000Y-88550000D03*
X79600000Y-88550000D03*
X80400000Y-88550000D03*
X81200000Y-88550000D03*
X82000000Y-88550000D03*
X82800000Y-88550000D03*
X83600000Y-88550000D03*
X84400000Y-88550000D03*
X85200000Y-88550000D03*
X86000000Y-88550000D03*
X86800000Y-88550000D03*
X87600000Y-88550000D03*
X88400000Y-88550000D03*
X89200000Y-88550000D03*
X90000000Y-88550000D03*
X90800000Y-88550000D03*
X91600000Y-88550000D03*
X92400000Y-88550000D03*
X93200000Y-88550000D03*
X94000000Y-88550000D03*
X94800000Y-88550000D03*
X95600000Y-88550000D03*
X96400000Y-88550000D03*
%TD*%
D22*
%TO.C,U3*%
X37400000Y-34600000D03*
X37400000Y-35550000D03*
X37400000Y-33650000D03*
X39600000Y-33650000D03*
X39600000Y-34600000D03*
X39600000Y-35550000D03*
%TD*%
D23*
%TO.C,Y2*%
X67310000Y-72462000D03*
X67310000Y-68762000D03*
%TD*%
D24*
%TO.C,Y1*%
X67564000Y-61956000D03*
X67564000Y-59456000D03*
%TD*%
D25*
%TO.C,U7*%
X29680000Y-115600000D03*
X27140000Y-115600000D03*
G36*
G01*
X23690000Y-116258840D02*
X23690000Y-114941160D01*
G75*
G02*
X23941160Y-114690000I251160J0D01*
G01*
X25258840Y-114690000D01*
G75*
G02*
X25510000Y-114941160I0J-251160D01*
G01*
X25510000Y-116258840D01*
G75*
G02*
X25258840Y-116510000I-251160J0D01*
G01*
X23941160Y-116510000D01*
G75*
G02*
X23690000Y-116258840I0J251160D01*
G01*
G37*
%TD*%
D26*
%TO.C,U6*%
X30860600Y-42319200D03*
X26260600Y-42319200D03*
X28560600Y-42319200D03*
D27*
X28560600Y-48619200D03*
%TD*%
D28*
%TO.C,U5*%
X25930000Y-107800000D03*
D29*
X28470000Y-107800000D03*
X27200000Y-107800000D03*
%TD*%
D30*
%TO.C,U4*%
X45021500Y-46101000D03*
G36*
G01*
X47129000Y-44466000D02*
X47814000Y-44466000D01*
G75*
G02*
X47881500Y-44533500I0J-67500D01*
G01*
X47881500Y-44668500D01*
G75*
G02*
X47814000Y-44736000I-67500J0D01*
G01*
X47129000Y-44736000D01*
G75*
G02*
X47061500Y-44668500I0J67500D01*
G01*
X47061500Y-44533500D01*
G75*
G02*
X47129000Y-44466000I67500J0D01*
G01*
G37*
G36*
G01*
X47129000Y-44966000D02*
X47814000Y-44966000D01*
G75*
G02*
X47881500Y-45033500I0J-67500D01*
G01*
X47881500Y-45168500D01*
G75*
G02*
X47814000Y-45236000I-67500J0D01*
G01*
X47129000Y-45236000D01*
G75*
G02*
X47061500Y-45168500I0J67500D01*
G01*
X47061500Y-45033500D01*
G75*
G02*
X47129000Y-44966000I67500J0D01*
G01*
G37*
G36*
G01*
X47129000Y-45466000D02*
X47814000Y-45466000D01*
G75*
G02*
X47881500Y-45533500I0J-67500D01*
G01*
X47881500Y-45668500D01*
G75*
G02*
X47814000Y-45736000I-67500J0D01*
G01*
X47129000Y-45736000D01*
G75*
G02*
X47061500Y-45668500I0J67500D01*
G01*
X47061500Y-45533500D01*
G75*
G02*
X47129000Y-45466000I67500J0D01*
G01*
G37*
G36*
G01*
X47129000Y-45966000D02*
X47814000Y-45966000D01*
G75*
G02*
X47881500Y-46033500I0J-67500D01*
G01*
X47881500Y-46168500D01*
G75*
G02*
X47814000Y-46236000I-67500J0D01*
G01*
X47129000Y-46236000D01*
G75*
G02*
X47061500Y-46168500I0J67500D01*
G01*
X47061500Y-46033500D01*
G75*
G02*
X47129000Y-45966000I67500J0D01*
G01*
G37*
G36*
G01*
X47129000Y-46466000D02*
X47814000Y-46466000D01*
G75*
G02*
X47881500Y-46533500I0J-67500D01*
G01*
X47881500Y-46668500D01*
G75*
G02*
X47814000Y-46736000I-67500J0D01*
G01*
X47129000Y-46736000D01*
G75*
G02*
X47061500Y-46668500I0J67500D01*
G01*
X47061500Y-46533500D01*
G75*
G02*
X47129000Y-46466000I67500J0D01*
G01*
G37*
G36*
G01*
X47129000Y-46966000D02*
X47814000Y-46966000D01*
G75*
G02*
X47881500Y-47033500I0J-67500D01*
G01*
X47881500Y-47168500D01*
G75*
G02*
X47814000Y-47236000I-67500J0D01*
G01*
X47129000Y-47236000D01*
G75*
G02*
X47061500Y-47168500I0J67500D01*
G01*
X47061500Y-47033500D01*
G75*
G02*
X47129000Y-46966000I67500J0D01*
G01*
G37*
G36*
G01*
X47129000Y-47466000D02*
X47814000Y-47466000D01*
G75*
G02*
X47881500Y-47533500I0J-67500D01*
G01*
X47881500Y-47668500D01*
G75*
G02*
X47814000Y-47736000I-67500J0D01*
G01*
X47129000Y-47736000D01*
G75*
G02*
X47061500Y-47668500I0J67500D01*
G01*
X47061500Y-47533500D01*
G75*
G02*
X47129000Y-47466000I67500J0D01*
G01*
G37*
G36*
G01*
X46454000Y-48141000D02*
X46589000Y-48141000D01*
G75*
G02*
X46656500Y-48208500I0J-67500D01*
G01*
X46656500Y-48893500D01*
G75*
G02*
X46589000Y-48961000I-67500J0D01*
G01*
X46454000Y-48961000D01*
G75*
G02*
X46386500Y-48893500I0J67500D01*
G01*
X46386500Y-48208500D01*
G75*
G02*
X46454000Y-48141000I67500J0D01*
G01*
G37*
G36*
G01*
X45954000Y-48141000D02*
X46089000Y-48141000D01*
G75*
G02*
X46156500Y-48208500I0J-67500D01*
G01*
X46156500Y-48893500D01*
G75*
G02*
X46089000Y-48961000I-67500J0D01*
G01*
X45954000Y-48961000D01*
G75*
G02*
X45886500Y-48893500I0J67500D01*
G01*
X45886500Y-48208500D01*
G75*
G02*
X45954000Y-48141000I67500J0D01*
G01*
G37*
G36*
G01*
X45454000Y-48141000D02*
X45589000Y-48141000D01*
G75*
G02*
X45656500Y-48208500I0J-67500D01*
G01*
X45656500Y-48893500D01*
G75*
G02*
X45589000Y-48961000I-67500J0D01*
G01*
X45454000Y-48961000D01*
G75*
G02*
X45386500Y-48893500I0J67500D01*
G01*
X45386500Y-48208500D01*
G75*
G02*
X45454000Y-48141000I67500J0D01*
G01*
G37*
G36*
G01*
X44954000Y-48141000D02*
X45089000Y-48141000D01*
G75*
G02*
X45156500Y-48208500I0J-67500D01*
G01*
X45156500Y-48893500D01*
G75*
G02*
X45089000Y-48961000I-67500J0D01*
G01*
X44954000Y-48961000D01*
G75*
G02*
X44886500Y-48893500I0J67500D01*
G01*
X44886500Y-48208500D01*
G75*
G02*
X44954000Y-48141000I67500J0D01*
G01*
G37*
G36*
G01*
X44454000Y-48141000D02*
X44589000Y-48141000D01*
G75*
G02*
X44656500Y-48208500I0J-67500D01*
G01*
X44656500Y-48893500D01*
G75*
G02*
X44589000Y-48961000I-67500J0D01*
G01*
X44454000Y-48961000D01*
G75*
G02*
X44386500Y-48893500I0J67500D01*
G01*
X44386500Y-48208500D01*
G75*
G02*
X44454000Y-48141000I67500J0D01*
G01*
G37*
G36*
G01*
X43954000Y-48141000D02*
X44089000Y-48141000D01*
G75*
G02*
X44156500Y-48208500I0J-67500D01*
G01*
X44156500Y-48893500D01*
G75*
G02*
X44089000Y-48961000I-67500J0D01*
G01*
X43954000Y-48961000D01*
G75*
G02*
X43886500Y-48893500I0J67500D01*
G01*
X43886500Y-48208500D01*
G75*
G02*
X43954000Y-48141000I67500J0D01*
G01*
G37*
G36*
G01*
X43454000Y-48141000D02*
X43589000Y-48141000D01*
G75*
G02*
X43656500Y-48208500I0J-67500D01*
G01*
X43656500Y-48893500D01*
G75*
G02*
X43589000Y-48961000I-67500J0D01*
G01*
X43454000Y-48961000D01*
G75*
G02*
X43386500Y-48893500I0J67500D01*
G01*
X43386500Y-48208500D01*
G75*
G02*
X43454000Y-48141000I67500J0D01*
G01*
G37*
G36*
G01*
X42229000Y-47466000D02*
X42914000Y-47466000D01*
G75*
G02*
X42981500Y-47533500I0J-67500D01*
G01*
X42981500Y-47668500D01*
G75*
G02*
X42914000Y-47736000I-67500J0D01*
G01*
X42229000Y-47736000D01*
G75*
G02*
X42161500Y-47668500I0J67500D01*
G01*
X42161500Y-47533500D01*
G75*
G02*
X42229000Y-47466000I67500J0D01*
G01*
G37*
G36*
G01*
X42229000Y-46966000D02*
X42914000Y-46966000D01*
G75*
G02*
X42981500Y-47033500I0J-67500D01*
G01*
X42981500Y-47168500D01*
G75*
G02*
X42914000Y-47236000I-67500J0D01*
G01*
X42229000Y-47236000D01*
G75*
G02*
X42161500Y-47168500I0J67500D01*
G01*
X42161500Y-47033500D01*
G75*
G02*
X42229000Y-46966000I67500J0D01*
G01*
G37*
G36*
G01*
X42229000Y-46466000D02*
X42914000Y-46466000D01*
G75*
G02*
X42981500Y-46533500I0J-67500D01*
G01*
X42981500Y-46668500D01*
G75*
G02*
X42914000Y-46736000I-67500J0D01*
G01*
X42229000Y-46736000D01*
G75*
G02*
X42161500Y-46668500I0J67500D01*
G01*
X42161500Y-46533500D01*
G75*
G02*
X42229000Y-46466000I67500J0D01*
G01*
G37*
G36*
G01*
X42229000Y-45966000D02*
X42914000Y-45966000D01*
G75*
G02*
X42981500Y-46033500I0J-67500D01*
G01*
X42981500Y-46168500D01*
G75*
G02*
X42914000Y-46236000I-67500J0D01*
G01*
X42229000Y-46236000D01*
G75*
G02*
X42161500Y-46168500I0J67500D01*
G01*
X42161500Y-46033500D01*
G75*
G02*
X42229000Y-45966000I67500J0D01*
G01*
G37*
G36*
G01*
X42229000Y-45466000D02*
X42914000Y-45466000D01*
G75*
G02*
X42981500Y-45533500I0J-67500D01*
G01*
X42981500Y-45668500D01*
G75*
G02*
X42914000Y-45736000I-67500J0D01*
G01*
X42229000Y-45736000D01*
G75*
G02*
X42161500Y-45668500I0J67500D01*
G01*
X42161500Y-45533500D01*
G75*
G02*
X42229000Y-45466000I67500J0D01*
G01*
G37*
G36*
G01*
X42229000Y-44966000D02*
X42914000Y-44966000D01*
G75*
G02*
X42981500Y-45033500I0J-67500D01*
G01*
X42981500Y-45168500D01*
G75*
G02*
X42914000Y-45236000I-67500J0D01*
G01*
X42229000Y-45236000D01*
G75*
G02*
X42161500Y-45168500I0J67500D01*
G01*
X42161500Y-45033500D01*
G75*
G02*
X42229000Y-44966000I67500J0D01*
G01*
G37*
G36*
G01*
X42229000Y-44466000D02*
X42914000Y-44466000D01*
G75*
G02*
X42981500Y-44533500I0J-67500D01*
G01*
X42981500Y-44668500D01*
G75*
G02*
X42914000Y-44736000I-67500J0D01*
G01*
X42229000Y-44736000D01*
G75*
G02*
X42161500Y-44668500I0J67500D01*
G01*
X42161500Y-44533500D01*
G75*
G02*
X42229000Y-44466000I67500J0D01*
G01*
G37*
G36*
G01*
X43454000Y-43241000D02*
X43589000Y-43241000D01*
G75*
G02*
X43656500Y-43308500I0J-67500D01*
G01*
X43656500Y-43993500D01*
G75*
G02*
X43589000Y-44061000I-67500J0D01*
G01*
X43454000Y-44061000D01*
G75*
G02*
X43386500Y-43993500I0J67500D01*
G01*
X43386500Y-43308500D01*
G75*
G02*
X43454000Y-43241000I67500J0D01*
G01*
G37*
G36*
G01*
X43954000Y-43241000D02*
X44089000Y-43241000D01*
G75*
G02*
X44156500Y-43308500I0J-67500D01*
G01*
X44156500Y-43993500D01*
G75*
G02*
X44089000Y-44061000I-67500J0D01*
G01*
X43954000Y-44061000D01*
G75*
G02*
X43886500Y-43993500I0J67500D01*
G01*
X43886500Y-43308500D01*
G75*
G02*
X43954000Y-43241000I67500J0D01*
G01*
G37*
G36*
G01*
X44454000Y-43241000D02*
X44589000Y-43241000D01*
G75*
G02*
X44656500Y-43308500I0J-67500D01*
G01*
X44656500Y-43993500D01*
G75*
G02*
X44589000Y-44061000I-67500J0D01*
G01*
X44454000Y-44061000D01*
G75*
G02*
X44386500Y-43993500I0J67500D01*
G01*
X44386500Y-43308500D01*
G75*
G02*
X44454000Y-43241000I67500J0D01*
G01*
G37*
G36*
G01*
X44954000Y-43241000D02*
X45089000Y-43241000D01*
G75*
G02*
X45156500Y-43308500I0J-67500D01*
G01*
X45156500Y-43993500D01*
G75*
G02*
X45089000Y-44061000I-67500J0D01*
G01*
X44954000Y-44061000D01*
G75*
G02*
X44886500Y-43993500I0J67500D01*
G01*
X44886500Y-43308500D01*
G75*
G02*
X44954000Y-43241000I67500J0D01*
G01*
G37*
G36*
G01*
X45454000Y-43241000D02*
X45589000Y-43241000D01*
G75*
G02*
X45656500Y-43308500I0J-67500D01*
G01*
X45656500Y-43993500D01*
G75*
G02*
X45589000Y-44061000I-67500J0D01*
G01*
X45454000Y-44061000D01*
G75*
G02*
X45386500Y-43993500I0J67500D01*
G01*
X45386500Y-43308500D01*
G75*
G02*
X45454000Y-43241000I67500J0D01*
G01*
G37*
G36*
G01*
X45954000Y-43241000D02*
X46089000Y-43241000D01*
G75*
G02*
X46156500Y-43308500I0J-67500D01*
G01*
X46156500Y-43993500D01*
G75*
G02*
X46089000Y-44061000I-67500J0D01*
G01*
X45954000Y-44061000D01*
G75*
G02*
X45886500Y-43993500I0J67500D01*
G01*
X45886500Y-43308500D01*
G75*
G02*
X45954000Y-43241000I67500J0D01*
G01*
G37*
G36*
G01*
X46454000Y-43241000D02*
X46589000Y-43241000D01*
G75*
G02*
X46656500Y-43308500I0J-67500D01*
G01*
X46656500Y-43993500D01*
G75*
G02*
X46589000Y-44061000I-67500J0D01*
G01*
X46454000Y-44061000D01*
G75*
G02*
X46386500Y-43993500I0J67500D01*
G01*
X46386500Y-43308500D01*
G75*
G02*
X46454000Y-43241000I67500J0D01*
G01*
G37*
%TD*%
D31*
%TO.C,SW1*%
X75800000Y-119747000D03*
X75800000Y-115997000D03*
X69800000Y-115997000D03*
X69800000Y-119747000D03*
%TD*%
%TO.C,R52*%
G36*
G01*
X79972500Y-50065000D02*
X80327500Y-50065000D01*
G75*
G02*
X80480000Y-50217500I0J-152500D01*
G01*
X80480000Y-50522500D01*
G75*
G02*
X80327500Y-50675000I-152500J0D01*
G01*
X79972500Y-50675000D01*
G75*
G02*
X79820000Y-50522500I0J152500D01*
G01*
X79820000Y-50217500D01*
G75*
G02*
X79972500Y-50065000I152500J0D01*
G01*
G37*
G36*
G01*
X79972500Y-49095000D02*
X80327500Y-49095000D01*
G75*
G02*
X80480000Y-49247500I0J-152500D01*
G01*
X80480000Y-49552500D01*
G75*
G02*
X80327500Y-49705000I-152500J0D01*
G01*
X79972500Y-49705000D01*
G75*
G02*
X79820000Y-49552500I0J152500D01*
G01*
X79820000Y-49247500D01*
G75*
G02*
X79972500Y-49095000I152500J0D01*
G01*
G37*
%TD*%
%TO.C,R51*%
G36*
G01*
X66876000Y-114646500D02*
X66876000Y-115001500D01*
G75*
G02*
X66723500Y-115154000I-152500J0D01*
G01*
X66418500Y-115154000D01*
G75*
G02*
X66266000Y-115001500I0J152500D01*
G01*
X66266000Y-114646500D01*
G75*
G02*
X66418500Y-114494000I152500J0D01*
G01*
X66723500Y-114494000D01*
G75*
G02*
X66876000Y-114646500I0J-152500D01*
G01*
G37*
G36*
G01*
X67846000Y-114646500D02*
X67846000Y-115001500D01*
G75*
G02*
X67693500Y-115154000I-152500J0D01*
G01*
X67388500Y-115154000D01*
G75*
G02*
X67236000Y-115001500I0J152500D01*
G01*
X67236000Y-114646500D01*
G75*
G02*
X67388500Y-114494000I152500J0D01*
G01*
X67693500Y-114494000D01*
G75*
G02*
X67846000Y-114646500I0J-152500D01*
G01*
G37*
%TD*%
%TO.C,R50*%
G36*
G01*
X46590000Y-52511250D02*
X46590000Y-51988750D01*
G75*
G02*
X46813750Y-51765000I223750J0D01*
G01*
X47261250Y-51765000D01*
G75*
G02*
X47485000Y-51988750I0J-223750D01*
G01*
X47485000Y-52511250D01*
G75*
G02*
X47261250Y-52735000I-223750J0D01*
G01*
X46813750Y-52735000D01*
G75*
G02*
X46590000Y-52511250I0J223750D01*
G01*
G37*
G36*
G01*
X45015000Y-52511250D02*
X45015000Y-51988750D01*
G75*
G02*
X45238750Y-51765000I223750J0D01*
G01*
X45686250Y-51765000D01*
G75*
G02*
X45910000Y-51988750I0J-223750D01*
G01*
X45910000Y-52511250D01*
G75*
G02*
X45686250Y-52735000I-223750J0D01*
G01*
X45238750Y-52735000D01*
G75*
G02*
X45015000Y-52511250I0J223750D01*
G01*
G37*
%TD*%
%TO.C,R49*%
G36*
G01*
X27866000Y-104317500D02*
X27866000Y-103962500D01*
G75*
G02*
X28018500Y-103810000I152500J0D01*
G01*
X28323500Y-103810000D01*
G75*
G02*
X28476000Y-103962500I0J-152500D01*
G01*
X28476000Y-104317500D01*
G75*
G02*
X28323500Y-104470000I-152500J0D01*
G01*
X28018500Y-104470000D01*
G75*
G02*
X27866000Y-104317500I0J152500D01*
G01*
G37*
G36*
G01*
X26896000Y-104317500D02*
X26896000Y-103962500D01*
G75*
G02*
X27048500Y-103810000I152500J0D01*
G01*
X27353500Y-103810000D01*
G75*
G02*
X27506000Y-103962500I0J-152500D01*
G01*
X27506000Y-104317500D01*
G75*
G02*
X27353500Y-104470000I-152500J0D01*
G01*
X27048500Y-104470000D01*
G75*
G02*
X26896000Y-104317500I0J152500D01*
G01*
G37*
%TD*%
%TO.C,R48*%
G36*
G01*
X57835500Y-117923000D02*
X57480500Y-117923000D01*
G75*
G02*
X57328000Y-117770500I0J152500D01*
G01*
X57328000Y-117465500D01*
G75*
G02*
X57480500Y-117313000I152500J0D01*
G01*
X57835500Y-117313000D01*
G75*
G02*
X57988000Y-117465500I0J-152500D01*
G01*
X57988000Y-117770500D01*
G75*
G02*
X57835500Y-117923000I-152500J0D01*
G01*
G37*
G36*
G01*
X57835500Y-118893000D02*
X57480500Y-118893000D01*
G75*
G02*
X57328000Y-118740500I0J152500D01*
G01*
X57328000Y-118435500D01*
G75*
G02*
X57480500Y-118283000I152500J0D01*
G01*
X57835500Y-118283000D01*
G75*
G02*
X57988000Y-118435500I0J-152500D01*
G01*
X57988000Y-118740500D01*
G75*
G02*
X57835500Y-118893000I-152500J0D01*
G01*
G37*
%TD*%
%TO.C,R47*%
G36*
G01*
X53263500Y-117946000D02*
X52908500Y-117946000D01*
G75*
G02*
X52756000Y-117793500I0J152500D01*
G01*
X52756000Y-117488500D01*
G75*
G02*
X52908500Y-117336000I152500J0D01*
G01*
X53263500Y-117336000D01*
G75*
G02*
X53416000Y-117488500I0J-152500D01*
G01*
X53416000Y-117793500D01*
G75*
G02*
X53263500Y-117946000I-152500J0D01*
G01*
G37*
G36*
G01*
X53263500Y-118916000D02*
X52908500Y-118916000D01*
G75*
G02*
X52756000Y-118763500I0J152500D01*
G01*
X52756000Y-118458500D01*
G75*
G02*
X52908500Y-118306000I152500J0D01*
G01*
X53263500Y-118306000D01*
G75*
G02*
X53416000Y-118458500I0J-152500D01*
G01*
X53416000Y-118763500D01*
G75*
G02*
X53263500Y-118916000I-152500J0D01*
G01*
G37*
%TD*%
%TO.C,R46*%
G36*
G01*
X40420000Y-45422500D02*
X40420000Y-45777500D01*
G75*
G02*
X40267500Y-45930000I-152500J0D01*
G01*
X39962500Y-45930000D01*
G75*
G02*
X39810000Y-45777500I0J152500D01*
G01*
X39810000Y-45422500D01*
G75*
G02*
X39962500Y-45270000I152500J0D01*
G01*
X40267500Y-45270000D01*
G75*
G02*
X40420000Y-45422500I0J-152500D01*
G01*
G37*
G36*
G01*
X41390000Y-45422500D02*
X41390000Y-45777500D01*
G75*
G02*
X41237500Y-45930000I-152500J0D01*
G01*
X40932500Y-45930000D01*
G75*
G02*
X40780000Y-45777500I0J152500D01*
G01*
X40780000Y-45422500D01*
G75*
G02*
X40932500Y-45270000I152500J0D01*
G01*
X41237500Y-45270000D01*
G75*
G02*
X41390000Y-45422500I0J-152500D01*
G01*
G37*
%TD*%
%TO.C,R45*%
G36*
G01*
X40970500Y-29390000D02*
X41325500Y-29390000D01*
G75*
G02*
X41478000Y-29542500I0J-152500D01*
G01*
X41478000Y-29847500D01*
G75*
G02*
X41325500Y-30000000I-152500J0D01*
G01*
X40970500Y-30000000D01*
G75*
G02*
X40818000Y-29847500I0J152500D01*
G01*
X40818000Y-29542500D01*
G75*
G02*
X40970500Y-29390000I152500J0D01*
G01*
G37*
G36*
G01*
X40970500Y-28420000D02*
X41325500Y-28420000D01*
G75*
G02*
X41478000Y-28572500I0J-152500D01*
G01*
X41478000Y-28877500D01*
G75*
G02*
X41325500Y-29030000I-152500J0D01*
G01*
X40970500Y-29030000D01*
G75*
G02*
X40818000Y-28877500I0J152500D01*
G01*
X40818000Y-28572500D01*
G75*
G02*
X40970500Y-28420000I152500J0D01*
G01*
G37*
%TD*%
%TO.C,R44*%
G36*
G01*
X44373500Y-29030000D02*
X44018500Y-29030000D01*
G75*
G02*
X43866000Y-28877500I0J152500D01*
G01*
X43866000Y-28572500D01*
G75*
G02*
X44018500Y-28420000I152500J0D01*
G01*
X44373500Y-28420000D01*
G75*
G02*
X44526000Y-28572500I0J-152500D01*
G01*
X44526000Y-28877500D01*
G75*
G02*
X44373500Y-29030000I-152500J0D01*
G01*
G37*
G36*
G01*
X44373500Y-30000000D02*
X44018500Y-30000000D01*
G75*
G02*
X43866000Y-29847500I0J152500D01*
G01*
X43866000Y-29542500D01*
G75*
G02*
X44018500Y-29390000I152500J0D01*
G01*
X44373500Y-29390000D01*
G75*
G02*
X44526000Y-29542500I0J-152500D01*
G01*
X44526000Y-29847500D01*
G75*
G02*
X44373500Y-30000000I-152500J0D01*
G01*
G37*
%TD*%
%TO.C,R43*%
G36*
G01*
X71422500Y-65230000D02*
X71777500Y-65230000D01*
G75*
G02*
X71930000Y-65382500I0J-152500D01*
G01*
X71930000Y-65687500D01*
G75*
G02*
X71777500Y-65840000I-152500J0D01*
G01*
X71422500Y-65840000D01*
G75*
G02*
X71270000Y-65687500I0J152500D01*
G01*
X71270000Y-65382500D01*
G75*
G02*
X71422500Y-65230000I152500J0D01*
G01*
G37*
G36*
G01*
X71422500Y-64260000D02*
X71777500Y-64260000D01*
G75*
G02*
X71930000Y-64412500I0J-152500D01*
G01*
X71930000Y-64717500D01*
G75*
G02*
X71777500Y-64870000I-152500J0D01*
G01*
X71422500Y-64870000D01*
G75*
G02*
X71270000Y-64717500I0J152500D01*
G01*
X71270000Y-64412500D01*
G75*
G02*
X71422500Y-64260000I152500J0D01*
G01*
G37*
%TD*%
%TO.C,R42*%
G36*
G01*
X77977500Y-49720000D02*
X77622500Y-49720000D01*
G75*
G02*
X77470000Y-49567500I0J152500D01*
G01*
X77470000Y-49262500D01*
G75*
G02*
X77622500Y-49110000I152500J0D01*
G01*
X77977500Y-49110000D01*
G75*
G02*
X78130000Y-49262500I0J-152500D01*
G01*
X78130000Y-49567500D01*
G75*
G02*
X77977500Y-49720000I-152500J0D01*
G01*
G37*
G36*
G01*
X77977500Y-50690000D02*
X77622500Y-50690000D01*
G75*
G02*
X77470000Y-50537500I0J152500D01*
G01*
X77470000Y-50232500D01*
G75*
G02*
X77622500Y-50080000I152500J0D01*
G01*
X77977500Y-50080000D01*
G75*
G02*
X78130000Y-50232500I0J-152500D01*
G01*
X78130000Y-50537500D01*
G75*
G02*
X77977500Y-50690000I-152500J0D01*
G01*
G37*
%TD*%
%TO.C,R41*%
G36*
G01*
X136484000Y-37853250D02*
X136484000Y-37330750D01*
G75*
G02*
X136707750Y-37107000I223750J0D01*
G01*
X137155250Y-37107000D01*
G75*
G02*
X137379000Y-37330750I0J-223750D01*
G01*
X137379000Y-37853250D01*
G75*
G02*
X137155250Y-38077000I-223750J0D01*
G01*
X136707750Y-38077000D01*
G75*
G02*
X136484000Y-37853250I0J223750D01*
G01*
G37*
G36*
G01*
X134909000Y-37853250D02*
X134909000Y-37330750D01*
G75*
G02*
X135132750Y-37107000I223750J0D01*
G01*
X135580250Y-37107000D01*
G75*
G02*
X135804000Y-37330750I0J-223750D01*
G01*
X135804000Y-37853250D01*
G75*
G02*
X135580250Y-38077000I-223750J0D01*
G01*
X135132750Y-38077000D01*
G75*
G02*
X134909000Y-37853250I0J223750D01*
G01*
G37*
%TD*%
%TO.C,R40*%
G36*
G01*
X134706000Y-39377250D02*
X134706000Y-38854750D01*
G75*
G02*
X134929750Y-38631000I223750J0D01*
G01*
X135377250Y-38631000D01*
G75*
G02*
X135601000Y-38854750I0J-223750D01*
G01*
X135601000Y-39377250D01*
G75*
G02*
X135377250Y-39601000I-223750J0D01*
G01*
X134929750Y-39601000D01*
G75*
G02*
X134706000Y-39377250I0J223750D01*
G01*
G37*
G36*
G01*
X133131000Y-39377250D02*
X133131000Y-38854750D01*
G75*
G02*
X133354750Y-38631000I223750J0D01*
G01*
X133802250Y-38631000D01*
G75*
G02*
X134026000Y-38854750I0J-223750D01*
G01*
X134026000Y-39377250D01*
G75*
G02*
X133802250Y-39601000I-223750J0D01*
G01*
X133354750Y-39601000D01*
G75*
G02*
X133131000Y-39377250I0J223750D01*
G01*
G37*
%TD*%
%TO.C,R39*%
G36*
G01*
X134866750Y-41716499D02*
X135389250Y-41716499D01*
G75*
G02*
X135613000Y-41940249I0J-223750D01*
G01*
X135613000Y-42387749D01*
G75*
G02*
X135389250Y-42611499I-223750J0D01*
G01*
X134866750Y-42611499D01*
G75*
G02*
X134643000Y-42387749I0J223750D01*
G01*
X134643000Y-41940249D01*
G75*
G02*
X134866750Y-41716499I223750J0D01*
G01*
G37*
G36*
G01*
X134866750Y-40141499D02*
X135389250Y-40141499D01*
G75*
G02*
X135613000Y-40365249I0J-223750D01*
G01*
X135613000Y-40812749D01*
G75*
G02*
X135389250Y-41036499I-223750J0D01*
G01*
X134866750Y-41036499D01*
G75*
G02*
X134643000Y-40812749I0J223750D01*
G01*
X134643000Y-40365249D01*
G75*
G02*
X134866750Y-40141499I223750J0D01*
G01*
G37*
%TD*%
%TO.C,R38*%
G36*
G01*
X131404000Y-36837250D02*
X131404000Y-36314750D01*
G75*
G02*
X131627750Y-36091000I223750J0D01*
G01*
X132075250Y-36091000D01*
G75*
G02*
X132299000Y-36314750I0J-223750D01*
G01*
X132299000Y-36837250D01*
G75*
G02*
X132075250Y-37061000I-223750J0D01*
G01*
X131627750Y-37061000D01*
G75*
G02*
X131404000Y-36837250I0J223750D01*
G01*
G37*
G36*
G01*
X129829000Y-36837250D02*
X129829000Y-36314750D01*
G75*
G02*
X130052750Y-36091000I223750J0D01*
G01*
X130500250Y-36091000D01*
G75*
G02*
X130724000Y-36314750I0J-223750D01*
G01*
X130724000Y-36837250D01*
G75*
G02*
X130500250Y-37061000I-223750J0D01*
G01*
X130052750Y-37061000D01*
G75*
G02*
X129829000Y-36837250I0J223750D01*
G01*
G37*
%TD*%
%TO.C,R37*%
G36*
G01*
X129626000Y-38361250D02*
X129626000Y-37838750D01*
G75*
G02*
X129849750Y-37615000I223750J0D01*
G01*
X130297250Y-37615000D01*
G75*
G02*
X130521000Y-37838750I0J-223750D01*
G01*
X130521000Y-38361250D01*
G75*
G02*
X130297250Y-38585000I-223750J0D01*
G01*
X129849750Y-38585000D01*
G75*
G02*
X129626000Y-38361250I0J223750D01*
G01*
G37*
G36*
G01*
X128051000Y-38361250D02*
X128051000Y-37838750D01*
G75*
G02*
X128274750Y-37615000I223750J0D01*
G01*
X128722250Y-37615000D01*
G75*
G02*
X128946000Y-37838750I0J-223750D01*
G01*
X128946000Y-38361250D01*
G75*
G02*
X128722250Y-38585000I-223750J0D01*
G01*
X128274750Y-38585000D01*
G75*
G02*
X128051000Y-38361250I0J223750D01*
G01*
G37*
%TD*%
%TO.C,R36*%
G36*
G01*
X134706000Y-43949250D02*
X134706000Y-43426750D01*
G75*
G02*
X134929750Y-43203000I223750J0D01*
G01*
X135377250Y-43203000D01*
G75*
G02*
X135601000Y-43426750I0J-223750D01*
G01*
X135601000Y-43949250D01*
G75*
G02*
X135377250Y-44173000I-223750J0D01*
G01*
X134929750Y-44173000D01*
G75*
G02*
X134706000Y-43949250I0J223750D01*
G01*
G37*
G36*
G01*
X133131000Y-43949250D02*
X133131000Y-43426750D01*
G75*
G02*
X133354750Y-43203000I223750J0D01*
G01*
X133802250Y-43203000D01*
G75*
G02*
X134026000Y-43426750I0J-223750D01*
G01*
X134026000Y-43949250D01*
G75*
G02*
X133802250Y-44173000I-223750J0D01*
G01*
X133354750Y-44173000D01*
G75*
G02*
X133131000Y-43949250I0J223750D01*
G01*
G37*
%TD*%
%TO.C,R35*%
G36*
G01*
X141564000Y-38615250D02*
X141564000Y-38092750D01*
G75*
G02*
X141787750Y-37869000I223750J0D01*
G01*
X142235250Y-37869000D01*
G75*
G02*
X142459000Y-38092750I0J-223750D01*
G01*
X142459000Y-38615250D01*
G75*
G02*
X142235250Y-38839000I-223750J0D01*
G01*
X141787750Y-38839000D01*
G75*
G02*
X141564000Y-38615250I0J223750D01*
G01*
G37*
G36*
G01*
X139989000Y-38615250D02*
X139989000Y-38092750D01*
G75*
G02*
X140212750Y-37869000I223750J0D01*
G01*
X140660250Y-37869000D01*
G75*
G02*
X140884000Y-38092750I0J-223750D01*
G01*
X140884000Y-38615250D01*
G75*
G02*
X140660250Y-38839000I-223750J0D01*
G01*
X140212750Y-38839000D01*
G75*
G02*
X139989000Y-38615250I0J223750D01*
G01*
G37*
%TD*%
%TO.C,R34*%
G36*
G01*
X140040000Y-40139250D02*
X140040000Y-39616750D01*
G75*
G02*
X140263750Y-39393000I223750J0D01*
G01*
X140711250Y-39393000D01*
G75*
G02*
X140935000Y-39616750I0J-223750D01*
G01*
X140935000Y-40139250D01*
G75*
G02*
X140711250Y-40363000I-223750J0D01*
G01*
X140263750Y-40363000D01*
G75*
G02*
X140040000Y-40139250I0J223750D01*
G01*
G37*
G36*
G01*
X138465000Y-40139250D02*
X138465000Y-39616750D01*
G75*
G02*
X138688750Y-39393000I223750J0D01*
G01*
X139136250Y-39393000D01*
G75*
G02*
X139360000Y-39616750I0J-223750D01*
G01*
X139360000Y-40139250D01*
G75*
G02*
X139136250Y-40363000I-223750J0D01*
G01*
X138688750Y-40363000D01*
G75*
G02*
X138465000Y-40139250I0J223750D01*
G01*
G37*
%TD*%
%TO.C,R33*%
G36*
G01*
X129786750Y-40726000D02*
X130309250Y-40726000D01*
G75*
G02*
X130533000Y-40949750I0J-223750D01*
G01*
X130533000Y-41397250D01*
G75*
G02*
X130309250Y-41621000I-223750J0D01*
G01*
X129786750Y-41621000D01*
G75*
G02*
X129563000Y-41397250I0J223750D01*
G01*
X129563000Y-40949750D01*
G75*
G02*
X129786750Y-40726000I223750J0D01*
G01*
G37*
G36*
G01*
X129786750Y-39151000D02*
X130309250Y-39151000D01*
G75*
G02*
X130533000Y-39374750I0J-223750D01*
G01*
X130533000Y-39822250D01*
G75*
G02*
X130309250Y-40046000I-223750J0D01*
G01*
X129786750Y-40046000D01*
G75*
G02*
X129563000Y-39822250I0J223750D01*
G01*
X129563000Y-39374750D01*
G75*
G02*
X129786750Y-39151000I223750J0D01*
G01*
G37*
%TD*%
%TO.C,R32*%
G36*
G01*
X134866750Y-46314000D02*
X135389250Y-46314000D01*
G75*
G02*
X135613000Y-46537750I0J-223750D01*
G01*
X135613000Y-46985250D01*
G75*
G02*
X135389250Y-47209000I-223750J0D01*
G01*
X134866750Y-47209000D01*
G75*
G02*
X134643000Y-46985250I0J223750D01*
G01*
X134643000Y-46537750D01*
G75*
G02*
X134866750Y-46314000I223750J0D01*
G01*
G37*
G36*
G01*
X134866750Y-44739000D02*
X135389250Y-44739000D01*
G75*
G02*
X135613000Y-44962750I0J-223750D01*
G01*
X135613000Y-45410250D01*
G75*
G02*
X135389250Y-45634000I-223750J0D01*
G01*
X134866750Y-45634000D01*
G75*
G02*
X134643000Y-45410250I0J223750D01*
G01*
X134643000Y-44962750D01*
G75*
G02*
X134866750Y-44739000I223750J0D01*
G01*
G37*
%TD*%
%TO.C,R31*%
G36*
G01*
X140200750Y-42504000D02*
X140723250Y-42504000D01*
G75*
G02*
X140947000Y-42727750I0J-223750D01*
G01*
X140947000Y-43175250D01*
G75*
G02*
X140723250Y-43399000I-223750J0D01*
G01*
X140200750Y-43399000D01*
G75*
G02*
X139977000Y-43175250I0J223750D01*
G01*
X139977000Y-42727750D01*
G75*
G02*
X140200750Y-42504000I223750J0D01*
G01*
G37*
G36*
G01*
X140200750Y-40929000D02*
X140723250Y-40929000D01*
G75*
G02*
X140947000Y-41152750I0J-223750D01*
G01*
X140947000Y-41600250D01*
G75*
G02*
X140723250Y-41824000I-223750J0D01*
G01*
X140200750Y-41824000D01*
G75*
G02*
X139977000Y-41600250I0J223750D01*
G01*
X139977000Y-41152750D01*
G75*
G02*
X140200750Y-40929000I223750J0D01*
G01*
G37*
%TD*%
%TO.C,R30*%
G36*
G01*
X129626000Y-42933250D02*
X129626000Y-42410750D01*
G75*
G02*
X129849750Y-42187000I223750J0D01*
G01*
X130297250Y-42187000D01*
G75*
G02*
X130521000Y-42410750I0J-223750D01*
G01*
X130521000Y-42933250D01*
G75*
G02*
X130297250Y-43157000I-223750J0D01*
G01*
X129849750Y-43157000D01*
G75*
G02*
X129626000Y-42933250I0J223750D01*
G01*
G37*
G36*
G01*
X128051000Y-42933250D02*
X128051000Y-42410750D01*
G75*
G02*
X128274750Y-42187000I223750J0D01*
G01*
X128722250Y-42187000D01*
G75*
G02*
X128946000Y-42410750I0J-223750D01*
G01*
X128946000Y-42933250D01*
G75*
G02*
X128722250Y-43157000I-223750J0D01*
G01*
X128274750Y-43157000D01*
G75*
G02*
X128051000Y-42933250I0J223750D01*
G01*
G37*
%TD*%
%TO.C,R29*%
G36*
G01*
X134706000Y-48521250D02*
X134706000Y-47998750D01*
G75*
G02*
X134929750Y-47775000I223750J0D01*
G01*
X135377250Y-47775000D01*
G75*
G02*
X135601000Y-47998750I0J-223750D01*
G01*
X135601000Y-48521250D01*
G75*
G02*
X135377250Y-48745000I-223750J0D01*
G01*
X134929750Y-48745000D01*
G75*
G02*
X134706000Y-48521250I0J223750D01*
G01*
G37*
G36*
G01*
X133131000Y-48521250D02*
X133131000Y-47998750D01*
G75*
G02*
X133354750Y-47775000I223750J0D01*
G01*
X133802250Y-47775000D01*
G75*
G02*
X134026000Y-47998750I0J-223750D01*
G01*
X134026000Y-48521250D01*
G75*
G02*
X133802250Y-48745000I-223750J0D01*
G01*
X133354750Y-48745000D01*
G75*
G02*
X133131000Y-48521250I0J223750D01*
G01*
G37*
%TD*%
%TO.C,R28*%
G36*
G01*
X140040000Y-44711250D02*
X140040000Y-44188750D01*
G75*
G02*
X140263750Y-43965000I223750J0D01*
G01*
X140711250Y-43965000D01*
G75*
G02*
X140935000Y-44188750I0J-223750D01*
G01*
X140935000Y-44711250D01*
G75*
G02*
X140711250Y-44935000I-223750J0D01*
G01*
X140263750Y-44935000D01*
G75*
G02*
X140040000Y-44711250I0J223750D01*
G01*
G37*
G36*
G01*
X138465000Y-44711250D02*
X138465000Y-44188750D01*
G75*
G02*
X138688750Y-43965000I223750J0D01*
G01*
X139136250Y-43965000D01*
G75*
G02*
X139360000Y-44188750I0J-223750D01*
G01*
X139360000Y-44711250D01*
G75*
G02*
X139136250Y-44935000I-223750J0D01*
G01*
X138688750Y-44935000D01*
G75*
G02*
X138465000Y-44711250I0J223750D01*
G01*
G37*
%TD*%
%TO.C,R27*%
G36*
G01*
X129786750Y-45298000D02*
X130309250Y-45298000D01*
G75*
G02*
X130533000Y-45521750I0J-223750D01*
G01*
X130533000Y-45969250D01*
G75*
G02*
X130309250Y-46193000I-223750J0D01*
G01*
X129786750Y-46193000D01*
G75*
G02*
X129563000Y-45969250I0J223750D01*
G01*
X129563000Y-45521750D01*
G75*
G02*
X129786750Y-45298000I223750J0D01*
G01*
G37*
G36*
G01*
X129786750Y-43723000D02*
X130309250Y-43723000D01*
G75*
G02*
X130533000Y-43946750I0J-223750D01*
G01*
X130533000Y-44394250D01*
G75*
G02*
X130309250Y-44618000I-223750J0D01*
G01*
X129786750Y-44618000D01*
G75*
G02*
X129563000Y-44394250I0J223750D01*
G01*
X129563000Y-43946750D01*
G75*
G02*
X129786750Y-43723000I223750J0D01*
G01*
G37*
%TD*%
%TO.C,R26*%
G36*
G01*
X134866750Y-50886000D02*
X135389250Y-50886000D01*
G75*
G02*
X135613000Y-51109750I0J-223750D01*
G01*
X135613000Y-51557250D01*
G75*
G02*
X135389250Y-51781000I-223750J0D01*
G01*
X134866750Y-51781000D01*
G75*
G02*
X134643000Y-51557250I0J223750D01*
G01*
X134643000Y-51109750D01*
G75*
G02*
X134866750Y-50886000I223750J0D01*
G01*
G37*
G36*
G01*
X134866750Y-49311000D02*
X135389250Y-49311000D01*
G75*
G02*
X135613000Y-49534750I0J-223750D01*
G01*
X135613000Y-49982250D01*
G75*
G02*
X135389250Y-50206000I-223750J0D01*
G01*
X134866750Y-50206000D01*
G75*
G02*
X134643000Y-49982250I0J223750D01*
G01*
X134643000Y-49534750D01*
G75*
G02*
X134866750Y-49311000I223750J0D01*
G01*
G37*
%TD*%
%TO.C,R25*%
G36*
G01*
X140200750Y-47076000D02*
X140723250Y-47076000D01*
G75*
G02*
X140947000Y-47299750I0J-223750D01*
G01*
X140947000Y-47747250D01*
G75*
G02*
X140723250Y-47971000I-223750J0D01*
G01*
X140200750Y-47971000D01*
G75*
G02*
X139977000Y-47747250I0J223750D01*
G01*
X139977000Y-47299750D01*
G75*
G02*
X140200750Y-47076000I223750J0D01*
G01*
G37*
G36*
G01*
X140200750Y-45501000D02*
X140723250Y-45501000D01*
G75*
G02*
X140947000Y-45724750I0J-223750D01*
G01*
X140947000Y-46172250D01*
G75*
G02*
X140723250Y-46396000I-223750J0D01*
G01*
X140200750Y-46396000D01*
G75*
G02*
X139977000Y-46172250I0J223750D01*
G01*
X139977000Y-45724750D01*
G75*
G02*
X140200750Y-45501000I223750J0D01*
G01*
G37*
%TD*%
%TO.C,R24*%
G36*
G01*
X129626000Y-47505250D02*
X129626000Y-46982750D01*
G75*
G02*
X129849750Y-46759000I223750J0D01*
G01*
X130297250Y-46759000D01*
G75*
G02*
X130521000Y-46982750I0J-223750D01*
G01*
X130521000Y-47505250D01*
G75*
G02*
X130297250Y-47729000I-223750J0D01*
G01*
X129849750Y-47729000D01*
G75*
G02*
X129626000Y-47505250I0J223750D01*
G01*
G37*
G36*
G01*
X128051000Y-47505250D02*
X128051000Y-46982750D01*
G75*
G02*
X128274750Y-46759000I223750J0D01*
G01*
X128722250Y-46759000D01*
G75*
G02*
X128946000Y-46982750I0J-223750D01*
G01*
X128946000Y-47505250D01*
G75*
G02*
X128722250Y-47729000I-223750J0D01*
G01*
X128274750Y-47729000D01*
G75*
G02*
X128051000Y-47505250I0J223750D01*
G01*
G37*
%TD*%
%TO.C,R23*%
G36*
G01*
X134706000Y-53093250D02*
X134706000Y-52570750D01*
G75*
G02*
X134929750Y-52347000I223750J0D01*
G01*
X135377250Y-52347000D01*
G75*
G02*
X135601000Y-52570750I0J-223750D01*
G01*
X135601000Y-53093250D01*
G75*
G02*
X135377250Y-53317000I-223750J0D01*
G01*
X134929750Y-53317000D01*
G75*
G02*
X134706000Y-53093250I0J223750D01*
G01*
G37*
G36*
G01*
X133131000Y-53093250D02*
X133131000Y-52570750D01*
G75*
G02*
X133354750Y-52347000I223750J0D01*
G01*
X133802250Y-52347000D01*
G75*
G02*
X134026000Y-52570750I0J-223750D01*
G01*
X134026000Y-53093250D01*
G75*
G02*
X133802250Y-53317000I-223750J0D01*
G01*
X133354750Y-53317000D01*
G75*
G02*
X133131000Y-53093250I0J223750D01*
G01*
G37*
%TD*%
%TO.C,R22*%
G36*
G01*
X140040000Y-49283250D02*
X140040000Y-48760750D01*
G75*
G02*
X140263750Y-48537000I223750J0D01*
G01*
X140711250Y-48537000D01*
G75*
G02*
X140935000Y-48760750I0J-223750D01*
G01*
X140935000Y-49283250D01*
G75*
G02*
X140711250Y-49507000I-223750J0D01*
G01*
X140263750Y-49507000D01*
G75*
G02*
X140040000Y-49283250I0J223750D01*
G01*
G37*
G36*
G01*
X138465000Y-49283250D02*
X138465000Y-48760750D01*
G75*
G02*
X138688750Y-48537000I223750J0D01*
G01*
X139136250Y-48537000D01*
G75*
G02*
X139360000Y-48760750I0J-223750D01*
G01*
X139360000Y-49283250D01*
G75*
G02*
X139136250Y-49507000I-223750J0D01*
G01*
X138688750Y-49507000D01*
G75*
G02*
X138465000Y-49283250I0J223750D01*
G01*
G37*
%TD*%
%TO.C,R21*%
G36*
G01*
X129786750Y-49870000D02*
X130309250Y-49870000D01*
G75*
G02*
X130533000Y-50093750I0J-223750D01*
G01*
X130533000Y-50541250D01*
G75*
G02*
X130309250Y-50765000I-223750J0D01*
G01*
X129786750Y-50765000D01*
G75*
G02*
X129563000Y-50541250I0J223750D01*
G01*
X129563000Y-50093750D01*
G75*
G02*
X129786750Y-49870000I223750J0D01*
G01*
G37*
G36*
G01*
X129786750Y-48295000D02*
X130309250Y-48295000D01*
G75*
G02*
X130533000Y-48518750I0J-223750D01*
G01*
X130533000Y-48966250D01*
G75*
G02*
X130309250Y-49190000I-223750J0D01*
G01*
X129786750Y-49190000D01*
G75*
G02*
X129563000Y-48966250I0J223750D01*
G01*
X129563000Y-48518750D01*
G75*
G02*
X129786750Y-48295000I223750J0D01*
G01*
G37*
%TD*%
%TO.C,R20*%
G36*
G01*
X134866750Y-55458000D02*
X135389250Y-55458000D01*
G75*
G02*
X135613000Y-55681750I0J-223750D01*
G01*
X135613000Y-56129250D01*
G75*
G02*
X135389250Y-56353000I-223750J0D01*
G01*
X134866750Y-56353000D01*
G75*
G02*
X134643000Y-56129250I0J223750D01*
G01*
X134643000Y-55681750D01*
G75*
G02*
X134866750Y-55458000I223750J0D01*
G01*
G37*
G36*
G01*
X134866750Y-53883000D02*
X135389250Y-53883000D01*
G75*
G02*
X135613000Y-54106750I0J-223750D01*
G01*
X135613000Y-54554250D01*
G75*
G02*
X135389250Y-54778000I-223750J0D01*
G01*
X134866750Y-54778000D01*
G75*
G02*
X134643000Y-54554250I0J223750D01*
G01*
X134643000Y-54106750D01*
G75*
G02*
X134866750Y-53883000I223750J0D01*
G01*
G37*
%TD*%
%TO.C,R19*%
G36*
G01*
X140200750Y-51648000D02*
X140723250Y-51648000D01*
G75*
G02*
X140947000Y-51871750I0J-223750D01*
G01*
X140947000Y-52319250D01*
G75*
G02*
X140723250Y-52543000I-223750J0D01*
G01*
X140200750Y-52543000D01*
G75*
G02*
X139977000Y-52319250I0J223750D01*
G01*
X139977000Y-51871750D01*
G75*
G02*
X140200750Y-51648000I223750J0D01*
G01*
G37*
G36*
G01*
X140200750Y-50073000D02*
X140723250Y-50073000D01*
G75*
G02*
X140947000Y-50296750I0J-223750D01*
G01*
X140947000Y-50744250D01*
G75*
G02*
X140723250Y-50968000I-223750J0D01*
G01*
X140200750Y-50968000D01*
G75*
G02*
X139977000Y-50744250I0J223750D01*
G01*
X139977000Y-50296750D01*
G75*
G02*
X140200750Y-50073000I223750J0D01*
G01*
G37*
%TD*%
%TO.C,R18*%
G36*
G01*
X129626000Y-52077250D02*
X129626000Y-51554750D01*
G75*
G02*
X129849750Y-51331000I223750J0D01*
G01*
X130297250Y-51331000D01*
G75*
G02*
X130521000Y-51554750I0J-223750D01*
G01*
X130521000Y-52077250D01*
G75*
G02*
X130297250Y-52301000I-223750J0D01*
G01*
X129849750Y-52301000D01*
G75*
G02*
X129626000Y-52077250I0J223750D01*
G01*
G37*
G36*
G01*
X128051000Y-52077250D02*
X128051000Y-51554750D01*
G75*
G02*
X128274750Y-51331000I223750J0D01*
G01*
X128722250Y-51331000D01*
G75*
G02*
X128946000Y-51554750I0J-223750D01*
G01*
X128946000Y-52077250D01*
G75*
G02*
X128722250Y-52301000I-223750J0D01*
G01*
X128274750Y-52301000D01*
G75*
G02*
X128051000Y-52077250I0J223750D01*
G01*
G37*
%TD*%
%TO.C,R17*%
G36*
G01*
X134706000Y-57665250D02*
X134706000Y-57142750D01*
G75*
G02*
X134929750Y-56919000I223750J0D01*
G01*
X135377250Y-56919000D01*
G75*
G02*
X135601000Y-57142750I0J-223750D01*
G01*
X135601000Y-57665250D01*
G75*
G02*
X135377250Y-57889000I-223750J0D01*
G01*
X134929750Y-57889000D01*
G75*
G02*
X134706000Y-57665250I0J223750D01*
G01*
G37*
G36*
G01*
X133131000Y-57665250D02*
X133131000Y-57142750D01*
G75*
G02*
X133354750Y-56919000I223750J0D01*
G01*
X133802250Y-56919000D01*
G75*
G02*
X134026000Y-57142750I0J-223750D01*
G01*
X134026000Y-57665250D01*
G75*
G02*
X133802250Y-57889000I-223750J0D01*
G01*
X133354750Y-57889000D01*
G75*
G02*
X133131000Y-57665250I0J223750D01*
G01*
G37*
%TD*%
%TO.C,R16*%
G36*
G01*
X140040000Y-53855250D02*
X140040000Y-53332750D01*
G75*
G02*
X140263750Y-53109000I223750J0D01*
G01*
X140711250Y-53109000D01*
G75*
G02*
X140935000Y-53332750I0J-223750D01*
G01*
X140935000Y-53855250D01*
G75*
G02*
X140711250Y-54079000I-223750J0D01*
G01*
X140263750Y-54079000D01*
G75*
G02*
X140040000Y-53855250I0J223750D01*
G01*
G37*
G36*
G01*
X138465000Y-53855250D02*
X138465000Y-53332750D01*
G75*
G02*
X138688750Y-53109000I223750J0D01*
G01*
X139136250Y-53109000D01*
G75*
G02*
X139360000Y-53332750I0J-223750D01*
G01*
X139360000Y-53855250D01*
G75*
G02*
X139136250Y-54079000I-223750J0D01*
G01*
X138688750Y-54079000D01*
G75*
G02*
X138465000Y-53855250I0J223750D01*
G01*
G37*
%TD*%
%TO.C,R15*%
G36*
G01*
X129786750Y-54442000D02*
X130309250Y-54442000D01*
G75*
G02*
X130533000Y-54665750I0J-223750D01*
G01*
X130533000Y-55113250D01*
G75*
G02*
X130309250Y-55337000I-223750J0D01*
G01*
X129786750Y-55337000D01*
G75*
G02*
X129563000Y-55113250I0J223750D01*
G01*
X129563000Y-54665750D01*
G75*
G02*
X129786750Y-54442000I223750J0D01*
G01*
G37*
G36*
G01*
X129786750Y-52867000D02*
X130309250Y-52867000D01*
G75*
G02*
X130533000Y-53090750I0J-223750D01*
G01*
X130533000Y-53538250D01*
G75*
G02*
X130309250Y-53762000I-223750J0D01*
G01*
X129786750Y-53762000D01*
G75*
G02*
X129563000Y-53538250I0J223750D01*
G01*
X129563000Y-53090750D01*
G75*
G02*
X129786750Y-52867000I223750J0D01*
G01*
G37*
%TD*%
%TO.C,R14*%
G36*
G01*
X134866750Y-60030000D02*
X135389250Y-60030000D01*
G75*
G02*
X135613000Y-60253750I0J-223750D01*
G01*
X135613000Y-60701250D01*
G75*
G02*
X135389250Y-60925000I-223750J0D01*
G01*
X134866750Y-60925000D01*
G75*
G02*
X134643000Y-60701250I0J223750D01*
G01*
X134643000Y-60253750D01*
G75*
G02*
X134866750Y-60030000I223750J0D01*
G01*
G37*
G36*
G01*
X134866750Y-58455000D02*
X135389250Y-58455000D01*
G75*
G02*
X135613000Y-58678750I0J-223750D01*
G01*
X135613000Y-59126250D01*
G75*
G02*
X135389250Y-59350000I-223750J0D01*
G01*
X134866750Y-59350000D01*
G75*
G02*
X134643000Y-59126250I0J223750D01*
G01*
X134643000Y-58678750D01*
G75*
G02*
X134866750Y-58455000I223750J0D01*
G01*
G37*
%TD*%
%TO.C,R13*%
G36*
G01*
X140200750Y-56220000D02*
X140723250Y-56220000D01*
G75*
G02*
X140947000Y-56443750I0J-223750D01*
G01*
X140947000Y-56891250D01*
G75*
G02*
X140723250Y-57115000I-223750J0D01*
G01*
X140200750Y-57115000D01*
G75*
G02*
X139977000Y-56891250I0J223750D01*
G01*
X139977000Y-56443750D01*
G75*
G02*
X140200750Y-56220000I223750J0D01*
G01*
G37*
G36*
G01*
X140200750Y-54645000D02*
X140723250Y-54645000D01*
G75*
G02*
X140947000Y-54868750I0J-223750D01*
G01*
X140947000Y-55316250D01*
G75*
G02*
X140723250Y-55540000I-223750J0D01*
G01*
X140200750Y-55540000D01*
G75*
G02*
X139977000Y-55316250I0J223750D01*
G01*
X139977000Y-54868750D01*
G75*
G02*
X140200750Y-54645000I223750J0D01*
G01*
G37*
%TD*%
%TO.C,R12*%
G36*
G01*
X130309250Y-58334000D02*
X129786750Y-58334000D01*
G75*
G02*
X129563000Y-58110250I0J223750D01*
G01*
X129563000Y-57662750D01*
G75*
G02*
X129786750Y-57439000I223750J0D01*
G01*
X130309250Y-57439000D01*
G75*
G02*
X130533000Y-57662750I0J-223750D01*
G01*
X130533000Y-58110250D01*
G75*
G02*
X130309250Y-58334000I-223750J0D01*
G01*
G37*
G36*
G01*
X130309250Y-59909000D02*
X129786750Y-59909000D01*
G75*
G02*
X129563000Y-59685250I0J223750D01*
G01*
X129563000Y-59237750D01*
G75*
G02*
X129786750Y-59014000I223750J0D01*
G01*
X130309250Y-59014000D01*
G75*
G02*
X130533000Y-59237750I0J-223750D01*
G01*
X130533000Y-59685250D01*
G75*
G02*
X130309250Y-59909000I-223750J0D01*
G01*
G37*
%TD*%
%TO.C,R11*%
G36*
G01*
X129626000Y-56649250D02*
X129626000Y-56126750D01*
G75*
G02*
X129849750Y-55903000I223750J0D01*
G01*
X130297250Y-55903000D01*
G75*
G02*
X130521000Y-56126750I0J-223750D01*
G01*
X130521000Y-56649250D01*
G75*
G02*
X130297250Y-56873000I-223750J0D01*
G01*
X129849750Y-56873000D01*
G75*
G02*
X129626000Y-56649250I0J223750D01*
G01*
G37*
G36*
G01*
X128051000Y-56649250D02*
X128051000Y-56126750D01*
G75*
G02*
X128274750Y-55903000I223750J0D01*
G01*
X128722250Y-55903000D01*
G75*
G02*
X128946000Y-56126750I0J-223750D01*
G01*
X128946000Y-56649250D01*
G75*
G02*
X128722250Y-56873000I-223750J0D01*
G01*
X128274750Y-56873000D01*
G75*
G02*
X128051000Y-56649250I0J223750D01*
G01*
G37*
%TD*%
%TO.C,R10*%
G36*
G01*
X135389250Y-63922000D02*
X134866750Y-63922000D01*
G75*
G02*
X134643000Y-63698250I0J223750D01*
G01*
X134643000Y-63250750D01*
G75*
G02*
X134866750Y-63027000I223750J0D01*
G01*
X135389250Y-63027000D01*
G75*
G02*
X135613000Y-63250750I0J-223750D01*
G01*
X135613000Y-63698250D01*
G75*
G02*
X135389250Y-63922000I-223750J0D01*
G01*
G37*
G36*
G01*
X135389250Y-65497000D02*
X134866750Y-65497000D01*
G75*
G02*
X134643000Y-65273250I0J223750D01*
G01*
X134643000Y-64825750D01*
G75*
G02*
X134866750Y-64602000I223750J0D01*
G01*
X135389250Y-64602000D01*
G75*
G02*
X135613000Y-64825750I0J-223750D01*
G01*
X135613000Y-65273250D01*
G75*
G02*
X135389250Y-65497000I-223750J0D01*
G01*
G37*
%TD*%
%TO.C,R9*%
G36*
G01*
X134680499Y-62237250D02*
X134680499Y-61714750D01*
G75*
G02*
X134904249Y-61491000I223750J0D01*
G01*
X135351749Y-61491000D01*
G75*
G02*
X135575499Y-61714750I0J-223750D01*
G01*
X135575499Y-62237250D01*
G75*
G02*
X135351749Y-62461000I-223750J0D01*
G01*
X134904249Y-62461000D01*
G75*
G02*
X134680499Y-62237250I0J223750D01*
G01*
G37*
G36*
G01*
X133105499Y-62237250D02*
X133105499Y-61714750D01*
G75*
G02*
X133329249Y-61491000I223750J0D01*
G01*
X133776749Y-61491000D01*
G75*
G02*
X134000499Y-61714750I0J-223750D01*
G01*
X134000499Y-62237250D01*
G75*
G02*
X133776749Y-62461000I-223750J0D01*
G01*
X133329249Y-62461000D01*
G75*
G02*
X133105499Y-62237250I0J223750D01*
G01*
G37*
%TD*%
%TO.C,R8*%
G36*
G01*
X140723250Y-60112000D02*
X140200750Y-60112000D01*
G75*
G02*
X139977000Y-59888250I0J223750D01*
G01*
X139977000Y-59440750D01*
G75*
G02*
X140200750Y-59217000I223750J0D01*
G01*
X140723250Y-59217000D01*
G75*
G02*
X140947000Y-59440750I0J-223750D01*
G01*
X140947000Y-59888250D01*
G75*
G02*
X140723250Y-60112000I-223750J0D01*
G01*
G37*
G36*
G01*
X140723250Y-61687000D02*
X140200750Y-61687000D01*
G75*
G02*
X139977000Y-61463250I0J223750D01*
G01*
X139977000Y-61015750D01*
G75*
G02*
X140200750Y-60792000I223750J0D01*
G01*
X140723250Y-60792000D01*
G75*
G02*
X140947000Y-61015750I0J-223750D01*
G01*
X140947000Y-61463250D01*
G75*
G02*
X140723250Y-61687000I-223750J0D01*
G01*
G37*
%TD*%
%TO.C,R7*%
G36*
G01*
X140040000Y-58427250D02*
X140040000Y-57904750D01*
G75*
G02*
X140263750Y-57681000I223750J0D01*
G01*
X140711250Y-57681000D01*
G75*
G02*
X140935000Y-57904750I0J-223750D01*
G01*
X140935000Y-58427250D01*
G75*
G02*
X140711250Y-58651000I-223750J0D01*
G01*
X140263750Y-58651000D01*
G75*
G02*
X140040000Y-58427250I0J223750D01*
G01*
G37*
G36*
G01*
X138465000Y-58427250D02*
X138465000Y-57904750D01*
G75*
G02*
X138688750Y-57681000I223750J0D01*
G01*
X139136250Y-57681000D01*
G75*
G02*
X139360000Y-57904750I0J-223750D01*
G01*
X139360000Y-58427250D01*
G75*
G02*
X139136250Y-58651000I-223750J0D01*
G01*
X138688750Y-58651000D01*
G75*
G02*
X138465000Y-58427250I0J223750D01*
G01*
G37*
%TD*%
%TO.C,R6*%
G36*
G01*
X94380000Y-31477500D02*
X94380000Y-31122500D01*
G75*
G02*
X94532500Y-30970000I152500J0D01*
G01*
X94837500Y-30970000D01*
G75*
G02*
X94990000Y-31122500I0J-152500D01*
G01*
X94990000Y-31477500D01*
G75*
G02*
X94837500Y-31630000I-152500J0D01*
G01*
X94532500Y-31630000D01*
G75*
G02*
X94380000Y-31477500I0J152500D01*
G01*
G37*
G36*
G01*
X93410000Y-31477500D02*
X93410000Y-31122500D01*
G75*
G02*
X93562500Y-30970000I152500J0D01*
G01*
X93867500Y-30970000D01*
G75*
G02*
X94020000Y-31122500I0J-152500D01*
G01*
X94020000Y-31477500D01*
G75*
G02*
X93867500Y-31630000I-152500J0D01*
G01*
X93562500Y-31630000D01*
G75*
G02*
X93410000Y-31477500I0J152500D01*
G01*
G37*
%TD*%
%TO.C,R5*%
G36*
G01*
X96380000Y-31477500D02*
X96380000Y-31122500D01*
G75*
G02*
X96532500Y-30970000I152500J0D01*
G01*
X96837500Y-30970000D01*
G75*
G02*
X96990000Y-31122500I0J-152500D01*
G01*
X96990000Y-31477500D01*
G75*
G02*
X96837500Y-31630000I-152500J0D01*
G01*
X96532500Y-31630000D01*
G75*
G02*
X96380000Y-31477500I0J152500D01*
G01*
G37*
G36*
G01*
X95410000Y-31477500D02*
X95410000Y-31122500D01*
G75*
G02*
X95562500Y-30970000I152500J0D01*
G01*
X95867500Y-30970000D01*
G75*
G02*
X96020000Y-31122500I0J-152500D01*
G01*
X96020000Y-31477500D01*
G75*
G02*
X95867500Y-31630000I-152500J0D01*
G01*
X95562500Y-31630000D01*
G75*
G02*
X95410000Y-31477500I0J152500D01*
G01*
G37*
%TD*%
%TO.C,R4*%
G36*
G01*
X67930000Y-31827500D02*
X67930000Y-31472500D01*
G75*
G02*
X68082500Y-31320000I152500J0D01*
G01*
X68387500Y-31320000D01*
G75*
G02*
X68540000Y-31472500I0J-152500D01*
G01*
X68540000Y-31827500D01*
G75*
G02*
X68387500Y-31980000I-152500J0D01*
G01*
X68082500Y-31980000D01*
G75*
G02*
X67930000Y-31827500I0J152500D01*
G01*
G37*
G36*
G01*
X66960000Y-31827500D02*
X66960000Y-31472500D01*
G75*
G02*
X67112500Y-31320000I152500J0D01*
G01*
X67417500Y-31320000D01*
G75*
G02*
X67570000Y-31472500I0J-152500D01*
G01*
X67570000Y-31827500D01*
G75*
G02*
X67417500Y-31980000I-152500J0D01*
G01*
X67112500Y-31980000D01*
G75*
G02*
X66960000Y-31827500I0J152500D01*
G01*
G37*
%TD*%
%TO.C,R3*%
G36*
G01*
X61120000Y-31472500D02*
X61120000Y-31827500D01*
G75*
G02*
X60967500Y-31980000I-152500J0D01*
G01*
X60662500Y-31980000D01*
G75*
G02*
X60510000Y-31827500I0J152500D01*
G01*
X60510000Y-31472500D01*
G75*
G02*
X60662500Y-31320000I152500J0D01*
G01*
X60967500Y-31320000D01*
G75*
G02*
X61120000Y-31472500I0J-152500D01*
G01*
G37*
G36*
G01*
X62090000Y-31472500D02*
X62090000Y-31827500D01*
G75*
G02*
X61937500Y-31980000I-152500J0D01*
G01*
X61632500Y-31980000D01*
G75*
G02*
X61480000Y-31827500I0J152500D01*
G01*
X61480000Y-31472500D01*
G75*
G02*
X61632500Y-31320000I152500J0D01*
G01*
X61937500Y-31320000D01*
G75*
G02*
X62090000Y-31472500I0J-152500D01*
G01*
G37*
%TD*%
%TO.C,R2*%
G36*
G01*
X60180000Y-109077500D02*
X60180000Y-108722500D01*
G75*
G02*
X60332500Y-108570000I152500J0D01*
G01*
X60637500Y-108570000D01*
G75*
G02*
X60790000Y-108722500I0J-152500D01*
G01*
X60790000Y-109077500D01*
G75*
G02*
X60637500Y-109230000I-152500J0D01*
G01*
X60332500Y-109230000D01*
G75*
G02*
X60180000Y-109077500I0J152500D01*
G01*
G37*
G36*
G01*
X59210000Y-109077500D02*
X59210000Y-108722500D01*
G75*
G02*
X59362500Y-108570000I152500J0D01*
G01*
X59667500Y-108570000D01*
G75*
G02*
X59820000Y-108722500I0J-152500D01*
G01*
X59820000Y-109077500D01*
G75*
G02*
X59667500Y-109230000I-152500J0D01*
G01*
X59362500Y-109230000D01*
G75*
G02*
X59210000Y-109077500I0J152500D01*
G01*
G37*
%TD*%
%TO.C,R1*%
G36*
G01*
X60180000Y-112577500D02*
X60180000Y-112222500D01*
G75*
G02*
X60332500Y-112070000I152500J0D01*
G01*
X60637500Y-112070000D01*
G75*
G02*
X60790000Y-112222500I0J-152500D01*
G01*
X60790000Y-112577500D01*
G75*
G02*
X60637500Y-112730000I-152500J0D01*
G01*
X60332500Y-112730000D01*
G75*
G02*
X60180000Y-112577500I0J152500D01*
G01*
G37*
G36*
G01*
X59210000Y-112577500D02*
X59210000Y-112222500D01*
G75*
G02*
X59362500Y-112070000I152500J0D01*
G01*
X59667500Y-112070000D01*
G75*
G02*
X59820000Y-112222500I0J-152500D01*
G01*
X59820000Y-112577500D01*
G75*
G02*
X59667500Y-112730000I-152500J0D01*
G01*
X59362500Y-112730000D01*
G75*
G02*
X59210000Y-112577500I0J152500D01*
G01*
G37*
%TD*%
D32*
%TO.C,J9*%
X124030000Y-46500000D03*
X121490000Y-46500000D03*
D33*
X118950000Y-46500000D03*
%TD*%
D34*
%TO.C,J8*%
X81600000Y-117000000D03*
X89600000Y-117000000D03*
D35*
X80000000Y-106000000D03*
X81100000Y-106000000D03*
X82200000Y-106000000D03*
X83300000Y-106000000D03*
X84400000Y-106000000D03*
X85500000Y-106000000D03*
X86600000Y-106000000D03*
X87700000Y-106000000D03*
X88800000Y-106000000D03*
D36*
X94300000Y-116600000D03*
X78800000Y-116600000D03*
D37*
X78800000Y-107000000D03*
D38*
X93400000Y-107000000D03*
%TD*%
D32*
%TO.C,J7*%
X112800000Y-55190000D03*
X112800000Y-57730000D03*
X112800000Y-60270000D03*
X112800000Y-62810000D03*
D33*
X112800000Y-65350000D03*
%TD*%
D18*
%TO.C,J6*%
X25500000Y-33500000D03*
X28000000Y-33500000D03*
X30000000Y-33500000D03*
D38*
X32500000Y-33500000D03*
D39*
X22430000Y-30790000D03*
X35570000Y-30790000D03*
%TD*%
D40*
%TO.C,J5*%
X55020000Y-24100000D03*
X50180000Y-25000000D03*
X55020000Y-27700000D03*
X54820000Y-33400000D03*
X50180000Y-31700000D03*
D41*
X52600000Y-25400000D03*
X52600000Y-31400000D03*
%TD*%
%TO.C,D2*%
G36*
G01*
X58308500Y-119642750D02*
X58308500Y-120165250D01*
G75*
G02*
X58084750Y-120389000I-223750J0D01*
G01*
X57637250Y-120389000D01*
G75*
G02*
X57413500Y-120165250I0J223750D01*
G01*
X57413500Y-119642750D01*
G75*
G02*
X57637250Y-119419000I223750J0D01*
G01*
X58084750Y-119419000D01*
G75*
G02*
X58308500Y-119642750I0J-223750D01*
G01*
G37*
G36*
G01*
X59883500Y-119642750D02*
X59883500Y-120165250D01*
G75*
G02*
X59659750Y-120389000I-223750J0D01*
G01*
X59212250Y-120389000D01*
G75*
G02*
X58988500Y-120165250I0J223750D01*
G01*
X58988500Y-119642750D01*
G75*
G02*
X59212250Y-119419000I223750J0D01*
G01*
X59659750Y-119419000D01*
G75*
G02*
X59883500Y-119642750I0J-223750D01*
G01*
G37*
%TD*%
%TO.C,D1*%
G36*
G01*
X52410000Y-120165250D02*
X52410000Y-119642750D01*
G75*
G02*
X52633750Y-119419000I223750J0D01*
G01*
X53081250Y-119419000D01*
G75*
G02*
X53305000Y-119642750I0J-223750D01*
G01*
X53305000Y-120165250D01*
G75*
G02*
X53081250Y-120389000I-223750J0D01*
G01*
X52633750Y-120389000D01*
G75*
G02*
X52410000Y-120165250I0J223750D01*
G01*
G37*
G36*
G01*
X50835000Y-120165250D02*
X50835000Y-119642750D01*
G75*
G02*
X51058750Y-119419000I223750J0D01*
G01*
X51506250Y-119419000D01*
G75*
G02*
X51730000Y-119642750I0J-223750D01*
G01*
X51730000Y-120165250D01*
G75*
G02*
X51506250Y-120389000I-223750J0D01*
G01*
X51058750Y-120389000D01*
G75*
G02*
X50835000Y-120165250I0J223750D01*
G01*
G37*
%TD*%
%TO.C,C21*%
G36*
G01*
X33647850Y-42233600D02*
X33125350Y-42233600D01*
G75*
G02*
X32901600Y-42009850I0J223750D01*
G01*
X32901600Y-41562350D01*
G75*
G02*
X33125350Y-41338600I223750J0D01*
G01*
X33647850Y-41338600D01*
G75*
G02*
X33871600Y-41562350I0J-223750D01*
G01*
X33871600Y-42009850D01*
G75*
G02*
X33647850Y-42233600I-223750J0D01*
G01*
G37*
G36*
G01*
X33647850Y-43808600D02*
X33125350Y-43808600D01*
G75*
G02*
X32901600Y-43584850I0J223750D01*
G01*
X32901600Y-43137350D01*
G75*
G02*
X33125350Y-42913600I223750J0D01*
G01*
X33647850Y-42913600D01*
G75*
G02*
X33871600Y-43137350I0J-223750D01*
G01*
X33871600Y-43584850D01*
G75*
G02*
X33647850Y-43808600I-223750J0D01*
G01*
G37*
%TD*%
%TO.C,C20*%
G36*
G01*
X35088100Y-42365800D02*
X34733100Y-42365800D01*
G75*
G02*
X34580600Y-42213300I0J152500D01*
G01*
X34580600Y-41908300D01*
G75*
G02*
X34733100Y-41755800I152500J0D01*
G01*
X35088100Y-41755800D01*
G75*
G02*
X35240600Y-41908300I0J-152500D01*
G01*
X35240600Y-42213300D01*
G75*
G02*
X35088100Y-42365800I-152500J0D01*
G01*
G37*
G36*
G01*
X35088100Y-43335800D02*
X34733100Y-43335800D01*
G75*
G02*
X34580600Y-43183300I0J152500D01*
G01*
X34580600Y-42878300D01*
G75*
G02*
X34733100Y-42725800I152500J0D01*
G01*
X35088100Y-42725800D01*
G75*
G02*
X35240600Y-42878300I0J-152500D01*
G01*
X35240600Y-43183300D01*
G75*
G02*
X35088100Y-43335800I-152500J0D01*
G01*
G37*
%TD*%
%TO.C,C19*%
G36*
G01*
X69268000Y-115001500D02*
X69268000Y-114646500D01*
G75*
G02*
X69420500Y-114494000I152500J0D01*
G01*
X69725500Y-114494000D01*
G75*
G02*
X69878000Y-114646500I0J-152500D01*
G01*
X69878000Y-115001500D01*
G75*
G02*
X69725500Y-115154000I-152500J0D01*
G01*
X69420500Y-115154000D01*
G75*
G02*
X69268000Y-115001500I0J152500D01*
G01*
G37*
G36*
G01*
X68298000Y-115001500D02*
X68298000Y-114646500D01*
G75*
G02*
X68450500Y-114494000I152500J0D01*
G01*
X68755500Y-114494000D01*
G75*
G02*
X68908000Y-114646500I0J-152500D01*
G01*
X68908000Y-115001500D01*
G75*
G02*
X68755500Y-115154000I-152500J0D01*
G01*
X68450500Y-115154000D01*
G75*
G02*
X68298000Y-115001500I0J152500D01*
G01*
G37*
%TD*%
%TO.C,C18*%
G36*
G01*
X22122500Y-42580000D02*
X22477500Y-42580000D01*
G75*
G02*
X22630000Y-42732500I0J-152500D01*
G01*
X22630000Y-43037500D01*
G75*
G02*
X22477500Y-43190000I-152500J0D01*
G01*
X22122500Y-43190000D01*
G75*
G02*
X21970000Y-43037500I0J152500D01*
G01*
X21970000Y-42732500D01*
G75*
G02*
X22122500Y-42580000I152500J0D01*
G01*
G37*
G36*
G01*
X22122500Y-41610000D02*
X22477500Y-41610000D01*
G75*
G02*
X22630000Y-41762500I0J-152500D01*
G01*
X22630000Y-42067500D01*
G75*
G02*
X22477500Y-42220000I-152500J0D01*
G01*
X22122500Y-42220000D01*
G75*
G02*
X21970000Y-42067500I0J152500D01*
G01*
X21970000Y-41762500D01*
G75*
G02*
X22122500Y-41610000I152500J0D01*
G01*
G37*
%TD*%
%TO.C,C17*%
G36*
G01*
X23538750Y-42840000D02*
X24061250Y-42840000D01*
G75*
G02*
X24285000Y-43063750I0J-223750D01*
G01*
X24285000Y-43511250D01*
G75*
G02*
X24061250Y-43735000I-223750J0D01*
G01*
X23538750Y-43735000D01*
G75*
G02*
X23315000Y-43511250I0J223750D01*
G01*
X23315000Y-43063750D01*
G75*
G02*
X23538750Y-42840000I223750J0D01*
G01*
G37*
G36*
G01*
X23538750Y-41265000D02*
X24061250Y-41265000D01*
G75*
G02*
X24285000Y-41488750I0J-223750D01*
G01*
X24285000Y-41936250D01*
G75*
G02*
X24061250Y-42160000I-223750J0D01*
G01*
X23538750Y-42160000D01*
G75*
G02*
X23315000Y-41936250I0J223750D01*
G01*
X23315000Y-41488750D01*
G75*
G02*
X23538750Y-41265000I223750J0D01*
G01*
G37*
%TD*%
%TO.C,C16*%
G36*
G01*
X42020000Y-40822500D02*
X42020000Y-41177500D01*
G75*
G02*
X41867500Y-41330000I-152500J0D01*
G01*
X41562500Y-41330000D01*
G75*
G02*
X41410000Y-41177500I0J152500D01*
G01*
X41410000Y-40822500D01*
G75*
G02*
X41562500Y-40670000I152500J0D01*
G01*
X41867500Y-40670000D01*
G75*
G02*
X42020000Y-40822500I0J-152500D01*
G01*
G37*
G36*
G01*
X42990000Y-40822500D02*
X42990000Y-41177500D01*
G75*
G02*
X42837500Y-41330000I-152500J0D01*
G01*
X42532500Y-41330000D01*
G75*
G02*
X42380000Y-41177500I0J152500D01*
G01*
X42380000Y-40822500D01*
G75*
G02*
X42532500Y-40670000I152500J0D01*
G01*
X42837500Y-40670000D01*
G75*
G02*
X42990000Y-40822500I0J-152500D01*
G01*
G37*
%TD*%
%TO.C,C15*%
G36*
G01*
X42020000Y-41822500D02*
X42020000Y-42177500D01*
G75*
G02*
X41867500Y-42330000I-152500J0D01*
G01*
X41562500Y-42330000D01*
G75*
G02*
X41410000Y-42177500I0J152500D01*
G01*
X41410000Y-41822500D01*
G75*
G02*
X41562500Y-41670000I152500J0D01*
G01*
X41867500Y-41670000D01*
G75*
G02*
X42020000Y-41822500I0J-152500D01*
G01*
G37*
G36*
G01*
X42990000Y-41822500D02*
X42990000Y-42177500D01*
G75*
G02*
X42837500Y-42330000I-152500J0D01*
G01*
X42532500Y-42330000D01*
G75*
G02*
X42380000Y-42177500I0J152500D01*
G01*
X42380000Y-41822500D01*
G75*
G02*
X42532500Y-41670000I152500J0D01*
G01*
X42837500Y-41670000D01*
G75*
G02*
X42990000Y-41822500I0J-152500D01*
G01*
G37*
%TD*%
%TO.C,C14*%
G36*
G01*
X41072500Y-44195000D02*
X41427500Y-44195000D01*
G75*
G02*
X41580000Y-44347500I0J-152500D01*
G01*
X41580000Y-44652500D01*
G75*
G02*
X41427500Y-44805000I-152500J0D01*
G01*
X41072500Y-44805000D01*
G75*
G02*
X40920000Y-44652500I0J152500D01*
G01*
X40920000Y-44347500D01*
G75*
G02*
X41072500Y-44195000I152500J0D01*
G01*
G37*
G36*
G01*
X41072500Y-43225000D02*
X41427500Y-43225000D01*
G75*
G02*
X41580000Y-43377500I0J-152500D01*
G01*
X41580000Y-43682500D01*
G75*
G02*
X41427500Y-43835000I-152500J0D01*
G01*
X41072500Y-43835000D01*
G75*
G02*
X40920000Y-43682500I0J152500D01*
G01*
X40920000Y-43377500D01*
G75*
G02*
X41072500Y-43225000I152500J0D01*
G01*
G37*
%TD*%
%TO.C,C13*%
G36*
G01*
X40022500Y-44180000D02*
X40377500Y-44180000D01*
G75*
G02*
X40530000Y-44332500I0J-152500D01*
G01*
X40530000Y-44637500D01*
G75*
G02*
X40377500Y-44790000I-152500J0D01*
G01*
X40022500Y-44790000D01*
G75*
G02*
X39870000Y-44637500I0J152500D01*
G01*
X39870000Y-44332500D01*
G75*
G02*
X40022500Y-44180000I152500J0D01*
G01*
G37*
G36*
G01*
X40022500Y-43210000D02*
X40377500Y-43210000D01*
G75*
G02*
X40530000Y-43362500I0J-152500D01*
G01*
X40530000Y-43667500D01*
G75*
G02*
X40377500Y-43820000I-152500J0D01*
G01*
X40022500Y-43820000D01*
G75*
G02*
X39870000Y-43667500I0J152500D01*
G01*
X39870000Y-43362500D01*
G75*
G02*
X40022500Y-43210000I152500J0D01*
G01*
G37*
%TD*%
%TO.C,C12*%
G36*
G01*
X64082000Y-72212500D02*
X64082000Y-72567500D01*
G75*
G02*
X63929500Y-72720000I-152500J0D01*
G01*
X63624500Y-72720000D01*
G75*
G02*
X63472000Y-72567500I0J152500D01*
G01*
X63472000Y-72212500D01*
G75*
G02*
X63624500Y-72060000I152500J0D01*
G01*
X63929500Y-72060000D01*
G75*
G02*
X64082000Y-72212500I0J-152500D01*
G01*
G37*
G36*
G01*
X65052000Y-72212500D02*
X65052000Y-72567500D01*
G75*
G02*
X64899500Y-72720000I-152500J0D01*
G01*
X64594500Y-72720000D01*
G75*
G02*
X64442000Y-72567500I0J152500D01*
G01*
X64442000Y-72212500D01*
G75*
G02*
X64594500Y-72060000I152500J0D01*
G01*
X64899500Y-72060000D01*
G75*
G02*
X65052000Y-72212500I0J-152500D01*
G01*
G37*
%TD*%
%TO.C,C11*%
G36*
G01*
X64465000Y-69011500D02*
X64465000Y-68656500D01*
G75*
G02*
X64617500Y-68504000I152500J0D01*
G01*
X64922500Y-68504000D01*
G75*
G02*
X65075000Y-68656500I0J-152500D01*
G01*
X65075000Y-69011500D01*
G75*
G02*
X64922500Y-69164000I-152500J0D01*
G01*
X64617500Y-69164000D01*
G75*
G02*
X64465000Y-69011500I0J152500D01*
G01*
G37*
G36*
G01*
X63495000Y-69011500D02*
X63495000Y-68656500D01*
G75*
G02*
X63647500Y-68504000I152500J0D01*
G01*
X63952500Y-68504000D01*
G75*
G02*
X64105000Y-68656500I0J-152500D01*
G01*
X64105000Y-69011500D01*
G75*
G02*
X63952500Y-69164000I-152500J0D01*
G01*
X63647500Y-69164000D01*
G75*
G02*
X63495000Y-69011500I0J152500D01*
G01*
G37*
%TD*%
%TO.C,C10*%
G36*
G01*
X65098000Y-61798500D02*
X65098000Y-62153500D01*
G75*
G02*
X64945500Y-62306000I-152500J0D01*
G01*
X64640500Y-62306000D01*
G75*
G02*
X64488000Y-62153500I0J152500D01*
G01*
X64488000Y-61798500D01*
G75*
G02*
X64640500Y-61646000I152500J0D01*
G01*
X64945500Y-61646000D01*
G75*
G02*
X65098000Y-61798500I0J-152500D01*
G01*
G37*
G36*
G01*
X66068000Y-61798500D02*
X66068000Y-62153500D01*
G75*
G02*
X65915500Y-62306000I-152500J0D01*
G01*
X65610500Y-62306000D01*
G75*
G02*
X65458000Y-62153500I0J152500D01*
G01*
X65458000Y-61798500D01*
G75*
G02*
X65610500Y-61646000I152500J0D01*
G01*
X65915500Y-61646000D01*
G75*
G02*
X66068000Y-61798500I0J-152500D01*
G01*
G37*
%TD*%
%TO.C,C9*%
G36*
G01*
X65458000Y-59613500D02*
X65458000Y-59258500D01*
G75*
G02*
X65610500Y-59106000I152500J0D01*
G01*
X65915500Y-59106000D01*
G75*
G02*
X66068000Y-59258500I0J-152500D01*
G01*
X66068000Y-59613500D01*
G75*
G02*
X65915500Y-59766000I-152500J0D01*
G01*
X65610500Y-59766000D01*
G75*
G02*
X65458000Y-59613500I0J152500D01*
G01*
G37*
G36*
G01*
X64488000Y-59613500D02*
X64488000Y-59258500D01*
G75*
G02*
X64640500Y-59106000I152500J0D01*
G01*
X64945500Y-59106000D01*
G75*
G02*
X65098000Y-59258500I0J-152500D01*
G01*
X65098000Y-59613500D01*
G75*
G02*
X64945500Y-59766000I-152500J0D01*
G01*
X64640500Y-59766000D01*
G75*
G02*
X64488000Y-59613500I0J152500D01*
G01*
G37*
%TD*%
%TO.C,C8*%
G36*
G01*
X70727500Y-64855000D02*
X70372500Y-64855000D01*
G75*
G02*
X70220000Y-64702500I0J152500D01*
G01*
X70220000Y-64397500D01*
G75*
G02*
X70372500Y-64245000I152500J0D01*
G01*
X70727500Y-64245000D01*
G75*
G02*
X70880000Y-64397500I0J-152500D01*
G01*
X70880000Y-64702500D01*
G75*
G02*
X70727500Y-64855000I-152500J0D01*
G01*
G37*
G36*
G01*
X70727500Y-65825000D02*
X70372500Y-65825000D01*
G75*
G02*
X70220000Y-65672500I0J152500D01*
G01*
X70220000Y-65367500D01*
G75*
G02*
X70372500Y-65215000I152500J0D01*
G01*
X70727500Y-65215000D01*
G75*
G02*
X70880000Y-65367500I0J-152500D01*
G01*
X70880000Y-65672500D01*
G75*
G02*
X70727500Y-65825000I-152500J0D01*
G01*
G37*
%TD*%
%TO.C,C7*%
G36*
G01*
X101694350Y-60055400D02*
X102216850Y-60055400D01*
G75*
G02*
X102440600Y-60279150I0J-223750D01*
G01*
X102440600Y-60726650D01*
G75*
G02*
X102216850Y-60950400I-223750J0D01*
G01*
X101694350Y-60950400D01*
G75*
G02*
X101470600Y-60726650I0J223750D01*
G01*
X101470600Y-60279150D01*
G75*
G02*
X101694350Y-60055400I223750J0D01*
G01*
G37*
G36*
G01*
X101694350Y-58480400D02*
X102216850Y-58480400D01*
G75*
G02*
X102440600Y-58704150I0J-223750D01*
G01*
X102440600Y-59151650D01*
G75*
G02*
X102216850Y-59375400I-223750J0D01*
G01*
X101694350Y-59375400D01*
G75*
G02*
X101470600Y-59151650I0J223750D01*
G01*
X101470600Y-58704150D01*
G75*
G02*
X101694350Y-58480400I223750J0D01*
G01*
G37*
%TD*%
%TO.C,C6*%
G36*
G01*
X99142248Y-80030515D02*
X98772785Y-79661051D01*
G75*
G02*
X98772785Y-79344621I158215J158215D01*
G01*
X99089215Y-79028191D01*
G75*
G02*
X99405645Y-79028191I158215J-158215D01*
G01*
X99775109Y-79397655D01*
G75*
G02*
X99775109Y-79714085I-158215J-158215D01*
G01*
X99458679Y-80030515D01*
G75*
G02*
X99142249Y-80030515I-158215J158215D01*
G01*
G37*
G36*
G01*
X98028554Y-81144209D02*
X97659091Y-80774745D01*
G75*
G02*
X97659091Y-80458315I158215J158215D01*
G01*
X97975521Y-80141885D01*
G75*
G02*
X98291951Y-80141885I158215J-158215D01*
G01*
X98661415Y-80511349D01*
G75*
G02*
X98661415Y-80827779I-158215J-158215D01*
G01*
X98344985Y-81144209D01*
G75*
G02*
X98028555Y-81144209I-158215J158215D01*
G01*
G37*
%TD*%
%TO.C,C3*%
G36*
G01*
X73736500Y-95049000D02*
X74091500Y-95049000D01*
G75*
G02*
X74244000Y-95201500I0J-152500D01*
G01*
X74244000Y-95506500D01*
G75*
G02*
X74091500Y-95659000I-152500J0D01*
G01*
X73736500Y-95659000D01*
G75*
G02*
X73584000Y-95506500I0J152500D01*
G01*
X73584000Y-95201500D01*
G75*
G02*
X73736500Y-95049000I152500J0D01*
G01*
G37*
G36*
G01*
X73736500Y-94079000D02*
X74091500Y-94079000D01*
G75*
G02*
X74244000Y-94231500I0J-152500D01*
G01*
X74244000Y-94536500D01*
G75*
G02*
X74091500Y-94689000I-152500J0D01*
G01*
X73736500Y-94689000D01*
G75*
G02*
X73584000Y-94536500I0J152500D01*
G01*
X73584000Y-94231500D01*
G75*
G02*
X73736500Y-94079000I152500J0D01*
G01*
G37*
%TD*%
%TO.C,C2*%
G36*
G01*
X93804400Y-101955300D02*
X93804400Y-101600300D01*
G75*
G02*
X93956900Y-101447800I152500J0D01*
G01*
X94261900Y-101447800D01*
G75*
G02*
X94414400Y-101600300I0J-152500D01*
G01*
X94414400Y-101955300D01*
G75*
G02*
X94261900Y-102107800I-152500J0D01*
G01*
X93956900Y-102107800D01*
G75*
G02*
X93804400Y-101955300I0J152500D01*
G01*
G37*
G36*
G01*
X92834400Y-101955300D02*
X92834400Y-101600300D01*
G75*
G02*
X92986900Y-101447800I152500J0D01*
G01*
X93291900Y-101447800D01*
G75*
G02*
X93444400Y-101600300I0J-152500D01*
G01*
X93444400Y-101955300D01*
G75*
G02*
X93291900Y-102107800I-152500J0D01*
G01*
X92986900Y-102107800D01*
G75*
G02*
X92834400Y-101955300I0J152500D01*
G01*
G37*
%TD*%
%TO.C,C1*%
G36*
G01*
X88864100Y-101993400D02*
X88864100Y-101638400D01*
G75*
G02*
X89016600Y-101485900I152500J0D01*
G01*
X89321600Y-101485900D01*
G75*
G02*
X89474100Y-101638400I0J-152500D01*
G01*
X89474100Y-101993400D01*
G75*
G02*
X89321600Y-102145900I-152500J0D01*
G01*
X89016600Y-102145900D01*
G75*
G02*
X88864100Y-101993400I0J152500D01*
G01*
G37*
G36*
G01*
X87894100Y-101993400D02*
X87894100Y-101638400D01*
G75*
G02*
X88046600Y-101485900I152500J0D01*
G01*
X88351600Y-101485900D01*
G75*
G02*
X88504100Y-101638400I0J-152500D01*
G01*
X88504100Y-101993400D01*
G75*
G02*
X88351600Y-102145900I-152500J0D01*
G01*
X88046600Y-102145900D01*
G75*
G02*
X87894100Y-101993400I0J152500D01*
G01*
G37*
%TD*%
%TO.C,U1*%
G36*
G01*
X75090000Y-55105000D02*
X75090000Y-53745000D01*
G75*
G02*
X75170000Y-53665000I80000J0D01*
G01*
X75330000Y-53665000D01*
G75*
G02*
X75410000Y-53745000I0J-80000D01*
G01*
X75410000Y-55105000D01*
G75*
G02*
X75330000Y-55185000I-80000J0D01*
G01*
X75170000Y-55185000D01*
G75*
G02*
X75090000Y-55105000I0J80000D01*
G01*
G37*
G36*
G01*
X75590000Y-55105000D02*
X75590000Y-53745000D01*
G75*
G02*
X75670000Y-53665000I80000J0D01*
G01*
X75830000Y-53665000D01*
G75*
G02*
X75910000Y-53745000I0J-80000D01*
G01*
X75910000Y-55105000D01*
G75*
G02*
X75830000Y-55185000I-80000J0D01*
G01*
X75670000Y-55185000D01*
G75*
G02*
X75590000Y-55105000I0J80000D01*
G01*
G37*
G36*
G01*
X76090000Y-55105000D02*
X76090000Y-53745000D01*
G75*
G02*
X76170000Y-53665000I80000J0D01*
G01*
X76330000Y-53665000D01*
G75*
G02*
X76410000Y-53745000I0J-80000D01*
G01*
X76410000Y-55105000D01*
G75*
G02*
X76330000Y-55185000I-80000J0D01*
G01*
X76170000Y-55185000D01*
G75*
G02*
X76090000Y-55105000I0J80000D01*
G01*
G37*
G36*
G01*
X76590000Y-55105000D02*
X76590000Y-53745000D01*
G75*
G02*
X76670000Y-53665000I80000J0D01*
G01*
X76830000Y-53665000D01*
G75*
G02*
X76910000Y-53745000I0J-80000D01*
G01*
X76910000Y-55105000D01*
G75*
G02*
X76830000Y-55185000I-80000J0D01*
G01*
X76670000Y-55185000D01*
G75*
G02*
X76590000Y-55105000I0J80000D01*
G01*
G37*
G36*
G01*
X77090000Y-55105000D02*
X77090000Y-53745000D01*
G75*
G02*
X77170000Y-53665000I80000J0D01*
G01*
X77330000Y-53665000D01*
G75*
G02*
X77410000Y-53745000I0J-80000D01*
G01*
X77410000Y-55105000D01*
G75*
G02*
X77330000Y-55185000I-80000J0D01*
G01*
X77170000Y-55185000D01*
G75*
G02*
X77090000Y-55105000I0J80000D01*
G01*
G37*
G36*
G01*
X77590000Y-55105000D02*
X77590000Y-53745000D01*
G75*
G02*
X77670000Y-53665000I80000J0D01*
G01*
X77830000Y-53665000D01*
G75*
G02*
X77910000Y-53745000I0J-80000D01*
G01*
X77910000Y-55105000D01*
G75*
G02*
X77830000Y-55185000I-80000J0D01*
G01*
X77670000Y-55185000D01*
G75*
G02*
X77590000Y-55105000I0J80000D01*
G01*
G37*
G36*
G01*
X78090000Y-55105000D02*
X78090000Y-53745000D01*
G75*
G02*
X78170000Y-53665000I80000J0D01*
G01*
X78330000Y-53665000D01*
G75*
G02*
X78410000Y-53745000I0J-80000D01*
G01*
X78410000Y-55105000D01*
G75*
G02*
X78330000Y-55185000I-80000J0D01*
G01*
X78170000Y-55185000D01*
G75*
G02*
X78090000Y-55105000I0J80000D01*
G01*
G37*
G36*
G01*
X78590000Y-55105000D02*
X78590000Y-53745000D01*
G75*
G02*
X78670000Y-53665000I80000J0D01*
G01*
X78830000Y-53665000D01*
G75*
G02*
X78910000Y-53745000I0J-80000D01*
G01*
X78910000Y-55105000D01*
G75*
G02*
X78830000Y-55185000I-80000J0D01*
G01*
X78670000Y-55185000D01*
G75*
G02*
X78590000Y-55105000I0J80000D01*
G01*
G37*
G36*
G01*
X79090000Y-55105000D02*
X79090000Y-53745000D01*
G75*
G02*
X79170000Y-53665000I80000J0D01*
G01*
X79330000Y-53665000D01*
G75*
G02*
X79410000Y-53745000I0J-80000D01*
G01*
X79410000Y-55105000D01*
G75*
G02*
X79330000Y-55185000I-80000J0D01*
G01*
X79170000Y-55185000D01*
G75*
G02*
X79090000Y-55105000I0J80000D01*
G01*
G37*
G36*
G01*
X79590000Y-55105000D02*
X79590000Y-53745000D01*
G75*
G02*
X79670000Y-53665000I80000J0D01*
G01*
X79830000Y-53665000D01*
G75*
G02*
X79910000Y-53745000I0J-80000D01*
G01*
X79910000Y-55105000D01*
G75*
G02*
X79830000Y-55185000I-80000J0D01*
G01*
X79670000Y-55185000D01*
G75*
G02*
X79590000Y-55105000I0J80000D01*
G01*
G37*
G36*
G01*
X80090000Y-55105000D02*
X80090000Y-53745000D01*
G75*
G02*
X80170000Y-53665000I80000J0D01*
G01*
X80330000Y-53665000D01*
G75*
G02*
X80410000Y-53745000I0J-80000D01*
G01*
X80410000Y-55105000D01*
G75*
G02*
X80330000Y-55185000I-80000J0D01*
G01*
X80170000Y-55185000D01*
G75*
G02*
X80090000Y-55105000I0J80000D01*
G01*
G37*
G36*
G01*
X80590000Y-55105000D02*
X80590000Y-53745000D01*
G75*
G02*
X80670000Y-53665000I80000J0D01*
G01*
X80830000Y-53665000D01*
G75*
G02*
X80910000Y-53745000I0J-80000D01*
G01*
X80910000Y-55105000D01*
G75*
G02*
X80830000Y-55185000I-80000J0D01*
G01*
X80670000Y-55185000D01*
G75*
G02*
X80590000Y-55105000I0J80000D01*
G01*
G37*
G36*
G01*
X81090000Y-55105000D02*
X81090000Y-53745000D01*
G75*
G02*
X81170000Y-53665000I80000J0D01*
G01*
X81330000Y-53665000D01*
G75*
G02*
X81410000Y-53745000I0J-80000D01*
G01*
X81410000Y-55105000D01*
G75*
G02*
X81330000Y-55185000I-80000J0D01*
G01*
X81170000Y-55185000D01*
G75*
G02*
X81090000Y-55105000I0J80000D01*
G01*
G37*
G36*
G01*
X81590000Y-55105000D02*
X81590000Y-53745000D01*
G75*
G02*
X81670000Y-53665000I80000J0D01*
G01*
X81830000Y-53665000D01*
G75*
G02*
X81910000Y-53745000I0J-80000D01*
G01*
X81910000Y-55105000D01*
G75*
G02*
X81830000Y-55185000I-80000J0D01*
G01*
X81670000Y-55185000D01*
G75*
G02*
X81590000Y-55105000I0J80000D01*
G01*
G37*
G36*
G01*
X82090000Y-55105000D02*
X82090000Y-53745000D01*
G75*
G02*
X82170000Y-53665000I80000J0D01*
G01*
X82330000Y-53665000D01*
G75*
G02*
X82410000Y-53745000I0J-80000D01*
G01*
X82410000Y-55105000D01*
G75*
G02*
X82330000Y-55185000I-80000J0D01*
G01*
X82170000Y-55185000D01*
G75*
G02*
X82090000Y-55105000I0J80000D01*
G01*
G37*
G36*
G01*
X82590000Y-55105000D02*
X82590000Y-53745000D01*
G75*
G02*
X82670000Y-53665000I80000J0D01*
G01*
X82830000Y-53665000D01*
G75*
G02*
X82910000Y-53745000I0J-80000D01*
G01*
X82910000Y-55105000D01*
G75*
G02*
X82830000Y-55185000I-80000J0D01*
G01*
X82670000Y-55185000D01*
G75*
G02*
X82590000Y-55105000I0J80000D01*
G01*
G37*
G36*
G01*
X83090000Y-55105000D02*
X83090000Y-53745000D01*
G75*
G02*
X83170000Y-53665000I80000J0D01*
G01*
X83330000Y-53665000D01*
G75*
G02*
X83410000Y-53745000I0J-80000D01*
G01*
X83410000Y-55105000D01*
G75*
G02*
X83330000Y-55185000I-80000J0D01*
G01*
X83170000Y-55185000D01*
G75*
G02*
X83090000Y-55105000I0J80000D01*
G01*
G37*
G36*
G01*
X83590000Y-55105000D02*
X83590000Y-53745000D01*
G75*
G02*
X83670000Y-53665000I80000J0D01*
G01*
X83830000Y-53665000D01*
G75*
G02*
X83910000Y-53745000I0J-80000D01*
G01*
X83910000Y-55105000D01*
G75*
G02*
X83830000Y-55185000I-80000J0D01*
G01*
X83670000Y-55185000D01*
G75*
G02*
X83590000Y-55105000I0J80000D01*
G01*
G37*
G36*
G01*
X84090000Y-55105000D02*
X84090000Y-53745000D01*
G75*
G02*
X84170000Y-53665000I80000J0D01*
G01*
X84330000Y-53665000D01*
G75*
G02*
X84410000Y-53745000I0J-80000D01*
G01*
X84410000Y-55105000D01*
G75*
G02*
X84330000Y-55185000I-80000J0D01*
G01*
X84170000Y-55185000D01*
G75*
G02*
X84090000Y-55105000I0J80000D01*
G01*
G37*
G36*
G01*
X84590000Y-55105000D02*
X84590000Y-53745000D01*
G75*
G02*
X84670000Y-53665000I80000J0D01*
G01*
X84830000Y-53665000D01*
G75*
G02*
X84910000Y-53745000I0J-80000D01*
G01*
X84910000Y-55105000D01*
G75*
G02*
X84830000Y-55185000I-80000J0D01*
G01*
X84670000Y-55185000D01*
G75*
G02*
X84590000Y-55105000I0J80000D01*
G01*
G37*
G36*
G01*
X85090000Y-55105000D02*
X85090000Y-53745000D01*
G75*
G02*
X85170000Y-53665000I80000J0D01*
G01*
X85330000Y-53665000D01*
G75*
G02*
X85410000Y-53745000I0J-80000D01*
G01*
X85410000Y-55105000D01*
G75*
G02*
X85330000Y-55185000I-80000J0D01*
G01*
X85170000Y-55185000D01*
G75*
G02*
X85090000Y-55105000I0J80000D01*
G01*
G37*
G36*
G01*
X85590000Y-55105000D02*
X85590000Y-53745000D01*
G75*
G02*
X85670000Y-53665000I80000J0D01*
G01*
X85830000Y-53665000D01*
G75*
G02*
X85910000Y-53745000I0J-80000D01*
G01*
X85910000Y-55105000D01*
G75*
G02*
X85830000Y-55185000I-80000J0D01*
G01*
X85670000Y-55185000D01*
G75*
G02*
X85590000Y-55105000I0J80000D01*
G01*
G37*
G36*
G01*
X86090000Y-55105000D02*
X86090000Y-53745000D01*
G75*
G02*
X86170000Y-53665000I80000J0D01*
G01*
X86330000Y-53665000D01*
G75*
G02*
X86410000Y-53745000I0J-80000D01*
G01*
X86410000Y-55105000D01*
G75*
G02*
X86330000Y-55185000I-80000J0D01*
G01*
X86170000Y-55185000D01*
G75*
G02*
X86090000Y-55105000I0J80000D01*
G01*
G37*
G36*
G01*
X86590000Y-55105000D02*
X86590000Y-53745000D01*
G75*
G02*
X86670000Y-53665000I80000J0D01*
G01*
X86830000Y-53665000D01*
G75*
G02*
X86910000Y-53745000I0J-80000D01*
G01*
X86910000Y-55105000D01*
G75*
G02*
X86830000Y-55185000I-80000J0D01*
G01*
X86670000Y-55185000D01*
G75*
G02*
X86590000Y-55105000I0J80000D01*
G01*
G37*
G36*
G01*
X87090000Y-55105000D02*
X87090000Y-53745000D01*
G75*
G02*
X87170000Y-53665000I80000J0D01*
G01*
X87330000Y-53665000D01*
G75*
G02*
X87410000Y-53745000I0J-80000D01*
G01*
X87410000Y-55105000D01*
G75*
G02*
X87330000Y-55185000I-80000J0D01*
G01*
X87170000Y-55185000D01*
G75*
G02*
X87090000Y-55105000I0J80000D01*
G01*
G37*
G36*
G01*
X87590000Y-55105000D02*
X87590000Y-53745000D01*
G75*
G02*
X87670000Y-53665000I80000J0D01*
G01*
X87830000Y-53665000D01*
G75*
G02*
X87910000Y-53745000I0J-80000D01*
G01*
X87910000Y-55105000D01*
G75*
G02*
X87830000Y-55185000I-80000J0D01*
G01*
X87670000Y-55185000D01*
G75*
G02*
X87590000Y-55105000I0J80000D01*
G01*
G37*
G36*
G01*
X88090000Y-55105000D02*
X88090000Y-53745000D01*
G75*
G02*
X88170000Y-53665000I80000J0D01*
G01*
X88330000Y-53665000D01*
G75*
G02*
X88410000Y-53745000I0J-80000D01*
G01*
X88410000Y-55105000D01*
G75*
G02*
X88330000Y-55185000I-80000J0D01*
G01*
X88170000Y-55185000D01*
G75*
G02*
X88090000Y-55105000I0J80000D01*
G01*
G37*
G36*
G01*
X88590000Y-55105000D02*
X88590000Y-53745000D01*
G75*
G02*
X88670000Y-53665000I80000J0D01*
G01*
X88830000Y-53665000D01*
G75*
G02*
X88910000Y-53745000I0J-80000D01*
G01*
X88910000Y-55105000D01*
G75*
G02*
X88830000Y-55185000I-80000J0D01*
G01*
X88670000Y-55185000D01*
G75*
G02*
X88590000Y-55105000I0J80000D01*
G01*
G37*
G36*
G01*
X89090000Y-55105000D02*
X89090000Y-53745000D01*
G75*
G02*
X89170000Y-53665000I80000J0D01*
G01*
X89330000Y-53665000D01*
G75*
G02*
X89410000Y-53745000I0J-80000D01*
G01*
X89410000Y-55105000D01*
G75*
G02*
X89330000Y-55185000I-80000J0D01*
G01*
X89170000Y-55185000D01*
G75*
G02*
X89090000Y-55105000I0J80000D01*
G01*
G37*
G36*
G01*
X89590000Y-55105000D02*
X89590000Y-53745000D01*
G75*
G02*
X89670000Y-53665000I80000J0D01*
G01*
X89830000Y-53665000D01*
G75*
G02*
X89910000Y-53745000I0J-80000D01*
G01*
X89910000Y-55105000D01*
G75*
G02*
X89830000Y-55185000I-80000J0D01*
G01*
X89670000Y-55185000D01*
G75*
G02*
X89590000Y-55105000I0J80000D01*
G01*
G37*
G36*
G01*
X90090000Y-55105000D02*
X90090000Y-53745000D01*
G75*
G02*
X90170000Y-53665000I80000J0D01*
G01*
X90330000Y-53665000D01*
G75*
G02*
X90410000Y-53745000I0J-80000D01*
G01*
X90410000Y-55105000D01*
G75*
G02*
X90330000Y-55185000I-80000J0D01*
G01*
X90170000Y-55185000D01*
G75*
G02*
X90090000Y-55105000I0J80000D01*
G01*
G37*
G36*
G01*
X90590000Y-55105000D02*
X90590000Y-53745000D01*
G75*
G02*
X90670000Y-53665000I80000J0D01*
G01*
X90830000Y-53665000D01*
G75*
G02*
X90910000Y-53745000I0J-80000D01*
G01*
X90910000Y-55105000D01*
G75*
G02*
X90830000Y-55185000I-80000J0D01*
G01*
X90670000Y-55185000D01*
G75*
G02*
X90590000Y-55105000I0J80000D01*
G01*
G37*
G36*
G01*
X91090000Y-55105000D02*
X91090000Y-53745000D01*
G75*
G02*
X91170000Y-53665000I80000J0D01*
G01*
X91330000Y-53665000D01*
G75*
G02*
X91410000Y-53745000I0J-80000D01*
G01*
X91410000Y-55105000D01*
G75*
G02*
X91330000Y-55185000I-80000J0D01*
G01*
X91170000Y-55185000D01*
G75*
G02*
X91090000Y-55105000I0J80000D01*
G01*
G37*
G36*
G01*
X91590000Y-55105000D02*
X91590000Y-53745000D01*
G75*
G02*
X91670000Y-53665000I80000J0D01*
G01*
X91830000Y-53665000D01*
G75*
G02*
X91910000Y-53745000I0J-80000D01*
G01*
X91910000Y-55105000D01*
G75*
G02*
X91830000Y-55185000I-80000J0D01*
G01*
X91670000Y-55185000D01*
G75*
G02*
X91590000Y-55105000I0J80000D01*
G01*
G37*
G36*
G01*
X92090000Y-55105000D02*
X92090000Y-53745000D01*
G75*
G02*
X92170000Y-53665000I80000J0D01*
G01*
X92330000Y-53665000D01*
G75*
G02*
X92410000Y-53745000I0J-80000D01*
G01*
X92410000Y-55105000D01*
G75*
G02*
X92330000Y-55185000I-80000J0D01*
G01*
X92170000Y-55185000D01*
G75*
G02*
X92090000Y-55105000I0J80000D01*
G01*
G37*
G36*
G01*
X92590000Y-55105000D02*
X92590000Y-53745000D01*
G75*
G02*
X92670000Y-53665000I80000J0D01*
G01*
X92830000Y-53665000D01*
G75*
G02*
X92910000Y-53745000I0J-80000D01*
G01*
X92910000Y-55105000D01*
G75*
G02*
X92830000Y-55185000I-80000J0D01*
G01*
X92670000Y-55185000D01*
G75*
G02*
X92590000Y-55105000I0J80000D01*
G01*
G37*
G36*
G01*
X93090000Y-55105000D02*
X93090000Y-53745000D01*
G75*
G02*
X93170000Y-53665000I80000J0D01*
G01*
X93330000Y-53665000D01*
G75*
G02*
X93410000Y-53745000I0J-80000D01*
G01*
X93410000Y-55105000D01*
G75*
G02*
X93330000Y-55185000I-80000J0D01*
G01*
X93170000Y-55185000D01*
G75*
G02*
X93090000Y-55105000I0J80000D01*
G01*
G37*
G36*
G01*
X93590000Y-55105000D02*
X93590000Y-53745000D01*
G75*
G02*
X93670000Y-53665000I80000J0D01*
G01*
X93830000Y-53665000D01*
G75*
G02*
X93910000Y-53745000I0J-80000D01*
G01*
X93910000Y-55105000D01*
G75*
G02*
X93830000Y-55185000I-80000J0D01*
G01*
X93670000Y-55185000D01*
G75*
G02*
X93590000Y-55105000I0J80000D01*
G01*
G37*
G36*
G01*
X94090000Y-55105000D02*
X94090000Y-53745000D01*
G75*
G02*
X94170000Y-53665000I80000J0D01*
G01*
X94330000Y-53665000D01*
G75*
G02*
X94410000Y-53745000I0J-80000D01*
G01*
X94410000Y-55105000D01*
G75*
G02*
X94330000Y-55185000I-80000J0D01*
G01*
X94170000Y-55185000D01*
G75*
G02*
X94090000Y-55105000I0J80000D01*
G01*
G37*
G36*
G01*
X94590000Y-55105000D02*
X94590000Y-53745000D01*
G75*
G02*
X94670000Y-53665000I80000J0D01*
G01*
X94830000Y-53665000D01*
G75*
G02*
X94910000Y-53745000I0J-80000D01*
G01*
X94910000Y-55105000D01*
G75*
G02*
X94830000Y-55185000I-80000J0D01*
G01*
X94670000Y-55185000D01*
G75*
G02*
X94590000Y-55105000I0J80000D01*
G01*
G37*
G36*
G01*
X95090000Y-55105000D02*
X95090000Y-53745000D01*
G75*
G02*
X95170000Y-53665000I80000J0D01*
G01*
X95330000Y-53665000D01*
G75*
G02*
X95410000Y-53745000I0J-80000D01*
G01*
X95410000Y-55105000D01*
G75*
G02*
X95330000Y-55185000I-80000J0D01*
G01*
X95170000Y-55185000D01*
G75*
G02*
X95090000Y-55105000I0J80000D01*
G01*
G37*
G36*
G01*
X95590000Y-55105000D02*
X95590000Y-53745000D01*
G75*
G02*
X95670000Y-53665000I80000J0D01*
G01*
X95830000Y-53665000D01*
G75*
G02*
X95910000Y-53745000I0J-80000D01*
G01*
X95910000Y-55105000D01*
G75*
G02*
X95830000Y-55185000I-80000J0D01*
G01*
X95670000Y-55185000D01*
G75*
G02*
X95590000Y-55105000I0J80000D01*
G01*
G37*
G36*
G01*
X96090000Y-55105000D02*
X96090000Y-53745000D01*
G75*
G02*
X96170000Y-53665000I80000J0D01*
G01*
X96330000Y-53665000D01*
G75*
G02*
X96410000Y-53745000I0J-80000D01*
G01*
X96410000Y-55105000D01*
G75*
G02*
X96330000Y-55185000I-80000J0D01*
G01*
X96170000Y-55185000D01*
G75*
G02*
X96090000Y-55105000I0J80000D01*
G01*
G37*
G36*
G01*
X96590000Y-55105000D02*
X96590000Y-53745000D01*
G75*
G02*
X96670000Y-53665000I80000J0D01*
G01*
X96830000Y-53665000D01*
G75*
G02*
X96910000Y-53745000I0J-80000D01*
G01*
X96910000Y-55105000D01*
G75*
G02*
X96830000Y-55185000I-80000J0D01*
G01*
X96670000Y-55185000D01*
G75*
G02*
X96590000Y-55105000I0J80000D01*
G01*
G37*
G36*
G01*
X97915000Y-56430000D02*
X97915000Y-56270000D01*
G75*
G02*
X97995000Y-56190000I80000J0D01*
G01*
X99355000Y-56190000D01*
G75*
G02*
X99435000Y-56270000I0J-80000D01*
G01*
X99435000Y-56430000D01*
G75*
G02*
X99355000Y-56510000I-80000J0D01*
G01*
X97995000Y-56510000D01*
G75*
G02*
X97915000Y-56430000I0J80000D01*
G01*
G37*
G36*
G01*
X97915000Y-56930000D02*
X97915000Y-56770000D01*
G75*
G02*
X97995000Y-56690000I80000J0D01*
G01*
X99355000Y-56690000D01*
G75*
G02*
X99435000Y-56770000I0J-80000D01*
G01*
X99435000Y-56930000D01*
G75*
G02*
X99355000Y-57010000I-80000J0D01*
G01*
X97995000Y-57010000D01*
G75*
G02*
X97915000Y-56930000I0J80000D01*
G01*
G37*
G36*
G01*
X97915000Y-57430000D02*
X97915000Y-57270000D01*
G75*
G02*
X97995000Y-57190000I80000J0D01*
G01*
X99355000Y-57190000D01*
G75*
G02*
X99435000Y-57270000I0J-80000D01*
G01*
X99435000Y-57430000D01*
G75*
G02*
X99355000Y-57510000I-80000J0D01*
G01*
X97995000Y-57510000D01*
G75*
G02*
X97915000Y-57430000I0J80000D01*
G01*
G37*
G36*
G01*
X97915000Y-57930000D02*
X97915000Y-57770000D01*
G75*
G02*
X97995000Y-57690000I80000J0D01*
G01*
X99355000Y-57690000D01*
G75*
G02*
X99435000Y-57770000I0J-80000D01*
G01*
X99435000Y-57930000D01*
G75*
G02*
X99355000Y-58010000I-80000J0D01*
G01*
X97995000Y-58010000D01*
G75*
G02*
X97915000Y-57930000I0J80000D01*
G01*
G37*
G36*
G01*
X97915000Y-58430000D02*
X97915000Y-58270000D01*
G75*
G02*
X97995000Y-58190000I80000J0D01*
G01*
X99355000Y-58190000D01*
G75*
G02*
X99435000Y-58270000I0J-80000D01*
G01*
X99435000Y-58430000D01*
G75*
G02*
X99355000Y-58510000I-80000J0D01*
G01*
X97995000Y-58510000D01*
G75*
G02*
X97915000Y-58430000I0J80000D01*
G01*
G37*
G36*
G01*
X97915000Y-58930000D02*
X97915000Y-58770000D01*
G75*
G02*
X97995000Y-58690000I80000J0D01*
G01*
X99355000Y-58690000D01*
G75*
G02*
X99435000Y-58770000I0J-80000D01*
G01*
X99435000Y-58930000D01*
G75*
G02*
X99355000Y-59010000I-80000J0D01*
G01*
X97995000Y-59010000D01*
G75*
G02*
X97915000Y-58930000I0J80000D01*
G01*
G37*
G36*
G01*
X97915000Y-59430000D02*
X97915000Y-59270000D01*
G75*
G02*
X97995000Y-59190000I80000J0D01*
G01*
X99355000Y-59190000D01*
G75*
G02*
X99435000Y-59270000I0J-80000D01*
G01*
X99435000Y-59430000D01*
G75*
G02*
X99355000Y-59510000I-80000J0D01*
G01*
X97995000Y-59510000D01*
G75*
G02*
X97915000Y-59430000I0J80000D01*
G01*
G37*
G36*
G01*
X97915000Y-59930000D02*
X97915000Y-59770000D01*
G75*
G02*
X97995000Y-59690000I80000J0D01*
G01*
X99355000Y-59690000D01*
G75*
G02*
X99435000Y-59770000I0J-80000D01*
G01*
X99435000Y-59930000D01*
G75*
G02*
X99355000Y-60010000I-80000J0D01*
G01*
X97995000Y-60010000D01*
G75*
G02*
X97915000Y-59930000I0J80000D01*
G01*
G37*
G36*
G01*
X97915000Y-60430000D02*
X97915000Y-60270000D01*
G75*
G02*
X97995000Y-60190000I80000J0D01*
G01*
X99355000Y-60190000D01*
G75*
G02*
X99435000Y-60270000I0J-80000D01*
G01*
X99435000Y-60430000D01*
G75*
G02*
X99355000Y-60510000I-80000J0D01*
G01*
X97995000Y-60510000D01*
G75*
G02*
X97915000Y-60430000I0J80000D01*
G01*
G37*
G36*
G01*
X97915000Y-60930000D02*
X97915000Y-60770000D01*
G75*
G02*
X97995000Y-60690000I80000J0D01*
G01*
X99355000Y-60690000D01*
G75*
G02*
X99435000Y-60770000I0J-80000D01*
G01*
X99435000Y-60930000D01*
G75*
G02*
X99355000Y-61010000I-80000J0D01*
G01*
X97995000Y-61010000D01*
G75*
G02*
X97915000Y-60930000I0J80000D01*
G01*
G37*
G36*
G01*
X97915000Y-61430000D02*
X97915000Y-61270000D01*
G75*
G02*
X97995000Y-61190000I80000J0D01*
G01*
X99355000Y-61190000D01*
G75*
G02*
X99435000Y-61270000I0J-80000D01*
G01*
X99435000Y-61430000D01*
G75*
G02*
X99355000Y-61510000I-80000J0D01*
G01*
X97995000Y-61510000D01*
G75*
G02*
X97915000Y-61430000I0J80000D01*
G01*
G37*
G36*
G01*
X97915000Y-61930000D02*
X97915000Y-61770000D01*
G75*
G02*
X97995000Y-61690000I80000J0D01*
G01*
X99355000Y-61690000D01*
G75*
G02*
X99435000Y-61770000I0J-80000D01*
G01*
X99435000Y-61930000D01*
G75*
G02*
X99355000Y-62010000I-80000J0D01*
G01*
X97995000Y-62010000D01*
G75*
G02*
X97915000Y-61930000I0J80000D01*
G01*
G37*
G36*
G01*
X97915000Y-62430000D02*
X97915000Y-62270000D01*
G75*
G02*
X97995000Y-62190000I80000J0D01*
G01*
X99355000Y-62190000D01*
G75*
G02*
X99435000Y-62270000I0J-80000D01*
G01*
X99435000Y-62430000D01*
G75*
G02*
X99355000Y-62510000I-80000J0D01*
G01*
X97995000Y-62510000D01*
G75*
G02*
X97915000Y-62430000I0J80000D01*
G01*
G37*
G36*
G01*
X97915000Y-62930000D02*
X97915000Y-62770000D01*
G75*
G02*
X97995000Y-62690000I80000J0D01*
G01*
X99355000Y-62690000D01*
G75*
G02*
X99435000Y-62770000I0J-80000D01*
G01*
X99435000Y-62930000D01*
G75*
G02*
X99355000Y-63010000I-80000J0D01*
G01*
X97995000Y-63010000D01*
G75*
G02*
X97915000Y-62930000I0J80000D01*
G01*
G37*
G36*
G01*
X97915000Y-63430000D02*
X97915000Y-63270000D01*
G75*
G02*
X97995000Y-63190000I80000J0D01*
G01*
X99355000Y-63190000D01*
G75*
G02*
X99435000Y-63270000I0J-80000D01*
G01*
X99435000Y-63430000D01*
G75*
G02*
X99355000Y-63510000I-80000J0D01*
G01*
X97995000Y-63510000D01*
G75*
G02*
X97915000Y-63430000I0J80000D01*
G01*
G37*
G36*
G01*
X97915000Y-63930000D02*
X97915000Y-63770000D01*
G75*
G02*
X97995000Y-63690000I80000J0D01*
G01*
X99355000Y-63690000D01*
G75*
G02*
X99435000Y-63770000I0J-80000D01*
G01*
X99435000Y-63930000D01*
G75*
G02*
X99355000Y-64010000I-80000J0D01*
G01*
X97995000Y-64010000D01*
G75*
G02*
X97915000Y-63930000I0J80000D01*
G01*
G37*
G36*
G01*
X97915000Y-64430000D02*
X97915000Y-64270000D01*
G75*
G02*
X97995000Y-64190000I80000J0D01*
G01*
X99355000Y-64190000D01*
G75*
G02*
X99435000Y-64270000I0J-80000D01*
G01*
X99435000Y-64430000D01*
G75*
G02*
X99355000Y-64510000I-80000J0D01*
G01*
X97995000Y-64510000D01*
G75*
G02*
X97915000Y-64430000I0J80000D01*
G01*
G37*
G36*
G01*
X97915000Y-64930000D02*
X97915000Y-64770000D01*
G75*
G02*
X97995000Y-64690000I80000J0D01*
G01*
X99355000Y-64690000D01*
G75*
G02*
X99435000Y-64770000I0J-80000D01*
G01*
X99435000Y-64930000D01*
G75*
G02*
X99355000Y-65010000I-80000J0D01*
G01*
X97995000Y-65010000D01*
G75*
G02*
X97915000Y-64930000I0J80000D01*
G01*
G37*
G36*
G01*
X97915000Y-65430000D02*
X97915000Y-65270000D01*
G75*
G02*
X97995000Y-65190000I80000J0D01*
G01*
X99355000Y-65190000D01*
G75*
G02*
X99435000Y-65270000I0J-80000D01*
G01*
X99435000Y-65430000D01*
G75*
G02*
X99355000Y-65510000I-80000J0D01*
G01*
X97995000Y-65510000D01*
G75*
G02*
X97915000Y-65430000I0J80000D01*
G01*
G37*
G36*
G01*
X97915000Y-65930000D02*
X97915000Y-65770000D01*
G75*
G02*
X97995000Y-65690000I80000J0D01*
G01*
X99355000Y-65690000D01*
G75*
G02*
X99435000Y-65770000I0J-80000D01*
G01*
X99435000Y-65930000D01*
G75*
G02*
X99355000Y-66010000I-80000J0D01*
G01*
X97995000Y-66010000D01*
G75*
G02*
X97915000Y-65930000I0J80000D01*
G01*
G37*
G36*
G01*
X97915000Y-66430000D02*
X97915000Y-66270000D01*
G75*
G02*
X97995000Y-66190000I80000J0D01*
G01*
X99355000Y-66190000D01*
G75*
G02*
X99435000Y-66270000I0J-80000D01*
G01*
X99435000Y-66430000D01*
G75*
G02*
X99355000Y-66510000I-80000J0D01*
G01*
X97995000Y-66510000D01*
G75*
G02*
X97915000Y-66430000I0J80000D01*
G01*
G37*
G36*
G01*
X97915000Y-66930000D02*
X97915000Y-66770000D01*
G75*
G02*
X97995000Y-66690000I80000J0D01*
G01*
X99355000Y-66690000D01*
G75*
G02*
X99435000Y-66770000I0J-80000D01*
G01*
X99435000Y-66930000D01*
G75*
G02*
X99355000Y-67010000I-80000J0D01*
G01*
X97995000Y-67010000D01*
G75*
G02*
X97915000Y-66930000I0J80000D01*
G01*
G37*
G36*
G01*
X97915000Y-67430000D02*
X97915000Y-67270000D01*
G75*
G02*
X97995000Y-67190000I80000J0D01*
G01*
X99355000Y-67190000D01*
G75*
G02*
X99435000Y-67270000I0J-80000D01*
G01*
X99435000Y-67430000D01*
G75*
G02*
X99355000Y-67510000I-80000J0D01*
G01*
X97995000Y-67510000D01*
G75*
G02*
X97915000Y-67430000I0J80000D01*
G01*
G37*
G36*
G01*
X97915000Y-67930000D02*
X97915000Y-67770000D01*
G75*
G02*
X97995000Y-67690000I80000J0D01*
G01*
X99355000Y-67690000D01*
G75*
G02*
X99435000Y-67770000I0J-80000D01*
G01*
X99435000Y-67930000D01*
G75*
G02*
X99355000Y-68010000I-80000J0D01*
G01*
X97995000Y-68010000D01*
G75*
G02*
X97915000Y-67930000I0J80000D01*
G01*
G37*
G36*
G01*
X97915000Y-68430000D02*
X97915000Y-68270000D01*
G75*
G02*
X97995000Y-68190000I80000J0D01*
G01*
X99355000Y-68190000D01*
G75*
G02*
X99435000Y-68270000I0J-80000D01*
G01*
X99435000Y-68430000D01*
G75*
G02*
X99355000Y-68510000I-80000J0D01*
G01*
X97995000Y-68510000D01*
G75*
G02*
X97915000Y-68430000I0J80000D01*
G01*
G37*
G36*
G01*
X97915000Y-68930000D02*
X97915000Y-68770000D01*
G75*
G02*
X97995000Y-68690000I80000J0D01*
G01*
X99355000Y-68690000D01*
G75*
G02*
X99435000Y-68770000I0J-80000D01*
G01*
X99435000Y-68930000D01*
G75*
G02*
X99355000Y-69010000I-80000J0D01*
G01*
X97995000Y-69010000D01*
G75*
G02*
X97915000Y-68930000I0J80000D01*
G01*
G37*
G36*
G01*
X97915000Y-69430000D02*
X97915000Y-69270000D01*
G75*
G02*
X97995000Y-69190000I80000J0D01*
G01*
X99355000Y-69190000D01*
G75*
G02*
X99435000Y-69270000I0J-80000D01*
G01*
X99435000Y-69430000D01*
G75*
G02*
X99355000Y-69510000I-80000J0D01*
G01*
X97995000Y-69510000D01*
G75*
G02*
X97915000Y-69430000I0J80000D01*
G01*
G37*
G36*
G01*
X97915000Y-69930000D02*
X97915000Y-69770000D01*
G75*
G02*
X97995000Y-69690000I80000J0D01*
G01*
X99355000Y-69690000D01*
G75*
G02*
X99435000Y-69770000I0J-80000D01*
G01*
X99435000Y-69930000D01*
G75*
G02*
X99355000Y-70010000I-80000J0D01*
G01*
X97995000Y-70010000D01*
G75*
G02*
X97915000Y-69930000I0J80000D01*
G01*
G37*
G36*
G01*
X97915000Y-70430000D02*
X97915000Y-70270000D01*
G75*
G02*
X97995000Y-70190000I80000J0D01*
G01*
X99355000Y-70190000D01*
G75*
G02*
X99435000Y-70270000I0J-80000D01*
G01*
X99435000Y-70430000D01*
G75*
G02*
X99355000Y-70510000I-80000J0D01*
G01*
X97995000Y-70510000D01*
G75*
G02*
X97915000Y-70430000I0J80000D01*
G01*
G37*
G36*
G01*
X97915000Y-70930000D02*
X97915000Y-70770000D01*
G75*
G02*
X97995000Y-70690000I80000J0D01*
G01*
X99355000Y-70690000D01*
G75*
G02*
X99435000Y-70770000I0J-80000D01*
G01*
X99435000Y-70930000D01*
G75*
G02*
X99355000Y-71010000I-80000J0D01*
G01*
X97995000Y-71010000D01*
G75*
G02*
X97915000Y-70930000I0J80000D01*
G01*
G37*
G36*
G01*
X97915000Y-71430000D02*
X97915000Y-71270000D01*
G75*
G02*
X97995000Y-71190000I80000J0D01*
G01*
X99355000Y-71190000D01*
G75*
G02*
X99435000Y-71270000I0J-80000D01*
G01*
X99435000Y-71430000D01*
G75*
G02*
X99355000Y-71510000I-80000J0D01*
G01*
X97995000Y-71510000D01*
G75*
G02*
X97915000Y-71430000I0J80000D01*
G01*
G37*
G36*
G01*
X97915000Y-71930000D02*
X97915000Y-71770000D01*
G75*
G02*
X97995000Y-71690000I80000J0D01*
G01*
X99355000Y-71690000D01*
G75*
G02*
X99435000Y-71770000I0J-80000D01*
G01*
X99435000Y-71930000D01*
G75*
G02*
X99355000Y-72010000I-80000J0D01*
G01*
X97995000Y-72010000D01*
G75*
G02*
X97915000Y-71930000I0J80000D01*
G01*
G37*
G36*
G01*
X97915000Y-72430000D02*
X97915000Y-72270000D01*
G75*
G02*
X97995000Y-72190000I80000J0D01*
G01*
X99355000Y-72190000D01*
G75*
G02*
X99435000Y-72270000I0J-80000D01*
G01*
X99435000Y-72430000D01*
G75*
G02*
X99355000Y-72510000I-80000J0D01*
G01*
X97995000Y-72510000D01*
G75*
G02*
X97915000Y-72430000I0J80000D01*
G01*
G37*
G36*
G01*
X97915000Y-72930000D02*
X97915000Y-72770000D01*
G75*
G02*
X97995000Y-72690000I80000J0D01*
G01*
X99355000Y-72690000D01*
G75*
G02*
X99435000Y-72770000I0J-80000D01*
G01*
X99435000Y-72930000D01*
G75*
G02*
X99355000Y-73010000I-80000J0D01*
G01*
X97995000Y-73010000D01*
G75*
G02*
X97915000Y-72930000I0J80000D01*
G01*
G37*
G36*
G01*
X97915000Y-73430000D02*
X97915000Y-73270000D01*
G75*
G02*
X97995000Y-73190000I80000J0D01*
G01*
X99355000Y-73190000D01*
G75*
G02*
X99435000Y-73270000I0J-80000D01*
G01*
X99435000Y-73430000D01*
G75*
G02*
X99355000Y-73510000I-80000J0D01*
G01*
X97995000Y-73510000D01*
G75*
G02*
X97915000Y-73430000I0J80000D01*
G01*
G37*
G36*
G01*
X97915000Y-73930000D02*
X97915000Y-73770000D01*
G75*
G02*
X97995000Y-73690000I80000J0D01*
G01*
X99355000Y-73690000D01*
G75*
G02*
X99435000Y-73770000I0J-80000D01*
G01*
X99435000Y-73930000D01*
G75*
G02*
X99355000Y-74010000I-80000J0D01*
G01*
X97995000Y-74010000D01*
G75*
G02*
X97915000Y-73930000I0J80000D01*
G01*
G37*
G36*
G01*
X97915000Y-74430000D02*
X97915000Y-74270000D01*
G75*
G02*
X97995000Y-74190000I80000J0D01*
G01*
X99355000Y-74190000D01*
G75*
G02*
X99435000Y-74270000I0J-80000D01*
G01*
X99435000Y-74430000D01*
G75*
G02*
X99355000Y-74510000I-80000J0D01*
G01*
X97995000Y-74510000D01*
G75*
G02*
X97915000Y-74430000I0J80000D01*
G01*
G37*
G36*
G01*
X97915000Y-74930000D02*
X97915000Y-74770000D01*
G75*
G02*
X97995000Y-74690000I80000J0D01*
G01*
X99355000Y-74690000D01*
G75*
G02*
X99435000Y-74770000I0J-80000D01*
G01*
X99435000Y-74930000D01*
G75*
G02*
X99355000Y-75010000I-80000J0D01*
G01*
X97995000Y-75010000D01*
G75*
G02*
X97915000Y-74930000I0J80000D01*
G01*
G37*
G36*
G01*
X97915000Y-75430000D02*
X97915000Y-75270000D01*
G75*
G02*
X97995000Y-75190000I80000J0D01*
G01*
X99355000Y-75190000D01*
G75*
G02*
X99435000Y-75270000I0J-80000D01*
G01*
X99435000Y-75430000D01*
G75*
G02*
X99355000Y-75510000I-80000J0D01*
G01*
X97995000Y-75510000D01*
G75*
G02*
X97915000Y-75430000I0J80000D01*
G01*
G37*
G36*
G01*
X97915000Y-75930000D02*
X97915000Y-75770000D01*
G75*
G02*
X97995000Y-75690000I80000J0D01*
G01*
X99355000Y-75690000D01*
G75*
G02*
X99435000Y-75770000I0J-80000D01*
G01*
X99435000Y-75930000D01*
G75*
G02*
X99355000Y-76010000I-80000J0D01*
G01*
X97995000Y-76010000D01*
G75*
G02*
X97915000Y-75930000I0J80000D01*
G01*
G37*
G36*
G01*
X97915000Y-76430000D02*
X97915000Y-76270000D01*
G75*
G02*
X97995000Y-76190000I80000J0D01*
G01*
X99355000Y-76190000D01*
G75*
G02*
X99435000Y-76270000I0J-80000D01*
G01*
X99435000Y-76430000D01*
G75*
G02*
X99355000Y-76510000I-80000J0D01*
G01*
X97995000Y-76510000D01*
G75*
G02*
X97915000Y-76430000I0J80000D01*
G01*
G37*
G36*
G01*
X97915000Y-76930000D02*
X97915000Y-76770000D01*
G75*
G02*
X97995000Y-76690000I80000J0D01*
G01*
X99355000Y-76690000D01*
G75*
G02*
X99435000Y-76770000I0J-80000D01*
G01*
X99435000Y-76930000D01*
G75*
G02*
X99355000Y-77010000I-80000J0D01*
G01*
X97995000Y-77010000D01*
G75*
G02*
X97915000Y-76930000I0J80000D01*
G01*
G37*
G36*
G01*
X97915000Y-77430000D02*
X97915000Y-77270000D01*
G75*
G02*
X97995000Y-77190000I80000J0D01*
G01*
X99355000Y-77190000D01*
G75*
G02*
X99435000Y-77270000I0J-80000D01*
G01*
X99435000Y-77430000D01*
G75*
G02*
X99355000Y-77510000I-80000J0D01*
G01*
X97995000Y-77510000D01*
G75*
G02*
X97915000Y-77430000I0J80000D01*
G01*
G37*
G36*
G01*
X97915000Y-77930000D02*
X97915000Y-77770000D01*
G75*
G02*
X97995000Y-77690000I80000J0D01*
G01*
X99355000Y-77690000D01*
G75*
G02*
X99435000Y-77770000I0J-80000D01*
G01*
X99435000Y-77930000D01*
G75*
G02*
X99355000Y-78010000I-80000J0D01*
G01*
X97995000Y-78010000D01*
G75*
G02*
X97915000Y-77930000I0J80000D01*
G01*
G37*
G36*
G01*
X96590000Y-80455000D02*
X96590000Y-79095000D01*
G75*
G02*
X96670000Y-79015000I80000J0D01*
G01*
X96830000Y-79015000D01*
G75*
G02*
X96910000Y-79095000I0J-80000D01*
G01*
X96910000Y-80455000D01*
G75*
G02*
X96830000Y-80535000I-80000J0D01*
G01*
X96670000Y-80535000D01*
G75*
G02*
X96590000Y-80455000I0J80000D01*
G01*
G37*
G36*
G01*
X96090000Y-80455000D02*
X96090000Y-79095000D01*
G75*
G02*
X96170000Y-79015000I80000J0D01*
G01*
X96330000Y-79015000D01*
G75*
G02*
X96410000Y-79095000I0J-80000D01*
G01*
X96410000Y-80455000D01*
G75*
G02*
X96330000Y-80535000I-80000J0D01*
G01*
X96170000Y-80535000D01*
G75*
G02*
X96090000Y-80455000I0J80000D01*
G01*
G37*
G36*
G01*
X95590000Y-80455000D02*
X95590000Y-79095000D01*
G75*
G02*
X95670000Y-79015000I80000J0D01*
G01*
X95830000Y-79015000D01*
G75*
G02*
X95910000Y-79095000I0J-80000D01*
G01*
X95910000Y-80455000D01*
G75*
G02*
X95830000Y-80535000I-80000J0D01*
G01*
X95670000Y-80535000D01*
G75*
G02*
X95590000Y-80455000I0J80000D01*
G01*
G37*
G36*
G01*
X95090000Y-80455000D02*
X95090000Y-79095000D01*
G75*
G02*
X95170000Y-79015000I80000J0D01*
G01*
X95330000Y-79015000D01*
G75*
G02*
X95410000Y-79095000I0J-80000D01*
G01*
X95410000Y-80455000D01*
G75*
G02*
X95330000Y-80535000I-80000J0D01*
G01*
X95170000Y-80535000D01*
G75*
G02*
X95090000Y-80455000I0J80000D01*
G01*
G37*
G36*
G01*
X94590000Y-80455000D02*
X94590000Y-79095000D01*
G75*
G02*
X94670000Y-79015000I80000J0D01*
G01*
X94830000Y-79015000D01*
G75*
G02*
X94910000Y-79095000I0J-80000D01*
G01*
X94910000Y-80455000D01*
G75*
G02*
X94830000Y-80535000I-80000J0D01*
G01*
X94670000Y-80535000D01*
G75*
G02*
X94590000Y-80455000I0J80000D01*
G01*
G37*
G36*
G01*
X94090000Y-80455000D02*
X94090000Y-79095000D01*
G75*
G02*
X94170000Y-79015000I80000J0D01*
G01*
X94330000Y-79015000D01*
G75*
G02*
X94410000Y-79095000I0J-80000D01*
G01*
X94410000Y-80455000D01*
G75*
G02*
X94330000Y-80535000I-80000J0D01*
G01*
X94170000Y-80535000D01*
G75*
G02*
X94090000Y-80455000I0J80000D01*
G01*
G37*
G36*
G01*
X93590000Y-80455000D02*
X93590000Y-79095000D01*
G75*
G02*
X93670000Y-79015000I80000J0D01*
G01*
X93830000Y-79015000D01*
G75*
G02*
X93910000Y-79095000I0J-80000D01*
G01*
X93910000Y-80455000D01*
G75*
G02*
X93830000Y-80535000I-80000J0D01*
G01*
X93670000Y-80535000D01*
G75*
G02*
X93590000Y-80455000I0J80000D01*
G01*
G37*
G36*
G01*
X93090000Y-80455000D02*
X93090000Y-79095000D01*
G75*
G02*
X93170000Y-79015000I80000J0D01*
G01*
X93330000Y-79015000D01*
G75*
G02*
X93410000Y-79095000I0J-80000D01*
G01*
X93410000Y-80455000D01*
G75*
G02*
X93330000Y-80535000I-80000J0D01*
G01*
X93170000Y-80535000D01*
G75*
G02*
X93090000Y-80455000I0J80000D01*
G01*
G37*
G36*
G01*
X92590000Y-80455000D02*
X92590000Y-79095000D01*
G75*
G02*
X92670000Y-79015000I80000J0D01*
G01*
X92830000Y-79015000D01*
G75*
G02*
X92910000Y-79095000I0J-80000D01*
G01*
X92910000Y-80455000D01*
G75*
G02*
X92830000Y-80535000I-80000J0D01*
G01*
X92670000Y-80535000D01*
G75*
G02*
X92590000Y-80455000I0J80000D01*
G01*
G37*
G36*
G01*
X92090000Y-80455000D02*
X92090000Y-79095000D01*
G75*
G02*
X92170000Y-79015000I80000J0D01*
G01*
X92330000Y-79015000D01*
G75*
G02*
X92410000Y-79095000I0J-80000D01*
G01*
X92410000Y-80455000D01*
G75*
G02*
X92330000Y-80535000I-80000J0D01*
G01*
X92170000Y-80535000D01*
G75*
G02*
X92090000Y-80455000I0J80000D01*
G01*
G37*
G36*
G01*
X91590000Y-80455000D02*
X91590000Y-79095000D01*
G75*
G02*
X91670000Y-79015000I80000J0D01*
G01*
X91830000Y-79015000D01*
G75*
G02*
X91910000Y-79095000I0J-80000D01*
G01*
X91910000Y-80455000D01*
G75*
G02*
X91830000Y-80535000I-80000J0D01*
G01*
X91670000Y-80535000D01*
G75*
G02*
X91590000Y-80455000I0J80000D01*
G01*
G37*
G36*
G01*
X91090000Y-80455000D02*
X91090000Y-79095000D01*
G75*
G02*
X91170000Y-79015000I80000J0D01*
G01*
X91330000Y-79015000D01*
G75*
G02*
X91410000Y-79095000I0J-80000D01*
G01*
X91410000Y-80455000D01*
G75*
G02*
X91330000Y-80535000I-80000J0D01*
G01*
X91170000Y-80535000D01*
G75*
G02*
X91090000Y-80455000I0J80000D01*
G01*
G37*
G36*
G01*
X90590000Y-80455000D02*
X90590000Y-79095000D01*
G75*
G02*
X90670000Y-79015000I80000J0D01*
G01*
X90830000Y-79015000D01*
G75*
G02*
X90910000Y-79095000I0J-80000D01*
G01*
X90910000Y-80455000D01*
G75*
G02*
X90830000Y-80535000I-80000J0D01*
G01*
X90670000Y-80535000D01*
G75*
G02*
X90590000Y-80455000I0J80000D01*
G01*
G37*
G36*
G01*
X90090000Y-80455000D02*
X90090000Y-79095000D01*
G75*
G02*
X90170000Y-79015000I80000J0D01*
G01*
X90330000Y-79015000D01*
G75*
G02*
X90410000Y-79095000I0J-80000D01*
G01*
X90410000Y-80455000D01*
G75*
G02*
X90330000Y-80535000I-80000J0D01*
G01*
X90170000Y-80535000D01*
G75*
G02*
X90090000Y-80455000I0J80000D01*
G01*
G37*
G36*
G01*
X89590000Y-80455000D02*
X89590000Y-79095000D01*
G75*
G02*
X89670000Y-79015000I80000J0D01*
G01*
X89830000Y-79015000D01*
G75*
G02*
X89910000Y-79095000I0J-80000D01*
G01*
X89910000Y-80455000D01*
G75*
G02*
X89830000Y-80535000I-80000J0D01*
G01*
X89670000Y-80535000D01*
G75*
G02*
X89590000Y-80455000I0J80000D01*
G01*
G37*
G36*
G01*
X89090000Y-80455000D02*
X89090000Y-79095000D01*
G75*
G02*
X89170000Y-79015000I80000J0D01*
G01*
X89330000Y-79015000D01*
G75*
G02*
X89410000Y-79095000I0J-80000D01*
G01*
X89410000Y-80455000D01*
G75*
G02*
X89330000Y-80535000I-80000J0D01*
G01*
X89170000Y-80535000D01*
G75*
G02*
X89090000Y-80455000I0J80000D01*
G01*
G37*
G36*
G01*
X88590000Y-80455000D02*
X88590000Y-79095000D01*
G75*
G02*
X88670000Y-79015000I80000J0D01*
G01*
X88830000Y-79015000D01*
G75*
G02*
X88910000Y-79095000I0J-80000D01*
G01*
X88910000Y-80455000D01*
G75*
G02*
X88830000Y-80535000I-80000J0D01*
G01*
X88670000Y-80535000D01*
G75*
G02*
X88590000Y-80455000I0J80000D01*
G01*
G37*
G36*
G01*
X88090000Y-80455000D02*
X88090000Y-79095000D01*
G75*
G02*
X88170000Y-79015000I80000J0D01*
G01*
X88330000Y-79015000D01*
G75*
G02*
X88410000Y-79095000I0J-80000D01*
G01*
X88410000Y-80455000D01*
G75*
G02*
X88330000Y-80535000I-80000J0D01*
G01*
X88170000Y-80535000D01*
G75*
G02*
X88090000Y-80455000I0J80000D01*
G01*
G37*
G36*
G01*
X87590000Y-80455000D02*
X87590000Y-79095000D01*
G75*
G02*
X87670000Y-79015000I80000J0D01*
G01*
X87830000Y-79015000D01*
G75*
G02*
X87910000Y-79095000I0J-80000D01*
G01*
X87910000Y-80455000D01*
G75*
G02*
X87830000Y-80535000I-80000J0D01*
G01*
X87670000Y-80535000D01*
G75*
G02*
X87590000Y-80455000I0J80000D01*
G01*
G37*
G36*
G01*
X87090000Y-80455000D02*
X87090000Y-79095000D01*
G75*
G02*
X87170000Y-79015000I80000J0D01*
G01*
X87330000Y-79015000D01*
G75*
G02*
X87410000Y-79095000I0J-80000D01*
G01*
X87410000Y-80455000D01*
G75*
G02*
X87330000Y-80535000I-80000J0D01*
G01*
X87170000Y-80535000D01*
G75*
G02*
X87090000Y-80455000I0J80000D01*
G01*
G37*
G36*
G01*
X86590000Y-80455000D02*
X86590000Y-79095000D01*
G75*
G02*
X86670000Y-79015000I80000J0D01*
G01*
X86830000Y-79015000D01*
G75*
G02*
X86910000Y-79095000I0J-80000D01*
G01*
X86910000Y-80455000D01*
G75*
G02*
X86830000Y-80535000I-80000J0D01*
G01*
X86670000Y-80535000D01*
G75*
G02*
X86590000Y-80455000I0J80000D01*
G01*
G37*
G36*
G01*
X86090000Y-80455000D02*
X86090000Y-79095000D01*
G75*
G02*
X86170000Y-79015000I80000J0D01*
G01*
X86330000Y-79015000D01*
G75*
G02*
X86410000Y-79095000I0J-80000D01*
G01*
X86410000Y-80455000D01*
G75*
G02*
X86330000Y-80535000I-80000J0D01*
G01*
X86170000Y-80535000D01*
G75*
G02*
X86090000Y-80455000I0J80000D01*
G01*
G37*
G36*
G01*
X85590000Y-80455000D02*
X85590000Y-79095000D01*
G75*
G02*
X85670000Y-79015000I80000J0D01*
G01*
X85830000Y-79015000D01*
G75*
G02*
X85910000Y-79095000I0J-80000D01*
G01*
X85910000Y-80455000D01*
G75*
G02*
X85830000Y-80535000I-80000J0D01*
G01*
X85670000Y-80535000D01*
G75*
G02*
X85590000Y-80455000I0J80000D01*
G01*
G37*
G36*
G01*
X85090000Y-80455000D02*
X85090000Y-79095000D01*
G75*
G02*
X85170000Y-79015000I80000J0D01*
G01*
X85330000Y-79015000D01*
G75*
G02*
X85410000Y-79095000I0J-80000D01*
G01*
X85410000Y-80455000D01*
G75*
G02*
X85330000Y-80535000I-80000J0D01*
G01*
X85170000Y-80535000D01*
G75*
G02*
X85090000Y-80455000I0J80000D01*
G01*
G37*
G36*
G01*
X84590000Y-80455000D02*
X84590000Y-79095000D01*
G75*
G02*
X84670000Y-79015000I80000J0D01*
G01*
X84830000Y-79015000D01*
G75*
G02*
X84910000Y-79095000I0J-80000D01*
G01*
X84910000Y-80455000D01*
G75*
G02*
X84830000Y-80535000I-80000J0D01*
G01*
X84670000Y-80535000D01*
G75*
G02*
X84590000Y-80455000I0J80000D01*
G01*
G37*
G36*
G01*
X84090000Y-80455000D02*
X84090000Y-79095000D01*
G75*
G02*
X84170000Y-79015000I80000J0D01*
G01*
X84330000Y-79015000D01*
G75*
G02*
X84410000Y-79095000I0J-80000D01*
G01*
X84410000Y-80455000D01*
G75*
G02*
X84330000Y-80535000I-80000J0D01*
G01*
X84170000Y-80535000D01*
G75*
G02*
X84090000Y-80455000I0J80000D01*
G01*
G37*
G36*
G01*
X83590000Y-80455000D02*
X83590000Y-79095000D01*
G75*
G02*
X83670000Y-79015000I80000J0D01*
G01*
X83830000Y-79015000D01*
G75*
G02*
X83910000Y-79095000I0J-80000D01*
G01*
X83910000Y-80455000D01*
G75*
G02*
X83830000Y-80535000I-80000J0D01*
G01*
X83670000Y-80535000D01*
G75*
G02*
X83590000Y-80455000I0J80000D01*
G01*
G37*
G36*
G01*
X83090000Y-80455000D02*
X83090000Y-79095000D01*
G75*
G02*
X83170000Y-79015000I80000J0D01*
G01*
X83330000Y-79015000D01*
G75*
G02*
X83410000Y-79095000I0J-80000D01*
G01*
X83410000Y-80455000D01*
G75*
G02*
X83330000Y-80535000I-80000J0D01*
G01*
X83170000Y-80535000D01*
G75*
G02*
X83090000Y-80455000I0J80000D01*
G01*
G37*
G36*
G01*
X82590000Y-80455000D02*
X82590000Y-79095000D01*
G75*
G02*
X82670000Y-79015000I80000J0D01*
G01*
X82830000Y-79015000D01*
G75*
G02*
X82910000Y-79095000I0J-80000D01*
G01*
X82910000Y-80455000D01*
G75*
G02*
X82830000Y-80535000I-80000J0D01*
G01*
X82670000Y-80535000D01*
G75*
G02*
X82590000Y-80455000I0J80000D01*
G01*
G37*
G36*
G01*
X82090000Y-80455000D02*
X82090000Y-79095000D01*
G75*
G02*
X82170000Y-79015000I80000J0D01*
G01*
X82330000Y-79015000D01*
G75*
G02*
X82410000Y-79095000I0J-80000D01*
G01*
X82410000Y-80455000D01*
G75*
G02*
X82330000Y-80535000I-80000J0D01*
G01*
X82170000Y-80535000D01*
G75*
G02*
X82090000Y-80455000I0J80000D01*
G01*
G37*
G36*
G01*
X81590000Y-80455000D02*
X81590000Y-79095000D01*
G75*
G02*
X81670000Y-79015000I80000J0D01*
G01*
X81830000Y-79015000D01*
G75*
G02*
X81910000Y-79095000I0J-80000D01*
G01*
X81910000Y-80455000D01*
G75*
G02*
X81830000Y-80535000I-80000J0D01*
G01*
X81670000Y-80535000D01*
G75*
G02*
X81590000Y-80455000I0J80000D01*
G01*
G37*
G36*
G01*
X81090000Y-80455000D02*
X81090000Y-79095000D01*
G75*
G02*
X81170000Y-79015000I80000J0D01*
G01*
X81330000Y-79015000D01*
G75*
G02*
X81410000Y-79095000I0J-80000D01*
G01*
X81410000Y-80455000D01*
G75*
G02*
X81330000Y-80535000I-80000J0D01*
G01*
X81170000Y-80535000D01*
G75*
G02*
X81090000Y-80455000I0J80000D01*
G01*
G37*
G36*
G01*
X80590000Y-80455000D02*
X80590000Y-79095000D01*
G75*
G02*
X80670000Y-79015000I80000J0D01*
G01*
X80830000Y-79015000D01*
G75*
G02*
X80910000Y-79095000I0J-80000D01*
G01*
X80910000Y-80455000D01*
G75*
G02*
X80830000Y-80535000I-80000J0D01*
G01*
X80670000Y-80535000D01*
G75*
G02*
X80590000Y-80455000I0J80000D01*
G01*
G37*
G36*
G01*
X80090000Y-80455000D02*
X80090000Y-79095000D01*
G75*
G02*
X80170000Y-79015000I80000J0D01*
G01*
X80330000Y-79015000D01*
G75*
G02*
X80410000Y-79095000I0J-80000D01*
G01*
X80410000Y-80455000D01*
G75*
G02*
X80330000Y-80535000I-80000J0D01*
G01*
X80170000Y-80535000D01*
G75*
G02*
X80090000Y-80455000I0J80000D01*
G01*
G37*
G36*
G01*
X79590000Y-80455000D02*
X79590000Y-79095000D01*
G75*
G02*
X79670000Y-79015000I80000J0D01*
G01*
X79830000Y-79015000D01*
G75*
G02*
X79910000Y-79095000I0J-80000D01*
G01*
X79910000Y-80455000D01*
G75*
G02*
X79830000Y-80535000I-80000J0D01*
G01*
X79670000Y-80535000D01*
G75*
G02*
X79590000Y-80455000I0J80000D01*
G01*
G37*
G36*
G01*
X79090000Y-80455000D02*
X79090000Y-79095000D01*
G75*
G02*
X79170000Y-79015000I80000J0D01*
G01*
X79330000Y-79015000D01*
G75*
G02*
X79410000Y-79095000I0J-80000D01*
G01*
X79410000Y-80455000D01*
G75*
G02*
X79330000Y-80535000I-80000J0D01*
G01*
X79170000Y-80535000D01*
G75*
G02*
X79090000Y-80455000I0J80000D01*
G01*
G37*
G36*
G01*
X78590000Y-80455000D02*
X78590000Y-79095000D01*
G75*
G02*
X78670000Y-79015000I80000J0D01*
G01*
X78830000Y-79015000D01*
G75*
G02*
X78910000Y-79095000I0J-80000D01*
G01*
X78910000Y-80455000D01*
G75*
G02*
X78830000Y-80535000I-80000J0D01*
G01*
X78670000Y-80535000D01*
G75*
G02*
X78590000Y-80455000I0J80000D01*
G01*
G37*
G36*
G01*
X78090000Y-80455000D02*
X78090000Y-79095000D01*
G75*
G02*
X78170000Y-79015000I80000J0D01*
G01*
X78330000Y-79015000D01*
G75*
G02*
X78410000Y-79095000I0J-80000D01*
G01*
X78410000Y-80455000D01*
G75*
G02*
X78330000Y-80535000I-80000J0D01*
G01*
X78170000Y-80535000D01*
G75*
G02*
X78090000Y-80455000I0J80000D01*
G01*
G37*
G36*
G01*
X77590000Y-80455000D02*
X77590000Y-79095000D01*
G75*
G02*
X77670000Y-79015000I80000J0D01*
G01*
X77830000Y-79015000D01*
G75*
G02*
X77910000Y-79095000I0J-80000D01*
G01*
X77910000Y-80455000D01*
G75*
G02*
X77830000Y-80535000I-80000J0D01*
G01*
X77670000Y-80535000D01*
G75*
G02*
X77590000Y-80455000I0J80000D01*
G01*
G37*
G36*
G01*
X77090000Y-80455000D02*
X77090000Y-79095000D01*
G75*
G02*
X77170000Y-79015000I80000J0D01*
G01*
X77330000Y-79015000D01*
G75*
G02*
X77410000Y-79095000I0J-80000D01*
G01*
X77410000Y-80455000D01*
G75*
G02*
X77330000Y-80535000I-80000J0D01*
G01*
X77170000Y-80535000D01*
G75*
G02*
X77090000Y-80455000I0J80000D01*
G01*
G37*
G36*
G01*
X76590000Y-80455000D02*
X76590000Y-79095000D01*
G75*
G02*
X76670000Y-79015000I80000J0D01*
G01*
X76830000Y-79015000D01*
G75*
G02*
X76910000Y-79095000I0J-80000D01*
G01*
X76910000Y-80455000D01*
G75*
G02*
X76830000Y-80535000I-80000J0D01*
G01*
X76670000Y-80535000D01*
G75*
G02*
X76590000Y-80455000I0J80000D01*
G01*
G37*
G36*
G01*
X76090000Y-80455000D02*
X76090000Y-79095000D01*
G75*
G02*
X76170000Y-79015000I80000J0D01*
G01*
X76330000Y-79015000D01*
G75*
G02*
X76410000Y-79095000I0J-80000D01*
G01*
X76410000Y-80455000D01*
G75*
G02*
X76330000Y-80535000I-80000J0D01*
G01*
X76170000Y-80535000D01*
G75*
G02*
X76090000Y-80455000I0J80000D01*
G01*
G37*
G36*
G01*
X75590000Y-80455000D02*
X75590000Y-79095000D01*
G75*
G02*
X75670000Y-79015000I80000J0D01*
G01*
X75830000Y-79015000D01*
G75*
G02*
X75910000Y-79095000I0J-80000D01*
G01*
X75910000Y-80455000D01*
G75*
G02*
X75830000Y-80535000I-80000J0D01*
G01*
X75670000Y-80535000D01*
G75*
G02*
X75590000Y-80455000I0J80000D01*
G01*
G37*
G36*
G01*
X75090000Y-80455000D02*
X75090000Y-79095000D01*
G75*
G02*
X75170000Y-79015000I80000J0D01*
G01*
X75330000Y-79015000D01*
G75*
G02*
X75410000Y-79095000I0J-80000D01*
G01*
X75410000Y-80455000D01*
G75*
G02*
X75330000Y-80535000I-80000J0D01*
G01*
X75170000Y-80535000D01*
G75*
G02*
X75090000Y-80455000I0J80000D01*
G01*
G37*
G36*
G01*
X72565000Y-77930000D02*
X72565000Y-77770000D01*
G75*
G02*
X72645000Y-77690000I80000J0D01*
G01*
X74005000Y-77690000D01*
G75*
G02*
X74085000Y-77770000I0J-80000D01*
G01*
X74085000Y-77930000D01*
G75*
G02*
X74005000Y-78010000I-80000J0D01*
G01*
X72645000Y-78010000D01*
G75*
G02*
X72565000Y-77930000I0J80000D01*
G01*
G37*
G36*
G01*
X72565000Y-77430000D02*
X72565000Y-77270000D01*
G75*
G02*
X72645000Y-77190000I80000J0D01*
G01*
X74005000Y-77190000D01*
G75*
G02*
X74085000Y-77270000I0J-80000D01*
G01*
X74085000Y-77430000D01*
G75*
G02*
X74005000Y-77510000I-80000J0D01*
G01*
X72645000Y-77510000D01*
G75*
G02*
X72565000Y-77430000I0J80000D01*
G01*
G37*
G36*
G01*
X72565000Y-76930000D02*
X72565000Y-76770000D01*
G75*
G02*
X72645000Y-76690000I80000J0D01*
G01*
X74005000Y-76690000D01*
G75*
G02*
X74085000Y-76770000I0J-80000D01*
G01*
X74085000Y-76930000D01*
G75*
G02*
X74005000Y-77010000I-80000J0D01*
G01*
X72645000Y-77010000D01*
G75*
G02*
X72565000Y-76930000I0J80000D01*
G01*
G37*
G36*
G01*
X72565000Y-76430000D02*
X72565000Y-76270000D01*
G75*
G02*
X72645000Y-76190000I80000J0D01*
G01*
X74005000Y-76190000D01*
G75*
G02*
X74085000Y-76270000I0J-80000D01*
G01*
X74085000Y-76430000D01*
G75*
G02*
X74005000Y-76510000I-80000J0D01*
G01*
X72645000Y-76510000D01*
G75*
G02*
X72565000Y-76430000I0J80000D01*
G01*
G37*
G36*
G01*
X72565000Y-75930000D02*
X72565000Y-75770000D01*
G75*
G02*
X72645000Y-75690000I80000J0D01*
G01*
X74005000Y-75690000D01*
G75*
G02*
X74085000Y-75770000I0J-80000D01*
G01*
X74085000Y-75930000D01*
G75*
G02*
X74005000Y-76010000I-80000J0D01*
G01*
X72645000Y-76010000D01*
G75*
G02*
X72565000Y-75930000I0J80000D01*
G01*
G37*
G36*
G01*
X72565000Y-75430000D02*
X72565000Y-75270000D01*
G75*
G02*
X72645000Y-75190000I80000J0D01*
G01*
X74005000Y-75190000D01*
G75*
G02*
X74085000Y-75270000I0J-80000D01*
G01*
X74085000Y-75430000D01*
G75*
G02*
X74005000Y-75510000I-80000J0D01*
G01*
X72645000Y-75510000D01*
G75*
G02*
X72565000Y-75430000I0J80000D01*
G01*
G37*
G36*
G01*
X72565000Y-74930000D02*
X72565000Y-74770000D01*
G75*
G02*
X72645000Y-74690000I80000J0D01*
G01*
X74005000Y-74690000D01*
G75*
G02*
X74085000Y-74770000I0J-80000D01*
G01*
X74085000Y-74930000D01*
G75*
G02*
X74005000Y-75010000I-80000J0D01*
G01*
X72645000Y-75010000D01*
G75*
G02*
X72565000Y-74930000I0J80000D01*
G01*
G37*
G36*
G01*
X72565000Y-74430000D02*
X72565000Y-74270000D01*
G75*
G02*
X72645000Y-74190000I80000J0D01*
G01*
X74005000Y-74190000D01*
G75*
G02*
X74085000Y-74270000I0J-80000D01*
G01*
X74085000Y-74430000D01*
G75*
G02*
X74005000Y-74510000I-80000J0D01*
G01*
X72645000Y-74510000D01*
G75*
G02*
X72565000Y-74430000I0J80000D01*
G01*
G37*
G36*
G01*
X72565000Y-73930000D02*
X72565000Y-73770000D01*
G75*
G02*
X72645000Y-73690000I80000J0D01*
G01*
X74005000Y-73690000D01*
G75*
G02*
X74085000Y-73770000I0J-80000D01*
G01*
X74085000Y-73930000D01*
G75*
G02*
X74005000Y-74010000I-80000J0D01*
G01*
X72645000Y-74010000D01*
G75*
G02*
X72565000Y-73930000I0J80000D01*
G01*
G37*
G36*
G01*
X72565000Y-73430000D02*
X72565000Y-73270000D01*
G75*
G02*
X72645000Y-73190000I80000J0D01*
G01*
X74005000Y-73190000D01*
G75*
G02*
X74085000Y-73270000I0J-80000D01*
G01*
X74085000Y-73430000D01*
G75*
G02*
X74005000Y-73510000I-80000J0D01*
G01*
X72645000Y-73510000D01*
G75*
G02*
X72565000Y-73430000I0J80000D01*
G01*
G37*
G36*
G01*
X72565000Y-72930000D02*
X72565000Y-72770000D01*
G75*
G02*
X72645000Y-72690000I80000J0D01*
G01*
X74005000Y-72690000D01*
G75*
G02*
X74085000Y-72770000I0J-80000D01*
G01*
X74085000Y-72930000D01*
G75*
G02*
X74005000Y-73010000I-80000J0D01*
G01*
X72645000Y-73010000D01*
G75*
G02*
X72565000Y-72930000I0J80000D01*
G01*
G37*
G36*
G01*
X72565000Y-72430000D02*
X72565000Y-72270000D01*
G75*
G02*
X72645000Y-72190000I80000J0D01*
G01*
X74005000Y-72190000D01*
G75*
G02*
X74085000Y-72270000I0J-80000D01*
G01*
X74085000Y-72430000D01*
G75*
G02*
X74005000Y-72510000I-80000J0D01*
G01*
X72645000Y-72510000D01*
G75*
G02*
X72565000Y-72430000I0J80000D01*
G01*
G37*
G36*
G01*
X72565000Y-71930000D02*
X72565000Y-71770000D01*
G75*
G02*
X72645000Y-71690000I80000J0D01*
G01*
X74005000Y-71690000D01*
G75*
G02*
X74085000Y-71770000I0J-80000D01*
G01*
X74085000Y-71930000D01*
G75*
G02*
X74005000Y-72010000I-80000J0D01*
G01*
X72645000Y-72010000D01*
G75*
G02*
X72565000Y-71930000I0J80000D01*
G01*
G37*
G36*
G01*
X72565000Y-71430000D02*
X72565000Y-71270000D01*
G75*
G02*
X72645000Y-71190000I80000J0D01*
G01*
X74005000Y-71190000D01*
G75*
G02*
X74085000Y-71270000I0J-80000D01*
G01*
X74085000Y-71430000D01*
G75*
G02*
X74005000Y-71510000I-80000J0D01*
G01*
X72645000Y-71510000D01*
G75*
G02*
X72565000Y-71430000I0J80000D01*
G01*
G37*
G36*
G01*
X72565000Y-70930000D02*
X72565000Y-70770000D01*
G75*
G02*
X72645000Y-70690000I80000J0D01*
G01*
X74005000Y-70690000D01*
G75*
G02*
X74085000Y-70770000I0J-80000D01*
G01*
X74085000Y-70930000D01*
G75*
G02*
X74005000Y-71010000I-80000J0D01*
G01*
X72645000Y-71010000D01*
G75*
G02*
X72565000Y-70930000I0J80000D01*
G01*
G37*
G36*
G01*
X72565000Y-70430000D02*
X72565000Y-70270000D01*
G75*
G02*
X72645000Y-70190000I80000J0D01*
G01*
X74005000Y-70190000D01*
G75*
G02*
X74085000Y-70270000I0J-80000D01*
G01*
X74085000Y-70430000D01*
G75*
G02*
X74005000Y-70510000I-80000J0D01*
G01*
X72645000Y-70510000D01*
G75*
G02*
X72565000Y-70430000I0J80000D01*
G01*
G37*
G36*
G01*
X72565000Y-69930000D02*
X72565000Y-69770000D01*
G75*
G02*
X72645000Y-69690000I80000J0D01*
G01*
X74005000Y-69690000D01*
G75*
G02*
X74085000Y-69770000I0J-80000D01*
G01*
X74085000Y-69930000D01*
G75*
G02*
X74005000Y-70010000I-80000J0D01*
G01*
X72645000Y-70010000D01*
G75*
G02*
X72565000Y-69930000I0J80000D01*
G01*
G37*
G36*
G01*
X72565000Y-69430000D02*
X72565000Y-69270000D01*
G75*
G02*
X72645000Y-69190000I80000J0D01*
G01*
X74005000Y-69190000D01*
G75*
G02*
X74085000Y-69270000I0J-80000D01*
G01*
X74085000Y-69430000D01*
G75*
G02*
X74005000Y-69510000I-80000J0D01*
G01*
X72645000Y-69510000D01*
G75*
G02*
X72565000Y-69430000I0J80000D01*
G01*
G37*
G36*
G01*
X72565000Y-68930000D02*
X72565000Y-68770000D01*
G75*
G02*
X72645000Y-68690000I80000J0D01*
G01*
X74005000Y-68690000D01*
G75*
G02*
X74085000Y-68770000I0J-80000D01*
G01*
X74085000Y-68930000D01*
G75*
G02*
X74005000Y-69010000I-80000J0D01*
G01*
X72645000Y-69010000D01*
G75*
G02*
X72565000Y-68930000I0J80000D01*
G01*
G37*
G36*
G01*
X72565000Y-68430000D02*
X72565000Y-68270000D01*
G75*
G02*
X72645000Y-68190000I80000J0D01*
G01*
X74005000Y-68190000D01*
G75*
G02*
X74085000Y-68270000I0J-80000D01*
G01*
X74085000Y-68430000D01*
G75*
G02*
X74005000Y-68510000I-80000J0D01*
G01*
X72645000Y-68510000D01*
G75*
G02*
X72565000Y-68430000I0J80000D01*
G01*
G37*
G36*
G01*
X72565000Y-67930000D02*
X72565000Y-67770000D01*
G75*
G02*
X72645000Y-67690000I80000J0D01*
G01*
X74005000Y-67690000D01*
G75*
G02*
X74085000Y-67770000I0J-80000D01*
G01*
X74085000Y-67930000D01*
G75*
G02*
X74005000Y-68010000I-80000J0D01*
G01*
X72645000Y-68010000D01*
G75*
G02*
X72565000Y-67930000I0J80000D01*
G01*
G37*
G36*
G01*
X72565000Y-67430000D02*
X72565000Y-67270000D01*
G75*
G02*
X72645000Y-67190000I80000J0D01*
G01*
X74005000Y-67190000D01*
G75*
G02*
X74085000Y-67270000I0J-80000D01*
G01*
X74085000Y-67430000D01*
G75*
G02*
X74005000Y-67510000I-80000J0D01*
G01*
X72645000Y-67510000D01*
G75*
G02*
X72565000Y-67430000I0J80000D01*
G01*
G37*
G36*
G01*
X72565000Y-66930000D02*
X72565000Y-66770000D01*
G75*
G02*
X72645000Y-66690000I80000J0D01*
G01*
X74005000Y-66690000D01*
G75*
G02*
X74085000Y-66770000I0J-80000D01*
G01*
X74085000Y-66930000D01*
G75*
G02*
X74005000Y-67010000I-80000J0D01*
G01*
X72645000Y-67010000D01*
G75*
G02*
X72565000Y-66930000I0J80000D01*
G01*
G37*
G36*
G01*
X72565000Y-66430000D02*
X72565000Y-66270000D01*
G75*
G02*
X72645000Y-66190000I80000J0D01*
G01*
X74005000Y-66190000D01*
G75*
G02*
X74085000Y-66270000I0J-80000D01*
G01*
X74085000Y-66430000D01*
G75*
G02*
X74005000Y-66510000I-80000J0D01*
G01*
X72645000Y-66510000D01*
G75*
G02*
X72565000Y-66430000I0J80000D01*
G01*
G37*
G36*
G01*
X72565000Y-65930000D02*
X72565000Y-65770000D01*
G75*
G02*
X72645000Y-65690000I80000J0D01*
G01*
X74005000Y-65690000D01*
G75*
G02*
X74085000Y-65770000I0J-80000D01*
G01*
X74085000Y-65930000D01*
G75*
G02*
X74005000Y-66010000I-80000J0D01*
G01*
X72645000Y-66010000D01*
G75*
G02*
X72565000Y-65930000I0J80000D01*
G01*
G37*
G36*
G01*
X72565000Y-65430000D02*
X72565000Y-65270000D01*
G75*
G02*
X72645000Y-65190000I80000J0D01*
G01*
X74005000Y-65190000D01*
G75*
G02*
X74085000Y-65270000I0J-80000D01*
G01*
X74085000Y-65430000D01*
G75*
G02*
X74005000Y-65510000I-80000J0D01*
G01*
X72645000Y-65510000D01*
G75*
G02*
X72565000Y-65430000I0J80000D01*
G01*
G37*
G36*
G01*
X72565000Y-64930000D02*
X72565000Y-64770000D01*
G75*
G02*
X72645000Y-64690000I80000J0D01*
G01*
X74005000Y-64690000D01*
G75*
G02*
X74085000Y-64770000I0J-80000D01*
G01*
X74085000Y-64930000D01*
G75*
G02*
X74005000Y-65010000I-80000J0D01*
G01*
X72645000Y-65010000D01*
G75*
G02*
X72565000Y-64930000I0J80000D01*
G01*
G37*
G36*
G01*
X72565000Y-64430000D02*
X72565000Y-64270000D01*
G75*
G02*
X72645000Y-64190000I80000J0D01*
G01*
X74005000Y-64190000D01*
G75*
G02*
X74085000Y-64270000I0J-80000D01*
G01*
X74085000Y-64430000D01*
G75*
G02*
X74005000Y-64510000I-80000J0D01*
G01*
X72645000Y-64510000D01*
G75*
G02*
X72565000Y-64430000I0J80000D01*
G01*
G37*
G36*
G01*
X72565000Y-63930000D02*
X72565000Y-63770000D01*
G75*
G02*
X72645000Y-63690000I80000J0D01*
G01*
X74005000Y-63690000D01*
G75*
G02*
X74085000Y-63770000I0J-80000D01*
G01*
X74085000Y-63930000D01*
G75*
G02*
X74005000Y-64010000I-80000J0D01*
G01*
X72645000Y-64010000D01*
G75*
G02*
X72565000Y-63930000I0J80000D01*
G01*
G37*
G36*
G01*
X72565000Y-63430000D02*
X72565000Y-63270000D01*
G75*
G02*
X72645000Y-63190000I80000J0D01*
G01*
X74005000Y-63190000D01*
G75*
G02*
X74085000Y-63270000I0J-80000D01*
G01*
X74085000Y-63430000D01*
G75*
G02*
X74005000Y-63510000I-80000J0D01*
G01*
X72645000Y-63510000D01*
G75*
G02*
X72565000Y-63430000I0J80000D01*
G01*
G37*
G36*
G01*
X72565000Y-62930000D02*
X72565000Y-62770000D01*
G75*
G02*
X72645000Y-62690000I80000J0D01*
G01*
X74005000Y-62690000D01*
G75*
G02*
X74085000Y-62770000I0J-80000D01*
G01*
X74085000Y-62930000D01*
G75*
G02*
X74005000Y-63010000I-80000J0D01*
G01*
X72645000Y-63010000D01*
G75*
G02*
X72565000Y-62930000I0J80000D01*
G01*
G37*
G36*
G01*
X72565000Y-62430000D02*
X72565000Y-62270000D01*
G75*
G02*
X72645000Y-62190000I80000J0D01*
G01*
X74005000Y-62190000D01*
G75*
G02*
X74085000Y-62270000I0J-80000D01*
G01*
X74085000Y-62430000D01*
G75*
G02*
X74005000Y-62510000I-80000J0D01*
G01*
X72645000Y-62510000D01*
G75*
G02*
X72565000Y-62430000I0J80000D01*
G01*
G37*
G36*
G01*
X72565000Y-61930000D02*
X72565000Y-61770000D01*
G75*
G02*
X72645000Y-61690000I80000J0D01*
G01*
X74005000Y-61690000D01*
G75*
G02*
X74085000Y-61770000I0J-80000D01*
G01*
X74085000Y-61930000D01*
G75*
G02*
X74005000Y-62010000I-80000J0D01*
G01*
X72645000Y-62010000D01*
G75*
G02*
X72565000Y-61930000I0J80000D01*
G01*
G37*
G36*
G01*
X72565000Y-61430000D02*
X72565000Y-61270000D01*
G75*
G02*
X72645000Y-61190000I80000J0D01*
G01*
X74005000Y-61190000D01*
G75*
G02*
X74085000Y-61270000I0J-80000D01*
G01*
X74085000Y-61430000D01*
G75*
G02*
X74005000Y-61510000I-80000J0D01*
G01*
X72645000Y-61510000D01*
G75*
G02*
X72565000Y-61430000I0J80000D01*
G01*
G37*
G36*
G01*
X72565000Y-60930000D02*
X72565000Y-60770000D01*
G75*
G02*
X72645000Y-60690000I80000J0D01*
G01*
X74005000Y-60690000D01*
G75*
G02*
X74085000Y-60770000I0J-80000D01*
G01*
X74085000Y-60930000D01*
G75*
G02*
X74005000Y-61010000I-80000J0D01*
G01*
X72645000Y-61010000D01*
G75*
G02*
X72565000Y-60930000I0J80000D01*
G01*
G37*
G36*
G01*
X72565000Y-60430000D02*
X72565000Y-60270000D01*
G75*
G02*
X72645000Y-60190000I80000J0D01*
G01*
X74005000Y-60190000D01*
G75*
G02*
X74085000Y-60270000I0J-80000D01*
G01*
X74085000Y-60430000D01*
G75*
G02*
X74005000Y-60510000I-80000J0D01*
G01*
X72645000Y-60510000D01*
G75*
G02*
X72565000Y-60430000I0J80000D01*
G01*
G37*
G36*
G01*
X72565000Y-59930000D02*
X72565000Y-59770000D01*
G75*
G02*
X72645000Y-59690000I80000J0D01*
G01*
X74005000Y-59690000D01*
G75*
G02*
X74085000Y-59770000I0J-80000D01*
G01*
X74085000Y-59930000D01*
G75*
G02*
X74005000Y-60010000I-80000J0D01*
G01*
X72645000Y-60010000D01*
G75*
G02*
X72565000Y-59930000I0J80000D01*
G01*
G37*
G36*
G01*
X72565000Y-59430000D02*
X72565000Y-59270000D01*
G75*
G02*
X72645000Y-59190000I80000J0D01*
G01*
X74005000Y-59190000D01*
G75*
G02*
X74085000Y-59270000I0J-80000D01*
G01*
X74085000Y-59430000D01*
G75*
G02*
X74005000Y-59510000I-80000J0D01*
G01*
X72645000Y-59510000D01*
G75*
G02*
X72565000Y-59430000I0J80000D01*
G01*
G37*
G36*
G01*
X72565000Y-58930000D02*
X72565000Y-58770000D01*
G75*
G02*
X72645000Y-58690000I80000J0D01*
G01*
X74005000Y-58690000D01*
G75*
G02*
X74085000Y-58770000I0J-80000D01*
G01*
X74085000Y-58930000D01*
G75*
G02*
X74005000Y-59010000I-80000J0D01*
G01*
X72645000Y-59010000D01*
G75*
G02*
X72565000Y-58930000I0J80000D01*
G01*
G37*
G36*
G01*
X72565000Y-58430000D02*
X72565000Y-58270000D01*
G75*
G02*
X72645000Y-58190000I80000J0D01*
G01*
X74005000Y-58190000D01*
G75*
G02*
X74085000Y-58270000I0J-80000D01*
G01*
X74085000Y-58430000D01*
G75*
G02*
X74005000Y-58510000I-80000J0D01*
G01*
X72645000Y-58510000D01*
G75*
G02*
X72565000Y-58430000I0J80000D01*
G01*
G37*
G36*
G01*
X72565000Y-57930000D02*
X72565000Y-57770000D01*
G75*
G02*
X72645000Y-57690000I80000J0D01*
G01*
X74005000Y-57690000D01*
G75*
G02*
X74085000Y-57770000I0J-80000D01*
G01*
X74085000Y-57930000D01*
G75*
G02*
X74005000Y-58010000I-80000J0D01*
G01*
X72645000Y-58010000D01*
G75*
G02*
X72565000Y-57930000I0J80000D01*
G01*
G37*
G36*
G01*
X72565000Y-57430000D02*
X72565000Y-57270000D01*
G75*
G02*
X72645000Y-57190000I80000J0D01*
G01*
X74005000Y-57190000D01*
G75*
G02*
X74085000Y-57270000I0J-80000D01*
G01*
X74085000Y-57430000D01*
G75*
G02*
X74005000Y-57510000I-80000J0D01*
G01*
X72645000Y-57510000D01*
G75*
G02*
X72565000Y-57430000I0J80000D01*
G01*
G37*
G36*
G01*
X72565000Y-56930000D02*
X72565000Y-56770000D01*
G75*
G02*
X72645000Y-56690000I80000J0D01*
G01*
X74005000Y-56690000D01*
G75*
G02*
X74085000Y-56770000I0J-80000D01*
G01*
X74085000Y-56930000D01*
G75*
G02*
X74005000Y-57010000I-80000J0D01*
G01*
X72645000Y-57010000D01*
G75*
G02*
X72565000Y-56930000I0J80000D01*
G01*
G37*
G36*
G01*
X72565000Y-56430000D02*
X72565000Y-56270000D01*
G75*
G02*
X72645000Y-56190000I80000J0D01*
G01*
X74005000Y-56190000D01*
G75*
G02*
X74085000Y-56270000I0J-80000D01*
G01*
X74085000Y-56430000D01*
G75*
G02*
X74005000Y-56510000I-80000J0D01*
G01*
X72645000Y-56510000D01*
G75*
G02*
X72565000Y-56430000I0J80000D01*
G01*
G37*
%TD*%
D42*
%TO.C,J1*%
X43600000Y-118400000D03*
X39800000Y-118400000D03*
%TD*%
M02*
