%TF.GenerationSoftware,KiCad,Pcbnew,5.1.6*%
%TF.CreationDate,2020-08-24T17:36:10+02:00*%
%TF.ProjectId,CMM2-JLC,434d4d32-2d4a-44c4-932e-6b696361645f,D*%
%TF.SameCoordinates,Original*%
%TF.FileFunction,Profile,NP*%
%FSLAX46Y46*%
G04 Gerber Fmt 4.6, Leading zero omitted, Abs format (unit mm)*
G04 Created by KiCad (PCBNEW 5.1.6) date 2020-08-24 17:36:10*
%MOMM*%
%LPD*%
G01*
G04 APERTURE LIST*
%TA.AperFunction,Profile*%
%ADD10C,0.050000*%
%TD*%
G04 APERTURE END LIST*
D10*
X145000000Y-76300000D02*
X150000000Y-76300000D01*
X145000000Y-65700000D02*
X150000000Y-65700000D01*
X145000000Y-76300000D02*
G75*
G02*
X145000000Y-65700000I0J5300000D01*
G01*
X25000000Y-65700000D02*
G75*
G02*
X25000000Y-76300000I0J-5300000D01*
G01*
X150000000Y-65700000D02*
X150000000Y-20000000D01*
X47837800Y-122000000D02*
X150000000Y-122000000D01*
X35562200Y-122000000D02*
X20000000Y-122000000D01*
X150000000Y-76300000D02*
X150000000Y-122000000D01*
X20000000Y-76300000D02*
X20000000Y-122000000D01*
X20000000Y-20000000D02*
X20000000Y-65700000D01*
X25000000Y-76300000D02*
X20000000Y-76300000D01*
X25000000Y-65700000D02*
X20000000Y-65700000D01*
X21000000Y-20000000D02*
X20000000Y-20000000D01*
X150000000Y-20000000D02*
X21000000Y-20000000D01*
%TO.C,J1*%
X35562200Y-118605000D02*
X35562200Y-122000000D01*
X47837800Y-118605000D02*
X47837800Y-122000000D01*
X35562200Y-118605000D02*
X34412200Y-118605000D01*
X47837800Y-118605000D02*
X48987800Y-118605000D01*
X34412200Y-116700000D02*
X34412200Y-118605000D01*
X48987800Y-116700000D02*
X48987800Y-118605000D01*
X35562200Y-116700000D02*
X34412200Y-116700000D01*
X47837800Y-116700000D02*
X48987800Y-116700000D01*
X35562200Y-114000000D02*
X35562200Y-116700000D01*
X47837800Y-114000000D02*
X47837800Y-116700000D01*
X38450000Y-114000000D02*
X35562200Y-114000000D01*
X44950000Y-114000000D02*
X47837800Y-114000000D01*
X44950000Y-114000000D02*
X44950000Y-121250000D01*
X38450000Y-121250000D02*
X38450000Y-114000000D01*
X44950000Y-121250000D02*
X38450000Y-121250000D01*
%TD*%
M02*
