M48
; DRILL file {KiCad 5.1.6} date Mon Aug 24 17:36:16 2020
; FORMAT={-:-/ absolute / metric / decimal}
; #@! TF.CreationDate,2020-08-24T17:36:16+02:00
; #@! TF.GenerationSoftware,Kicad,Pcbnew,5.1.6
; #@! TF.FileFunction,Plated,1,4,PTH
FMAT,2
METRIC
T1C0.200
T2C0.600
T3C0.750
T4C0.900
T5C0.950
T6C1.000
T7C1.500
T8C2.300
T9C3.100
%
G90
G05
T1
X20.5Y-21.5
X20.5Y-23.5
X20.5Y-25.5
X20.5Y-27.5
X20.5Y-29.5
X20.5Y-31.5
X20.5Y-33.5
X20.5Y-35.5
X20.5Y-37.5
X20.5Y-39.5
X20.5Y-41.5
X20.5Y-43.5
X20.5Y-45.5
X20.5Y-47.5
X20.5Y-49.5
X20.5Y-51.5
X20.5Y-53.5
X20.5Y-55.5
X20.5Y-57.5
X20.5Y-59.5
X20.5Y-61.5
X20.5Y-63.5
X20.5Y-78.5
X20.5Y-80.5
X20.5Y-82.5
X20.5Y-84.5
X20.5Y-86.5
X20.5Y-88.5
X20.5Y-90.5
X20.5Y-92.5
X20.5Y-94.5
X20.5Y-96.5
X20.5Y-98.5
X20.5Y-100.5
X20.5Y-102.5
X20.5Y-104.5
X20.5Y-106.5
X20.5Y-108.5
X20.5Y-110.5
X20.5Y-112.5
X20.5Y-114.5
X20.5Y-116.5
X20.5Y-118.5
X20.5Y-120.5
X21.0Y-65.3
X21.0Y-76.7
X21.5Y-40.5
X21.5Y-41.5
X21.5Y-42.5
X21.5Y-43.5
X21.5Y-44.5
X21.5Y-45.5
X21.5Y-46.5
X21.5Y-47.5
X21.5Y-47.5
X21.5Y-48.5
X21.5Y-49.5
X21.5Y-49.5
X21.5Y-50.5
X21.5Y-51.5
X21.5Y-51.5
X21.5Y-52.5
X21.5Y-53.5
X21.5Y-53.5
X21.5Y-54.5
X21.5Y-55.5
X21.5Y-55.5
X21.5Y-56.5
X21.5Y-57.5
X21.5Y-57.5
X21.5Y-58.5
X21.5Y-59.5
X21.5Y-59.5
X21.5Y-60.5
X21.5Y-61.5
X21.5Y-62.5
X21.5Y-121.5
X22.0Y-65.3
X22.0Y-76.7
X22.225Y-37.0
X22.225Y-38.0
X22.225Y-39.0
X22.5Y-20.5
X22.5Y-40.5
X22.5Y-62.5
X22.9Y-46.3
X22.9Y-48.3
X22.9Y-50.3
X22.9Y-52.3
X22.9Y-54.3
X22.9Y-56.3
X22.9Y-58.3
X22.9Y-60.3
X23.0Y-65.3
X23.0Y-76.7
X23.225Y-37.0
X23.225Y-38.0
X23.225Y-39.0
X23.5Y-40.5
X23.5Y-62.5
X23.5Y-121.5
X23.8Y-44.3
X23.914Y-89.395
X23.95Y-31.95
X24.0Y-65.3
X24.0Y-76.7
X24.225Y-37.0
X24.225Y-38.0
X24.225Y-39.0
X24.35Y-32.35
X24.5Y-20.5
X24.5Y-40.5
X24.5Y-62.5
X24.7Y-32.7
X24.9Y-46.3
X24.9Y-48.3
X24.9Y-50.3
X24.9Y-52.3
X24.9Y-54.3
X24.9Y-56.3
X24.9Y-58.3
X24.9Y-60.3
X24.994Y-107.823
X25.0Y-65.3
X25.0Y-76.7
X25.0Y-76.7
X25.225Y-37.0
X25.225Y-38.0
X25.225Y-39.0
X25.5Y-62.5
X25.5Y-121.5
X26.0Y-65.4
X26.0Y-76.6
X26.225Y-37.0
X26.225Y-38.0
X26.225Y-39.0
X26.4Y-113.0
X26.5Y-20.5
X26.5Y-62.5
X26.9Y-46.3
X26.9Y-48.3
X26.9Y-50.3
X26.9Y-52.3
X26.9Y-54.3
X26.9Y-56.3
X26.9Y-58.3
X26.9Y-60.3
X26.95Y-65.644
X26.95Y-76.356
X27.191Y-116.954
X27.225Y-112.1
X27.5Y-40.5
X27.5Y-62.5
X27.5Y-121.5
X28.0Y-111.65
X28.5Y-20.5
X28.5Y-40.5
X28.5Y-62.5
X28.561Y-43.945
X28.561Y-44.707
X28.664Y-66.634
X28.664Y-75.366
X28.804Y-104.14
X28.9Y-46.3
X28.9Y-48.3
X28.9Y-50.3
X28.9Y-52.3
X28.9Y-54.3
X28.9Y-56.3
X28.9Y-58.3
X28.9Y-60.3
X29.423Y-43.946
X29.5Y-40.5
X29.5Y-62.5
X29.5Y-121.5
X29.769Y-117.056
X29.936Y-68.15
X29.936Y-73.85
X30.084Y-43.946
X30.5Y-20.5
X30.5Y-40.5
X30.5Y-62.5
X30.613Y-70.01
X30.613Y-71.99
X30.795Y-43.946
X30.9Y-46.3
X30.9Y-48.3
X30.9Y-50.3
X30.9Y-52.3
X30.9Y-54.3
X30.9Y-56.3
X30.9Y-58.3
X30.9Y-60.3
X31.455Y-43.946
X31.5Y-40.5
X31.5Y-62.5
X31.5Y-121.5
X32.141Y-43.946
X32.3Y-41.8
X32.5Y-20.5
X32.5Y-40.5
X32.5Y-62.5
X32.801Y-43.946
X32.9Y-46.3
X32.9Y-48.3
X32.9Y-50.3
X32.9Y-52.3
X32.9Y-54.3
X32.9Y-56.3
X32.9Y-58.3
X32.9Y-60.3
X33.5Y-40.5
X33.5Y-62.5
X33.5Y-121.5
X33.7Y-33.5
X33.71Y-30.79
X34.5Y-20.5
X34.5Y-40.5
X34.5Y-62.5
X34.9Y-46.3
X34.9Y-48.3
X34.9Y-50.3
X34.9Y-52.3
X34.9Y-54.3
X34.9Y-56.3
X34.9Y-58.3
X34.9Y-60.3
X35.5Y-40.5
X35.5Y-62.5
X35.57Y-28.73
X36.5Y-20.5
X36.5Y-40.5
X36.5Y-62.5
X36.9Y-46.3
X36.9Y-48.3
X36.9Y-50.3
X36.9Y-52.3
X36.9Y-54.3
X36.9Y-56.3
X36.9Y-58.3
X36.9Y-60.3
X37.0Y-113.5
X37.4Y-33.65
X37.4Y-35.55
X37.401Y-34.608
X37.5Y-40.5
X37.5Y-62.5
X38.5Y-20.5
X38.5Y-40.5
X38.5Y-41.5
X38.5Y-42.5
X38.5Y-43.5
X38.5Y-44.5
X38.5Y-45.5
X38.5Y-46.5
X38.5Y-47.5
X38.5Y-48.5
X38.5Y-49.5
X38.5Y-50.5
X38.5Y-51.5
X38.5Y-52.5
X38.5Y-53.5
X38.5Y-54.5
X38.5Y-55.5
X38.5Y-56.5
X38.5Y-57.5
X38.5Y-58.5
X38.5Y-59.5
X38.5Y-60.5
X38.5Y-61.5
X38.5Y-62.5
X39.624Y-34.608
X39.65Y-111.6
X39.75Y-38.5
X39.75Y-39.0
X39.75Y-39.5
X39.8Y-113.3
X40.2Y-46.4
X40.4Y-37.95
X40.5Y-20.5
X40.5Y-27.8
X40.7Y-26.0
X40.715Y-44.485
X41.05Y-36.65
X41.148Y-30.404
X41.2Y-41.0
X41.7Y-111.5
X42.164Y-28.003
X42.25Y-35.95
X42.5Y-20.5
X42.6Y-42.6
X43.116Y-28.003
X43.55Y-35.375
X43.6Y-113.3
X43.75Y-44.75
X43.75Y-47.25
X43.887Y-37.583
X44.171Y-30.404
X44.386Y-37.093
X44.5Y-20.5
X45.1Y-26.0
X45.2Y-64.875
X45.3Y-27.8
X45.35Y-36.65
X45.5Y-42.75
X45.8Y-51.4
X46.0Y-37.95
X46.1Y-27.8
X46.25Y-44.75
X46.25Y-47.25
X46.25Y-113.5
X46.5Y-20.5
X46.675Y-64.55
X46.7Y-35.35
X47.3Y-36.7
X48.25Y-51.75
X48.5Y-20.5
X49.5Y-121.5
X49.589Y-26.505
X50.457Y-119.926
X50.5Y-20.5
X51.5Y-121.5
X52.5Y-20.5
X52.6Y-24.1
X53.5Y-121.5
X54.064Y-109.69
X54.5Y-20.5
X55.448Y-70.599
X55.5Y-121.5
X55.512Y-35.217
X55.6Y-111.55
X55.905Y-111.023
X56.032Y-69.38
X56.142Y-23.101
X56.45Y-36.8
X56.5Y-20.5
X56.5Y-67.7
X56.502Y-68.313
X57.2Y-112.1
X57.5Y-121.5
X58.039Y-111.011
X58.068Y-85.941
X58.318Y-117.64
X58.421Y-24.36
X58.433Y-111.633
X58.5Y-20.5
X58.7Y-109.3
X59.004Y-24.359
X59.1Y-33.85
X59.5Y-121.5
X59.55Y-26.2
X59.75Y-36.7
X59.75Y-67.15
X59.931Y-71.653
X60.261Y-119.85
X60.3Y-46.7
X60.5Y-20.5
X60.5Y-35.2
X60.579Y-33.528
X60.579Y-71.628
X60.8Y-30.85
X61.1Y-108.9
X61.214Y-71.628
X61.3Y-112.4
X61.5Y-121.5
X61.849Y-72.898
X61.875Y-81.65
X61.925Y-100.375
X62.0Y-36.7
X62.0Y-46.0
X62.5Y-20.5
X62.508Y-72.969
X62.9Y-35.3
X62.992Y-28.219
X63.1Y-72.8
X63.2Y-81.1
X63.225Y-99.725
X63.5Y-121.5
X63.777Y-70.573
X63.779Y-78.384
X64.262Y-30.607
X64.35Y-26.2
X64.491Y-78.346
X64.5Y-20.5
X64.8Y-60.7
X65.392Y-77.292
X65.469Y-77.99
X65.5Y-121.5
X65.54Y-30.96
X65.7Y-31.8
X65.875Y-114.808
X65.904Y-78.419
X66.0Y-52.4
X66.425Y-104.925
X66.5Y-20.5
X66.7Y-50.8
X66.916Y-111.633
X66.954Y-110.985
X67.1Y-80.525
X67.1Y-103.6
X67.1Y-110.35
X67.1Y-112.2
X67.15Y-74.775
X67.5Y-121.5
X67.539Y-80.124
X67.541Y-113.985
X67.975Y-75.125
X67.975Y-80.525
X67.975Y-112.2
X67.975Y-113.55
X68.0Y-110.35
X68.034Y-56.223
X68.072Y-23.089
X68.161Y-110.973
X68.161Y-111.62
X68.5Y-20.5
X68.95Y-58.325
X69.15Y-31.65
X69.5Y-59.25
X69.5Y-121.5
X69.583Y-78.003
X69.583Y-78.934
X69.95Y-69.9
X70.016Y-58.992
X70.029Y-77.588
X70.104Y-78.419
X70.282Y-114.821
X70.5Y-20.5
X70.55Y-69.8
X70.828Y-56.312
X70.866Y-77.911
X70.95Y-90.8
X70.975Y-85.825
X71.031Y-63.576
X71.044Y-62.662
X71.1Y-21.75
X71.15Y-69.9
X71.191Y-71.891
X71.5Y-121.5
X71.755Y-76.327
X71.8Y-71.8
X72.0Y-61.265
X72.1Y-72.35
X72.125Y-73.05
X72.129Y-75.873
X72.175Y-69.9
X72.2Y-68.125
X72.2Y-73.8
X72.2Y-74.377
X72.2Y-75.3
X72.2Y-76.85
X72.265Y-61.778
X72.3Y-66.8
X72.3Y-67.4
X72.5Y-20.5
X72.65Y-49.9
X72.65Y-79.35
X73.025Y-49.403
X73.203Y-28.321
X73.457Y-48.87
X73.5Y-121.5
X73.571Y-93.574
X73.914Y-95.886
X74.041Y-50.673
X74.1Y-28.8
X74.25Y-64.347
X74.25Y-65.35
X74.25Y-66.35
X74.35Y-82.4
X74.381Y-50.207
X74.425Y-79.775
X74.45Y-70.85
X74.45Y-74.325
X74.45Y-77.325
X74.465Y-77.911
X74.5Y-20.5
X74.6Y-63.85
X74.6Y-64.85
X74.6Y-65.85
X74.65Y-62.25
X74.803Y-49.784
X74.969Y-96.138
X75.1Y-28.05
X75.4Y-55.55
X75.45Y-97.4
X75.5Y-121.5
X75.6Y-101.1
X75.65Y-36.7
X76.025Y-63.35
X76.053Y-89.8
X76.098Y-32.309
X76.302Y-36.779
X76.323Y-93.503
X76.4Y-87.1
X76.4Y-99.075
X76.5Y-20.5
X76.825Y-78.65
X76.825Y-81.0
X76.962Y-36.728
X77.175Y-50.8
X77.2Y-41.2
X77.2Y-86.6
X77.216Y-28.804
X77.216Y-29.464
X77.3Y-53.4
X77.45Y-94.7
X77.475Y-97.9
X77.5Y-121.5
X77.725Y-55.55
X77.75Y-63.35
X78.0Y-87.1
X78.24Y-23.131
X78.334Y-52.667
X78.45Y-39.95
X78.5Y-20.5
X78.5Y-49.45
X78.524Y-89.865
X78.8Y-59.9
X78.8Y-86.6
X78.8Y-118.2
X78.816Y-108.153
X79.25Y-53.25
X79.3Y-55.55
X79.3Y-58.8
X79.325Y-72.65
X79.5Y-74.025
X79.5Y-91.3
X79.5Y-121.5
X79.7Y-73.4
X79.75Y-52.75
X80.312Y-89.891
X80.4Y-76.6
X80.4Y-86.6
X80.5Y-20.5
X81.2Y-74.075
X81.2Y-76.6
X81.2Y-87.1
X81.35Y-42.15
X81.45Y-35.1
X81.5Y-121.5
X81.65Y-110.5
X81.7Y-98.15
X81.7Y-112.05
X81.725Y-77.6
X81.8Y-94.5
X81.9Y-86.9
X81.991Y-81.534
X82.0Y-89.5
X82.0Y-98.9
X82.05Y-69.95
X82.1Y-35.2
X82.15Y-90.37
X82.25Y-78.35
X82.5Y-20.5
X82.55Y-42.164
X82.65Y-110.5
X82.7Y-55.55
X82.7Y-62.2
X82.7Y-87.501
X82.8Y-99.0
X83.067Y-91.272
X83.1Y-96.85
X83.185Y-42.164
X83.2Y-43.4
X83.2Y-51.525
X83.2Y-113.55
X83.223Y-78.048
X83.225Y-78.625
X83.25Y-62.75
X83.287Y-107.213
X83.312Y-28.245
X83.5Y-121.5
X83.6Y-96.306
X83.725Y-75.1
X83.762Y-42.164
X83.8Y-55.4
X83.8Y-62.525
X83.825Y-89.7
X83.94Y-87.495
X83.95Y-110.5
X84.262Y-55.746
X84.5Y-20.5
X84.633Y-95.273
X84.85Y-65.15
X84.85Y-110.5
X85.2Y-87.5
X85.35Y-28.1
X85.5Y-121.5
X85.522Y-107.264
X85.55Y-41.6
X85.7Y-65.05
X85.725Y-76.075
X85.75Y-89.75
X85.753Y-80.8
X85.8Y-42.175
X85.8Y-53.275
X85.8Y-93.35
X85.85Y-67.3
X85.852Y-23.089
X85.865Y-76.67
X86.025Y-96.525
X86.068Y-101.244
X86.15Y-110.5
X86.2Y-95.5
X86.233Y-57.277
X86.4Y-89.75
X86.5Y-20.5
X86.625Y-39.95
X86.656Y-57.726
X86.925Y-77.375
X87.058Y-57.213
X87.15Y-110.5
X87.2Y-43.05
X87.4Y-28.6
X87.4Y-90.9
X87.4Y-93.4
X87.45Y-41.6
X87.5Y-121.5
X87.6Y-88.55
X87.6Y-98.9
X87.63Y-57.658
X87.681Y-101.194
X87.85Y-97.2
X87.9Y-92.7
X88.05Y-67.25
X88.1Y-95.4
X88.15Y-91.55
X88.2Y-57.825
X88.2Y-78.6
X88.2Y-110.5
X88.3Y-44.075
X88.481Y-52.108
X88.5Y-20.5
X88.5Y-81.7
X88.646Y-41.402
X88.7Y-55.6
X88.777Y-78.6
X88.875Y-68.875
X89.2Y-92.7
X89.3Y-55.6
X89.484Y-52.108
X89.5Y-121.5
X89.662Y-28.956
X89.802Y-101.194
X90.0Y-87.55
X90.0Y-98.9
X90.05Y-74.25
X90.375Y-41.3
X90.5Y-20.5
X90.6Y-77.0
X90.78Y-69.253
X90.784Y-53.308
X90.8Y-58.25
X90.9Y-72.65
X91.05Y-55.55
X91.075Y-58.775
X91.1Y-74.45
X91.1Y-78.65
X91.15Y-93.25
X91.2Y-52.9
X91.313Y-29.654
X91.5Y-95.6
X91.5Y-121.5
X91.6Y-55.8
X91.6Y-87.3
X91.85Y-47.25
X92.25Y-114.425
X92.4Y-55.8
X92.4Y-87.1
X92.4Y-89.85
X92.4Y-98.85
X92.469Y-101.244
X92.5Y-20.5
X92.6Y-48.175
X92.637Y-52.8
X93.053Y-52.222
X93.078Y-80.962
X93.091Y-30.659
X93.091Y-43.053
X93.091Y-77.927
X93.269Y-78.906
X93.4Y-96.8
X93.4Y-108.2
X93.5Y-67.25
X93.525Y-35.125
X93.55Y-59.0
X93.575Y-78.375
X93.6Y-42.05
X93.6Y-58.3
X93.624Y-52.303
X93.675Y-32.766
X93.8Y-52.9
X93.86Y-69.69
X94.25Y-80.75
X94.35Y-34.025
X94.4Y-118.3
X94.5Y-20.5
X94.5Y-121.5
X94.65Y-60.0
X94.667Y-101.22
X94.7Y-30.65
X94.7Y-49.125
X94.75Y-81.34
X94.75Y-87.265
X94.856Y-51.511
X94.869Y-33.528
X95.1Y-65.8
X95.2Y-55.4
X95.2Y-71.0
X95.325Y-78.65
X95.5Y-67.25
X95.517Y-80.95
X95.6Y-87.2
X95.6Y-89.9
X95.675Y-69.85
X95.75Y-30.7
X95.75Y-72.0
X95.8Y-55.4
X95.9Y-97.95
X96.0Y-51.075
X96.139Y-33.528
X96.25Y-70.5
X96.4Y-99.1
X96.5Y-20.5
X96.5Y-121.5
X96.575Y-34.025
X96.613Y-41.148
X96.7Y-30.65
X96.85Y-46.609
X97.13Y-68.853
X97.2Y-66.35
X97.225Y-78.725
X97.25Y-67.25
X97.282Y-43.739
X97.282Y-79.375
X97.318Y-54.344
X97.477Y-65.82
X97.5Y-64.55
X97.5Y-65.2
X97.55Y-60.45
X97.55Y-61.75
X97.688Y-57.861
X97.7Y-58.8
X97.7Y-59.377
X97.7Y-70.8
X97.7Y-71.377
X97.7Y-76.8
X97.7Y-77.377
X97.95Y-110.55
X98.5Y-20.5
X98.5Y-121.5
X98.56Y-23.131
X99.35Y-81.55
X99.386Y-36.503
X99.386Y-43.615
X99.876Y-36.134
X99.876Y-43.189
X100.0Y-62.8
X100.0Y-63.7
X100.0Y-67.8
X100.013Y-78.688
X100.273Y-51.46
X100.4Y-36.5
X100.4Y-69.853
X100.5Y-20.5
X100.5Y-121.5
X100.75Y-67.766
X101.0Y-68.3
X101.054Y-58.598
X101.067Y-59.588
X101.092Y-108.966
X101.3Y-95.425
X101.3Y-103.65
X101.3Y-105.625
X101.475Y-71.6
X101.5Y-68.75
X101.65Y-111.8
X101.727Y-83.604
X101.727Y-106.045
X101.75Y-69.5
X101.775Y-81.75
X102.197Y-78.676
X102.225Y-107.525
X102.235Y-76.263
X102.26Y-77.076
X102.26Y-77.838
X102.489Y-42.037
X102.5Y-20.5
X102.5Y-121.5
X102.8Y-60.7
X103.0Y-68.25
X103.225Y-114.35
X103.5Y-63.7
X103.625Y-49.025
X103.632Y-23.012
X104.14Y-63.602
X104.2Y-28.025
X104.5Y-20.5
X104.5Y-121.5
X104.699Y-62.992
X104.8Y-62.4
X104.825Y-50.225
X104.825Y-53.775
X105.156Y-74.066
X105.664Y-73.406
X105.75Y-107.775
X106.172Y-70.612
X106.5Y-20.5
X106.5Y-121.5
X106.55Y-48.85
X106.587Y-71.3
X106.587Y-71.3
X106.6Y-70.2
X107.015Y-63.551
X107.025Y-65.05
X107.04Y-73.14
X107.45Y-26.0
X107.556Y-64.084
X107.6Y-73.0
X108.0Y-51.0
X108.0Y-53.7
X108.5Y-20.5
X108.5Y-121.5
X109.0Y-108.55
X110.0Y-26.0
X110.475Y-78.275
X110.5Y-20.5
X110.5Y-121.5
X110.744Y-51.384
X111.277Y-28.219
X112.5Y-20.5
X112.5Y-121.5
X113.85Y-53.7
X114.35Y-51.35
X114.4Y-57.3
X114.5Y-20.5
X114.5Y-121.5
X114.859Y-26.2
X116.5Y-20.5
X116.5Y-121.5
X116.7Y-51.35
X116.7Y-53.7
X116.84Y-66.599
X118.5Y-20.5
X118.5Y-121.5
X120.5Y-20.5
X120.5Y-121.5
X121.75Y-36.35
X122.5Y-20.5
X122.5Y-121.5
X122.875Y-37.6
X123.025Y-35.025
X124.0Y-35.025
X124.0Y-41.75
X124.025Y-30.925
X124.3Y-52.351
X124.5Y-20.5
X124.5Y-121.5
X125.125Y-51.325
X125.325Y-53.675
X125.8Y-50.175
X126.25Y-51.0
X126.5Y-20.5
X126.5Y-121.5
X126.508Y-52.766
X126.55Y-51.8
X127.0Y-54.75
X127.15Y-25.725
X127.6Y-26.55
X127.6Y-28.475
X127.675Y-49.0
X127.75Y-58.25
X128.0Y-53.75
X128.0Y-54.75
X128.125Y-50.3
X128.266Y-58.508
X128.5Y-20.5
X128.5Y-121.5
X128.75Y-59.0
X128.8Y-48.825
X128.8Y-49.45
X129.221Y-59.725
X129.3Y-46.55
X129.3Y-52.325
X130.0Y-60.5
X130.45Y-34.95
X130.5Y-20.5
X130.5Y-121.5
X130.675Y-46.475
X130.83Y-35.5
X131.25Y-59.5
X131.75Y-33.875
X131.8Y-26.55
X132.25Y-25.7
X132.45Y-50.975
X132.5Y-20.5
X132.5Y-39.25
X132.5Y-121.5
X132.75Y-43.75
X132.75Y-52.75
X133.0Y-36.5
X133.125Y-26.575
X133.325Y-41.25
X133.75Y-34.5
X134.5Y-20.5
X134.5Y-121.5
X134.7Y-28.1
X135.25Y-36.5
X136.25Y-65.25
X136.325Y-51.225
X136.5Y-20.5
X136.5Y-121.5
X137.55Y-35.475
X138.0Y-39.75
X138.0Y-42.0
X138.0Y-44.5
X138.0Y-49.0
X138.0Y-53.5
X138.0Y-58.0
X138.25Y-37.5
X138.5Y-20.5
X138.5Y-121.5
X139.25Y-33.75
X139.387Y-70.01
X139.387Y-71.99
X140.064Y-68.15
X140.064Y-73.85
X140.5Y-20.5
X140.5Y-121.5
X141.336Y-66.634
X141.336Y-75.366
X141.75Y-61.75
X142.5Y-20.5
X142.5Y-121.5
X143.05Y-65.644
X143.05Y-76.356
X143.25Y-38.25
X144.0Y-65.4
X144.0Y-76.6
X144.5Y-20.5
X144.5Y-121.5
X145.0Y-65.3
X145.0Y-65.3
X145.0Y-76.7
X146.0Y-65.3
X146.0Y-76.7
X146.5Y-20.5
X146.5Y-121.5
X147.0Y-65.3
X147.0Y-76.7
X148.0Y-65.3
X148.0Y-76.7
X148.5Y-20.5
X148.5Y-121.5
X149.0Y-65.3
X149.0Y-76.7
X149.5Y-21.5
X149.5Y-23.5
X149.5Y-25.5
X149.5Y-27.5
X149.5Y-29.5
X149.5Y-31.5
X149.5Y-33.5
X149.5Y-35.5
X149.5Y-37.5
X149.5Y-39.5
X149.5Y-41.5
X149.5Y-43.5
X149.5Y-45.5
X149.5Y-47.5
X149.5Y-49.5
X149.5Y-51.5
X149.5Y-53.5
X149.5Y-55.5
X149.5Y-57.5
X149.5Y-59.5
X149.5Y-61.5
X149.5Y-63.5
X149.5Y-78.5
X149.5Y-80.5
X149.5Y-82.5
X149.5Y-84.5
X149.5Y-86.5
X149.5Y-88.5
X149.5Y-90.5
X149.5Y-92.5
X149.5Y-94.5
X149.5Y-96.5
X149.5Y-98.5
X149.5Y-100.5
X149.5Y-102.5
X149.5Y-104.5
X149.5Y-106.5
X149.5Y-108.5
X149.5Y-110.5
X149.5Y-112.5
X149.5Y-114.5
X149.5Y-116.5
X149.5Y-118.5
X149.5Y-120.5
T3
X25.93Y-107.8
X27.2Y-107.8
X28.47Y-107.8
T4
X24.6Y-115.6
X27.14Y-115.6
X29.68Y-115.6
T5
X25.5Y-33.5
X28.0Y-33.5
X30.0Y-33.5
X32.5Y-33.5
T6
X127.855Y-30.21
X129.0Y-27.67
X129.0Y-32.75
X130.145Y-30.21
X131.29Y-27.67
X131.29Y-32.75
X132.435Y-30.21
X133.58Y-27.67
X133.58Y-32.75
X134.725Y-30.21
X135.87Y-27.67
X135.87Y-32.75
X137.015Y-30.21
X138.16Y-27.67
X138.16Y-32.75
X63.0Y-24.36
X63.0Y-26.9
X65.54Y-24.36
X65.54Y-26.9
X68.08Y-24.36
X68.08Y-26.9
X70.62Y-24.36
X70.62Y-26.9
X73.16Y-24.36
X73.16Y-26.9
X75.7Y-24.36
X75.7Y-26.9
X78.24Y-24.36
X78.24Y-26.9
X80.78Y-24.36
X80.78Y-26.9
X83.32Y-24.36
X83.32Y-26.9
X85.86Y-24.36
X85.86Y-26.9
X88.4Y-24.36
X88.4Y-26.9
X90.94Y-24.36
X90.94Y-26.9
X93.48Y-24.36
X93.48Y-26.9
X96.02Y-24.36
X96.02Y-26.9
X98.56Y-24.36
X98.56Y-26.9
X101.1Y-24.36
X101.1Y-26.9
X103.64Y-24.36
X103.64Y-26.9
X106.18Y-24.36
X106.18Y-26.9
X108.72Y-24.36
X108.72Y-26.9
X111.26Y-24.36
X111.26Y-26.9
X118.95Y-46.5
X121.49Y-46.5
X124.03Y-46.5
X112.8Y-55.19
X112.8Y-57.73
X112.8Y-60.27
X112.8Y-62.81
X112.8Y-65.35
T7
X50.18Y-25.0
X50.18Y-31.7
X54.82Y-33.4
X55.02Y-24.1
X55.02Y-27.7
T8
X22.43Y-30.79
X35.57Y-30.79
T9
X120.815Y-30.21
X145.815Y-30.21
T2
G00X38.58Y-21.76
M15
G01X38.58Y-22.56
M16
G05
G00X38.58Y-25.78
M15
G01X38.58Y-26.88
M16
G05
G00X47.22Y-21.76
M15
G01X47.22Y-22.56
M16
G05
G00X47.22Y-25.78
M15
G01X47.22Y-26.88
M16
G05
T0
M30
