%TF.GenerationSoftware,KiCad,Pcbnew,5.1.6*%
%TF.CreationDate,2020-08-24T17:36:10+02:00*%
%TF.ProjectId,CMM2-JLC,434d4d32-2d4a-44c4-932e-6b696361645f,D*%
%TF.SameCoordinates,Original*%
%TF.FileFunction,Paste,Top*%
%TF.FilePolarity,Positive*%
%FSLAX46Y46*%
G04 Gerber Fmt 4.6, Leading zero omitted, Abs format (unit mm)*
G04 Created by KiCad (PCBNEW 5.1.6) date 2020-08-24 17:36:10*
%MOMM*%
%LPD*%
G01*
G04 APERTURE LIST*
%ADD10R,0.456000X0.881600*%
%ADD11R,0.228000X0.881600*%
%ADD12R,2.280000X3.192000*%
%ADD13R,0.348080X1.147600*%
%ADD14R,0.805600X0.494000*%
%ADD15R,1.824000X1.520000*%
%ADD16R,1.368000X0.760000*%
%ADD17R,1.140000X1.520000*%
%ADD18R,2.888000X1.520000*%
%ADD19R,0.760000X0.570000*%
%ADD20R,0.532000X1.216000*%
%ADD21R,0.912000X1.672000*%
%ADD22R,0.912000X1.140000*%
%ADD23R,1.216000X1.140000*%
G04 APERTURE END LIST*
D10*
%TO.C,J4*%
X39700000Y-26910000D03*
X40500000Y-26910000D03*
X39700000Y-26910000D03*
X40500000Y-26910000D03*
X46100000Y-26910000D03*
X46100000Y-26910000D03*
X45300000Y-26910000D03*
X45300000Y-26910000D03*
D11*
X41150000Y-26910000D03*
X42150000Y-26910000D03*
X41650000Y-26910000D03*
X44150000Y-26910000D03*
X44650000Y-26910000D03*
X42650000Y-26910000D03*
X43150000Y-26910000D03*
X43650000Y-26910000D03*
%TD*%
%TO.C,C37*%
G36*
G01*
X95724300Y-52823400D02*
X95724300Y-52561200D01*
G75*
G02*
X95836400Y-52449100I112100J0D01*
G01*
X96060600Y-52449100D01*
G75*
G02*
X96172700Y-52561200I0J-112100D01*
G01*
X96172700Y-52823400D01*
G75*
G02*
X96060600Y-52935500I-112100J0D01*
G01*
X95836400Y-52935500D01*
G75*
G02*
X95724300Y-52823400I0J112100D01*
G01*
G37*
G36*
G01*
X94754300Y-52823400D02*
X94754300Y-52561200D01*
G75*
G02*
X94866400Y-52449100I112100J0D01*
G01*
X95090600Y-52449100D01*
G75*
G02*
X95202700Y-52561200I0J-112100D01*
G01*
X95202700Y-52823400D01*
G75*
G02*
X95090600Y-52935500I-112100J0D01*
G01*
X94866400Y-52935500D01*
G75*
G02*
X94754300Y-52823400I0J112100D01*
G01*
G37*
%TD*%
%TO.C,C36*%
G36*
G01*
X71733700Y-66909500D02*
X71471500Y-66909500D01*
G75*
G02*
X71359400Y-66797400I0J112100D01*
G01*
X71359400Y-66573200D01*
G75*
G02*
X71471500Y-66461100I112100J0D01*
G01*
X71733700Y-66461100D01*
G75*
G02*
X71845800Y-66573200I0J-112100D01*
G01*
X71845800Y-66797400D01*
G75*
G02*
X71733700Y-66909500I-112100J0D01*
G01*
G37*
G36*
G01*
X71733700Y-67879500D02*
X71471500Y-67879500D01*
G75*
G02*
X71359400Y-67767400I0J112100D01*
G01*
X71359400Y-67543200D01*
G75*
G02*
X71471500Y-67431100I112100J0D01*
G01*
X71733700Y-67431100D01*
G75*
G02*
X71845800Y-67543200I0J-112100D01*
G01*
X71845800Y-67767400D01*
G75*
G02*
X71733700Y-67879500I-112100J0D01*
G01*
G37*
%TD*%
%TO.C,C35*%
G36*
G01*
X100021100Y-72221400D02*
X100283300Y-72221400D01*
G75*
G02*
X100395400Y-72333500I0J-112100D01*
G01*
X100395400Y-72557700D01*
G75*
G02*
X100283300Y-72669800I-112100J0D01*
G01*
X100021100Y-72669800D01*
G75*
G02*
X99909000Y-72557700I0J112100D01*
G01*
X99909000Y-72333500D01*
G75*
G02*
X100021100Y-72221400I112100J0D01*
G01*
G37*
G36*
G01*
X100021100Y-71251400D02*
X100283300Y-71251400D01*
G75*
G02*
X100395400Y-71363500I0J-112100D01*
G01*
X100395400Y-71587700D01*
G75*
G02*
X100283300Y-71699800I-112100J0D01*
G01*
X100021100Y-71699800D01*
G75*
G02*
X99909000Y-71587700I0J112100D01*
G01*
X99909000Y-71363500D01*
G75*
G02*
X100021100Y-71251400I112100J0D01*
G01*
G37*
%TD*%
%TO.C,C34*%
G36*
G01*
X78099100Y-52810700D02*
X78099100Y-52548500D01*
G75*
G02*
X78211200Y-52436400I112100J0D01*
G01*
X78435400Y-52436400D01*
G75*
G02*
X78547500Y-52548500I0J-112100D01*
G01*
X78547500Y-52810700D01*
G75*
G02*
X78435400Y-52922800I-112100J0D01*
G01*
X78211200Y-52922800D01*
G75*
G02*
X78099100Y-52810700I0J112100D01*
G01*
G37*
G36*
G01*
X77129100Y-52810700D02*
X77129100Y-52548500D01*
G75*
G02*
X77241200Y-52436400I112100J0D01*
G01*
X77465400Y-52436400D01*
G75*
G02*
X77577500Y-52548500I0J-112100D01*
G01*
X77577500Y-52810700D01*
G75*
G02*
X77465400Y-52922800I-112100J0D01*
G01*
X77241200Y-52922800D01*
G75*
G02*
X77129100Y-52810700I0J112100D01*
G01*
G37*
%TD*%
%TO.C,C33*%
G36*
G01*
X100478300Y-78975400D02*
X100740500Y-78975400D01*
G75*
G02*
X100852600Y-79087500I0J-112100D01*
G01*
X100852600Y-79311700D01*
G75*
G02*
X100740500Y-79423800I-112100J0D01*
G01*
X100478300Y-79423800D01*
G75*
G02*
X100366200Y-79311700I0J112100D01*
G01*
X100366200Y-79087500D01*
G75*
G02*
X100478300Y-78975400I112100J0D01*
G01*
G37*
G36*
G01*
X100478300Y-78005400D02*
X100740500Y-78005400D01*
G75*
G02*
X100852600Y-78117500I0J-112100D01*
G01*
X100852600Y-78341700D01*
G75*
G02*
X100740500Y-78453800I-112100J0D01*
G01*
X100478300Y-78453800D01*
G75*
G02*
X100366200Y-78341700I0J112100D01*
G01*
X100366200Y-78117500D01*
G75*
G02*
X100478300Y-78005400I112100J0D01*
G01*
G37*
%TD*%
%TO.C,C32*%
G36*
G01*
X84284000Y-52874200D02*
X84284000Y-52612000D01*
G75*
G02*
X84396100Y-52499900I112100J0D01*
G01*
X84620300Y-52499900D01*
G75*
G02*
X84732400Y-52612000I0J-112100D01*
G01*
X84732400Y-52874200D01*
G75*
G02*
X84620300Y-52986300I-112100J0D01*
G01*
X84396100Y-52986300D01*
G75*
G02*
X84284000Y-52874200I0J112100D01*
G01*
G37*
G36*
G01*
X83314000Y-52874200D02*
X83314000Y-52612000D01*
G75*
G02*
X83426100Y-52499900I112100J0D01*
G01*
X83650300Y-52499900D01*
G75*
G02*
X83762400Y-52612000I0J-112100D01*
G01*
X83762400Y-52874200D01*
G75*
G02*
X83650300Y-52986300I-112100J0D01*
G01*
X83426100Y-52986300D01*
G75*
G02*
X83314000Y-52874200I0J112100D01*
G01*
G37*
%TD*%
%TO.C,C30*%
G36*
G01*
X77553000Y-81804800D02*
X77553000Y-81542600D01*
G75*
G02*
X77665100Y-81430500I112100J0D01*
G01*
X77889300Y-81430500D01*
G75*
G02*
X78001400Y-81542600I0J-112100D01*
G01*
X78001400Y-81804800D01*
G75*
G02*
X77889300Y-81916900I-112100J0D01*
G01*
X77665100Y-81916900D01*
G75*
G02*
X77553000Y-81804800I0J112100D01*
G01*
G37*
G36*
G01*
X76583000Y-81804800D02*
X76583000Y-81542600D01*
G75*
G02*
X76695100Y-81430500I112100J0D01*
G01*
X76919300Y-81430500D01*
G75*
G02*
X77031400Y-81542600I0J-112100D01*
G01*
X77031400Y-81804800D01*
G75*
G02*
X76919300Y-81916900I-112100J0D01*
G01*
X76695100Y-81916900D01*
G75*
G02*
X76583000Y-81804800I0J112100D01*
G01*
G37*
%TD*%
%TO.C,C29*%
G36*
G01*
X100922800Y-65843600D02*
X101185000Y-65843600D01*
G75*
G02*
X101297100Y-65955700I0J-112100D01*
G01*
X101297100Y-66179900D01*
G75*
G02*
X101185000Y-66292000I-112100J0D01*
G01*
X100922800Y-66292000D01*
G75*
G02*
X100810700Y-66179900I0J112100D01*
G01*
X100810700Y-65955700D01*
G75*
G02*
X100922800Y-65843600I112100J0D01*
G01*
G37*
G36*
G01*
X100922800Y-64873600D02*
X101185000Y-64873600D01*
G75*
G02*
X101297100Y-64985700I0J-112100D01*
G01*
X101297100Y-65209900D01*
G75*
G02*
X101185000Y-65322000I-112100J0D01*
G01*
X100922800Y-65322000D01*
G75*
G02*
X100810700Y-65209900I0J112100D01*
G01*
X100810700Y-64985700D01*
G75*
G02*
X100922800Y-64873600I112100J0D01*
G01*
G37*
%TD*%
%TO.C,C28*%
G36*
G01*
X83468500Y-81339100D02*
X83206300Y-81339100D01*
G75*
G02*
X83094200Y-81227000I0J112100D01*
G01*
X83094200Y-81002800D01*
G75*
G02*
X83206300Y-80890700I112100J0D01*
G01*
X83468500Y-80890700D01*
G75*
G02*
X83580600Y-81002800I0J-112100D01*
G01*
X83580600Y-81227000D01*
G75*
G02*
X83468500Y-81339100I-112100J0D01*
G01*
G37*
G36*
G01*
X83468500Y-82309100D02*
X83206300Y-82309100D01*
G75*
G02*
X83094200Y-82197000I0J112100D01*
G01*
X83094200Y-81972800D01*
G75*
G02*
X83206300Y-81860700I112100J0D01*
G01*
X83468500Y-81860700D01*
G75*
G02*
X83580600Y-81972800I0J-112100D01*
G01*
X83580600Y-82197000D01*
G75*
G02*
X83468500Y-82309100I-112100J0D01*
G01*
G37*
%TD*%
%TO.C,C27*%
G36*
G01*
X71179400Y-74327200D02*
X71441600Y-74327200D01*
G75*
G02*
X71553700Y-74439300I0J-112100D01*
G01*
X71553700Y-74663500D01*
G75*
G02*
X71441600Y-74775600I-112100J0D01*
G01*
X71179400Y-74775600D01*
G75*
G02*
X71067300Y-74663500I0J112100D01*
G01*
X71067300Y-74439300D01*
G75*
G02*
X71179400Y-74327200I112100J0D01*
G01*
G37*
G36*
G01*
X71179400Y-73357200D02*
X71441600Y-73357200D01*
G75*
G02*
X71553700Y-73469300I0J-112100D01*
G01*
X71553700Y-73693500D01*
G75*
G02*
X71441600Y-73805600I-112100J0D01*
G01*
X71179400Y-73805600D01*
G75*
G02*
X71067300Y-73693500I0J112100D01*
G01*
X71067300Y-73469300D01*
G75*
G02*
X71179400Y-73357200I112100J0D01*
G01*
G37*
%TD*%
%TO.C,C26*%
G36*
G01*
X100376700Y-59341200D02*
X100638900Y-59341200D01*
G75*
G02*
X100751000Y-59453300I0J-112100D01*
G01*
X100751000Y-59677500D01*
G75*
G02*
X100638900Y-59789600I-112100J0D01*
G01*
X100376700Y-59789600D01*
G75*
G02*
X100264600Y-59677500I0J112100D01*
G01*
X100264600Y-59453300D01*
G75*
G02*
X100376700Y-59341200I112100J0D01*
G01*
G37*
G36*
G01*
X100376700Y-58371200D02*
X100638900Y-58371200D01*
G75*
G02*
X100751000Y-58483300I0J-112100D01*
G01*
X100751000Y-58707500D01*
G75*
G02*
X100638900Y-58819600I-112100J0D01*
G01*
X100376700Y-58819600D01*
G75*
G02*
X100264600Y-58707500I0J112100D01*
G01*
X100264600Y-58483300D01*
G75*
G02*
X100376700Y-58371200I112100J0D01*
G01*
G37*
%TD*%
%TO.C,C25*%
G36*
G01*
X71708300Y-62858200D02*
X71446100Y-62858200D01*
G75*
G02*
X71334000Y-62746100I0J112100D01*
G01*
X71334000Y-62521900D01*
G75*
G02*
X71446100Y-62409800I112100J0D01*
G01*
X71708300Y-62409800D01*
G75*
G02*
X71820400Y-62521900I0J-112100D01*
G01*
X71820400Y-62746100D01*
G75*
G02*
X71708300Y-62858200I-112100J0D01*
G01*
G37*
G36*
G01*
X71708300Y-63828200D02*
X71446100Y-63828200D01*
G75*
G02*
X71334000Y-63716100I0J112100D01*
G01*
X71334000Y-63491900D01*
G75*
G02*
X71446100Y-63379800I112100J0D01*
G01*
X71708300Y-63379800D01*
G75*
G02*
X71820400Y-63491900I0J-112100D01*
G01*
X71820400Y-63716100D01*
G75*
G02*
X71708300Y-63828200I-112100J0D01*
G01*
G37*
%TD*%
%TO.C,C24*%
G36*
G01*
X89237000Y-52861500D02*
X89237000Y-52599300D01*
G75*
G02*
X89349100Y-52487200I112100J0D01*
G01*
X89573300Y-52487200D01*
G75*
G02*
X89685400Y-52599300I0J-112100D01*
G01*
X89685400Y-52861500D01*
G75*
G02*
X89573300Y-52973600I-112100J0D01*
G01*
X89349100Y-52973600D01*
G75*
G02*
X89237000Y-52861500I0J112100D01*
G01*
G37*
G36*
G01*
X88267000Y-52861500D02*
X88267000Y-52599300D01*
G75*
G02*
X88379100Y-52487200I112100J0D01*
G01*
X88603300Y-52487200D01*
G75*
G02*
X88715400Y-52599300I0J-112100D01*
G01*
X88715400Y-52861500D01*
G75*
G02*
X88603300Y-52973600I-112100J0D01*
G01*
X88379100Y-52973600D01*
G75*
G02*
X88267000Y-52861500I0J112100D01*
G01*
G37*
%TD*%
D12*
%TO.C,BT1*%
X52900000Y-86800000D03*
X23900000Y-86800000D03*
%TD*%
D13*
%TO.C,U2*%
X96400000Y-100050000D03*
X95600000Y-100050000D03*
X94800000Y-100050000D03*
X94000000Y-100050000D03*
X93200000Y-100050000D03*
X92400000Y-100050000D03*
X91600000Y-100050000D03*
X90800000Y-100050000D03*
X90000000Y-100050000D03*
X89200000Y-100050000D03*
X88400000Y-100050000D03*
X87600000Y-100050000D03*
X86800000Y-100050000D03*
X86000000Y-100050000D03*
X85200000Y-100050000D03*
X84400000Y-100050000D03*
X83600000Y-100050000D03*
X82800000Y-100050000D03*
X82000000Y-100050000D03*
X81200000Y-100050000D03*
X80400000Y-100050000D03*
X79600000Y-100050000D03*
X78800000Y-100050000D03*
X78000000Y-100050000D03*
X77200000Y-100050000D03*
X76400000Y-100050000D03*
X75600000Y-100050000D03*
X75600000Y-88550000D03*
X76400000Y-88550000D03*
X77200000Y-88550000D03*
X78000000Y-88550000D03*
X78800000Y-88550000D03*
X79600000Y-88550000D03*
X80400000Y-88550000D03*
X81200000Y-88550000D03*
X82000000Y-88550000D03*
X82800000Y-88550000D03*
X83600000Y-88550000D03*
X84400000Y-88550000D03*
X85200000Y-88550000D03*
X86000000Y-88550000D03*
X86800000Y-88550000D03*
X87600000Y-88550000D03*
X88400000Y-88550000D03*
X89200000Y-88550000D03*
X90000000Y-88550000D03*
X90800000Y-88550000D03*
X91600000Y-88550000D03*
X92400000Y-88550000D03*
X93200000Y-88550000D03*
X94000000Y-88550000D03*
X94800000Y-88550000D03*
X95600000Y-88550000D03*
X96400000Y-88550000D03*
%TD*%
D14*
%TO.C,U3*%
X37400000Y-34600000D03*
X37400000Y-35550000D03*
X37400000Y-33650000D03*
X39600000Y-33650000D03*
X39600000Y-34600000D03*
X39600000Y-35550000D03*
%TD*%
D15*
%TO.C,Y2*%
X67310000Y-72462000D03*
X67310000Y-68762000D03*
%TD*%
D16*
%TO.C,Y1*%
X67564000Y-61956000D03*
X67564000Y-59456000D03*
%TD*%
D17*
%TO.C,U6*%
X30860600Y-42319200D03*
X26260600Y-42319200D03*
X28560600Y-42319200D03*
D18*
X28560600Y-48619200D03*
%TD*%
%TO.C,U4*%
G36*
G01*
X43676500Y-46771000D02*
X44126500Y-46771000D01*
G75*
G02*
X44351500Y-46996000I0J-225000D01*
G01*
X44351500Y-47446000D01*
G75*
G02*
X44126500Y-47671000I-225000J0D01*
G01*
X43676500Y-47671000D01*
G75*
G02*
X43451500Y-47446000I0J225000D01*
G01*
X43451500Y-46996000D01*
G75*
G02*
X43676500Y-46771000I225000J0D01*
G01*
G37*
G36*
G01*
X44796500Y-46771000D02*
X45246500Y-46771000D01*
G75*
G02*
X45471500Y-46996000I0J-225000D01*
G01*
X45471500Y-47446000D01*
G75*
G02*
X45246500Y-47671000I-225000J0D01*
G01*
X44796500Y-47671000D01*
G75*
G02*
X44571500Y-47446000I0J225000D01*
G01*
X44571500Y-46996000D01*
G75*
G02*
X44796500Y-46771000I225000J0D01*
G01*
G37*
G36*
G01*
X45916500Y-46771000D02*
X46366500Y-46771000D01*
G75*
G02*
X46591500Y-46996000I0J-225000D01*
G01*
X46591500Y-47446000D01*
G75*
G02*
X46366500Y-47671000I-225000J0D01*
G01*
X45916500Y-47671000D01*
G75*
G02*
X45691500Y-47446000I0J225000D01*
G01*
X45691500Y-46996000D01*
G75*
G02*
X45916500Y-46771000I225000J0D01*
G01*
G37*
G36*
G01*
X43676500Y-45651000D02*
X44126500Y-45651000D01*
G75*
G02*
X44351500Y-45876000I0J-225000D01*
G01*
X44351500Y-46326000D01*
G75*
G02*
X44126500Y-46551000I-225000J0D01*
G01*
X43676500Y-46551000D01*
G75*
G02*
X43451500Y-46326000I0J225000D01*
G01*
X43451500Y-45876000D01*
G75*
G02*
X43676500Y-45651000I225000J0D01*
G01*
G37*
G36*
G01*
X44796500Y-45651000D02*
X45246500Y-45651000D01*
G75*
G02*
X45471500Y-45876000I0J-225000D01*
G01*
X45471500Y-46326000D01*
G75*
G02*
X45246500Y-46551000I-225000J0D01*
G01*
X44796500Y-46551000D01*
G75*
G02*
X44571500Y-46326000I0J225000D01*
G01*
X44571500Y-45876000D01*
G75*
G02*
X44796500Y-45651000I225000J0D01*
G01*
G37*
G36*
G01*
X45916500Y-45651000D02*
X46366500Y-45651000D01*
G75*
G02*
X46591500Y-45876000I0J-225000D01*
G01*
X46591500Y-46326000D01*
G75*
G02*
X46366500Y-46551000I-225000J0D01*
G01*
X45916500Y-46551000D01*
G75*
G02*
X45691500Y-46326000I0J225000D01*
G01*
X45691500Y-45876000D01*
G75*
G02*
X45916500Y-45651000I225000J0D01*
G01*
G37*
G36*
G01*
X43676500Y-44531000D02*
X44126500Y-44531000D01*
G75*
G02*
X44351500Y-44756000I0J-225000D01*
G01*
X44351500Y-45206000D01*
G75*
G02*
X44126500Y-45431000I-225000J0D01*
G01*
X43676500Y-45431000D01*
G75*
G02*
X43451500Y-45206000I0J225000D01*
G01*
X43451500Y-44756000D01*
G75*
G02*
X43676500Y-44531000I225000J0D01*
G01*
G37*
G36*
G01*
X44796500Y-44531000D02*
X45246500Y-44531000D01*
G75*
G02*
X45471500Y-44756000I0J-225000D01*
G01*
X45471500Y-45206000D01*
G75*
G02*
X45246500Y-45431000I-225000J0D01*
G01*
X44796500Y-45431000D01*
G75*
G02*
X44571500Y-45206000I0J225000D01*
G01*
X44571500Y-44756000D01*
G75*
G02*
X44796500Y-44531000I225000J0D01*
G01*
G37*
G36*
G01*
X45916500Y-44531000D02*
X46366500Y-44531000D01*
G75*
G02*
X46591500Y-44756000I0J-225000D01*
G01*
X46591500Y-45206000D01*
G75*
G02*
X46366500Y-45431000I-225000J0D01*
G01*
X45916500Y-45431000D01*
G75*
G02*
X45691500Y-45206000I0J225000D01*
G01*
X45691500Y-44756000D01*
G75*
G02*
X45916500Y-44531000I225000J0D01*
G01*
G37*
G36*
G01*
X47215000Y-44506000D02*
X47728000Y-44506000D01*
G75*
G02*
X47775500Y-44553500I0J-47500D01*
G01*
X47775500Y-44648500D01*
G75*
G02*
X47728000Y-44696000I-47500J0D01*
G01*
X47215000Y-44696000D01*
G75*
G02*
X47167500Y-44648500I0J47500D01*
G01*
X47167500Y-44553500D01*
G75*
G02*
X47215000Y-44506000I47500J0D01*
G01*
G37*
G36*
G01*
X47215000Y-45006000D02*
X47728000Y-45006000D01*
G75*
G02*
X47775500Y-45053500I0J-47500D01*
G01*
X47775500Y-45148500D01*
G75*
G02*
X47728000Y-45196000I-47500J0D01*
G01*
X47215000Y-45196000D01*
G75*
G02*
X47167500Y-45148500I0J47500D01*
G01*
X47167500Y-45053500D01*
G75*
G02*
X47215000Y-45006000I47500J0D01*
G01*
G37*
G36*
G01*
X47215000Y-45506000D02*
X47728000Y-45506000D01*
G75*
G02*
X47775500Y-45553500I0J-47500D01*
G01*
X47775500Y-45648500D01*
G75*
G02*
X47728000Y-45696000I-47500J0D01*
G01*
X47215000Y-45696000D01*
G75*
G02*
X47167500Y-45648500I0J47500D01*
G01*
X47167500Y-45553500D01*
G75*
G02*
X47215000Y-45506000I47500J0D01*
G01*
G37*
G36*
G01*
X47215000Y-46006000D02*
X47728000Y-46006000D01*
G75*
G02*
X47775500Y-46053500I0J-47500D01*
G01*
X47775500Y-46148500D01*
G75*
G02*
X47728000Y-46196000I-47500J0D01*
G01*
X47215000Y-46196000D01*
G75*
G02*
X47167500Y-46148500I0J47500D01*
G01*
X47167500Y-46053500D01*
G75*
G02*
X47215000Y-46006000I47500J0D01*
G01*
G37*
G36*
G01*
X47215000Y-46506000D02*
X47728000Y-46506000D01*
G75*
G02*
X47775500Y-46553500I0J-47500D01*
G01*
X47775500Y-46648500D01*
G75*
G02*
X47728000Y-46696000I-47500J0D01*
G01*
X47215000Y-46696000D01*
G75*
G02*
X47167500Y-46648500I0J47500D01*
G01*
X47167500Y-46553500D01*
G75*
G02*
X47215000Y-46506000I47500J0D01*
G01*
G37*
G36*
G01*
X47215000Y-47006000D02*
X47728000Y-47006000D01*
G75*
G02*
X47775500Y-47053500I0J-47500D01*
G01*
X47775500Y-47148500D01*
G75*
G02*
X47728000Y-47196000I-47500J0D01*
G01*
X47215000Y-47196000D01*
G75*
G02*
X47167500Y-47148500I0J47500D01*
G01*
X47167500Y-47053500D01*
G75*
G02*
X47215000Y-47006000I47500J0D01*
G01*
G37*
G36*
G01*
X47215000Y-47506000D02*
X47728000Y-47506000D01*
G75*
G02*
X47775500Y-47553500I0J-47500D01*
G01*
X47775500Y-47648500D01*
G75*
G02*
X47728000Y-47696000I-47500J0D01*
G01*
X47215000Y-47696000D01*
G75*
G02*
X47167500Y-47648500I0J47500D01*
G01*
X47167500Y-47553500D01*
G75*
G02*
X47215000Y-47506000I47500J0D01*
G01*
G37*
G36*
G01*
X46474000Y-48247000D02*
X46569000Y-48247000D01*
G75*
G02*
X46616500Y-48294500I0J-47500D01*
G01*
X46616500Y-48807500D01*
G75*
G02*
X46569000Y-48855000I-47500J0D01*
G01*
X46474000Y-48855000D01*
G75*
G02*
X46426500Y-48807500I0J47500D01*
G01*
X46426500Y-48294500D01*
G75*
G02*
X46474000Y-48247000I47500J0D01*
G01*
G37*
G36*
G01*
X45974000Y-48247000D02*
X46069000Y-48247000D01*
G75*
G02*
X46116500Y-48294500I0J-47500D01*
G01*
X46116500Y-48807500D01*
G75*
G02*
X46069000Y-48855000I-47500J0D01*
G01*
X45974000Y-48855000D01*
G75*
G02*
X45926500Y-48807500I0J47500D01*
G01*
X45926500Y-48294500D01*
G75*
G02*
X45974000Y-48247000I47500J0D01*
G01*
G37*
G36*
G01*
X45474000Y-48247000D02*
X45569000Y-48247000D01*
G75*
G02*
X45616500Y-48294500I0J-47500D01*
G01*
X45616500Y-48807500D01*
G75*
G02*
X45569000Y-48855000I-47500J0D01*
G01*
X45474000Y-48855000D01*
G75*
G02*
X45426500Y-48807500I0J47500D01*
G01*
X45426500Y-48294500D01*
G75*
G02*
X45474000Y-48247000I47500J0D01*
G01*
G37*
G36*
G01*
X44974000Y-48247000D02*
X45069000Y-48247000D01*
G75*
G02*
X45116500Y-48294500I0J-47500D01*
G01*
X45116500Y-48807500D01*
G75*
G02*
X45069000Y-48855000I-47500J0D01*
G01*
X44974000Y-48855000D01*
G75*
G02*
X44926500Y-48807500I0J47500D01*
G01*
X44926500Y-48294500D01*
G75*
G02*
X44974000Y-48247000I47500J0D01*
G01*
G37*
G36*
G01*
X44474000Y-48247000D02*
X44569000Y-48247000D01*
G75*
G02*
X44616500Y-48294500I0J-47500D01*
G01*
X44616500Y-48807500D01*
G75*
G02*
X44569000Y-48855000I-47500J0D01*
G01*
X44474000Y-48855000D01*
G75*
G02*
X44426500Y-48807500I0J47500D01*
G01*
X44426500Y-48294500D01*
G75*
G02*
X44474000Y-48247000I47500J0D01*
G01*
G37*
G36*
G01*
X43974000Y-48247000D02*
X44069000Y-48247000D01*
G75*
G02*
X44116500Y-48294500I0J-47500D01*
G01*
X44116500Y-48807500D01*
G75*
G02*
X44069000Y-48855000I-47500J0D01*
G01*
X43974000Y-48855000D01*
G75*
G02*
X43926500Y-48807500I0J47500D01*
G01*
X43926500Y-48294500D01*
G75*
G02*
X43974000Y-48247000I47500J0D01*
G01*
G37*
G36*
G01*
X43474000Y-48247000D02*
X43569000Y-48247000D01*
G75*
G02*
X43616500Y-48294500I0J-47500D01*
G01*
X43616500Y-48807500D01*
G75*
G02*
X43569000Y-48855000I-47500J0D01*
G01*
X43474000Y-48855000D01*
G75*
G02*
X43426500Y-48807500I0J47500D01*
G01*
X43426500Y-48294500D01*
G75*
G02*
X43474000Y-48247000I47500J0D01*
G01*
G37*
G36*
G01*
X42315000Y-47506000D02*
X42828000Y-47506000D01*
G75*
G02*
X42875500Y-47553500I0J-47500D01*
G01*
X42875500Y-47648500D01*
G75*
G02*
X42828000Y-47696000I-47500J0D01*
G01*
X42315000Y-47696000D01*
G75*
G02*
X42267500Y-47648500I0J47500D01*
G01*
X42267500Y-47553500D01*
G75*
G02*
X42315000Y-47506000I47500J0D01*
G01*
G37*
G36*
G01*
X42315000Y-47006000D02*
X42828000Y-47006000D01*
G75*
G02*
X42875500Y-47053500I0J-47500D01*
G01*
X42875500Y-47148500D01*
G75*
G02*
X42828000Y-47196000I-47500J0D01*
G01*
X42315000Y-47196000D01*
G75*
G02*
X42267500Y-47148500I0J47500D01*
G01*
X42267500Y-47053500D01*
G75*
G02*
X42315000Y-47006000I47500J0D01*
G01*
G37*
G36*
G01*
X42315000Y-46506000D02*
X42828000Y-46506000D01*
G75*
G02*
X42875500Y-46553500I0J-47500D01*
G01*
X42875500Y-46648500D01*
G75*
G02*
X42828000Y-46696000I-47500J0D01*
G01*
X42315000Y-46696000D01*
G75*
G02*
X42267500Y-46648500I0J47500D01*
G01*
X42267500Y-46553500D01*
G75*
G02*
X42315000Y-46506000I47500J0D01*
G01*
G37*
G36*
G01*
X42315000Y-46006000D02*
X42828000Y-46006000D01*
G75*
G02*
X42875500Y-46053500I0J-47500D01*
G01*
X42875500Y-46148500D01*
G75*
G02*
X42828000Y-46196000I-47500J0D01*
G01*
X42315000Y-46196000D01*
G75*
G02*
X42267500Y-46148500I0J47500D01*
G01*
X42267500Y-46053500D01*
G75*
G02*
X42315000Y-46006000I47500J0D01*
G01*
G37*
G36*
G01*
X42315000Y-45506000D02*
X42828000Y-45506000D01*
G75*
G02*
X42875500Y-45553500I0J-47500D01*
G01*
X42875500Y-45648500D01*
G75*
G02*
X42828000Y-45696000I-47500J0D01*
G01*
X42315000Y-45696000D01*
G75*
G02*
X42267500Y-45648500I0J47500D01*
G01*
X42267500Y-45553500D01*
G75*
G02*
X42315000Y-45506000I47500J0D01*
G01*
G37*
G36*
G01*
X42315000Y-45006000D02*
X42828000Y-45006000D01*
G75*
G02*
X42875500Y-45053500I0J-47500D01*
G01*
X42875500Y-45148500D01*
G75*
G02*
X42828000Y-45196000I-47500J0D01*
G01*
X42315000Y-45196000D01*
G75*
G02*
X42267500Y-45148500I0J47500D01*
G01*
X42267500Y-45053500D01*
G75*
G02*
X42315000Y-45006000I47500J0D01*
G01*
G37*
G36*
G01*
X42315000Y-44506000D02*
X42828000Y-44506000D01*
G75*
G02*
X42875500Y-44553500I0J-47500D01*
G01*
X42875500Y-44648500D01*
G75*
G02*
X42828000Y-44696000I-47500J0D01*
G01*
X42315000Y-44696000D01*
G75*
G02*
X42267500Y-44648500I0J47500D01*
G01*
X42267500Y-44553500D01*
G75*
G02*
X42315000Y-44506000I47500J0D01*
G01*
G37*
G36*
G01*
X43474000Y-43347000D02*
X43569000Y-43347000D01*
G75*
G02*
X43616500Y-43394500I0J-47500D01*
G01*
X43616500Y-43907500D01*
G75*
G02*
X43569000Y-43955000I-47500J0D01*
G01*
X43474000Y-43955000D01*
G75*
G02*
X43426500Y-43907500I0J47500D01*
G01*
X43426500Y-43394500D01*
G75*
G02*
X43474000Y-43347000I47500J0D01*
G01*
G37*
G36*
G01*
X43974000Y-43347000D02*
X44069000Y-43347000D01*
G75*
G02*
X44116500Y-43394500I0J-47500D01*
G01*
X44116500Y-43907500D01*
G75*
G02*
X44069000Y-43955000I-47500J0D01*
G01*
X43974000Y-43955000D01*
G75*
G02*
X43926500Y-43907500I0J47500D01*
G01*
X43926500Y-43394500D01*
G75*
G02*
X43974000Y-43347000I47500J0D01*
G01*
G37*
G36*
G01*
X44474000Y-43347000D02*
X44569000Y-43347000D01*
G75*
G02*
X44616500Y-43394500I0J-47500D01*
G01*
X44616500Y-43907500D01*
G75*
G02*
X44569000Y-43955000I-47500J0D01*
G01*
X44474000Y-43955000D01*
G75*
G02*
X44426500Y-43907500I0J47500D01*
G01*
X44426500Y-43394500D01*
G75*
G02*
X44474000Y-43347000I47500J0D01*
G01*
G37*
G36*
G01*
X44974000Y-43347000D02*
X45069000Y-43347000D01*
G75*
G02*
X45116500Y-43394500I0J-47500D01*
G01*
X45116500Y-43907500D01*
G75*
G02*
X45069000Y-43955000I-47500J0D01*
G01*
X44974000Y-43955000D01*
G75*
G02*
X44926500Y-43907500I0J47500D01*
G01*
X44926500Y-43394500D01*
G75*
G02*
X44974000Y-43347000I47500J0D01*
G01*
G37*
G36*
G01*
X45474000Y-43347000D02*
X45569000Y-43347000D01*
G75*
G02*
X45616500Y-43394500I0J-47500D01*
G01*
X45616500Y-43907500D01*
G75*
G02*
X45569000Y-43955000I-47500J0D01*
G01*
X45474000Y-43955000D01*
G75*
G02*
X45426500Y-43907500I0J47500D01*
G01*
X45426500Y-43394500D01*
G75*
G02*
X45474000Y-43347000I47500J0D01*
G01*
G37*
G36*
G01*
X45974000Y-43347000D02*
X46069000Y-43347000D01*
G75*
G02*
X46116500Y-43394500I0J-47500D01*
G01*
X46116500Y-43907500D01*
G75*
G02*
X46069000Y-43955000I-47500J0D01*
G01*
X45974000Y-43955000D01*
G75*
G02*
X45926500Y-43907500I0J47500D01*
G01*
X45926500Y-43394500D01*
G75*
G02*
X45974000Y-43347000I47500J0D01*
G01*
G37*
G36*
G01*
X46474000Y-43347000D02*
X46569000Y-43347000D01*
G75*
G02*
X46616500Y-43394500I0J-47500D01*
G01*
X46616500Y-43907500D01*
G75*
G02*
X46569000Y-43955000I-47500J0D01*
G01*
X46474000Y-43955000D01*
G75*
G02*
X46426500Y-43907500I0J47500D01*
G01*
X46426500Y-43394500D01*
G75*
G02*
X46474000Y-43347000I47500J0D01*
G01*
G37*
%TD*%
D19*
%TO.C,SW1*%
X75800000Y-119747000D03*
X75800000Y-115997000D03*
X69800000Y-115997000D03*
X69800000Y-119747000D03*
%TD*%
%TO.C,R52*%
G36*
G01*
X80018900Y-50145800D02*
X80281100Y-50145800D01*
G75*
G02*
X80393200Y-50257900I0J-112100D01*
G01*
X80393200Y-50482100D01*
G75*
G02*
X80281100Y-50594200I-112100J0D01*
G01*
X80018900Y-50594200D01*
G75*
G02*
X79906800Y-50482100I0J112100D01*
G01*
X79906800Y-50257900D01*
G75*
G02*
X80018900Y-50145800I112100J0D01*
G01*
G37*
G36*
G01*
X80018900Y-49175800D02*
X80281100Y-49175800D01*
G75*
G02*
X80393200Y-49287900I0J-112100D01*
G01*
X80393200Y-49512100D01*
G75*
G02*
X80281100Y-49624200I-112100J0D01*
G01*
X80018900Y-49624200D01*
G75*
G02*
X79906800Y-49512100I0J112100D01*
G01*
X79906800Y-49287900D01*
G75*
G02*
X80018900Y-49175800I112100J0D01*
G01*
G37*
%TD*%
%TO.C,R51*%
G36*
G01*
X66795200Y-114692900D02*
X66795200Y-114955100D01*
G75*
G02*
X66683100Y-115067200I-112100J0D01*
G01*
X66458900Y-115067200D01*
G75*
G02*
X66346800Y-114955100I0J112100D01*
G01*
X66346800Y-114692900D01*
G75*
G02*
X66458900Y-114580800I112100J0D01*
G01*
X66683100Y-114580800D01*
G75*
G02*
X66795200Y-114692900I0J-112100D01*
G01*
G37*
G36*
G01*
X67765200Y-114692900D02*
X67765200Y-114955100D01*
G75*
G02*
X67653100Y-115067200I-112100J0D01*
G01*
X67428900Y-115067200D01*
G75*
G02*
X67316800Y-114955100I0J112100D01*
G01*
X67316800Y-114692900D01*
G75*
G02*
X67428900Y-114580800I112100J0D01*
G01*
X67653100Y-114580800D01*
G75*
G02*
X67765200Y-114692900I0J-112100D01*
G01*
G37*
%TD*%
%TO.C,R50*%
G36*
G01*
X46705000Y-52444750D02*
X46705000Y-52055250D01*
G75*
G02*
X46871250Y-51889000I166250J0D01*
G01*
X47203750Y-51889000D01*
G75*
G02*
X47370000Y-52055250I0J-166250D01*
G01*
X47370000Y-52444750D01*
G75*
G02*
X47203750Y-52611000I-166250J0D01*
G01*
X46871250Y-52611000D01*
G75*
G02*
X46705000Y-52444750I0J166250D01*
G01*
G37*
G36*
G01*
X45130000Y-52444750D02*
X45130000Y-52055250D01*
G75*
G02*
X45296250Y-51889000I166250J0D01*
G01*
X45628750Y-51889000D01*
G75*
G02*
X45795000Y-52055250I0J-166250D01*
G01*
X45795000Y-52444750D01*
G75*
G02*
X45628750Y-52611000I-166250J0D01*
G01*
X45296250Y-52611000D01*
G75*
G02*
X45130000Y-52444750I0J166250D01*
G01*
G37*
%TD*%
%TO.C,R49*%
G36*
G01*
X27946800Y-104271100D02*
X27946800Y-104008900D01*
G75*
G02*
X28058900Y-103896800I112100J0D01*
G01*
X28283100Y-103896800D01*
G75*
G02*
X28395200Y-104008900I0J-112100D01*
G01*
X28395200Y-104271100D01*
G75*
G02*
X28283100Y-104383200I-112100J0D01*
G01*
X28058900Y-104383200D01*
G75*
G02*
X27946800Y-104271100I0J112100D01*
G01*
G37*
G36*
G01*
X26976800Y-104271100D02*
X26976800Y-104008900D01*
G75*
G02*
X27088900Y-103896800I112100J0D01*
G01*
X27313100Y-103896800D01*
G75*
G02*
X27425200Y-104008900I0J-112100D01*
G01*
X27425200Y-104271100D01*
G75*
G02*
X27313100Y-104383200I-112100J0D01*
G01*
X27088900Y-104383200D01*
G75*
G02*
X26976800Y-104271100I0J112100D01*
G01*
G37*
%TD*%
%TO.C,R48*%
G36*
G01*
X57789100Y-117842200D02*
X57526900Y-117842200D01*
G75*
G02*
X57414800Y-117730100I0J112100D01*
G01*
X57414800Y-117505900D01*
G75*
G02*
X57526900Y-117393800I112100J0D01*
G01*
X57789100Y-117393800D01*
G75*
G02*
X57901200Y-117505900I0J-112100D01*
G01*
X57901200Y-117730100D01*
G75*
G02*
X57789100Y-117842200I-112100J0D01*
G01*
G37*
G36*
G01*
X57789100Y-118812200D02*
X57526900Y-118812200D01*
G75*
G02*
X57414800Y-118700100I0J112100D01*
G01*
X57414800Y-118475900D01*
G75*
G02*
X57526900Y-118363800I112100J0D01*
G01*
X57789100Y-118363800D01*
G75*
G02*
X57901200Y-118475900I0J-112100D01*
G01*
X57901200Y-118700100D01*
G75*
G02*
X57789100Y-118812200I-112100J0D01*
G01*
G37*
%TD*%
%TO.C,R47*%
G36*
G01*
X53217100Y-117865200D02*
X52954900Y-117865200D01*
G75*
G02*
X52842800Y-117753100I0J112100D01*
G01*
X52842800Y-117528900D01*
G75*
G02*
X52954900Y-117416800I112100J0D01*
G01*
X53217100Y-117416800D01*
G75*
G02*
X53329200Y-117528900I0J-112100D01*
G01*
X53329200Y-117753100D01*
G75*
G02*
X53217100Y-117865200I-112100J0D01*
G01*
G37*
G36*
G01*
X53217100Y-118835200D02*
X52954900Y-118835200D01*
G75*
G02*
X52842800Y-118723100I0J112100D01*
G01*
X52842800Y-118498900D01*
G75*
G02*
X52954900Y-118386800I112100J0D01*
G01*
X53217100Y-118386800D01*
G75*
G02*
X53329200Y-118498900I0J-112100D01*
G01*
X53329200Y-118723100D01*
G75*
G02*
X53217100Y-118835200I-112100J0D01*
G01*
G37*
%TD*%
%TO.C,R46*%
G36*
G01*
X40339200Y-45468900D02*
X40339200Y-45731100D01*
G75*
G02*
X40227100Y-45843200I-112100J0D01*
G01*
X40002900Y-45843200D01*
G75*
G02*
X39890800Y-45731100I0J112100D01*
G01*
X39890800Y-45468900D01*
G75*
G02*
X40002900Y-45356800I112100J0D01*
G01*
X40227100Y-45356800D01*
G75*
G02*
X40339200Y-45468900I0J-112100D01*
G01*
G37*
G36*
G01*
X41309200Y-45468900D02*
X41309200Y-45731100D01*
G75*
G02*
X41197100Y-45843200I-112100J0D01*
G01*
X40972900Y-45843200D01*
G75*
G02*
X40860800Y-45731100I0J112100D01*
G01*
X40860800Y-45468900D01*
G75*
G02*
X40972900Y-45356800I112100J0D01*
G01*
X41197100Y-45356800D01*
G75*
G02*
X41309200Y-45468900I0J-112100D01*
G01*
G37*
%TD*%
%TO.C,R45*%
G36*
G01*
X41016900Y-29470800D02*
X41279100Y-29470800D01*
G75*
G02*
X41391200Y-29582900I0J-112100D01*
G01*
X41391200Y-29807100D01*
G75*
G02*
X41279100Y-29919200I-112100J0D01*
G01*
X41016900Y-29919200D01*
G75*
G02*
X40904800Y-29807100I0J112100D01*
G01*
X40904800Y-29582900D01*
G75*
G02*
X41016900Y-29470800I112100J0D01*
G01*
G37*
G36*
G01*
X41016900Y-28500800D02*
X41279100Y-28500800D01*
G75*
G02*
X41391200Y-28612900I0J-112100D01*
G01*
X41391200Y-28837100D01*
G75*
G02*
X41279100Y-28949200I-112100J0D01*
G01*
X41016900Y-28949200D01*
G75*
G02*
X40904800Y-28837100I0J112100D01*
G01*
X40904800Y-28612900D01*
G75*
G02*
X41016900Y-28500800I112100J0D01*
G01*
G37*
%TD*%
%TO.C,R44*%
G36*
G01*
X44327100Y-28949200D02*
X44064900Y-28949200D01*
G75*
G02*
X43952800Y-28837100I0J112100D01*
G01*
X43952800Y-28612900D01*
G75*
G02*
X44064900Y-28500800I112100J0D01*
G01*
X44327100Y-28500800D01*
G75*
G02*
X44439200Y-28612900I0J-112100D01*
G01*
X44439200Y-28837100D01*
G75*
G02*
X44327100Y-28949200I-112100J0D01*
G01*
G37*
G36*
G01*
X44327100Y-29919200D02*
X44064900Y-29919200D01*
G75*
G02*
X43952800Y-29807100I0J112100D01*
G01*
X43952800Y-29582900D01*
G75*
G02*
X44064900Y-29470800I112100J0D01*
G01*
X44327100Y-29470800D01*
G75*
G02*
X44439200Y-29582900I0J-112100D01*
G01*
X44439200Y-29807100D01*
G75*
G02*
X44327100Y-29919200I-112100J0D01*
G01*
G37*
%TD*%
%TO.C,R43*%
G36*
G01*
X71468900Y-65310800D02*
X71731100Y-65310800D01*
G75*
G02*
X71843200Y-65422900I0J-112100D01*
G01*
X71843200Y-65647100D01*
G75*
G02*
X71731100Y-65759200I-112100J0D01*
G01*
X71468900Y-65759200D01*
G75*
G02*
X71356800Y-65647100I0J112100D01*
G01*
X71356800Y-65422900D01*
G75*
G02*
X71468900Y-65310800I112100J0D01*
G01*
G37*
G36*
G01*
X71468900Y-64340800D02*
X71731100Y-64340800D01*
G75*
G02*
X71843200Y-64452900I0J-112100D01*
G01*
X71843200Y-64677100D01*
G75*
G02*
X71731100Y-64789200I-112100J0D01*
G01*
X71468900Y-64789200D01*
G75*
G02*
X71356800Y-64677100I0J112100D01*
G01*
X71356800Y-64452900D01*
G75*
G02*
X71468900Y-64340800I112100J0D01*
G01*
G37*
%TD*%
%TO.C,R42*%
G36*
G01*
X77931100Y-49639200D02*
X77668900Y-49639200D01*
G75*
G02*
X77556800Y-49527100I0J112100D01*
G01*
X77556800Y-49302900D01*
G75*
G02*
X77668900Y-49190800I112100J0D01*
G01*
X77931100Y-49190800D01*
G75*
G02*
X78043200Y-49302900I0J-112100D01*
G01*
X78043200Y-49527100D01*
G75*
G02*
X77931100Y-49639200I-112100J0D01*
G01*
G37*
G36*
G01*
X77931100Y-50609200D02*
X77668900Y-50609200D01*
G75*
G02*
X77556800Y-50497100I0J112100D01*
G01*
X77556800Y-50272900D01*
G75*
G02*
X77668900Y-50160800I112100J0D01*
G01*
X77931100Y-50160800D01*
G75*
G02*
X78043200Y-50272900I0J-112100D01*
G01*
X78043200Y-50497100D01*
G75*
G02*
X77931100Y-50609200I-112100J0D01*
G01*
G37*
%TD*%
%TO.C,R41*%
G36*
G01*
X136599000Y-37786750D02*
X136599000Y-37397250D01*
G75*
G02*
X136765250Y-37231000I166250J0D01*
G01*
X137097750Y-37231000D01*
G75*
G02*
X137264000Y-37397250I0J-166250D01*
G01*
X137264000Y-37786750D01*
G75*
G02*
X137097750Y-37953000I-166250J0D01*
G01*
X136765250Y-37953000D01*
G75*
G02*
X136599000Y-37786750I0J166250D01*
G01*
G37*
G36*
G01*
X135024000Y-37786750D02*
X135024000Y-37397250D01*
G75*
G02*
X135190250Y-37231000I166250J0D01*
G01*
X135522750Y-37231000D01*
G75*
G02*
X135689000Y-37397250I0J-166250D01*
G01*
X135689000Y-37786750D01*
G75*
G02*
X135522750Y-37953000I-166250J0D01*
G01*
X135190250Y-37953000D01*
G75*
G02*
X135024000Y-37786750I0J166250D01*
G01*
G37*
%TD*%
%TO.C,R40*%
G36*
G01*
X134821000Y-39310750D02*
X134821000Y-38921250D01*
G75*
G02*
X134987250Y-38755000I166250J0D01*
G01*
X135319750Y-38755000D01*
G75*
G02*
X135486000Y-38921250I0J-166250D01*
G01*
X135486000Y-39310750D01*
G75*
G02*
X135319750Y-39477000I-166250J0D01*
G01*
X134987250Y-39477000D01*
G75*
G02*
X134821000Y-39310750I0J166250D01*
G01*
G37*
G36*
G01*
X133246000Y-39310750D02*
X133246000Y-38921250D01*
G75*
G02*
X133412250Y-38755000I166250J0D01*
G01*
X133744750Y-38755000D01*
G75*
G02*
X133911000Y-38921250I0J-166250D01*
G01*
X133911000Y-39310750D01*
G75*
G02*
X133744750Y-39477000I-166250J0D01*
G01*
X133412250Y-39477000D01*
G75*
G02*
X133246000Y-39310750I0J166250D01*
G01*
G37*
%TD*%
%TO.C,R39*%
G36*
G01*
X134933250Y-41831499D02*
X135322750Y-41831499D01*
G75*
G02*
X135489000Y-41997749I0J-166250D01*
G01*
X135489000Y-42330249D01*
G75*
G02*
X135322750Y-42496499I-166250J0D01*
G01*
X134933250Y-42496499D01*
G75*
G02*
X134767000Y-42330249I0J166250D01*
G01*
X134767000Y-41997749D01*
G75*
G02*
X134933250Y-41831499I166250J0D01*
G01*
G37*
G36*
G01*
X134933250Y-40256499D02*
X135322750Y-40256499D01*
G75*
G02*
X135489000Y-40422749I0J-166250D01*
G01*
X135489000Y-40755249D01*
G75*
G02*
X135322750Y-40921499I-166250J0D01*
G01*
X134933250Y-40921499D01*
G75*
G02*
X134767000Y-40755249I0J166250D01*
G01*
X134767000Y-40422749D01*
G75*
G02*
X134933250Y-40256499I166250J0D01*
G01*
G37*
%TD*%
%TO.C,R38*%
G36*
G01*
X131519000Y-36770750D02*
X131519000Y-36381250D01*
G75*
G02*
X131685250Y-36215000I166250J0D01*
G01*
X132017750Y-36215000D01*
G75*
G02*
X132184000Y-36381250I0J-166250D01*
G01*
X132184000Y-36770750D01*
G75*
G02*
X132017750Y-36937000I-166250J0D01*
G01*
X131685250Y-36937000D01*
G75*
G02*
X131519000Y-36770750I0J166250D01*
G01*
G37*
G36*
G01*
X129944000Y-36770750D02*
X129944000Y-36381250D01*
G75*
G02*
X130110250Y-36215000I166250J0D01*
G01*
X130442750Y-36215000D01*
G75*
G02*
X130609000Y-36381250I0J-166250D01*
G01*
X130609000Y-36770750D01*
G75*
G02*
X130442750Y-36937000I-166250J0D01*
G01*
X130110250Y-36937000D01*
G75*
G02*
X129944000Y-36770750I0J166250D01*
G01*
G37*
%TD*%
%TO.C,R37*%
G36*
G01*
X129741000Y-38294750D02*
X129741000Y-37905250D01*
G75*
G02*
X129907250Y-37739000I166250J0D01*
G01*
X130239750Y-37739000D01*
G75*
G02*
X130406000Y-37905250I0J-166250D01*
G01*
X130406000Y-38294750D01*
G75*
G02*
X130239750Y-38461000I-166250J0D01*
G01*
X129907250Y-38461000D01*
G75*
G02*
X129741000Y-38294750I0J166250D01*
G01*
G37*
G36*
G01*
X128166000Y-38294750D02*
X128166000Y-37905250D01*
G75*
G02*
X128332250Y-37739000I166250J0D01*
G01*
X128664750Y-37739000D01*
G75*
G02*
X128831000Y-37905250I0J-166250D01*
G01*
X128831000Y-38294750D01*
G75*
G02*
X128664750Y-38461000I-166250J0D01*
G01*
X128332250Y-38461000D01*
G75*
G02*
X128166000Y-38294750I0J166250D01*
G01*
G37*
%TD*%
%TO.C,R36*%
G36*
G01*
X134821000Y-43882750D02*
X134821000Y-43493250D01*
G75*
G02*
X134987250Y-43327000I166250J0D01*
G01*
X135319750Y-43327000D01*
G75*
G02*
X135486000Y-43493250I0J-166250D01*
G01*
X135486000Y-43882750D01*
G75*
G02*
X135319750Y-44049000I-166250J0D01*
G01*
X134987250Y-44049000D01*
G75*
G02*
X134821000Y-43882750I0J166250D01*
G01*
G37*
G36*
G01*
X133246000Y-43882750D02*
X133246000Y-43493250D01*
G75*
G02*
X133412250Y-43327000I166250J0D01*
G01*
X133744750Y-43327000D01*
G75*
G02*
X133911000Y-43493250I0J-166250D01*
G01*
X133911000Y-43882750D01*
G75*
G02*
X133744750Y-44049000I-166250J0D01*
G01*
X133412250Y-44049000D01*
G75*
G02*
X133246000Y-43882750I0J166250D01*
G01*
G37*
%TD*%
%TO.C,R35*%
G36*
G01*
X141679000Y-38548750D02*
X141679000Y-38159250D01*
G75*
G02*
X141845250Y-37993000I166250J0D01*
G01*
X142177750Y-37993000D01*
G75*
G02*
X142344000Y-38159250I0J-166250D01*
G01*
X142344000Y-38548750D01*
G75*
G02*
X142177750Y-38715000I-166250J0D01*
G01*
X141845250Y-38715000D01*
G75*
G02*
X141679000Y-38548750I0J166250D01*
G01*
G37*
G36*
G01*
X140104000Y-38548750D02*
X140104000Y-38159250D01*
G75*
G02*
X140270250Y-37993000I166250J0D01*
G01*
X140602750Y-37993000D01*
G75*
G02*
X140769000Y-38159250I0J-166250D01*
G01*
X140769000Y-38548750D01*
G75*
G02*
X140602750Y-38715000I-166250J0D01*
G01*
X140270250Y-38715000D01*
G75*
G02*
X140104000Y-38548750I0J166250D01*
G01*
G37*
%TD*%
%TO.C,R34*%
G36*
G01*
X140155000Y-40072750D02*
X140155000Y-39683250D01*
G75*
G02*
X140321250Y-39517000I166250J0D01*
G01*
X140653750Y-39517000D01*
G75*
G02*
X140820000Y-39683250I0J-166250D01*
G01*
X140820000Y-40072750D01*
G75*
G02*
X140653750Y-40239000I-166250J0D01*
G01*
X140321250Y-40239000D01*
G75*
G02*
X140155000Y-40072750I0J166250D01*
G01*
G37*
G36*
G01*
X138580000Y-40072750D02*
X138580000Y-39683250D01*
G75*
G02*
X138746250Y-39517000I166250J0D01*
G01*
X139078750Y-39517000D01*
G75*
G02*
X139245000Y-39683250I0J-166250D01*
G01*
X139245000Y-40072750D01*
G75*
G02*
X139078750Y-40239000I-166250J0D01*
G01*
X138746250Y-40239000D01*
G75*
G02*
X138580000Y-40072750I0J166250D01*
G01*
G37*
%TD*%
%TO.C,R33*%
G36*
G01*
X129853250Y-40841000D02*
X130242750Y-40841000D01*
G75*
G02*
X130409000Y-41007250I0J-166250D01*
G01*
X130409000Y-41339750D01*
G75*
G02*
X130242750Y-41506000I-166250J0D01*
G01*
X129853250Y-41506000D01*
G75*
G02*
X129687000Y-41339750I0J166250D01*
G01*
X129687000Y-41007250D01*
G75*
G02*
X129853250Y-40841000I166250J0D01*
G01*
G37*
G36*
G01*
X129853250Y-39266000D02*
X130242750Y-39266000D01*
G75*
G02*
X130409000Y-39432250I0J-166250D01*
G01*
X130409000Y-39764750D01*
G75*
G02*
X130242750Y-39931000I-166250J0D01*
G01*
X129853250Y-39931000D01*
G75*
G02*
X129687000Y-39764750I0J166250D01*
G01*
X129687000Y-39432250D01*
G75*
G02*
X129853250Y-39266000I166250J0D01*
G01*
G37*
%TD*%
%TO.C,R32*%
G36*
G01*
X134933250Y-46429000D02*
X135322750Y-46429000D01*
G75*
G02*
X135489000Y-46595250I0J-166250D01*
G01*
X135489000Y-46927750D01*
G75*
G02*
X135322750Y-47094000I-166250J0D01*
G01*
X134933250Y-47094000D01*
G75*
G02*
X134767000Y-46927750I0J166250D01*
G01*
X134767000Y-46595250D01*
G75*
G02*
X134933250Y-46429000I166250J0D01*
G01*
G37*
G36*
G01*
X134933250Y-44854000D02*
X135322750Y-44854000D01*
G75*
G02*
X135489000Y-45020250I0J-166250D01*
G01*
X135489000Y-45352750D01*
G75*
G02*
X135322750Y-45519000I-166250J0D01*
G01*
X134933250Y-45519000D01*
G75*
G02*
X134767000Y-45352750I0J166250D01*
G01*
X134767000Y-45020250D01*
G75*
G02*
X134933250Y-44854000I166250J0D01*
G01*
G37*
%TD*%
%TO.C,R31*%
G36*
G01*
X140267250Y-42619000D02*
X140656750Y-42619000D01*
G75*
G02*
X140823000Y-42785250I0J-166250D01*
G01*
X140823000Y-43117750D01*
G75*
G02*
X140656750Y-43284000I-166250J0D01*
G01*
X140267250Y-43284000D01*
G75*
G02*
X140101000Y-43117750I0J166250D01*
G01*
X140101000Y-42785250D01*
G75*
G02*
X140267250Y-42619000I166250J0D01*
G01*
G37*
G36*
G01*
X140267250Y-41044000D02*
X140656750Y-41044000D01*
G75*
G02*
X140823000Y-41210250I0J-166250D01*
G01*
X140823000Y-41542750D01*
G75*
G02*
X140656750Y-41709000I-166250J0D01*
G01*
X140267250Y-41709000D01*
G75*
G02*
X140101000Y-41542750I0J166250D01*
G01*
X140101000Y-41210250D01*
G75*
G02*
X140267250Y-41044000I166250J0D01*
G01*
G37*
%TD*%
%TO.C,R30*%
G36*
G01*
X129741000Y-42866750D02*
X129741000Y-42477250D01*
G75*
G02*
X129907250Y-42311000I166250J0D01*
G01*
X130239750Y-42311000D01*
G75*
G02*
X130406000Y-42477250I0J-166250D01*
G01*
X130406000Y-42866750D01*
G75*
G02*
X130239750Y-43033000I-166250J0D01*
G01*
X129907250Y-43033000D01*
G75*
G02*
X129741000Y-42866750I0J166250D01*
G01*
G37*
G36*
G01*
X128166000Y-42866750D02*
X128166000Y-42477250D01*
G75*
G02*
X128332250Y-42311000I166250J0D01*
G01*
X128664750Y-42311000D01*
G75*
G02*
X128831000Y-42477250I0J-166250D01*
G01*
X128831000Y-42866750D01*
G75*
G02*
X128664750Y-43033000I-166250J0D01*
G01*
X128332250Y-43033000D01*
G75*
G02*
X128166000Y-42866750I0J166250D01*
G01*
G37*
%TD*%
%TO.C,R29*%
G36*
G01*
X134821000Y-48454750D02*
X134821000Y-48065250D01*
G75*
G02*
X134987250Y-47899000I166250J0D01*
G01*
X135319750Y-47899000D01*
G75*
G02*
X135486000Y-48065250I0J-166250D01*
G01*
X135486000Y-48454750D01*
G75*
G02*
X135319750Y-48621000I-166250J0D01*
G01*
X134987250Y-48621000D01*
G75*
G02*
X134821000Y-48454750I0J166250D01*
G01*
G37*
G36*
G01*
X133246000Y-48454750D02*
X133246000Y-48065250D01*
G75*
G02*
X133412250Y-47899000I166250J0D01*
G01*
X133744750Y-47899000D01*
G75*
G02*
X133911000Y-48065250I0J-166250D01*
G01*
X133911000Y-48454750D01*
G75*
G02*
X133744750Y-48621000I-166250J0D01*
G01*
X133412250Y-48621000D01*
G75*
G02*
X133246000Y-48454750I0J166250D01*
G01*
G37*
%TD*%
%TO.C,R28*%
G36*
G01*
X140155000Y-44644750D02*
X140155000Y-44255250D01*
G75*
G02*
X140321250Y-44089000I166250J0D01*
G01*
X140653750Y-44089000D01*
G75*
G02*
X140820000Y-44255250I0J-166250D01*
G01*
X140820000Y-44644750D01*
G75*
G02*
X140653750Y-44811000I-166250J0D01*
G01*
X140321250Y-44811000D01*
G75*
G02*
X140155000Y-44644750I0J166250D01*
G01*
G37*
G36*
G01*
X138580000Y-44644750D02*
X138580000Y-44255250D01*
G75*
G02*
X138746250Y-44089000I166250J0D01*
G01*
X139078750Y-44089000D01*
G75*
G02*
X139245000Y-44255250I0J-166250D01*
G01*
X139245000Y-44644750D01*
G75*
G02*
X139078750Y-44811000I-166250J0D01*
G01*
X138746250Y-44811000D01*
G75*
G02*
X138580000Y-44644750I0J166250D01*
G01*
G37*
%TD*%
%TO.C,R27*%
G36*
G01*
X129853250Y-45413000D02*
X130242750Y-45413000D01*
G75*
G02*
X130409000Y-45579250I0J-166250D01*
G01*
X130409000Y-45911750D01*
G75*
G02*
X130242750Y-46078000I-166250J0D01*
G01*
X129853250Y-46078000D01*
G75*
G02*
X129687000Y-45911750I0J166250D01*
G01*
X129687000Y-45579250D01*
G75*
G02*
X129853250Y-45413000I166250J0D01*
G01*
G37*
G36*
G01*
X129853250Y-43838000D02*
X130242750Y-43838000D01*
G75*
G02*
X130409000Y-44004250I0J-166250D01*
G01*
X130409000Y-44336750D01*
G75*
G02*
X130242750Y-44503000I-166250J0D01*
G01*
X129853250Y-44503000D01*
G75*
G02*
X129687000Y-44336750I0J166250D01*
G01*
X129687000Y-44004250D01*
G75*
G02*
X129853250Y-43838000I166250J0D01*
G01*
G37*
%TD*%
%TO.C,R26*%
G36*
G01*
X134933250Y-51001000D02*
X135322750Y-51001000D01*
G75*
G02*
X135489000Y-51167250I0J-166250D01*
G01*
X135489000Y-51499750D01*
G75*
G02*
X135322750Y-51666000I-166250J0D01*
G01*
X134933250Y-51666000D01*
G75*
G02*
X134767000Y-51499750I0J166250D01*
G01*
X134767000Y-51167250D01*
G75*
G02*
X134933250Y-51001000I166250J0D01*
G01*
G37*
G36*
G01*
X134933250Y-49426000D02*
X135322750Y-49426000D01*
G75*
G02*
X135489000Y-49592250I0J-166250D01*
G01*
X135489000Y-49924750D01*
G75*
G02*
X135322750Y-50091000I-166250J0D01*
G01*
X134933250Y-50091000D01*
G75*
G02*
X134767000Y-49924750I0J166250D01*
G01*
X134767000Y-49592250D01*
G75*
G02*
X134933250Y-49426000I166250J0D01*
G01*
G37*
%TD*%
%TO.C,R25*%
G36*
G01*
X140267250Y-47191000D02*
X140656750Y-47191000D01*
G75*
G02*
X140823000Y-47357250I0J-166250D01*
G01*
X140823000Y-47689750D01*
G75*
G02*
X140656750Y-47856000I-166250J0D01*
G01*
X140267250Y-47856000D01*
G75*
G02*
X140101000Y-47689750I0J166250D01*
G01*
X140101000Y-47357250D01*
G75*
G02*
X140267250Y-47191000I166250J0D01*
G01*
G37*
G36*
G01*
X140267250Y-45616000D02*
X140656750Y-45616000D01*
G75*
G02*
X140823000Y-45782250I0J-166250D01*
G01*
X140823000Y-46114750D01*
G75*
G02*
X140656750Y-46281000I-166250J0D01*
G01*
X140267250Y-46281000D01*
G75*
G02*
X140101000Y-46114750I0J166250D01*
G01*
X140101000Y-45782250D01*
G75*
G02*
X140267250Y-45616000I166250J0D01*
G01*
G37*
%TD*%
%TO.C,R24*%
G36*
G01*
X129741000Y-47438750D02*
X129741000Y-47049250D01*
G75*
G02*
X129907250Y-46883000I166250J0D01*
G01*
X130239750Y-46883000D01*
G75*
G02*
X130406000Y-47049250I0J-166250D01*
G01*
X130406000Y-47438750D01*
G75*
G02*
X130239750Y-47605000I-166250J0D01*
G01*
X129907250Y-47605000D01*
G75*
G02*
X129741000Y-47438750I0J166250D01*
G01*
G37*
G36*
G01*
X128166000Y-47438750D02*
X128166000Y-47049250D01*
G75*
G02*
X128332250Y-46883000I166250J0D01*
G01*
X128664750Y-46883000D01*
G75*
G02*
X128831000Y-47049250I0J-166250D01*
G01*
X128831000Y-47438750D01*
G75*
G02*
X128664750Y-47605000I-166250J0D01*
G01*
X128332250Y-47605000D01*
G75*
G02*
X128166000Y-47438750I0J166250D01*
G01*
G37*
%TD*%
%TO.C,R23*%
G36*
G01*
X134821000Y-53026750D02*
X134821000Y-52637250D01*
G75*
G02*
X134987250Y-52471000I166250J0D01*
G01*
X135319750Y-52471000D01*
G75*
G02*
X135486000Y-52637250I0J-166250D01*
G01*
X135486000Y-53026750D01*
G75*
G02*
X135319750Y-53193000I-166250J0D01*
G01*
X134987250Y-53193000D01*
G75*
G02*
X134821000Y-53026750I0J166250D01*
G01*
G37*
G36*
G01*
X133246000Y-53026750D02*
X133246000Y-52637250D01*
G75*
G02*
X133412250Y-52471000I166250J0D01*
G01*
X133744750Y-52471000D01*
G75*
G02*
X133911000Y-52637250I0J-166250D01*
G01*
X133911000Y-53026750D01*
G75*
G02*
X133744750Y-53193000I-166250J0D01*
G01*
X133412250Y-53193000D01*
G75*
G02*
X133246000Y-53026750I0J166250D01*
G01*
G37*
%TD*%
%TO.C,R22*%
G36*
G01*
X140155000Y-49216750D02*
X140155000Y-48827250D01*
G75*
G02*
X140321250Y-48661000I166250J0D01*
G01*
X140653750Y-48661000D01*
G75*
G02*
X140820000Y-48827250I0J-166250D01*
G01*
X140820000Y-49216750D01*
G75*
G02*
X140653750Y-49383000I-166250J0D01*
G01*
X140321250Y-49383000D01*
G75*
G02*
X140155000Y-49216750I0J166250D01*
G01*
G37*
G36*
G01*
X138580000Y-49216750D02*
X138580000Y-48827250D01*
G75*
G02*
X138746250Y-48661000I166250J0D01*
G01*
X139078750Y-48661000D01*
G75*
G02*
X139245000Y-48827250I0J-166250D01*
G01*
X139245000Y-49216750D01*
G75*
G02*
X139078750Y-49383000I-166250J0D01*
G01*
X138746250Y-49383000D01*
G75*
G02*
X138580000Y-49216750I0J166250D01*
G01*
G37*
%TD*%
%TO.C,R21*%
G36*
G01*
X129853250Y-49985000D02*
X130242750Y-49985000D01*
G75*
G02*
X130409000Y-50151250I0J-166250D01*
G01*
X130409000Y-50483750D01*
G75*
G02*
X130242750Y-50650000I-166250J0D01*
G01*
X129853250Y-50650000D01*
G75*
G02*
X129687000Y-50483750I0J166250D01*
G01*
X129687000Y-50151250D01*
G75*
G02*
X129853250Y-49985000I166250J0D01*
G01*
G37*
G36*
G01*
X129853250Y-48410000D02*
X130242750Y-48410000D01*
G75*
G02*
X130409000Y-48576250I0J-166250D01*
G01*
X130409000Y-48908750D01*
G75*
G02*
X130242750Y-49075000I-166250J0D01*
G01*
X129853250Y-49075000D01*
G75*
G02*
X129687000Y-48908750I0J166250D01*
G01*
X129687000Y-48576250D01*
G75*
G02*
X129853250Y-48410000I166250J0D01*
G01*
G37*
%TD*%
%TO.C,R20*%
G36*
G01*
X134933250Y-55573000D02*
X135322750Y-55573000D01*
G75*
G02*
X135489000Y-55739250I0J-166250D01*
G01*
X135489000Y-56071750D01*
G75*
G02*
X135322750Y-56238000I-166250J0D01*
G01*
X134933250Y-56238000D01*
G75*
G02*
X134767000Y-56071750I0J166250D01*
G01*
X134767000Y-55739250D01*
G75*
G02*
X134933250Y-55573000I166250J0D01*
G01*
G37*
G36*
G01*
X134933250Y-53998000D02*
X135322750Y-53998000D01*
G75*
G02*
X135489000Y-54164250I0J-166250D01*
G01*
X135489000Y-54496750D01*
G75*
G02*
X135322750Y-54663000I-166250J0D01*
G01*
X134933250Y-54663000D01*
G75*
G02*
X134767000Y-54496750I0J166250D01*
G01*
X134767000Y-54164250D01*
G75*
G02*
X134933250Y-53998000I166250J0D01*
G01*
G37*
%TD*%
%TO.C,R19*%
G36*
G01*
X140267250Y-51763000D02*
X140656750Y-51763000D01*
G75*
G02*
X140823000Y-51929250I0J-166250D01*
G01*
X140823000Y-52261750D01*
G75*
G02*
X140656750Y-52428000I-166250J0D01*
G01*
X140267250Y-52428000D01*
G75*
G02*
X140101000Y-52261750I0J166250D01*
G01*
X140101000Y-51929250D01*
G75*
G02*
X140267250Y-51763000I166250J0D01*
G01*
G37*
G36*
G01*
X140267250Y-50188000D02*
X140656750Y-50188000D01*
G75*
G02*
X140823000Y-50354250I0J-166250D01*
G01*
X140823000Y-50686750D01*
G75*
G02*
X140656750Y-50853000I-166250J0D01*
G01*
X140267250Y-50853000D01*
G75*
G02*
X140101000Y-50686750I0J166250D01*
G01*
X140101000Y-50354250D01*
G75*
G02*
X140267250Y-50188000I166250J0D01*
G01*
G37*
%TD*%
%TO.C,R18*%
G36*
G01*
X129741000Y-52010750D02*
X129741000Y-51621250D01*
G75*
G02*
X129907250Y-51455000I166250J0D01*
G01*
X130239750Y-51455000D01*
G75*
G02*
X130406000Y-51621250I0J-166250D01*
G01*
X130406000Y-52010750D01*
G75*
G02*
X130239750Y-52177000I-166250J0D01*
G01*
X129907250Y-52177000D01*
G75*
G02*
X129741000Y-52010750I0J166250D01*
G01*
G37*
G36*
G01*
X128166000Y-52010750D02*
X128166000Y-51621250D01*
G75*
G02*
X128332250Y-51455000I166250J0D01*
G01*
X128664750Y-51455000D01*
G75*
G02*
X128831000Y-51621250I0J-166250D01*
G01*
X128831000Y-52010750D01*
G75*
G02*
X128664750Y-52177000I-166250J0D01*
G01*
X128332250Y-52177000D01*
G75*
G02*
X128166000Y-52010750I0J166250D01*
G01*
G37*
%TD*%
%TO.C,R17*%
G36*
G01*
X134821000Y-57598750D02*
X134821000Y-57209250D01*
G75*
G02*
X134987250Y-57043000I166250J0D01*
G01*
X135319750Y-57043000D01*
G75*
G02*
X135486000Y-57209250I0J-166250D01*
G01*
X135486000Y-57598750D01*
G75*
G02*
X135319750Y-57765000I-166250J0D01*
G01*
X134987250Y-57765000D01*
G75*
G02*
X134821000Y-57598750I0J166250D01*
G01*
G37*
G36*
G01*
X133246000Y-57598750D02*
X133246000Y-57209250D01*
G75*
G02*
X133412250Y-57043000I166250J0D01*
G01*
X133744750Y-57043000D01*
G75*
G02*
X133911000Y-57209250I0J-166250D01*
G01*
X133911000Y-57598750D01*
G75*
G02*
X133744750Y-57765000I-166250J0D01*
G01*
X133412250Y-57765000D01*
G75*
G02*
X133246000Y-57598750I0J166250D01*
G01*
G37*
%TD*%
%TO.C,R16*%
G36*
G01*
X140155000Y-53788750D02*
X140155000Y-53399250D01*
G75*
G02*
X140321250Y-53233000I166250J0D01*
G01*
X140653750Y-53233000D01*
G75*
G02*
X140820000Y-53399250I0J-166250D01*
G01*
X140820000Y-53788750D01*
G75*
G02*
X140653750Y-53955000I-166250J0D01*
G01*
X140321250Y-53955000D01*
G75*
G02*
X140155000Y-53788750I0J166250D01*
G01*
G37*
G36*
G01*
X138580000Y-53788750D02*
X138580000Y-53399250D01*
G75*
G02*
X138746250Y-53233000I166250J0D01*
G01*
X139078750Y-53233000D01*
G75*
G02*
X139245000Y-53399250I0J-166250D01*
G01*
X139245000Y-53788750D01*
G75*
G02*
X139078750Y-53955000I-166250J0D01*
G01*
X138746250Y-53955000D01*
G75*
G02*
X138580000Y-53788750I0J166250D01*
G01*
G37*
%TD*%
%TO.C,R15*%
G36*
G01*
X129853250Y-54557000D02*
X130242750Y-54557000D01*
G75*
G02*
X130409000Y-54723250I0J-166250D01*
G01*
X130409000Y-55055750D01*
G75*
G02*
X130242750Y-55222000I-166250J0D01*
G01*
X129853250Y-55222000D01*
G75*
G02*
X129687000Y-55055750I0J166250D01*
G01*
X129687000Y-54723250D01*
G75*
G02*
X129853250Y-54557000I166250J0D01*
G01*
G37*
G36*
G01*
X129853250Y-52982000D02*
X130242750Y-52982000D01*
G75*
G02*
X130409000Y-53148250I0J-166250D01*
G01*
X130409000Y-53480750D01*
G75*
G02*
X130242750Y-53647000I-166250J0D01*
G01*
X129853250Y-53647000D01*
G75*
G02*
X129687000Y-53480750I0J166250D01*
G01*
X129687000Y-53148250D01*
G75*
G02*
X129853250Y-52982000I166250J0D01*
G01*
G37*
%TD*%
%TO.C,R14*%
G36*
G01*
X134933250Y-60145000D02*
X135322750Y-60145000D01*
G75*
G02*
X135489000Y-60311250I0J-166250D01*
G01*
X135489000Y-60643750D01*
G75*
G02*
X135322750Y-60810000I-166250J0D01*
G01*
X134933250Y-60810000D01*
G75*
G02*
X134767000Y-60643750I0J166250D01*
G01*
X134767000Y-60311250D01*
G75*
G02*
X134933250Y-60145000I166250J0D01*
G01*
G37*
G36*
G01*
X134933250Y-58570000D02*
X135322750Y-58570000D01*
G75*
G02*
X135489000Y-58736250I0J-166250D01*
G01*
X135489000Y-59068750D01*
G75*
G02*
X135322750Y-59235000I-166250J0D01*
G01*
X134933250Y-59235000D01*
G75*
G02*
X134767000Y-59068750I0J166250D01*
G01*
X134767000Y-58736250D01*
G75*
G02*
X134933250Y-58570000I166250J0D01*
G01*
G37*
%TD*%
%TO.C,R13*%
G36*
G01*
X140267250Y-56335000D02*
X140656750Y-56335000D01*
G75*
G02*
X140823000Y-56501250I0J-166250D01*
G01*
X140823000Y-56833750D01*
G75*
G02*
X140656750Y-57000000I-166250J0D01*
G01*
X140267250Y-57000000D01*
G75*
G02*
X140101000Y-56833750I0J166250D01*
G01*
X140101000Y-56501250D01*
G75*
G02*
X140267250Y-56335000I166250J0D01*
G01*
G37*
G36*
G01*
X140267250Y-54760000D02*
X140656750Y-54760000D01*
G75*
G02*
X140823000Y-54926250I0J-166250D01*
G01*
X140823000Y-55258750D01*
G75*
G02*
X140656750Y-55425000I-166250J0D01*
G01*
X140267250Y-55425000D01*
G75*
G02*
X140101000Y-55258750I0J166250D01*
G01*
X140101000Y-54926250D01*
G75*
G02*
X140267250Y-54760000I166250J0D01*
G01*
G37*
%TD*%
%TO.C,R12*%
G36*
G01*
X130242750Y-58219000D02*
X129853250Y-58219000D01*
G75*
G02*
X129687000Y-58052750I0J166250D01*
G01*
X129687000Y-57720250D01*
G75*
G02*
X129853250Y-57554000I166250J0D01*
G01*
X130242750Y-57554000D01*
G75*
G02*
X130409000Y-57720250I0J-166250D01*
G01*
X130409000Y-58052750D01*
G75*
G02*
X130242750Y-58219000I-166250J0D01*
G01*
G37*
G36*
G01*
X130242750Y-59794000D02*
X129853250Y-59794000D01*
G75*
G02*
X129687000Y-59627750I0J166250D01*
G01*
X129687000Y-59295250D01*
G75*
G02*
X129853250Y-59129000I166250J0D01*
G01*
X130242750Y-59129000D01*
G75*
G02*
X130409000Y-59295250I0J-166250D01*
G01*
X130409000Y-59627750D01*
G75*
G02*
X130242750Y-59794000I-166250J0D01*
G01*
G37*
%TD*%
%TO.C,R11*%
G36*
G01*
X129741000Y-56582750D02*
X129741000Y-56193250D01*
G75*
G02*
X129907250Y-56027000I166250J0D01*
G01*
X130239750Y-56027000D01*
G75*
G02*
X130406000Y-56193250I0J-166250D01*
G01*
X130406000Y-56582750D01*
G75*
G02*
X130239750Y-56749000I-166250J0D01*
G01*
X129907250Y-56749000D01*
G75*
G02*
X129741000Y-56582750I0J166250D01*
G01*
G37*
G36*
G01*
X128166000Y-56582750D02*
X128166000Y-56193250D01*
G75*
G02*
X128332250Y-56027000I166250J0D01*
G01*
X128664750Y-56027000D01*
G75*
G02*
X128831000Y-56193250I0J-166250D01*
G01*
X128831000Y-56582750D01*
G75*
G02*
X128664750Y-56749000I-166250J0D01*
G01*
X128332250Y-56749000D01*
G75*
G02*
X128166000Y-56582750I0J166250D01*
G01*
G37*
%TD*%
%TO.C,R10*%
G36*
G01*
X135322750Y-63807000D02*
X134933250Y-63807000D01*
G75*
G02*
X134767000Y-63640750I0J166250D01*
G01*
X134767000Y-63308250D01*
G75*
G02*
X134933250Y-63142000I166250J0D01*
G01*
X135322750Y-63142000D01*
G75*
G02*
X135489000Y-63308250I0J-166250D01*
G01*
X135489000Y-63640750D01*
G75*
G02*
X135322750Y-63807000I-166250J0D01*
G01*
G37*
G36*
G01*
X135322750Y-65382000D02*
X134933250Y-65382000D01*
G75*
G02*
X134767000Y-65215750I0J166250D01*
G01*
X134767000Y-64883250D01*
G75*
G02*
X134933250Y-64717000I166250J0D01*
G01*
X135322750Y-64717000D01*
G75*
G02*
X135489000Y-64883250I0J-166250D01*
G01*
X135489000Y-65215750D01*
G75*
G02*
X135322750Y-65382000I-166250J0D01*
G01*
G37*
%TD*%
%TO.C,R9*%
G36*
G01*
X134795499Y-62170750D02*
X134795499Y-61781250D01*
G75*
G02*
X134961749Y-61615000I166250J0D01*
G01*
X135294249Y-61615000D01*
G75*
G02*
X135460499Y-61781250I0J-166250D01*
G01*
X135460499Y-62170750D01*
G75*
G02*
X135294249Y-62337000I-166250J0D01*
G01*
X134961749Y-62337000D01*
G75*
G02*
X134795499Y-62170750I0J166250D01*
G01*
G37*
G36*
G01*
X133220499Y-62170750D02*
X133220499Y-61781250D01*
G75*
G02*
X133386749Y-61615000I166250J0D01*
G01*
X133719249Y-61615000D01*
G75*
G02*
X133885499Y-61781250I0J-166250D01*
G01*
X133885499Y-62170750D01*
G75*
G02*
X133719249Y-62337000I-166250J0D01*
G01*
X133386749Y-62337000D01*
G75*
G02*
X133220499Y-62170750I0J166250D01*
G01*
G37*
%TD*%
%TO.C,R8*%
G36*
G01*
X140656750Y-59997000D02*
X140267250Y-59997000D01*
G75*
G02*
X140101000Y-59830750I0J166250D01*
G01*
X140101000Y-59498250D01*
G75*
G02*
X140267250Y-59332000I166250J0D01*
G01*
X140656750Y-59332000D01*
G75*
G02*
X140823000Y-59498250I0J-166250D01*
G01*
X140823000Y-59830750D01*
G75*
G02*
X140656750Y-59997000I-166250J0D01*
G01*
G37*
G36*
G01*
X140656750Y-61572000D02*
X140267250Y-61572000D01*
G75*
G02*
X140101000Y-61405750I0J166250D01*
G01*
X140101000Y-61073250D01*
G75*
G02*
X140267250Y-60907000I166250J0D01*
G01*
X140656750Y-60907000D01*
G75*
G02*
X140823000Y-61073250I0J-166250D01*
G01*
X140823000Y-61405750D01*
G75*
G02*
X140656750Y-61572000I-166250J0D01*
G01*
G37*
%TD*%
%TO.C,R7*%
G36*
G01*
X140155000Y-58360750D02*
X140155000Y-57971250D01*
G75*
G02*
X140321250Y-57805000I166250J0D01*
G01*
X140653750Y-57805000D01*
G75*
G02*
X140820000Y-57971250I0J-166250D01*
G01*
X140820000Y-58360750D01*
G75*
G02*
X140653750Y-58527000I-166250J0D01*
G01*
X140321250Y-58527000D01*
G75*
G02*
X140155000Y-58360750I0J166250D01*
G01*
G37*
G36*
G01*
X138580000Y-58360750D02*
X138580000Y-57971250D01*
G75*
G02*
X138746250Y-57805000I166250J0D01*
G01*
X139078750Y-57805000D01*
G75*
G02*
X139245000Y-57971250I0J-166250D01*
G01*
X139245000Y-58360750D01*
G75*
G02*
X139078750Y-58527000I-166250J0D01*
G01*
X138746250Y-58527000D01*
G75*
G02*
X138580000Y-58360750I0J166250D01*
G01*
G37*
%TD*%
%TO.C,R6*%
G36*
G01*
X94460800Y-31431100D02*
X94460800Y-31168900D01*
G75*
G02*
X94572900Y-31056800I112100J0D01*
G01*
X94797100Y-31056800D01*
G75*
G02*
X94909200Y-31168900I0J-112100D01*
G01*
X94909200Y-31431100D01*
G75*
G02*
X94797100Y-31543200I-112100J0D01*
G01*
X94572900Y-31543200D01*
G75*
G02*
X94460800Y-31431100I0J112100D01*
G01*
G37*
G36*
G01*
X93490800Y-31431100D02*
X93490800Y-31168900D01*
G75*
G02*
X93602900Y-31056800I112100J0D01*
G01*
X93827100Y-31056800D01*
G75*
G02*
X93939200Y-31168900I0J-112100D01*
G01*
X93939200Y-31431100D01*
G75*
G02*
X93827100Y-31543200I-112100J0D01*
G01*
X93602900Y-31543200D01*
G75*
G02*
X93490800Y-31431100I0J112100D01*
G01*
G37*
%TD*%
%TO.C,R5*%
G36*
G01*
X96460800Y-31431100D02*
X96460800Y-31168900D01*
G75*
G02*
X96572900Y-31056800I112100J0D01*
G01*
X96797100Y-31056800D01*
G75*
G02*
X96909200Y-31168900I0J-112100D01*
G01*
X96909200Y-31431100D01*
G75*
G02*
X96797100Y-31543200I-112100J0D01*
G01*
X96572900Y-31543200D01*
G75*
G02*
X96460800Y-31431100I0J112100D01*
G01*
G37*
G36*
G01*
X95490800Y-31431100D02*
X95490800Y-31168900D01*
G75*
G02*
X95602900Y-31056800I112100J0D01*
G01*
X95827100Y-31056800D01*
G75*
G02*
X95939200Y-31168900I0J-112100D01*
G01*
X95939200Y-31431100D01*
G75*
G02*
X95827100Y-31543200I-112100J0D01*
G01*
X95602900Y-31543200D01*
G75*
G02*
X95490800Y-31431100I0J112100D01*
G01*
G37*
%TD*%
%TO.C,R4*%
G36*
G01*
X68010800Y-31781100D02*
X68010800Y-31518900D01*
G75*
G02*
X68122900Y-31406800I112100J0D01*
G01*
X68347100Y-31406800D01*
G75*
G02*
X68459200Y-31518900I0J-112100D01*
G01*
X68459200Y-31781100D01*
G75*
G02*
X68347100Y-31893200I-112100J0D01*
G01*
X68122900Y-31893200D01*
G75*
G02*
X68010800Y-31781100I0J112100D01*
G01*
G37*
G36*
G01*
X67040800Y-31781100D02*
X67040800Y-31518900D01*
G75*
G02*
X67152900Y-31406800I112100J0D01*
G01*
X67377100Y-31406800D01*
G75*
G02*
X67489200Y-31518900I0J-112100D01*
G01*
X67489200Y-31781100D01*
G75*
G02*
X67377100Y-31893200I-112100J0D01*
G01*
X67152900Y-31893200D01*
G75*
G02*
X67040800Y-31781100I0J112100D01*
G01*
G37*
%TD*%
%TO.C,R3*%
G36*
G01*
X61039200Y-31518900D02*
X61039200Y-31781100D01*
G75*
G02*
X60927100Y-31893200I-112100J0D01*
G01*
X60702900Y-31893200D01*
G75*
G02*
X60590800Y-31781100I0J112100D01*
G01*
X60590800Y-31518900D01*
G75*
G02*
X60702900Y-31406800I112100J0D01*
G01*
X60927100Y-31406800D01*
G75*
G02*
X61039200Y-31518900I0J-112100D01*
G01*
G37*
G36*
G01*
X62009200Y-31518900D02*
X62009200Y-31781100D01*
G75*
G02*
X61897100Y-31893200I-112100J0D01*
G01*
X61672900Y-31893200D01*
G75*
G02*
X61560800Y-31781100I0J112100D01*
G01*
X61560800Y-31518900D01*
G75*
G02*
X61672900Y-31406800I112100J0D01*
G01*
X61897100Y-31406800D01*
G75*
G02*
X62009200Y-31518900I0J-112100D01*
G01*
G37*
%TD*%
%TO.C,R2*%
G36*
G01*
X60260800Y-109031100D02*
X60260800Y-108768900D01*
G75*
G02*
X60372900Y-108656800I112100J0D01*
G01*
X60597100Y-108656800D01*
G75*
G02*
X60709200Y-108768900I0J-112100D01*
G01*
X60709200Y-109031100D01*
G75*
G02*
X60597100Y-109143200I-112100J0D01*
G01*
X60372900Y-109143200D01*
G75*
G02*
X60260800Y-109031100I0J112100D01*
G01*
G37*
G36*
G01*
X59290800Y-109031100D02*
X59290800Y-108768900D01*
G75*
G02*
X59402900Y-108656800I112100J0D01*
G01*
X59627100Y-108656800D01*
G75*
G02*
X59739200Y-108768900I0J-112100D01*
G01*
X59739200Y-109031100D01*
G75*
G02*
X59627100Y-109143200I-112100J0D01*
G01*
X59402900Y-109143200D01*
G75*
G02*
X59290800Y-109031100I0J112100D01*
G01*
G37*
%TD*%
%TO.C,R1*%
G36*
G01*
X60260800Y-112531100D02*
X60260800Y-112268900D01*
G75*
G02*
X60372900Y-112156800I112100J0D01*
G01*
X60597100Y-112156800D01*
G75*
G02*
X60709200Y-112268900I0J-112100D01*
G01*
X60709200Y-112531100D01*
G75*
G02*
X60597100Y-112643200I-112100J0D01*
G01*
X60372900Y-112643200D01*
G75*
G02*
X60260800Y-112531100I0J112100D01*
G01*
G37*
G36*
G01*
X59290800Y-112531100D02*
X59290800Y-112268900D01*
G75*
G02*
X59402900Y-112156800I112100J0D01*
G01*
X59627100Y-112156800D01*
G75*
G02*
X59739200Y-112268900I0J-112100D01*
G01*
X59739200Y-112531100D01*
G75*
G02*
X59627100Y-112643200I-112100J0D01*
G01*
X59402900Y-112643200D01*
G75*
G02*
X59290800Y-112531100I0J112100D01*
G01*
G37*
%TD*%
D20*
%TO.C,J8*%
X80000000Y-106000000D03*
X81100000Y-106000000D03*
X82200000Y-106000000D03*
X83300000Y-106000000D03*
X84400000Y-106000000D03*
X85500000Y-106000000D03*
X86600000Y-106000000D03*
X87700000Y-106000000D03*
X88800000Y-106000000D03*
D21*
X94300000Y-116600000D03*
X78800000Y-116600000D03*
D22*
X78800000Y-107000000D03*
D23*
X93400000Y-107000000D03*
%TD*%
%TO.C,D2*%
G36*
G01*
X58193500Y-119709250D02*
X58193500Y-120098750D01*
G75*
G02*
X58027250Y-120265000I-166250J0D01*
G01*
X57694750Y-120265000D01*
G75*
G02*
X57528500Y-120098750I0J166250D01*
G01*
X57528500Y-119709250D01*
G75*
G02*
X57694750Y-119543000I166250J0D01*
G01*
X58027250Y-119543000D01*
G75*
G02*
X58193500Y-119709250I0J-166250D01*
G01*
G37*
G36*
G01*
X59768500Y-119709250D02*
X59768500Y-120098750D01*
G75*
G02*
X59602250Y-120265000I-166250J0D01*
G01*
X59269750Y-120265000D01*
G75*
G02*
X59103500Y-120098750I0J166250D01*
G01*
X59103500Y-119709250D01*
G75*
G02*
X59269750Y-119543000I166250J0D01*
G01*
X59602250Y-119543000D01*
G75*
G02*
X59768500Y-119709250I0J-166250D01*
G01*
G37*
%TD*%
%TO.C,D1*%
G36*
G01*
X52525000Y-120098750D02*
X52525000Y-119709250D01*
G75*
G02*
X52691250Y-119543000I166250J0D01*
G01*
X53023750Y-119543000D01*
G75*
G02*
X53190000Y-119709250I0J-166250D01*
G01*
X53190000Y-120098750D01*
G75*
G02*
X53023750Y-120265000I-166250J0D01*
G01*
X52691250Y-120265000D01*
G75*
G02*
X52525000Y-120098750I0J166250D01*
G01*
G37*
G36*
G01*
X50950000Y-120098750D02*
X50950000Y-119709250D01*
G75*
G02*
X51116250Y-119543000I166250J0D01*
G01*
X51448750Y-119543000D01*
G75*
G02*
X51615000Y-119709250I0J-166250D01*
G01*
X51615000Y-120098750D01*
G75*
G02*
X51448750Y-120265000I-166250J0D01*
G01*
X51116250Y-120265000D01*
G75*
G02*
X50950000Y-120098750I0J166250D01*
G01*
G37*
%TD*%
%TO.C,C21*%
G36*
G01*
X33581350Y-42118600D02*
X33191850Y-42118600D01*
G75*
G02*
X33025600Y-41952350I0J166250D01*
G01*
X33025600Y-41619850D01*
G75*
G02*
X33191850Y-41453600I166250J0D01*
G01*
X33581350Y-41453600D01*
G75*
G02*
X33747600Y-41619850I0J-166250D01*
G01*
X33747600Y-41952350D01*
G75*
G02*
X33581350Y-42118600I-166250J0D01*
G01*
G37*
G36*
G01*
X33581350Y-43693600D02*
X33191850Y-43693600D01*
G75*
G02*
X33025600Y-43527350I0J166250D01*
G01*
X33025600Y-43194850D01*
G75*
G02*
X33191850Y-43028600I166250J0D01*
G01*
X33581350Y-43028600D01*
G75*
G02*
X33747600Y-43194850I0J-166250D01*
G01*
X33747600Y-43527350D01*
G75*
G02*
X33581350Y-43693600I-166250J0D01*
G01*
G37*
%TD*%
%TO.C,C20*%
G36*
G01*
X35041700Y-42285000D02*
X34779500Y-42285000D01*
G75*
G02*
X34667400Y-42172900I0J112100D01*
G01*
X34667400Y-41948700D01*
G75*
G02*
X34779500Y-41836600I112100J0D01*
G01*
X35041700Y-41836600D01*
G75*
G02*
X35153800Y-41948700I0J-112100D01*
G01*
X35153800Y-42172900D01*
G75*
G02*
X35041700Y-42285000I-112100J0D01*
G01*
G37*
G36*
G01*
X35041700Y-43255000D02*
X34779500Y-43255000D01*
G75*
G02*
X34667400Y-43142900I0J112100D01*
G01*
X34667400Y-42918700D01*
G75*
G02*
X34779500Y-42806600I112100J0D01*
G01*
X35041700Y-42806600D01*
G75*
G02*
X35153800Y-42918700I0J-112100D01*
G01*
X35153800Y-43142900D01*
G75*
G02*
X35041700Y-43255000I-112100J0D01*
G01*
G37*
%TD*%
%TO.C,C19*%
G36*
G01*
X69348800Y-114955100D02*
X69348800Y-114692900D01*
G75*
G02*
X69460900Y-114580800I112100J0D01*
G01*
X69685100Y-114580800D01*
G75*
G02*
X69797200Y-114692900I0J-112100D01*
G01*
X69797200Y-114955100D01*
G75*
G02*
X69685100Y-115067200I-112100J0D01*
G01*
X69460900Y-115067200D01*
G75*
G02*
X69348800Y-114955100I0J112100D01*
G01*
G37*
G36*
G01*
X68378800Y-114955100D02*
X68378800Y-114692900D01*
G75*
G02*
X68490900Y-114580800I112100J0D01*
G01*
X68715100Y-114580800D01*
G75*
G02*
X68827200Y-114692900I0J-112100D01*
G01*
X68827200Y-114955100D01*
G75*
G02*
X68715100Y-115067200I-112100J0D01*
G01*
X68490900Y-115067200D01*
G75*
G02*
X68378800Y-114955100I0J112100D01*
G01*
G37*
%TD*%
%TO.C,C18*%
G36*
G01*
X22168900Y-42660800D02*
X22431100Y-42660800D01*
G75*
G02*
X22543200Y-42772900I0J-112100D01*
G01*
X22543200Y-42997100D01*
G75*
G02*
X22431100Y-43109200I-112100J0D01*
G01*
X22168900Y-43109200D01*
G75*
G02*
X22056800Y-42997100I0J112100D01*
G01*
X22056800Y-42772900D01*
G75*
G02*
X22168900Y-42660800I112100J0D01*
G01*
G37*
G36*
G01*
X22168900Y-41690800D02*
X22431100Y-41690800D01*
G75*
G02*
X22543200Y-41802900I0J-112100D01*
G01*
X22543200Y-42027100D01*
G75*
G02*
X22431100Y-42139200I-112100J0D01*
G01*
X22168900Y-42139200D01*
G75*
G02*
X22056800Y-42027100I0J112100D01*
G01*
X22056800Y-41802900D01*
G75*
G02*
X22168900Y-41690800I112100J0D01*
G01*
G37*
%TD*%
%TO.C,C17*%
G36*
G01*
X23605250Y-42955000D02*
X23994750Y-42955000D01*
G75*
G02*
X24161000Y-43121250I0J-166250D01*
G01*
X24161000Y-43453750D01*
G75*
G02*
X23994750Y-43620000I-166250J0D01*
G01*
X23605250Y-43620000D01*
G75*
G02*
X23439000Y-43453750I0J166250D01*
G01*
X23439000Y-43121250D01*
G75*
G02*
X23605250Y-42955000I166250J0D01*
G01*
G37*
G36*
G01*
X23605250Y-41380000D02*
X23994750Y-41380000D01*
G75*
G02*
X24161000Y-41546250I0J-166250D01*
G01*
X24161000Y-41878750D01*
G75*
G02*
X23994750Y-42045000I-166250J0D01*
G01*
X23605250Y-42045000D01*
G75*
G02*
X23439000Y-41878750I0J166250D01*
G01*
X23439000Y-41546250D01*
G75*
G02*
X23605250Y-41380000I166250J0D01*
G01*
G37*
%TD*%
%TO.C,C16*%
G36*
G01*
X41939200Y-40868900D02*
X41939200Y-41131100D01*
G75*
G02*
X41827100Y-41243200I-112100J0D01*
G01*
X41602900Y-41243200D01*
G75*
G02*
X41490800Y-41131100I0J112100D01*
G01*
X41490800Y-40868900D01*
G75*
G02*
X41602900Y-40756800I112100J0D01*
G01*
X41827100Y-40756800D01*
G75*
G02*
X41939200Y-40868900I0J-112100D01*
G01*
G37*
G36*
G01*
X42909200Y-40868900D02*
X42909200Y-41131100D01*
G75*
G02*
X42797100Y-41243200I-112100J0D01*
G01*
X42572900Y-41243200D01*
G75*
G02*
X42460800Y-41131100I0J112100D01*
G01*
X42460800Y-40868900D01*
G75*
G02*
X42572900Y-40756800I112100J0D01*
G01*
X42797100Y-40756800D01*
G75*
G02*
X42909200Y-40868900I0J-112100D01*
G01*
G37*
%TD*%
%TO.C,C15*%
G36*
G01*
X41939200Y-41868900D02*
X41939200Y-42131100D01*
G75*
G02*
X41827100Y-42243200I-112100J0D01*
G01*
X41602900Y-42243200D01*
G75*
G02*
X41490800Y-42131100I0J112100D01*
G01*
X41490800Y-41868900D01*
G75*
G02*
X41602900Y-41756800I112100J0D01*
G01*
X41827100Y-41756800D01*
G75*
G02*
X41939200Y-41868900I0J-112100D01*
G01*
G37*
G36*
G01*
X42909200Y-41868900D02*
X42909200Y-42131100D01*
G75*
G02*
X42797100Y-42243200I-112100J0D01*
G01*
X42572900Y-42243200D01*
G75*
G02*
X42460800Y-42131100I0J112100D01*
G01*
X42460800Y-41868900D01*
G75*
G02*
X42572900Y-41756800I112100J0D01*
G01*
X42797100Y-41756800D01*
G75*
G02*
X42909200Y-41868900I0J-112100D01*
G01*
G37*
%TD*%
%TO.C,C14*%
G36*
G01*
X41118900Y-44275800D02*
X41381100Y-44275800D01*
G75*
G02*
X41493200Y-44387900I0J-112100D01*
G01*
X41493200Y-44612100D01*
G75*
G02*
X41381100Y-44724200I-112100J0D01*
G01*
X41118900Y-44724200D01*
G75*
G02*
X41006800Y-44612100I0J112100D01*
G01*
X41006800Y-44387900D01*
G75*
G02*
X41118900Y-44275800I112100J0D01*
G01*
G37*
G36*
G01*
X41118900Y-43305800D02*
X41381100Y-43305800D01*
G75*
G02*
X41493200Y-43417900I0J-112100D01*
G01*
X41493200Y-43642100D01*
G75*
G02*
X41381100Y-43754200I-112100J0D01*
G01*
X41118900Y-43754200D01*
G75*
G02*
X41006800Y-43642100I0J112100D01*
G01*
X41006800Y-43417900D01*
G75*
G02*
X41118900Y-43305800I112100J0D01*
G01*
G37*
%TD*%
%TO.C,C13*%
G36*
G01*
X40068900Y-44260800D02*
X40331100Y-44260800D01*
G75*
G02*
X40443200Y-44372900I0J-112100D01*
G01*
X40443200Y-44597100D01*
G75*
G02*
X40331100Y-44709200I-112100J0D01*
G01*
X40068900Y-44709200D01*
G75*
G02*
X39956800Y-44597100I0J112100D01*
G01*
X39956800Y-44372900D01*
G75*
G02*
X40068900Y-44260800I112100J0D01*
G01*
G37*
G36*
G01*
X40068900Y-43290800D02*
X40331100Y-43290800D01*
G75*
G02*
X40443200Y-43402900I0J-112100D01*
G01*
X40443200Y-43627100D01*
G75*
G02*
X40331100Y-43739200I-112100J0D01*
G01*
X40068900Y-43739200D01*
G75*
G02*
X39956800Y-43627100I0J112100D01*
G01*
X39956800Y-43402900D01*
G75*
G02*
X40068900Y-43290800I112100J0D01*
G01*
G37*
%TD*%
%TO.C,C12*%
G36*
G01*
X64001200Y-72258900D02*
X64001200Y-72521100D01*
G75*
G02*
X63889100Y-72633200I-112100J0D01*
G01*
X63664900Y-72633200D01*
G75*
G02*
X63552800Y-72521100I0J112100D01*
G01*
X63552800Y-72258900D01*
G75*
G02*
X63664900Y-72146800I112100J0D01*
G01*
X63889100Y-72146800D01*
G75*
G02*
X64001200Y-72258900I0J-112100D01*
G01*
G37*
G36*
G01*
X64971200Y-72258900D02*
X64971200Y-72521100D01*
G75*
G02*
X64859100Y-72633200I-112100J0D01*
G01*
X64634900Y-72633200D01*
G75*
G02*
X64522800Y-72521100I0J112100D01*
G01*
X64522800Y-72258900D01*
G75*
G02*
X64634900Y-72146800I112100J0D01*
G01*
X64859100Y-72146800D01*
G75*
G02*
X64971200Y-72258900I0J-112100D01*
G01*
G37*
%TD*%
%TO.C,C11*%
G36*
G01*
X64545800Y-68965100D02*
X64545800Y-68702900D01*
G75*
G02*
X64657900Y-68590800I112100J0D01*
G01*
X64882100Y-68590800D01*
G75*
G02*
X64994200Y-68702900I0J-112100D01*
G01*
X64994200Y-68965100D01*
G75*
G02*
X64882100Y-69077200I-112100J0D01*
G01*
X64657900Y-69077200D01*
G75*
G02*
X64545800Y-68965100I0J112100D01*
G01*
G37*
G36*
G01*
X63575800Y-68965100D02*
X63575800Y-68702900D01*
G75*
G02*
X63687900Y-68590800I112100J0D01*
G01*
X63912100Y-68590800D01*
G75*
G02*
X64024200Y-68702900I0J-112100D01*
G01*
X64024200Y-68965100D01*
G75*
G02*
X63912100Y-69077200I-112100J0D01*
G01*
X63687900Y-69077200D01*
G75*
G02*
X63575800Y-68965100I0J112100D01*
G01*
G37*
%TD*%
%TO.C,C10*%
G36*
G01*
X65017200Y-61844900D02*
X65017200Y-62107100D01*
G75*
G02*
X64905100Y-62219200I-112100J0D01*
G01*
X64680900Y-62219200D01*
G75*
G02*
X64568800Y-62107100I0J112100D01*
G01*
X64568800Y-61844900D01*
G75*
G02*
X64680900Y-61732800I112100J0D01*
G01*
X64905100Y-61732800D01*
G75*
G02*
X65017200Y-61844900I0J-112100D01*
G01*
G37*
G36*
G01*
X65987200Y-61844900D02*
X65987200Y-62107100D01*
G75*
G02*
X65875100Y-62219200I-112100J0D01*
G01*
X65650900Y-62219200D01*
G75*
G02*
X65538800Y-62107100I0J112100D01*
G01*
X65538800Y-61844900D01*
G75*
G02*
X65650900Y-61732800I112100J0D01*
G01*
X65875100Y-61732800D01*
G75*
G02*
X65987200Y-61844900I0J-112100D01*
G01*
G37*
%TD*%
%TO.C,C9*%
G36*
G01*
X65538800Y-59567100D02*
X65538800Y-59304900D01*
G75*
G02*
X65650900Y-59192800I112100J0D01*
G01*
X65875100Y-59192800D01*
G75*
G02*
X65987200Y-59304900I0J-112100D01*
G01*
X65987200Y-59567100D01*
G75*
G02*
X65875100Y-59679200I-112100J0D01*
G01*
X65650900Y-59679200D01*
G75*
G02*
X65538800Y-59567100I0J112100D01*
G01*
G37*
G36*
G01*
X64568800Y-59567100D02*
X64568800Y-59304900D01*
G75*
G02*
X64680900Y-59192800I112100J0D01*
G01*
X64905100Y-59192800D01*
G75*
G02*
X65017200Y-59304900I0J-112100D01*
G01*
X65017200Y-59567100D01*
G75*
G02*
X64905100Y-59679200I-112100J0D01*
G01*
X64680900Y-59679200D01*
G75*
G02*
X64568800Y-59567100I0J112100D01*
G01*
G37*
%TD*%
%TO.C,C8*%
G36*
G01*
X70681100Y-64774200D02*
X70418900Y-64774200D01*
G75*
G02*
X70306800Y-64662100I0J112100D01*
G01*
X70306800Y-64437900D01*
G75*
G02*
X70418900Y-64325800I112100J0D01*
G01*
X70681100Y-64325800D01*
G75*
G02*
X70793200Y-64437900I0J-112100D01*
G01*
X70793200Y-64662100D01*
G75*
G02*
X70681100Y-64774200I-112100J0D01*
G01*
G37*
G36*
G01*
X70681100Y-65744200D02*
X70418900Y-65744200D01*
G75*
G02*
X70306800Y-65632100I0J112100D01*
G01*
X70306800Y-65407900D01*
G75*
G02*
X70418900Y-65295800I112100J0D01*
G01*
X70681100Y-65295800D01*
G75*
G02*
X70793200Y-65407900I0J-112100D01*
G01*
X70793200Y-65632100D01*
G75*
G02*
X70681100Y-65744200I-112100J0D01*
G01*
G37*
%TD*%
%TO.C,C7*%
G36*
G01*
X101760850Y-60170400D02*
X102150350Y-60170400D01*
G75*
G02*
X102316600Y-60336650I0J-166250D01*
G01*
X102316600Y-60669150D01*
G75*
G02*
X102150350Y-60835400I-166250J0D01*
G01*
X101760850Y-60835400D01*
G75*
G02*
X101594600Y-60669150I0J166250D01*
G01*
X101594600Y-60336650D01*
G75*
G02*
X101760850Y-60170400I166250J0D01*
G01*
G37*
G36*
G01*
X101760850Y-58595400D02*
X102150350Y-58595400D01*
G75*
G02*
X102316600Y-58761650I0J-166250D01*
G01*
X102316600Y-59094150D01*
G75*
G02*
X102150350Y-59260400I-166250J0D01*
G01*
X101760850Y-59260400D01*
G75*
G02*
X101594600Y-59094150I0J166250D01*
G01*
X101594600Y-58761650D01*
G75*
G02*
X101760850Y-58595400I166250J0D01*
G01*
G37*
%TD*%
%TO.C,C6*%
G36*
G01*
X99176543Y-79902175D02*
X98901124Y-79626757D01*
G75*
G02*
X98901124Y-79391643I117557J117557D01*
G01*
X99136237Y-79156530D01*
G75*
G02*
X99371351Y-79156530I117557J-117557D01*
G01*
X99646770Y-79431949D01*
G75*
G02*
X99646770Y-79667063I-117557J-117557D01*
G01*
X99411657Y-79902176D01*
G75*
G02*
X99176543Y-79902176I-117557J117557D01*
G01*
G37*
G36*
G01*
X98062849Y-81015869D02*
X97787430Y-80740451D01*
G75*
G02*
X97787430Y-80505337I117557J117557D01*
G01*
X98022543Y-80270224D01*
G75*
G02*
X98257657Y-80270224I117557J-117557D01*
G01*
X98533076Y-80545643D01*
G75*
G02*
X98533076Y-80780757I-117557J-117557D01*
G01*
X98297963Y-81015870D01*
G75*
G02*
X98062849Y-81015870I-117557J117557D01*
G01*
G37*
%TD*%
%TO.C,C3*%
G36*
G01*
X73782900Y-95129800D02*
X74045100Y-95129800D01*
G75*
G02*
X74157200Y-95241900I0J-112100D01*
G01*
X74157200Y-95466100D01*
G75*
G02*
X74045100Y-95578200I-112100J0D01*
G01*
X73782900Y-95578200D01*
G75*
G02*
X73670800Y-95466100I0J112100D01*
G01*
X73670800Y-95241900D01*
G75*
G02*
X73782900Y-95129800I112100J0D01*
G01*
G37*
G36*
G01*
X73782900Y-94159800D02*
X74045100Y-94159800D01*
G75*
G02*
X74157200Y-94271900I0J-112100D01*
G01*
X74157200Y-94496100D01*
G75*
G02*
X74045100Y-94608200I-112100J0D01*
G01*
X73782900Y-94608200D01*
G75*
G02*
X73670800Y-94496100I0J112100D01*
G01*
X73670800Y-94271900D01*
G75*
G02*
X73782900Y-94159800I112100J0D01*
G01*
G37*
%TD*%
%TO.C,C2*%
G36*
G01*
X93885200Y-101908900D02*
X93885200Y-101646700D01*
G75*
G02*
X93997300Y-101534600I112100J0D01*
G01*
X94221500Y-101534600D01*
G75*
G02*
X94333600Y-101646700I0J-112100D01*
G01*
X94333600Y-101908900D01*
G75*
G02*
X94221500Y-102021000I-112100J0D01*
G01*
X93997300Y-102021000D01*
G75*
G02*
X93885200Y-101908900I0J112100D01*
G01*
G37*
G36*
G01*
X92915200Y-101908900D02*
X92915200Y-101646700D01*
G75*
G02*
X93027300Y-101534600I112100J0D01*
G01*
X93251500Y-101534600D01*
G75*
G02*
X93363600Y-101646700I0J-112100D01*
G01*
X93363600Y-101908900D01*
G75*
G02*
X93251500Y-102021000I-112100J0D01*
G01*
X93027300Y-102021000D01*
G75*
G02*
X92915200Y-101908900I0J112100D01*
G01*
G37*
%TD*%
%TO.C,C1*%
G36*
G01*
X88944900Y-101947000D02*
X88944900Y-101684800D01*
G75*
G02*
X89057000Y-101572700I112100J0D01*
G01*
X89281200Y-101572700D01*
G75*
G02*
X89393300Y-101684800I0J-112100D01*
G01*
X89393300Y-101947000D01*
G75*
G02*
X89281200Y-102059100I-112100J0D01*
G01*
X89057000Y-102059100D01*
G75*
G02*
X88944900Y-101947000I0J112100D01*
G01*
G37*
G36*
G01*
X87974900Y-101947000D02*
X87974900Y-101684800D01*
G75*
G02*
X88087000Y-101572700I112100J0D01*
G01*
X88311200Y-101572700D01*
G75*
G02*
X88423300Y-101684800I0J-112100D01*
G01*
X88423300Y-101947000D01*
G75*
G02*
X88311200Y-102059100I-112100J0D01*
G01*
X88087000Y-102059100D01*
G75*
G02*
X87974900Y-101947000I0J112100D01*
G01*
G37*
%TD*%
%TO.C,U1*%
G36*
G01*
X75136000Y-54938000D02*
X75136000Y-53912000D01*
G75*
G02*
X75193000Y-53855000I57000J0D01*
G01*
X75307000Y-53855000D01*
G75*
G02*
X75364000Y-53912000I0J-57000D01*
G01*
X75364000Y-54938000D01*
G75*
G02*
X75307000Y-54995000I-57000J0D01*
G01*
X75193000Y-54995000D01*
G75*
G02*
X75136000Y-54938000I0J57000D01*
G01*
G37*
G36*
G01*
X75636000Y-54938000D02*
X75636000Y-53912000D01*
G75*
G02*
X75693000Y-53855000I57000J0D01*
G01*
X75807000Y-53855000D01*
G75*
G02*
X75864000Y-53912000I0J-57000D01*
G01*
X75864000Y-54938000D01*
G75*
G02*
X75807000Y-54995000I-57000J0D01*
G01*
X75693000Y-54995000D01*
G75*
G02*
X75636000Y-54938000I0J57000D01*
G01*
G37*
G36*
G01*
X76136000Y-54938000D02*
X76136000Y-53912000D01*
G75*
G02*
X76193000Y-53855000I57000J0D01*
G01*
X76307000Y-53855000D01*
G75*
G02*
X76364000Y-53912000I0J-57000D01*
G01*
X76364000Y-54938000D01*
G75*
G02*
X76307000Y-54995000I-57000J0D01*
G01*
X76193000Y-54995000D01*
G75*
G02*
X76136000Y-54938000I0J57000D01*
G01*
G37*
G36*
G01*
X76636000Y-54938000D02*
X76636000Y-53912000D01*
G75*
G02*
X76693000Y-53855000I57000J0D01*
G01*
X76807000Y-53855000D01*
G75*
G02*
X76864000Y-53912000I0J-57000D01*
G01*
X76864000Y-54938000D01*
G75*
G02*
X76807000Y-54995000I-57000J0D01*
G01*
X76693000Y-54995000D01*
G75*
G02*
X76636000Y-54938000I0J57000D01*
G01*
G37*
G36*
G01*
X77136000Y-54938000D02*
X77136000Y-53912000D01*
G75*
G02*
X77193000Y-53855000I57000J0D01*
G01*
X77307000Y-53855000D01*
G75*
G02*
X77364000Y-53912000I0J-57000D01*
G01*
X77364000Y-54938000D01*
G75*
G02*
X77307000Y-54995000I-57000J0D01*
G01*
X77193000Y-54995000D01*
G75*
G02*
X77136000Y-54938000I0J57000D01*
G01*
G37*
G36*
G01*
X77636000Y-54938000D02*
X77636000Y-53912000D01*
G75*
G02*
X77693000Y-53855000I57000J0D01*
G01*
X77807000Y-53855000D01*
G75*
G02*
X77864000Y-53912000I0J-57000D01*
G01*
X77864000Y-54938000D01*
G75*
G02*
X77807000Y-54995000I-57000J0D01*
G01*
X77693000Y-54995000D01*
G75*
G02*
X77636000Y-54938000I0J57000D01*
G01*
G37*
G36*
G01*
X78136000Y-54938000D02*
X78136000Y-53912000D01*
G75*
G02*
X78193000Y-53855000I57000J0D01*
G01*
X78307000Y-53855000D01*
G75*
G02*
X78364000Y-53912000I0J-57000D01*
G01*
X78364000Y-54938000D01*
G75*
G02*
X78307000Y-54995000I-57000J0D01*
G01*
X78193000Y-54995000D01*
G75*
G02*
X78136000Y-54938000I0J57000D01*
G01*
G37*
G36*
G01*
X78636000Y-54938000D02*
X78636000Y-53912000D01*
G75*
G02*
X78693000Y-53855000I57000J0D01*
G01*
X78807000Y-53855000D01*
G75*
G02*
X78864000Y-53912000I0J-57000D01*
G01*
X78864000Y-54938000D01*
G75*
G02*
X78807000Y-54995000I-57000J0D01*
G01*
X78693000Y-54995000D01*
G75*
G02*
X78636000Y-54938000I0J57000D01*
G01*
G37*
G36*
G01*
X79136000Y-54938000D02*
X79136000Y-53912000D01*
G75*
G02*
X79193000Y-53855000I57000J0D01*
G01*
X79307000Y-53855000D01*
G75*
G02*
X79364000Y-53912000I0J-57000D01*
G01*
X79364000Y-54938000D01*
G75*
G02*
X79307000Y-54995000I-57000J0D01*
G01*
X79193000Y-54995000D01*
G75*
G02*
X79136000Y-54938000I0J57000D01*
G01*
G37*
G36*
G01*
X79636000Y-54938000D02*
X79636000Y-53912000D01*
G75*
G02*
X79693000Y-53855000I57000J0D01*
G01*
X79807000Y-53855000D01*
G75*
G02*
X79864000Y-53912000I0J-57000D01*
G01*
X79864000Y-54938000D01*
G75*
G02*
X79807000Y-54995000I-57000J0D01*
G01*
X79693000Y-54995000D01*
G75*
G02*
X79636000Y-54938000I0J57000D01*
G01*
G37*
G36*
G01*
X80136000Y-54938000D02*
X80136000Y-53912000D01*
G75*
G02*
X80193000Y-53855000I57000J0D01*
G01*
X80307000Y-53855000D01*
G75*
G02*
X80364000Y-53912000I0J-57000D01*
G01*
X80364000Y-54938000D01*
G75*
G02*
X80307000Y-54995000I-57000J0D01*
G01*
X80193000Y-54995000D01*
G75*
G02*
X80136000Y-54938000I0J57000D01*
G01*
G37*
G36*
G01*
X80636000Y-54938000D02*
X80636000Y-53912000D01*
G75*
G02*
X80693000Y-53855000I57000J0D01*
G01*
X80807000Y-53855000D01*
G75*
G02*
X80864000Y-53912000I0J-57000D01*
G01*
X80864000Y-54938000D01*
G75*
G02*
X80807000Y-54995000I-57000J0D01*
G01*
X80693000Y-54995000D01*
G75*
G02*
X80636000Y-54938000I0J57000D01*
G01*
G37*
G36*
G01*
X81136000Y-54938000D02*
X81136000Y-53912000D01*
G75*
G02*
X81193000Y-53855000I57000J0D01*
G01*
X81307000Y-53855000D01*
G75*
G02*
X81364000Y-53912000I0J-57000D01*
G01*
X81364000Y-54938000D01*
G75*
G02*
X81307000Y-54995000I-57000J0D01*
G01*
X81193000Y-54995000D01*
G75*
G02*
X81136000Y-54938000I0J57000D01*
G01*
G37*
G36*
G01*
X81636000Y-54938000D02*
X81636000Y-53912000D01*
G75*
G02*
X81693000Y-53855000I57000J0D01*
G01*
X81807000Y-53855000D01*
G75*
G02*
X81864000Y-53912000I0J-57000D01*
G01*
X81864000Y-54938000D01*
G75*
G02*
X81807000Y-54995000I-57000J0D01*
G01*
X81693000Y-54995000D01*
G75*
G02*
X81636000Y-54938000I0J57000D01*
G01*
G37*
G36*
G01*
X82136000Y-54938000D02*
X82136000Y-53912000D01*
G75*
G02*
X82193000Y-53855000I57000J0D01*
G01*
X82307000Y-53855000D01*
G75*
G02*
X82364000Y-53912000I0J-57000D01*
G01*
X82364000Y-54938000D01*
G75*
G02*
X82307000Y-54995000I-57000J0D01*
G01*
X82193000Y-54995000D01*
G75*
G02*
X82136000Y-54938000I0J57000D01*
G01*
G37*
G36*
G01*
X82636000Y-54938000D02*
X82636000Y-53912000D01*
G75*
G02*
X82693000Y-53855000I57000J0D01*
G01*
X82807000Y-53855000D01*
G75*
G02*
X82864000Y-53912000I0J-57000D01*
G01*
X82864000Y-54938000D01*
G75*
G02*
X82807000Y-54995000I-57000J0D01*
G01*
X82693000Y-54995000D01*
G75*
G02*
X82636000Y-54938000I0J57000D01*
G01*
G37*
G36*
G01*
X83136000Y-54938000D02*
X83136000Y-53912000D01*
G75*
G02*
X83193000Y-53855000I57000J0D01*
G01*
X83307000Y-53855000D01*
G75*
G02*
X83364000Y-53912000I0J-57000D01*
G01*
X83364000Y-54938000D01*
G75*
G02*
X83307000Y-54995000I-57000J0D01*
G01*
X83193000Y-54995000D01*
G75*
G02*
X83136000Y-54938000I0J57000D01*
G01*
G37*
G36*
G01*
X83636000Y-54938000D02*
X83636000Y-53912000D01*
G75*
G02*
X83693000Y-53855000I57000J0D01*
G01*
X83807000Y-53855000D01*
G75*
G02*
X83864000Y-53912000I0J-57000D01*
G01*
X83864000Y-54938000D01*
G75*
G02*
X83807000Y-54995000I-57000J0D01*
G01*
X83693000Y-54995000D01*
G75*
G02*
X83636000Y-54938000I0J57000D01*
G01*
G37*
G36*
G01*
X84136000Y-54938000D02*
X84136000Y-53912000D01*
G75*
G02*
X84193000Y-53855000I57000J0D01*
G01*
X84307000Y-53855000D01*
G75*
G02*
X84364000Y-53912000I0J-57000D01*
G01*
X84364000Y-54938000D01*
G75*
G02*
X84307000Y-54995000I-57000J0D01*
G01*
X84193000Y-54995000D01*
G75*
G02*
X84136000Y-54938000I0J57000D01*
G01*
G37*
G36*
G01*
X84636000Y-54938000D02*
X84636000Y-53912000D01*
G75*
G02*
X84693000Y-53855000I57000J0D01*
G01*
X84807000Y-53855000D01*
G75*
G02*
X84864000Y-53912000I0J-57000D01*
G01*
X84864000Y-54938000D01*
G75*
G02*
X84807000Y-54995000I-57000J0D01*
G01*
X84693000Y-54995000D01*
G75*
G02*
X84636000Y-54938000I0J57000D01*
G01*
G37*
G36*
G01*
X85136000Y-54938000D02*
X85136000Y-53912000D01*
G75*
G02*
X85193000Y-53855000I57000J0D01*
G01*
X85307000Y-53855000D01*
G75*
G02*
X85364000Y-53912000I0J-57000D01*
G01*
X85364000Y-54938000D01*
G75*
G02*
X85307000Y-54995000I-57000J0D01*
G01*
X85193000Y-54995000D01*
G75*
G02*
X85136000Y-54938000I0J57000D01*
G01*
G37*
G36*
G01*
X85636000Y-54938000D02*
X85636000Y-53912000D01*
G75*
G02*
X85693000Y-53855000I57000J0D01*
G01*
X85807000Y-53855000D01*
G75*
G02*
X85864000Y-53912000I0J-57000D01*
G01*
X85864000Y-54938000D01*
G75*
G02*
X85807000Y-54995000I-57000J0D01*
G01*
X85693000Y-54995000D01*
G75*
G02*
X85636000Y-54938000I0J57000D01*
G01*
G37*
G36*
G01*
X86136000Y-54938000D02*
X86136000Y-53912000D01*
G75*
G02*
X86193000Y-53855000I57000J0D01*
G01*
X86307000Y-53855000D01*
G75*
G02*
X86364000Y-53912000I0J-57000D01*
G01*
X86364000Y-54938000D01*
G75*
G02*
X86307000Y-54995000I-57000J0D01*
G01*
X86193000Y-54995000D01*
G75*
G02*
X86136000Y-54938000I0J57000D01*
G01*
G37*
G36*
G01*
X86636000Y-54938000D02*
X86636000Y-53912000D01*
G75*
G02*
X86693000Y-53855000I57000J0D01*
G01*
X86807000Y-53855000D01*
G75*
G02*
X86864000Y-53912000I0J-57000D01*
G01*
X86864000Y-54938000D01*
G75*
G02*
X86807000Y-54995000I-57000J0D01*
G01*
X86693000Y-54995000D01*
G75*
G02*
X86636000Y-54938000I0J57000D01*
G01*
G37*
G36*
G01*
X87136000Y-54938000D02*
X87136000Y-53912000D01*
G75*
G02*
X87193000Y-53855000I57000J0D01*
G01*
X87307000Y-53855000D01*
G75*
G02*
X87364000Y-53912000I0J-57000D01*
G01*
X87364000Y-54938000D01*
G75*
G02*
X87307000Y-54995000I-57000J0D01*
G01*
X87193000Y-54995000D01*
G75*
G02*
X87136000Y-54938000I0J57000D01*
G01*
G37*
G36*
G01*
X87636000Y-54938000D02*
X87636000Y-53912000D01*
G75*
G02*
X87693000Y-53855000I57000J0D01*
G01*
X87807000Y-53855000D01*
G75*
G02*
X87864000Y-53912000I0J-57000D01*
G01*
X87864000Y-54938000D01*
G75*
G02*
X87807000Y-54995000I-57000J0D01*
G01*
X87693000Y-54995000D01*
G75*
G02*
X87636000Y-54938000I0J57000D01*
G01*
G37*
G36*
G01*
X88136000Y-54938000D02*
X88136000Y-53912000D01*
G75*
G02*
X88193000Y-53855000I57000J0D01*
G01*
X88307000Y-53855000D01*
G75*
G02*
X88364000Y-53912000I0J-57000D01*
G01*
X88364000Y-54938000D01*
G75*
G02*
X88307000Y-54995000I-57000J0D01*
G01*
X88193000Y-54995000D01*
G75*
G02*
X88136000Y-54938000I0J57000D01*
G01*
G37*
G36*
G01*
X88636000Y-54938000D02*
X88636000Y-53912000D01*
G75*
G02*
X88693000Y-53855000I57000J0D01*
G01*
X88807000Y-53855000D01*
G75*
G02*
X88864000Y-53912000I0J-57000D01*
G01*
X88864000Y-54938000D01*
G75*
G02*
X88807000Y-54995000I-57000J0D01*
G01*
X88693000Y-54995000D01*
G75*
G02*
X88636000Y-54938000I0J57000D01*
G01*
G37*
G36*
G01*
X89136000Y-54938000D02*
X89136000Y-53912000D01*
G75*
G02*
X89193000Y-53855000I57000J0D01*
G01*
X89307000Y-53855000D01*
G75*
G02*
X89364000Y-53912000I0J-57000D01*
G01*
X89364000Y-54938000D01*
G75*
G02*
X89307000Y-54995000I-57000J0D01*
G01*
X89193000Y-54995000D01*
G75*
G02*
X89136000Y-54938000I0J57000D01*
G01*
G37*
G36*
G01*
X89636000Y-54938000D02*
X89636000Y-53912000D01*
G75*
G02*
X89693000Y-53855000I57000J0D01*
G01*
X89807000Y-53855000D01*
G75*
G02*
X89864000Y-53912000I0J-57000D01*
G01*
X89864000Y-54938000D01*
G75*
G02*
X89807000Y-54995000I-57000J0D01*
G01*
X89693000Y-54995000D01*
G75*
G02*
X89636000Y-54938000I0J57000D01*
G01*
G37*
G36*
G01*
X90136000Y-54938000D02*
X90136000Y-53912000D01*
G75*
G02*
X90193000Y-53855000I57000J0D01*
G01*
X90307000Y-53855000D01*
G75*
G02*
X90364000Y-53912000I0J-57000D01*
G01*
X90364000Y-54938000D01*
G75*
G02*
X90307000Y-54995000I-57000J0D01*
G01*
X90193000Y-54995000D01*
G75*
G02*
X90136000Y-54938000I0J57000D01*
G01*
G37*
G36*
G01*
X90636000Y-54938000D02*
X90636000Y-53912000D01*
G75*
G02*
X90693000Y-53855000I57000J0D01*
G01*
X90807000Y-53855000D01*
G75*
G02*
X90864000Y-53912000I0J-57000D01*
G01*
X90864000Y-54938000D01*
G75*
G02*
X90807000Y-54995000I-57000J0D01*
G01*
X90693000Y-54995000D01*
G75*
G02*
X90636000Y-54938000I0J57000D01*
G01*
G37*
G36*
G01*
X91136000Y-54938000D02*
X91136000Y-53912000D01*
G75*
G02*
X91193000Y-53855000I57000J0D01*
G01*
X91307000Y-53855000D01*
G75*
G02*
X91364000Y-53912000I0J-57000D01*
G01*
X91364000Y-54938000D01*
G75*
G02*
X91307000Y-54995000I-57000J0D01*
G01*
X91193000Y-54995000D01*
G75*
G02*
X91136000Y-54938000I0J57000D01*
G01*
G37*
G36*
G01*
X91636000Y-54938000D02*
X91636000Y-53912000D01*
G75*
G02*
X91693000Y-53855000I57000J0D01*
G01*
X91807000Y-53855000D01*
G75*
G02*
X91864000Y-53912000I0J-57000D01*
G01*
X91864000Y-54938000D01*
G75*
G02*
X91807000Y-54995000I-57000J0D01*
G01*
X91693000Y-54995000D01*
G75*
G02*
X91636000Y-54938000I0J57000D01*
G01*
G37*
G36*
G01*
X92136000Y-54938000D02*
X92136000Y-53912000D01*
G75*
G02*
X92193000Y-53855000I57000J0D01*
G01*
X92307000Y-53855000D01*
G75*
G02*
X92364000Y-53912000I0J-57000D01*
G01*
X92364000Y-54938000D01*
G75*
G02*
X92307000Y-54995000I-57000J0D01*
G01*
X92193000Y-54995000D01*
G75*
G02*
X92136000Y-54938000I0J57000D01*
G01*
G37*
G36*
G01*
X92636000Y-54938000D02*
X92636000Y-53912000D01*
G75*
G02*
X92693000Y-53855000I57000J0D01*
G01*
X92807000Y-53855000D01*
G75*
G02*
X92864000Y-53912000I0J-57000D01*
G01*
X92864000Y-54938000D01*
G75*
G02*
X92807000Y-54995000I-57000J0D01*
G01*
X92693000Y-54995000D01*
G75*
G02*
X92636000Y-54938000I0J57000D01*
G01*
G37*
G36*
G01*
X93136000Y-54938000D02*
X93136000Y-53912000D01*
G75*
G02*
X93193000Y-53855000I57000J0D01*
G01*
X93307000Y-53855000D01*
G75*
G02*
X93364000Y-53912000I0J-57000D01*
G01*
X93364000Y-54938000D01*
G75*
G02*
X93307000Y-54995000I-57000J0D01*
G01*
X93193000Y-54995000D01*
G75*
G02*
X93136000Y-54938000I0J57000D01*
G01*
G37*
G36*
G01*
X93636000Y-54938000D02*
X93636000Y-53912000D01*
G75*
G02*
X93693000Y-53855000I57000J0D01*
G01*
X93807000Y-53855000D01*
G75*
G02*
X93864000Y-53912000I0J-57000D01*
G01*
X93864000Y-54938000D01*
G75*
G02*
X93807000Y-54995000I-57000J0D01*
G01*
X93693000Y-54995000D01*
G75*
G02*
X93636000Y-54938000I0J57000D01*
G01*
G37*
G36*
G01*
X94136000Y-54938000D02*
X94136000Y-53912000D01*
G75*
G02*
X94193000Y-53855000I57000J0D01*
G01*
X94307000Y-53855000D01*
G75*
G02*
X94364000Y-53912000I0J-57000D01*
G01*
X94364000Y-54938000D01*
G75*
G02*
X94307000Y-54995000I-57000J0D01*
G01*
X94193000Y-54995000D01*
G75*
G02*
X94136000Y-54938000I0J57000D01*
G01*
G37*
G36*
G01*
X94636000Y-54938000D02*
X94636000Y-53912000D01*
G75*
G02*
X94693000Y-53855000I57000J0D01*
G01*
X94807000Y-53855000D01*
G75*
G02*
X94864000Y-53912000I0J-57000D01*
G01*
X94864000Y-54938000D01*
G75*
G02*
X94807000Y-54995000I-57000J0D01*
G01*
X94693000Y-54995000D01*
G75*
G02*
X94636000Y-54938000I0J57000D01*
G01*
G37*
G36*
G01*
X95136000Y-54938000D02*
X95136000Y-53912000D01*
G75*
G02*
X95193000Y-53855000I57000J0D01*
G01*
X95307000Y-53855000D01*
G75*
G02*
X95364000Y-53912000I0J-57000D01*
G01*
X95364000Y-54938000D01*
G75*
G02*
X95307000Y-54995000I-57000J0D01*
G01*
X95193000Y-54995000D01*
G75*
G02*
X95136000Y-54938000I0J57000D01*
G01*
G37*
G36*
G01*
X95636000Y-54938000D02*
X95636000Y-53912000D01*
G75*
G02*
X95693000Y-53855000I57000J0D01*
G01*
X95807000Y-53855000D01*
G75*
G02*
X95864000Y-53912000I0J-57000D01*
G01*
X95864000Y-54938000D01*
G75*
G02*
X95807000Y-54995000I-57000J0D01*
G01*
X95693000Y-54995000D01*
G75*
G02*
X95636000Y-54938000I0J57000D01*
G01*
G37*
G36*
G01*
X96136000Y-54938000D02*
X96136000Y-53912000D01*
G75*
G02*
X96193000Y-53855000I57000J0D01*
G01*
X96307000Y-53855000D01*
G75*
G02*
X96364000Y-53912000I0J-57000D01*
G01*
X96364000Y-54938000D01*
G75*
G02*
X96307000Y-54995000I-57000J0D01*
G01*
X96193000Y-54995000D01*
G75*
G02*
X96136000Y-54938000I0J57000D01*
G01*
G37*
G36*
G01*
X96636000Y-54938000D02*
X96636000Y-53912000D01*
G75*
G02*
X96693000Y-53855000I57000J0D01*
G01*
X96807000Y-53855000D01*
G75*
G02*
X96864000Y-53912000I0J-57000D01*
G01*
X96864000Y-54938000D01*
G75*
G02*
X96807000Y-54995000I-57000J0D01*
G01*
X96693000Y-54995000D01*
G75*
G02*
X96636000Y-54938000I0J57000D01*
G01*
G37*
G36*
G01*
X98105000Y-56407000D02*
X98105000Y-56293000D01*
G75*
G02*
X98162000Y-56236000I57000J0D01*
G01*
X99188000Y-56236000D01*
G75*
G02*
X99245000Y-56293000I0J-57000D01*
G01*
X99245000Y-56407000D01*
G75*
G02*
X99188000Y-56464000I-57000J0D01*
G01*
X98162000Y-56464000D01*
G75*
G02*
X98105000Y-56407000I0J57000D01*
G01*
G37*
G36*
G01*
X98105000Y-56907000D02*
X98105000Y-56793000D01*
G75*
G02*
X98162000Y-56736000I57000J0D01*
G01*
X99188000Y-56736000D01*
G75*
G02*
X99245000Y-56793000I0J-57000D01*
G01*
X99245000Y-56907000D01*
G75*
G02*
X99188000Y-56964000I-57000J0D01*
G01*
X98162000Y-56964000D01*
G75*
G02*
X98105000Y-56907000I0J57000D01*
G01*
G37*
G36*
G01*
X98105000Y-57407000D02*
X98105000Y-57293000D01*
G75*
G02*
X98162000Y-57236000I57000J0D01*
G01*
X99188000Y-57236000D01*
G75*
G02*
X99245000Y-57293000I0J-57000D01*
G01*
X99245000Y-57407000D01*
G75*
G02*
X99188000Y-57464000I-57000J0D01*
G01*
X98162000Y-57464000D01*
G75*
G02*
X98105000Y-57407000I0J57000D01*
G01*
G37*
G36*
G01*
X98105000Y-57907000D02*
X98105000Y-57793000D01*
G75*
G02*
X98162000Y-57736000I57000J0D01*
G01*
X99188000Y-57736000D01*
G75*
G02*
X99245000Y-57793000I0J-57000D01*
G01*
X99245000Y-57907000D01*
G75*
G02*
X99188000Y-57964000I-57000J0D01*
G01*
X98162000Y-57964000D01*
G75*
G02*
X98105000Y-57907000I0J57000D01*
G01*
G37*
G36*
G01*
X98105000Y-58407000D02*
X98105000Y-58293000D01*
G75*
G02*
X98162000Y-58236000I57000J0D01*
G01*
X99188000Y-58236000D01*
G75*
G02*
X99245000Y-58293000I0J-57000D01*
G01*
X99245000Y-58407000D01*
G75*
G02*
X99188000Y-58464000I-57000J0D01*
G01*
X98162000Y-58464000D01*
G75*
G02*
X98105000Y-58407000I0J57000D01*
G01*
G37*
G36*
G01*
X98105000Y-58907000D02*
X98105000Y-58793000D01*
G75*
G02*
X98162000Y-58736000I57000J0D01*
G01*
X99188000Y-58736000D01*
G75*
G02*
X99245000Y-58793000I0J-57000D01*
G01*
X99245000Y-58907000D01*
G75*
G02*
X99188000Y-58964000I-57000J0D01*
G01*
X98162000Y-58964000D01*
G75*
G02*
X98105000Y-58907000I0J57000D01*
G01*
G37*
G36*
G01*
X98105000Y-59407000D02*
X98105000Y-59293000D01*
G75*
G02*
X98162000Y-59236000I57000J0D01*
G01*
X99188000Y-59236000D01*
G75*
G02*
X99245000Y-59293000I0J-57000D01*
G01*
X99245000Y-59407000D01*
G75*
G02*
X99188000Y-59464000I-57000J0D01*
G01*
X98162000Y-59464000D01*
G75*
G02*
X98105000Y-59407000I0J57000D01*
G01*
G37*
G36*
G01*
X98105000Y-59907000D02*
X98105000Y-59793000D01*
G75*
G02*
X98162000Y-59736000I57000J0D01*
G01*
X99188000Y-59736000D01*
G75*
G02*
X99245000Y-59793000I0J-57000D01*
G01*
X99245000Y-59907000D01*
G75*
G02*
X99188000Y-59964000I-57000J0D01*
G01*
X98162000Y-59964000D01*
G75*
G02*
X98105000Y-59907000I0J57000D01*
G01*
G37*
G36*
G01*
X98105000Y-60407000D02*
X98105000Y-60293000D01*
G75*
G02*
X98162000Y-60236000I57000J0D01*
G01*
X99188000Y-60236000D01*
G75*
G02*
X99245000Y-60293000I0J-57000D01*
G01*
X99245000Y-60407000D01*
G75*
G02*
X99188000Y-60464000I-57000J0D01*
G01*
X98162000Y-60464000D01*
G75*
G02*
X98105000Y-60407000I0J57000D01*
G01*
G37*
G36*
G01*
X98105000Y-60907000D02*
X98105000Y-60793000D01*
G75*
G02*
X98162000Y-60736000I57000J0D01*
G01*
X99188000Y-60736000D01*
G75*
G02*
X99245000Y-60793000I0J-57000D01*
G01*
X99245000Y-60907000D01*
G75*
G02*
X99188000Y-60964000I-57000J0D01*
G01*
X98162000Y-60964000D01*
G75*
G02*
X98105000Y-60907000I0J57000D01*
G01*
G37*
G36*
G01*
X98105000Y-61407000D02*
X98105000Y-61293000D01*
G75*
G02*
X98162000Y-61236000I57000J0D01*
G01*
X99188000Y-61236000D01*
G75*
G02*
X99245000Y-61293000I0J-57000D01*
G01*
X99245000Y-61407000D01*
G75*
G02*
X99188000Y-61464000I-57000J0D01*
G01*
X98162000Y-61464000D01*
G75*
G02*
X98105000Y-61407000I0J57000D01*
G01*
G37*
G36*
G01*
X98105000Y-61907000D02*
X98105000Y-61793000D01*
G75*
G02*
X98162000Y-61736000I57000J0D01*
G01*
X99188000Y-61736000D01*
G75*
G02*
X99245000Y-61793000I0J-57000D01*
G01*
X99245000Y-61907000D01*
G75*
G02*
X99188000Y-61964000I-57000J0D01*
G01*
X98162000Y-61964000D01*
G75*
G02*
X98105000Y-61907000I0J57000D01*
G01*
G37*
G36*
G01*
X98105000Y-62407000D02*
X98105000Y-62293000D01*
G75*
G02*
X98162000Y-62236000I57000J0D01*
G01*
X99188000Y-62236000D01*
G75*
G02*
X99245000Y-62293000I0J-57000D01*
G01*
X99245000Y-62407000D01*
G75*
G02*
X99188000Y-62464000I-57000J0D01*
G01*
X98162000Y-62464000D01*
G75*
G02*
X98105000Y-62407000I0J57000D01*
G01*
G37*
G36*
G01*
X98105000Y-62907000D02*
X98105000Y-62793000D01*
G75*
G02*
X98162000Y-62736000I57000J0D01*
G01*
X99188000Y-62736000D01*
G75*
G02*
X99245000Y-62793000I0J-57000D01*
G01*
X99245000Y-62907000D01*
G75*
G02*
X99188000Y-62964000I-57000J0D01*
G01*
X98162000Y-62964000D01*
G75*
G02*
X98105000Y-62907000I0J57000D01*
G01*
G37*
G36*
G01*
X98105000Y-63407000D02*
X98105000Y-63293000D01*
G75*
G02*
X98162000Y-63236000I57000J0D01*
G01*
X99188000Y-63236000D01*
G75*
G02*
X99245000Y-63293000I0J-57000D01*
G01*
X99245000Y-63407000D01*
G75*
G02*
X99188000Y-63464000I-57000J0D01*
G01*
X98162000Y-63464000D01*
G75*
G02*
X98105000Y-63407000I0J57000D01*
G01*
G37*
G36*
G01*
X98105000Y-63907000D02*
X98105000Y-63793000D01*
G75*
G02*
X98162000Y-63736000I57000J0D01*
G01*
X99188000Y-63736000D01*
G75*
G02*
X99245000Y-63793000I0J-57000D01*
G01*
X99245000Y-63907000D01*
G75*
G02*
X99188000Y-63964000I-57000J0D01*
G01*
X98162000Y-63964000D01*
G75*
G02*
X98105000Y-63907000I0J57000D01*
G01*
G37*
G36*
G01*
X98105000Y-64407000D02*
X98105000Y-64293000D01*
G75*
G02*
X98162000Y-64236000I57000J0D01*
G01*
X99188000Y-64236000D01*
G75*
G02*
X99245000Y-64293000I0J-57000D01*
G01*
X99245000Y-64407000D01*
G75*
G02*
X99188000Y-64464000I-57000J0D01*
G01*
X98162000Y-64464000D01*
G75*
G02*
X98105000Y-64407000I0J57000D01*
G01*
G37*
G36*
G01*
X98105000Y-64907000D02*
X98105000Y-64793000D01*
G75*
G02*
X98162000Y-64736000I57000J0D01*
G01*
X99188000Y-64736000D01*
G75*
G02*
X99245000Y-64793000I0J-57000D01*
G01*
X99245000Y-64907000D01*
G75*
G02*
X99188000Y-64964000I-57000J0D01*
G01*
X98162000Y-64964000D01*
G75*
G02*
X98105000Y-64907000I0J57000D01*
G01*
G37*
G36*
G01*
X98105000Y-65407000D02*
X98105000Y-65293000D01*
G75*
G02*
X98162000Y-65236000I57000J0D01*
G01*
X99188000Y-65236000D01*
G75*
G02*
X99245000Y-65293000I0J-57000D01*
G01*
X99245000Y-65407000D01*
G75*
G02*
X99188000Y-65464000I-57000J0D01*
G01*
X98162000Y-65464000D01*
G75*
G02*
X98105000Y-65407000I0J57000D01*
G01*
G37*
G36*
G01*
X98105000Y-65907000D02*
X98105000Y-65793000D01*
G75*
G02*
X98162000Y-65736000I57000J0D01*
G01*
X99188000Y-65736000D01*
G75*
G02*
X99245000Y-65793000I0J-57000D01*
G01*
X99245000Y-65907000D01*
G75*
G02*
X99188000Y-65964000I-57000J0D01*
G01*
X98162000Y-65964000D01*
G75*
G02*
X98105000Y-65907000I0J57000D01*
G01*
G37*
G36*
G01*
X98105000Y-66407000D02*
X98105000Y-66293000D01*
G75*
G02*
X98162000Y-66236000I57000J0D01*
G01*
X99188000Y-66236000D01*
G75*
G02*
X99245000Y-66293000I0J-57000D01*
G01*
X99245000Y-66407000D01*
G75*
G02*
X99188000Y-66464000I-57000J0D01*
G01*
X98162000Y-66464000D01*
G75*
G02*
X98105000Y-66407000I0J57000D01*
G01*
G37*
G36*
G01*
X98105000Y-66907000D02*
X98105000Y-66793000D01*
G75*
G02*
X98162000Y-66736000I57000J0D01*
G01*
X99188000Y-66736000D01*
G75*
G02*
X99245000Y-66793000I0J-57000D01*
G01*
X99245000Y-66907000D01*
G75*
G02*
X99188000Y-66964000I-57000J0D01*
G01*
X98162000Y-66964000D01*
G75*
G02*
X98105000Y-66907000I0J57000D01*
G01*
G37*
G36*
G01*
X98105000Y-67407000D02*
X98105000Y-67293000D01*
G75*
G02*
X98162000Y-67236000I57000J0D01*
G01*
X99188000Y-67236000D01*
G75*
G02*
X99245000Y-67293000I0J-57000D01*
G01*
X99245000Y-67407000D01*
G75*
G02*
X99188000Y-67464000I-57000J0D01*
G01*
X98162000Y-67464000D01*
G75*
G02*
X98105000Y-67407000I0J57000D01*
G01*
G37*
G36*
G01*
X98105000Y-67907000D02*
X98105000Y-67793000D01*
G75*
G02*
X98162000Y-67736000I57000J0D01*
G01*
X99188000Y-67736000D01*
G75*
G02*
X99245000Y-67793000I0J-57000D01*
G01*
X99245000Y-67907000D01*
G75*
G02*
X99188000Y-67964000I-57000J0D01*
G01*
X98162000Y-67964000D01*
G75*
G02*
X98105000Y-67907000I0J57000D01*
G01*
G37*
G36*
G01*
X98105000Y-68407000D02*
X98105000Y-68293000D01*
G75*
G02*
X98162000Y-68236000I57000J0D01*
G01*
X99188000Y-68236000D01*
G75*
G02*
X99245000Y-68293000I0J-57000D01*
G01*
X99245000Y-68407000D01*
G75*
G02*
X99188000Y-68464000I-57000J0D01*
G01*
X98162000Y-68464000D01*
G75*
G02*
X98105000Y-68407000I0J57000D01*
G01*
G37*
G36*
G01*
X98105000Y-68907000D02*
X98105000Y-68793000D01*
G75*
G02*
X98162000Y-68736000I57000J0D01*
G01*
X99188000Y-68736000D01*
G75*
G02*
X99245000Y-68793000I0J-57000D01*
G01*
X99245000Y-68907000D01*
G75*
G02*
X99188000Y-68964000I-57000J0D01*
G01*
X98162000Y-68964000D01*
G75*
G02*
X98105000Y-68907000I0J57000D01*
G01*
G37*
G36*
G01*
X98105000Y-69407000D02*
X98105000Y-69293000D01*
G75*
G02*
X98162000Y-69236000I57000J0D01*
G01*
X99188000Y-69236000D01*
G75*
G02*
X99245000Y-69293000I0J-57000D01*
G01*
X99245000Y-69407000D01*
G75*
G02*
X99188000Y-69464000I-57000J0D01*
G01*
X98162000Y-69464000D01*
G75*
G02*
X98105000Y-69407000I0J57000D01*
G01*
G37*
G36*
G01*
X98105000Y-69907000D02*
X98105000Y-69793000D01*
G75*
G02*
X98162000Y-69736000I57000J0D01*
G01*
X99188000Y-69736000D01*
G75*
G02*
X99245000Y-69793000I0J-57000D01*
G01*
X99245000Y-69907000D01*
G75*
G02*
X99188000Y-69964000I-57000J0D01*
G01*
X98162000Y-69964000D01*
G75*
G02*
X98105000Y-69907000I0J57000D01*
G01*
G37*
G36*
G01*
X98105000Y-70407000D02*
X98105000Y-70293000D01*
G75*
G02*
X98162000Y-70236000I57000J0D01*
G01*
X99188000Y-70236000D01*
G75*
G02*
X99245000Y-70293000I0J-57000D01*
G01*
X99245000Y-70407000D01*
G75*
G02*
X99188000Y-70464000I-57000J0D01*
G01*
X98162000Y-70464000D01*
G75*
G02*
X98105000Y-70407000I0J57000D01*
G01*
G37*
G36*
G01*
X98105000Y-70907000D02*
X98105000Y-70793000D01*
G75*
G02*
X98162000Y-70736000I57000J0D01*
G01*
X99188000Y-70736000D01*
G75*
G02*
X99245000Y-70793000I0J-57000D01*
G01*
X99245000Y-70907000D01*
G75*
G02*
X99188000Y-70964000I-57000J0D01*
G01*
X98162000Y-70964000D01*
G75*
G02*
X98105000Y-70907000I0J57000D01*
G01*
G37*
G36*
G01*
X98105000Y-71407000D02*
X98105000Y-71293000D01*
G75*
G02*
X98162000Y-71236000I57000J0D01*
G01*
X99188000Y-71236000D01*
G75*
G02*
X99245000Y-71293000I0J-57000D01*
G01*
X99245000Y-71407000D01*
G75*
G02*
X99188000Y-71464000I-57000J0D01*
G01*
X98162000Y-71464000D01*
G75*
G02*
X98105000Y-71407000I0J57000D01*
G01*
G37*
G36*
G01*
X98105000Y-71907000D02*
X98105000Y-71793000D01*
G75*
G02*
X98162000Y-71736000I57000J0D01*
G01*
X99188000Y-71736000D01*
G75*
G02*
X99245000Y-71793000I0J-57000D01*
G01*
X99245000Y-71907000D01*
G75*
G02*
X99188000Y-71964000I-57000J0D01*
G01*
X98162000Y-71964000D01*
G75*
G02*
X98105000Y-71907000I0J57000D01*
G01*
G37*
G36*
G01*
X98105000Y-72407000D02*
X98105000Y-72293000D01*
G75*
G02*
X98162000Y-72236000I57000J0D01*
G01*
X99188000Y-72236000D01*
G75*
G02*
X99245000Y-72293000I0J-57000D01*
G01*
X99245000Y-72407000D01*
G75*
G02*
X99188000Y-72464000I-57000J0D01*
G01*
X98162000Y-72464000D01*
G75*
G02*
X98105000Y-72407000I0J57000D01*
G01*
G37*
G36*
G01*
X98105000Y-72907000D02*
X98105000Y-72793000D01*
G75*
G02*
X98162000Y-72736000I57000J0D01*
G01*
X99188000Y-72736000D01*
G75*
G02*
X99245000Y-72793000I0J-57000D01*
G01*
X99245000Y-72907000D01*
G75*
G02*
X99188000Y-72964000I-57000J0D01*
G01*
X98162000Y-72964000D01*
G75*
G02*
X98105000Y-72907000I0J57000D01*
G01*
G37*
G36*
G01*
X98105000Y-73407000D02*
X98105000Y-73293000D01*
G75*
G02*
X98162000Y-73236000I57000J0D01*
G01*
X99188000Y-73236000D01*
G75*
G02*
X99245000Y-73293000I0J-57000D01*
G01*
X99245000Y-73407000D01*
G75*
G02*
X99188000Y-73464000I-57000J0D01*
G01*
X98162000Y-73464000D01*
G75*
G02*
X98105000Y-73407000I0J57000D01*
G01*
G37*
G36*
G01*
X98105000Y-73907000D02*
X98105000Y-73793000D01*
G75*
G02*
X98162000Y-73736000I57000J0D01*
G01*
X99188000Y-73736000D01*
G75*
G02*
X99245000Y-73793000I0J-57000D01*
G01*
X99245000Y-73907000D01*
G75*
G02*
X99188000Y-73964000I-57000J0D01*
G01*
X98162000Y-73964000D01*
G75*
G02*
X98105000Y-73907000I0J57000D01*
G01*
G37*
G36*
G01*
X98105000Y-74407000D02*
X98105000Y-74293000D01*
G75*
G02*
X98162000Y-74236000I57000J0D01*
G01*
X99188000Y-74236000D01*
G75*
G02*
X99245000Y-74293000I0J-57000D01*
G01*
X99245000Y-74407000D01*
G75*
G02*
X99188000Y-74464000I-57000J0D01*
G01*
X98162000Y-74464000D01*
G75*
G02*
X98105000Y-74407000I0J57000D01*
G01*
G37*
G36*
G01*
X98105000Y-74907000D02*
X98105000Y-74793000D01*
G75*
G02*
X98162000Y-74736000I57000J0D01*
G01*
X99188000Y-74736000D01*
G75*
G02*
X99245000Y-74793000I0J-57000D01*
G01*
X99245000Y-74907000D01*
G75*
G02*
X99188000Y-74964000I-57000J0D01*
G01*
X98162000Y-74964000D01*
G75*
G02*
X98105000Y-74907000I0J57000D01*
G01*
G37*
G36*
G01*
X98105000Y-75407000D02*
X98105000Y-75293000D01*
G75*
G02*
X98162000Y-75236000I57000J0D01*
G01*
X99188000Y-75236000D01*
G75*
G02*
X99245000Y-75293000I0J-57000D01*
G01*
X99245000Y-75407000D01*
G75*
G02*
X99188000Y-75464000I-57000J0D01*
G01*
X98162000Y-75464000D01*
G75*
G02*
X98105000Y-75407000I0J57000D01*
G01*
G37*
G36*
G01*
X98105000Y-75907000D02*
X98105000Y-75793000D01*
G75*
G02*
X98162000Y-75736000I57000J0D01*
G01*
X99188000Y-75736000D01*
G75*
G02*
X99245000Y-75793000I0J-57000D01*
G01*
X99245000Y-75907000D01*
G75*
G02*
X99188000Y-75964000I-57000J0D01*
G01*
X98162000Y-75964000D01*
G75*
G02*
X98105000Y-75907000I0J57000D01*
G01*
G37*
G36*
G01*
X98105000Y-76407000D02*
X98105000Y-76293000D01*
G75*
G02*
X98162000Y-76236000I57000J0D01*
G01*
X99188000Y-76236000D01*
G75*
G02*
X99245000Y-76293000I0J-57000D01*
G01*
X99245000Y-76407000D01*
G75*
G02*
X99188000Y-76464000I-57000J0D01*
G01*
X98162000Y-76464000D01*
G75*
G02*
X98105000Y-76407000I0J57000D01*
G01*
G37*
G36*
G01*
X98105000Y-76907000D02*
X98105000Y-76793000D01*
G75*
G02*
X98162000Y-76736000I57000J0D01*
G01*
X99188000Y-76736000D01*
G75*
G02*
X99245000Y-76793000I0J-57000D01*
G01*
X99245000Y-76907000D01*
G75*
G02*
X99188000Y-76964000I-57000J0D01*
G01*
X98162000Y-76964000D01*
G75*
G02*
X98105000Y-76907000I0J57000D01*
G01*
G37*
G36*
G01*
X98105000Y-77407000D02*
X98105000Y-77293000D01*
G75*
G02*
X98162000Y-77236000I57000J0D01*
G01*
X99188000Y-77236000D01*
G75*
G02*
X99245000Y-77293000I0J-57000D01*
G01*
X99245000Y-77407000D01*
G75*
G02*
X99188000Y-77464000I-57000J0D01*
G01*
X98162000Y-77464000D01*
G75*
G02*
X98105000Y-77407000I0J57000D01*
G01*
G37*
G36*
G01*
X98105000Y-77907000D02*
X98105000Y-77793000D01*
G75*
G02*
X98162000Y-77736000I57000J0D01*
G01*
X99188000Y-77736000D01*
G75*
G02*
X99245000Y-77793000I0J-57000D01*
G01*
X99245000Y-77907000D01*
G75*
G02*
X99188000Y-77964000I-57000J0D01*
G01*
X98162000Y-77964000D01*
G75*
G02*
X98105000Y-77907000I0J57000D01*
G01*
G37*
G36*
G01*
X96636000Y-80288000D02*
X96636000Y-79262000D01*
G75*
G02*
X96693000Y-79205000I57000J0D01*
G01*
X96807000Y-79205000D01*
G75*
G02*
X96864000Y-79262000I0J-57000D01*
G01*
X96864000Y-80288000D01*
G75*
G02*
X96807000Y-80345000I-57000J0D01*
G01*
X96693000Y-80345000D01*
G75*
G02*
X96636000Y-80288000I0J57000D01*
G01*
G37*
G36*
G01*
X96136000Y-80288000D02*
X96136000Y-79262000D01*
G75*
G02*
X96193000Y-79205000I57000J0D01*
G01*
X96307000Y-79205000D01*
G75*
G02*
X96364000Y-79262000I0J-57000D01*
G01*
X96364000Y-80288000D01*
G75*
G02*
X96307000Y-80345000I-57000J0D01*
G01*
X96193000Y-80345000D01*
G75*
G02*
X96136000Y-80288000I0J57000D01*
G01*
G37*
G36*
G01*
X95636000Y-80288000D02*
X95636000Y-79262000D01*
G75*
G02*
X95693000Y-79205000I57000J0D01*
G01*
X95807000Y-79205000D01*
G75*
G02*
X95864000Y-79262000I0J-57000D01*
G01*
X95864000Y-80288000D01*
G75*
G02*
X95807000Y-80345000I-57000J0D01*
G01*
X95693000Y-80345000D01*
G75*
G02*
X95636000Y-80288000I0J57000D01*
G01*
G37*
G36*
G01*
X95136000Y-80288000D02*
X95136000Y-79262000D01*
G75*
G02*
X95193000Y-79205000I57000J0D01*
G01*
X95307000Y-79205000D01*
G75*
G02*
X95364000Y-79262000I0J-57000D01*
G01*
X95364000Y-80288000D01*
G75*
G02*
X95307000Y-80345000I-57000J0D01*
G01*
X95193000Y-80345000D01*
G75*
G02*
X95136000Y-80288000I0J57000D01*
G01*
G37*
G36*
G01*
X94636000Y-80288000D02*
X94636000Y-79262000D01*
G75*
G02*
X94693000Y-79205000I57000J0D01*
G01*
X94807000Y-79205000D01*
G75*
G02*
X94864000Y-79262000I0J-57000D01*
G01*
X94864000Y-80288000D01*
G75*
G02*
X94807000Y-80345000I-57000J0D01*
G01*
X94693000Y-80345000D01*
G75*
G02*
X94636000Y-80288000I0J57000D01*
G01*
G37*
G36*
G01*
X94136000Y-80288000D02*
X94136000Y-79262000D01*
G75*
G02*
X94193000Y-79205000I57000J0D01*
G01*
X94307000Y-79205000D01*
G75*
G02*
X94364000Y-79262000I0J-57000D01*
G01*
X94364000Y-80288000D01*
G75*
G02*
X94307000Y-80345000I-57000J0D01*
G01*
X94193000Y-80345000D01*
G75*
G02*
X94136000Y-80288000I0J57000D01*
G01*
G37*
G36*
G01*
X93636000Y-80288000D02*
X93636000Y-79262000D01*
G75*
G02*
X93693000Y-79205000I57000J0D01*
G01*
X93807000Y-79205000D01*
G75*
G02*
X93864000Y-79262000I0J-57000D01*
G01*
X93864000Y-80288000D01*
G75*
G02*
X93807000Y-80345000I-57000J0D01*
G01*
X93693000Y-80345000D01*
G75*
G02*
X93636000Y-80288000I0J57000D01*
G01*
G37*
G36*
G01*
X93136000Y-80288000D02*
X93136000Y-79262000D01*
G75*
G02*
X93193000Y-79205000I57000J0D01*
G01*
X93307000Y-79205000D01*
G75*
G02*
X93364000Y-79262000I0J-57000D01*
G01*
X93364000Y-80288000D01*
G75*
G02*
X93307000Y-80345000I-57000J0D01*
G01*
X93193000Y-80345000D01*
G75*
G02*
X93136000Y-80288000I0J57000D01*
G01*
G37*
G36*
G01*
X92636000Y-80288000D02*
X92636000Y-79262000D01*
G75*
G02*
X92693000Y-79205000I57000J0D01*
G01*
X92807000Y-79205000D01*
G75*
G02*
X92864000Y-79262000I0J-57000D01*
G01*
X92864000Y-80288000D01*
G75*
G02*
X92807000Y-80345000I-57000J0D01*
G01*
X92693000Y-80345000D01*
G75*
G02*
X92636000Y-80288000I0J57000D01*
G01*
G37*
G36*
G01*
X92136000Y-80288000D02*
X92136000Y-79262000D01*
G75*
G02*
X92193000Y-79205000I57000J0D01*
G01*
X92307000Y-79205000D01*
G75*
G02*
X92364000Y-79262000I0J-57000D01*
G01*
X92364000Y-80288000D01*
G75*
G02*
X92307000Y-80345000I-57000J0D01*
G01*
X92193000Y-80345000D01*
G75*
G02*
X92136000Y-80288000I0J57000D01*
G01*
G37*
G36*
G01*
X91636000Y-80288000D02*
X91636000Y-79262000D01*
G75*
G02*
X91693000Y-79205000I57000J0D01*
G01*
X91807000Y-79205000D01*
G75*
G02*
X91864000Y-79262000I0J-57000D01*
G01*
X91864000Y-80288000D01*
G75*
G02*
X91807000Y-80345000I-57000J0D01*
G01*
X91693000Y-80345000D01*
G75*
G02*
X91636000Y-80288000I0J57000D01*
G01*
G37*
G36*
G01*
X91136000Y-80288000D02*
X91136000Y-79262000D01*
G75*
G02*
X91193000Y-79205000I57000J0D01*
G01*
X91307000Y-79205000D01*
G75*
G02*
X91364000Y-79262000I0J-57000D01*
G01*
X91364000Y-80288000D01*
G75*
G02*
X91307000Y-80345000I-57000J0D01*
G01*
X91193000Y-80345000D01*
G75*
G02*
X91136000Y-80288000I0J57000D01*
G01*
G37*
G36*
G01*
X90636000Y-80288000D02*
X90636000Y-79262000D01*
G75*
G02*
X90693000Y-79205000I57000J0D01*
G01*
X90807000Y-79205000D01*
G75*
G02*
X90864000Y-79262000I0J-57000D01*
G01*
X90864000Y-80288000D01*
G75*
G02*
X90807000Y-80345000I-57000J0D01*
G01*
X90693000Y-80345000D01*
G75*
G02*
X90636000Y-80288000I0J57000D01*
G01*
G37*
G36*
G01*
X90136000Y-80288000D02*
X90136000Y-79262000D01*
G75*
G02*
X90193000Y-79205000I57000J0D01*
G01*
X90307000Y-79205000D01*
G75*
G02*
X90364000Y-79262000I0J-57000D01*
G01*
X90364000Y-80288000D01*
G75*
G02*
X90307000Y-80345000I-57000J0D01*
G01*
X90193000Y-80345000D01*
G75*
G02*
X90136000Y-80288000I0J57000D01*
G01*
G37*
G36*
G01*
X89636000Y-80288000D02*
X89636000Y-79262000D01*
G75*
G02*
X89693000Y-79205000I57000J0D01*
G01*
X89807000Y-79205000D01*
G75*
G02*
X89864000Y-79262000I0J-57000D01*
G01*
X89864000Y-80288000D01*
G75*
G02*
X89807000Y-80345000I-57000J0D01*
G01*
X89693000Y-80345000D01*
G75*
G02*
X89636000Y-80288000I0J57000D01*
G01*
G37*
G36*
G01*
X89136000Y-80288000D02*
X89136000Y-79262000D01*
G75*
G02*
X89193000Y-79205000I57000J0D01*
G01*
X89307000Y-79205000D01*
G75*
G02*
X89364000Y-79262000I0J-57000D01*
G01*
X89364000Y-80288000D01*
G75*
G02*
X89307000Y-80345000I-57000J0D01*
G01*
X89193000Y-80345000D01*
G75*
G02*
X89136000Y-80288000I0J57000D01*
G01*
G37*
G36*
G01*
X88636000Y-80288000D02*
X88636000Y-79262000D01*
G75*
G02*
X88693000Y-79205000I57000J0D01*
G01*
X88807000Y-79205000D01*
G75*
G02*
X88864000Y-79262000I0J-57000D01*
G01*
X88864000Y-80288000D01*
G75*
G02*
X88807000Y-80345000I-57000J0D01*
G01*
X88693000Y-80345000D01*
G75*
G02*
X88636000Y-80288000I0J57000D01*
G01*
G37*
G36*
G01*
X88136000Y-80288000D02*
X88136000Y-79262000D01*
G75*
G02*
X88193000Y-79205000I57000J0D01*
G01*
X88307000Y-79205000D01*
G75*
G02*
X88364000Y-79262000I0J-57000D01*
G01*
X88364000Y-80288000D01*
G75*
G02*
X88307000Y-80345000I-57000J0D01*
G01*
X88193000Y-80345000D01*
G75*
G02*
X88136000Y-80288000I0J57000D01*
G01*
G37*
G36*
G01*
X87636000Y-80288000D02*
X87636000Y-79262000D01*
G75*
G02*
X87693000Y-79205000I57000J0D01*
G01*
X87807000Y-79205000D01*
G75*
G02*
X87864000Y-79262000I0J-57000D01*
G01*
X87864000Y-80288000D01*
G75*
G02*
X87807000Y-80345000I-57000J0D01*
G01*
X87693000Y-80345000D01*
G75*
G02*
X87636000Y-80288000I0J57000D01*
G01*
G37*
G36*
G01*
X87136000Y-80288000D02*
X87136000Y-79262000D01*
G75*
G02*
X87193000Y-79205000I57000J0D01*
G01*
X87307000Y-79205000D01*
G75*
G02*
X87364000Y-79262000I0J-57000D01*
G01*
X87364000Y-80288000D01*
G75*
G02*
X87307000Y-80345000I-57000J0D01*
G01*
X87193000Y-80345000D01*
G75*
G02*
X87136000Y-80288000I0J57000D01*
G01*
G37*
G36*
G01*
X86636000Y-80288000D02*
X86636000Y-79262000D01*
G75*
G02*
X86693000Y-79205000I57000J0D01*
G01*
X86807000Y-79205000D01*
G75*
G02*
X86864000Y-79262000I0J-57000D01*
G01*
X86864000Y-80288000D01*
G75*
G02*
X86807000Y-80345000I-57000J0D01*
G01*
X86693000Y-80345000D01*
G75*
G02*
X86636000Y-80288000I0J57000D01*
G01*
G37*
G36*
G01*
X86136000Y-80288000D02*
X86136000Y-79262000D01*
G75*
G02*
X86193000Y-79205000I57000J0D01*
G01*
X86307000Y-79205000D01*
G75*
G02*
X86364000Y-79262000I0J-57000D01*
G01*
X86364000Y-80288000D01*
G75*
G02*
X86307000Y-80345000I-57000J0D01*
G01*
X86193000Y-80345000D01*
G75*
G02*
X86136000Y-80288000I0J57000D01*
G01*
G37*
G36*
G01*
X85636000Y-80288000D02*
X85636000Y-79262000D01*
G75*
G02*
X85693000Y-79205000I57000J0D01*
G01*
X85807000Y-79205000D01*
G75*
G02*
X85864000Y-79262000I0J-57000D01*
G01*
X85864000Y-80288000D01*
G75*
G02*
X85807000Y-80345000I-57000J0D01*
G01*
X85693000Y-80345000D01*
G75*
G02*
X85636000Y-80288000I0J57000D01*
G01*
G37*
G36*
G01*
X85136000Y-80288000D02*
X85136000Y-79262000D01*
G75*
G02*
X85193000Y-79205000I57000J0D01*
G01*
X85307000Y-79205000D01*
G75*
G02*
X85364000Y-79262000I0J-57000D01*
G01*
X85364000Y-80288000D01*
G75*
G02*
X85307000Y-80345000I-57000J0D01*
G01*
X85193000Y-80345000D01*
G75*
G02*
X85136000Y-80288000I0J57000D01*
G01*
G37*
G36*
G01*
X84636000Y-80288000D02*
X84636000Y-79262000D01*
G75*
G02*
X84693000Y-79205000I57000J0D01*
G01*
X84807000Y-79205000D01*
G75*
G02*
X84864000Y-79262000I0J-57000D01*
G01*
X84864000Y-80288000D01*
G75*
G02*
X84807000Y-80345000I-57000J0D01*
G01*
X84693000Y-80345000D01*
G75*
G02*
X84636000Y-80288000I0J57000D01*
G01*
G37*
G36*
G01*
X84136000Y-80288000D02*
X84136000Y-79262000D01*
G75*
G02*
X84193000Y-79205000I57000J0D01*
G01*
X84307000Y-79205000D01*
G75*
G02*
X84364000Y-79262000I0J-57000D01*
G01*
X84364000Y-80288000D01*
G75*
G02*
X84307000Y-80345000I-57000J0D01*
G01*
X84193000Y-80345000D01*
G75*
G02*
X84136000Y-80288000I0J57000D01*
G01*
G37*
G36*
G01*
X83636000Y-80288000D02*
X83636000Y-79262000D01*
G75*
G02*
X83693000Y-79205000I57000J0D01*
G01*
X83807000Y-79205000D01*
G75*
G02*
X83864000Y-79262000I0J-57000D01*
G01*
X83864000Y-80288000D01*
G75*
G02*
X83807000Y-80345000I-57000J0D01*
G01*
X83693000Y-80345000D01*
G75*
G02*
X83636000Y-80288000I0J57000D01*
G01*
G37*
G36*
G01*
X83136000Y-80288000D02*
X83136000Y-79262000D01*
G75*
G02*
X83193000Y-79205000I57000J0D01*
G01*
X83307000Y-79205000D01*
G75*
G02*
X83364000Y-79262000I0J-57000D01*
G01*
X83364000Y-80288000D01*
G75*
G02*
X83307000Y-80345000I-57000J0D01*
G01*
X83193000Y-80345000D01*
G75*
G02*
X83136000Y-80288000I0J57000D01*
G01*
G37*
G36*
G01*
X82636000Y-80288000D02*
X82636000Y-79262000D01*
G75*
G02*
X82693000Y-79205000I57000J0D01*
G01*
X82807000Y-79205000D01*
G75*
G02*
X82864000Y-79262000I0J-57000D01*
G01*
X82864000Y-80288000D01*
G75*
G02*
X82807000Y-80345000I-57000J0D01*
G01*
X82693000Y-80345000D01*
G75*
G02*
X82636000Y-80288000I0J57000D01*
G01*
G37*
G36*
G01*
X82136000Y-80288000D02*
X82136000Y-79262000D01*
G75*
G02*
X82193000Y-79205000I57000J0D01*
G01*
X82307000Y-79205000D01*
G75*
G02*
X82364000Y-79262000I0J-57000D01*
G01*
X82364000Y-80288000D01*
G75*
G02*
X82307000Y-80345000I-57000J0D01*
G01*
X82193000Y-80345000D01*
G75*
G02*
X82136000Y-80288000I0J57000D01*
G01*
G37*
G36*
G01*
X81636000Y-80288000D02*
X81636000Y-79262000D01*
G75*
G02*
X81693000Y-79205000I57000J0D01*
G01*
X81807000Y-79205000D01*
G75*
G02*
X81864000Y-79262000I0J-57000D01*
G01*
X81864000Y-80288000D01*
G75*
G02*
X81807000Y-80345000I-57000J0D01*
G01*
X81693000Y-80345000D01*
G75*
G02*
X81636000Y-80288000I0J57000D01*
G01*
G37*
G36*
G01*
X81136000Y-80288000D02*
X81136000Y-79262000D01*
G75*
G02*
X81193000Y-79205000I57000J0D01*
G01*
X81307000Y-79205000D01*
G75*
G02*
X81364000Y-79262000I0J-57000D01*
G01*
X81364000Y-80288000D01*
G75*
G02*
X81307000Y-80345000I-57000J0D01*
G01*
X81193000Y-80345000D01*
G75*
G02*
X81136000Y-80288000I0J57000D01*
G01*
G37*
G36*
G01*
X80636000Y-80288000D02*
X80636000Y-79262000D01*
G75*
G02*
X80693000Y-79205000I57000J0D01*
G01*
X80807000Y-79205000D01*
G75*
G02*
X80864000Y-79262000I0J-57000D01*
G01*
X80864000Y-80288000D01*
G75*
G02*
X80807000Y-80345000I-57000J0D01*
G01*
X80693000Y-80345000D01*
G75*
G02*
X80636000Y-80288000I0J57000D01*
G01*
G37*
G36*
G01*
X80136000Y-80288000D02*
X80136000Y-79262000D01*
G75*
G02*
X80193000Y-79205000I57000J0D01*
G01*
X80307000Y-79205000D01*
G75*
G02*
X80364000Y-79262000I0J-57000D01*
G01*
X80364000Y-80288000D01*
G75*
G02*
X80307000Y-80345000I-57000J0D01*
G01*
X80193000Y-80345000D01*
G75*
G02*
X80136000Y-80288000I0J57000D01*
G01*
G37*
G36*
G01*
X79636000Y-80288000D02*
X79636000Y-79262000D01*
G75*
G02*
X79693000Y-79205000I57000J0D01*
G01*
X79807000Y-79205000D01*
G75*
G02*
X79864000Y-79262000I0J-57000D01*
G01*
X79864000Y-80288000D01*
G75*
G02*
X79807000Y-80345000I-57000J0D01*
G01*
X79693000Y-80345000D01*
G75*
G02*
X79636000Y-80288000I0J57000D01*
G01*
G37*
G36*
G01*
X79136000Y-80288000D02*
X79136000Y-79262000D01*
G75*
G02*
X79193000Y-79205000I57000J0D01*
G01*
X79307000Y-79205000D01*
G75*
G02*
X79364000Y-79262000I0J-57000D01*
G01*
X79364000Y-80288000D01*
G75*
G02*
X79307000Y-80345000I-57000J0D01*
G01*
X79193000Y-80345000D01*
G75*
G02*
X79136000Y-80288000I0J57000D01*
G01*
G37*
G36*
G01*
X78636000Y-80288000D02*
X78636000Y-79262000D01*
G75*
G02*
X78693000Y-79205000I57000J0D01*
G01*
X78807000Y-79205000D01*
G75*
G02*
X78864000Y-79262000I0J-57000D01*
G01*
X78864000Y-80288000D01*
G75*
G02*
X78807000Y-80345000I-57000J0D01*
G01*
X78693000Y-80345000D01*
G75*
G02*
X78636000Y-80288000I0J57000D01*
G01*
G37*
G36*
G01*
X78136000Y-80288000D02*
X78136000Y-79262000D01*
G75*
G02*
X78193000Y-79205000I57000J0D01*
G01*
X78307000Y-79205000D01*
G75*
G02*
X78364000Y-79262000I0J-57000D01*
G01*
X78364000Y-80288000D01*
G75*
G02*
X78307000Y-80345000I-57000J0D01*
G01*
X78193000Y-80345000D01*
G75*
G02*
X78136000Y-80288000I0J57000D01*
G01*
G37*
G36*
G01*
X77636000Y-80288000D02*
X77636000Y-79262000D01*
G75*
G02*
X77693000Y-79205000I57000J0D01*
G01*
X77807000Y-79205000D01*
G75*
G02*
X77864000Y-79262000I0J-57000D01*
G01*
X77864000Y-80288000D01*
G75*
G02*
X77807000Y-80345000I-57000J0D01*
G01*
X77693000Y-80345000D01*
G75*
G02*
X77636000Y-80288000I0J57000D01*
G01*
G37*
G36*
G01*
X77136000Y-80288000D02*
X77136000Y-79262000D01*
G75*
G02*
X77193000Y-79205000I57000J0D01*
G01*
X77307000Y-79205000D01*
G75*
G02*
X77364000Y-79262000I0J-57000D01*
G01*
X77364000Y-80288000D01*
G75*
G02*
X77307000Y-80345000I-57000J0D01*
G01*
X77193000Y-80345000D01*
G75*
G02*
X77136000Y-80288000I0J57000D01*
G01*
G37*
G36*
G01*
X76636000Y-80288000D02*
X76636000Y-79262000D01*
G75*
G02*
X76693000Y-79205000I57000J0D01*
G01*
X76807000Y-79205000D01*
G75*
G02*
X76864000Y-79262000I0J-57000D01*
G01*
X76864000Y-80288000D01*
G75*
G02*
X76807000Y-80345000I-57000J0D01*
G01*
X76693000Y-80345000D01*
G75*
G02*
X76636000Y-80288000I0J57000D01*
G01*
G37*
G36*
G01*
X76136000Y-80288000D02*
X76136000Y-79262000D01*
G75*
G02*
X76193000Y-79205000I57000J0D01*
G01*
X76307000Y-79205000D01*
G75*
G02*
X76364000Y-79262000I0J-57000D01*
G01*
X76364000Y-80288000D01*
G75*
G02*
X76307000Y-80345000I-57000J0D01*
G01*
X76193000Y-80345000D01*
G75*
G02*
X76136000Y-80288000I0J57000D01*
G01*
G37*
G36*
G01*
X75636000Y-80288000D02*
X75636000Y-79262000D01*
G75*
G02*
X75693000Y-79205000I57000J0D01*
G01*
X75807000Y-79205000D01*
G75*
G02*
X75864000Y-79262000I0J-57000D01*
G01*
X75864000Y-80288000D01*
G75*
G02*
X75807000Y-80345000I-57000J0D01*
G01*
X75693000Y-80345000D01*
G75*
G02*
X75636000Y-80288000I0J57000D01*
G01*
G37*
G36*
G01*
X75136000Y-80288000D02*
X75136000Y-79262000D01*
G75*
G02*
X75193000Y-79205000I57000J0D01*
G01*
X75307000Y-79205000D01*
G75*
G02*
X75364000Y-79262000I0J-57000D01*
G01*
X75364000Y-80288000D01*
G75*
G02*
X75307000Y-80345000I-57000J0D01*
G01*
X75193000Y-80345000D01*
G75*
G02*
X75136000Y-80288000I0J57000D01*
G01*
G37*
G36*
G01*
X72755000Y-77907000D02*
X72755000Y-77793000D01*
G75*
G02*
X72812000Y-77736000I57000J0D01*
G01*
X73838000Y-77736000D01*
G75*
G02*
X73895000Y-77793000I0J-57000D01*
G01*
X73895000Y-77907000D01*
G75*
G02*
X73838000Y-77964000I-57000J0D01*
G01*
X72812000Y-77964000D01*
G75*
G02*
X72755000Y-77907000I0J57000D01*
G01*
G37*
G36*
G01*
X72755000Y-77407000D02*
X72755000Y-77293000D01*
G75*
G02*
X72812000Y-77236000I57000J0D01*
G01*
X73838000Y-77236000D01*
G75*
G02*
X73895000Y-77293000I0J-57000D01*
G01*
X73895000Y-77407000D01*
G75*
G02*
X73838000Y-77464000I-57000J0D01*
G01*
X72812000Y-77464000D01*
G75*
G02*
X72755000Y-77407000I0J57000D01*
G01*
G37*
G36*
G01*
X72755000Y-76907000D02*
X72755000Y-76793000D01*
G75*
G02*
X72812000Y-76736000I57000J0D01*
G01*
X73838000Y-76736000D01*
G75*
G02*
X73895000Y-76793000I0J-57000D01*
G01*
X73895000Y-76907000D01*
G75*
G02*
X73838000Y-76964000I-57000J0D01*
G01*
X72812000Y-76964000D01*
G75*
G02*
X72755000Y-76907000I0J57000D01*
G01*
G37*
G36*
G01*
X72755000Y-76407000D02*
X72755000Y-76293000D01*
G75*
G02*
X72812000Y-76236000I57000J0D01*
G01*
X73838000Y-76236000D01*
G75*
G02*
X73895000Y-76293000I0J-57000D01*
G01*
X73895000Y-76407000D01*
G75*
G02*
X73838000Y-76464000I-57000J0D01*
G01*
X72812000Y-76464000D01*
G75*
G02*
X72755000Y-76407000I0J57000D01*
G01*
G37*
G36*
G01*
X72755000Y-75907000D02*
X72755000Y-75793000D01*
G75*
G02*
X72812000Y-75736000I57000J0D01*
G01*
X73838000Y-75736000D01*
G75*
G02*
X73895000Y-75793000I0J-57000D01*
G01*
X73895000Y-75907000D01*
G75*
G02*
X73838000Y-75964000I-57000J0D01*
G01*
X72812000Y-75964000D01*
G75*
G02*
X72755000Y-75907000I0J57000D01*
G01*
G37*
G36*
G01*
X72755000Y-75407000D02*
X72755000Y-75293000D01*
G75*
G02*
X72812000Y-75236000I57000J0D01*
G01*
X73838000Y-75236000D01*
G75*
G02*
X73895000Y-75293000I0J-57000D01*
G01*
X73895000Y-75407000D01*
G75*
G02*
X73838000Y-75464000I-57000J0D01*
G01*
X72812000Y-75464000D01*
G75*
G02*
X72755000Y-75407000I0J57000D01*
G01*
G37*
G36*
G01*
X72755000Y-74907000D02*
X72755000Y-74793000D01*
G75*
G02*
X72812000Y-74736000I57000J0D01*
G01*
X73838000Y-74736000D01*
G75*
G02*
X73895000Y-74793000I0J-57000D01*
G01*
X73895000Y-74907000D01*
G75*
G02*
X73838000Y-74964000I-57000J0D01*
G01*
X72812000Y-74964000D01*
G75*
G02*
X72755000Y-74907000I0J57000D01*
G01*
G37*
G36*
G01*
X72755000Y-74407000D02*
X72755000Y-74293000D01*
G75*
G02*
X72812000Y-74236000I57000J0D01*
G01*
X73838000Y-74236000D01*
G75*
G02*
X73895000Y-74293000I0J-57000D01*
G01*
X73895000Y-74407000D01*
G75*
G02*
X73838000Y-74464000I-57000J0D01*
G01*
X72812000Y-74464000D01*
G75*
G02*
X72755000Y-74407000I0J57000D01*
G01*
G37*
G36*
G01*
X72755000Y-73907000D02*
X72755000Y-73793000D01*
G75*
G02*
X72812000Y-73736000I57000J0D01*
G01*
X73838000Y-73736000D01*
G75*
G02*
X73895000Y-73793000I0J-57000D01*
G01*
X73895000Y-73907000D01*
G75*
G02*
X73838000Y-73964000I-57000J0D01*
G01*
X72812000Y-73964000D01*
G75*
G02*
X72755000Y-73907000I0J57000D01*
G01*
G37*
G36*
G01*
X72755000Y-73407000D02*
X72755000Y-73293000D01*
G75*
G02*
X72812000Y-73236000I57000J0D01*
G01*
X73838000Y-73236000D01*
G75*
G02*
X73895000Y-73293000I0J-57000D01*
G01*
X73895000Y-73407000D01*
G75*
G02*
X73838000Y-73464000I-57000J0D01*
G01*
X72812000Y-73464000D01*
G75*
G02*
X72755000Y-73407000I0J57000D01*
G01*
G37*
G36*
G01*
X72755000Y-72907000D02*
X72755000Y-72793000D01*
G75*
G02*
X72812000Y-72736000I57000J0D01*
G01*
X73838000Y-72736000D01*
G75*
G02*
X73895000Y-72793000I0J-57000D01*
G01*
X73895000Y-72907000D01*
G75*
G02*
X73838000Y-72964000I-57000J0D01*
G01*
X72812000Y-72964000D01*
G75*
G02*
X72755000Y-72907000I0J57000D01*
G01*
G37*
G36*
G01*
X72755000Y-72407000D02*
X72755000Y-72293000D01*
G75*
G02*
X72812000Y-72236000I57000J0D01*
G01*
X73838000Y-72236000D01*
G75*
G02*
X73895000Y-72293000I0J-57000D01*
G01*
X73895000Y-72407000D01*
G75*
G02*
X73838000Y-72464000I-57000J0D01*
G01*
X72812000Y-72464000D01*
G75*
G02*
X72755000Y-72407000I0J57000D01*
G01*
G37*
G36*
G01*
X72755000Y-71907000D02*
X72755000Y-71793000D01*
G75*
G02*
X72812000Y-71736000I57000J0D01*
G01*
X73838000Y-71736000D01*
G75*
G02*
X73895000Y-71793000I0J-57000D01*
G01*
X73895000Y-71907000D01*
G75*
G02*
X73838000Y-71964000I-57000J0D01*
G01*
X72812000Y-71964000D01*
G75*
G02*
X72755000Y-71907000I0J57000D01*
G01*
G37*
G36*
G01*
X72755000Y-71407000D02*
X72755000Y-71293000D01*
G75*
G02*
X72812000Y-71236000I57000J0D01*
G01*
X73838000Y-71236000D01*
G75*
G02*
X73895000Y-71293000I0J-57000D01*
G01*
X73895000Y-71407000D01*
G75*
G02*
X73838000Y-71464000I-57000J0D01*
G01*
X72812000Y-71464000D01*
G75*
G02*
X72755000Y-71407000I0J57000D01*
G01*
G37*
G36*
G01*
X72755000Y-70907000D02*
X72755000Y-70793000D01*
G75*
G02*
X72812000Y-70736000I57000J0D01*
G01*
X73838000Y-70736000D01*
G75*
G02*
X73895000Y-70793000I0J-57000D01*
G01*
X73895000Y-70907000D01*
G75*
G02*
X73838000Y-70964000I-57000J0D01*
G01*
X72812000Y-70964000D01*
G75*
G02*
X72755000Y-70907000I0J57000D01*
G01*
G37*
G36*
G01*
X72755000Y-70407000D02*
X72755000Y-70293000D01*
G75*
G02*
X72812000Y-70236000I57000J0D01*
G01*
X73838000Y-70236000D01*
G75*
G02*
X73895000Y-70293000I0J-57000D01*
G01*
X73895000Y-70407000D01*
G75*
G02*
X73838000Y-70464000I-57000J0D01*
G01*
X72812000Y-70464000D01*
G75*
G02*
X72755000Y-70407000I0J57000D01*
G01*
G37*
G36*
G01*
X72755000Y-69907000D02*
X72755000Y-69793000D01*
G75*
G02*
X72812000Y-69736000I57000J0D01*
G01*
X73838000Y-69736000D01*
G75*
G02*
X73895000Y-69793000I0J-57000D01*
G01*
X73895000Y-69907000D01*
G75*
G02*
X73838000Y-69964000I-57000J0D01*
G01*
X72812000Y-69964000D01*
G75*
G02*
X72755000Y-69907000I0J57000D01*
G01*
G37*
G36*
G01*
X72755000Y-69407000D02*
X72755000Y-69293000D01*
G75*
G02*
X72812000Y-69236000I57000J0D01*
G01*
X73838000Y-69236000D01*
G75*
G02*
X73895000Y-69293000I0J-57000D01*
G01*
X73895000Y-69407000D01*
G75*
G02*
X73838000Y-69464000I-57000J0D01*
G01*
X72812000Y-69464000D01*
G75*
G02*
X72755000Y-69407000I0J57000D01*
G01*
G37*
G36*
G01*
X72755000Y-68907000D02*
X72755000Y-68793000D01*
G75*
G02*
X72812000Y-68736000I57000J0D01*
G01*
X73838000Y-68736000D01*
G75*
G02*
X73895000Y-68793000I0J-57000D01*
G01*
X73895000Y-68907000D01*
G75*
G02*
X73838000Y-68964000I-57000J0D01*
G01*
X72812000Y-68964000D01*
G75*
G02*
X72755000Y-68907000I0J57000D01*
G01*
G37*
G36*
G01*
X72755000Y-68407000D02*
X72755000Y-68293000D01*
G75*
G02*
X72812000Y-68236000I57000J0D01*
G01*
X73838000Y-68236000D01*
G75*
G02*
X73895000Y-68293000I0J-57000D01*
G01*
X73895000Y-68407000D01*
G75*
G02*
X73838000Y-68464000I-57000J0D01*
G01*
X72812000Y-68464000D01*
G75*
G02*
X72755000Y-68407000I0J57000D01*
G01*
G37*
G36*
G01*
X72755000Y-67907000D02*
X72755000Y-67793000D01*
G75*
G02*
X72812000Y-67736000I57000J0D01*
G01*
X73838000Y-67736000D01*
G75*
G02*
X73895000Y-67793000I0J-57000D01*
G01*
X73895000Y-67907000D01*
G75*
G02*
X73838000Y-67964000I-57000J0D01*
G01*
X72812000Y-67964000D01*
G75*
G02*
X72755000Y-67907000I0J57000D01*
G01*
G37*
G36*
G01*
X72755000Y-67407000D02*
X72755000Y-67293000D01*
G75*
G02*
X72812000Y-67236000I57000J0D01*
G01*
X73838000Y-67236000D01*
G75*
G02*
X73895000Y-67293000I0J-57000D01*
G01*
X73895000Y-67407000D01*
G75*
G02*
X73838000Y-67464000I-57000J0D01*
G01*
X72812000Y-67464000D01*
G75*
G02*
X72755000Y-67407000I0J57000D01*
G01*
G37*
G36*
G01*
X72755000Y-66907000D02*
X72755000Y-66793000D01*
G75*
G02*
X72812000Y-66736000I57000J0D01*
G01*
X73838000Y-66736000D01*
G75*
G02*
X73895000Y-66793000I0J-57000D01*
G01*
X73895000Y-66907000D01*
G75*
G02*
X73838000Y-66964000I-57000J0D01*
G01*
X72812000Y-66964000D01*
G75*
G02*
X72755000Y-66907000I0J57000D01*
G01*
G37*
G36*
G01*
X72755000Y-66407000D02*
X72755000Y-66293000D01*
G75*
G02*
X72812000Y-66236000I57000J0D01*
G01*
X73838000Y-66236000D01*
G75*
G02*
X73895000Y-66293000I0J-57000D01*
G01*
X73895000Y-66407000D01*
G75*
G02*
X73838000Y-66464000I-57000J0D01*
G01*
X72812000Y-66464000D01*
G75*
G02*
X72755000Y-66407000I0J57000D01*
G01*
G37*
G36*
G01*
X72755000Y-65907000D02*
X72755000Y-65793000D01*
G75*
G02*
X72812000Y-65736000I57000J0D01*
G01*
X73838000Y-65736000D01*
G75*
G02*
X73895000Y-65793000I0J-57000D01*
G01*
X73895000Y-65907000D01*
G75*
G02*
X73838000Y-65964000I-57000J0D01*
G01*
X72812000Y-65964000D01*
G75*
G02*
X72755000Y-65907000I0J57000D01*
G01*
G37*
G36*
G01*
X72755000Y-65407000D02*
X72755000Y-65293000D01*
G75*
G02*
X72812000Y-65236000I57000J0D01*
G01*
X73838000Y-65236000D01*
G75*
G02*
X73895000Y-65293000I0J-57000D01*
G01*
X73895000Y-65407000D01*
G75*
G02*
X73838000Y-65464000I-57000J0D01*
G01*
X72812000Y-65464000D01*
G75*
G02*
X72755000Y-65407000I0J57000D01*
G01*
G37*
G36*
G01*
X72755000Y-64907000D02*
X72755000Y-64793000D01*
G75*
G02*
X72812000Y-64736000I57000J0D01*
G01*
X73838000Y-64736000D01*
G75*
G02*
X73895000Y-64793000I0J-57000D01*
G01*
X73895000Y-64907000D01*
G75*
G02*
X73838000Y-64964000I-57000J0D01*
G01*
X72812000Y-64964000D01*
G75*
G02*
X72755000Y-64907000I0J57000D01*
G01*
G37*
G36*
G01*
X72755000Y-64407000D02*
X72755000Y-64293000D01*
G75*
G02*
X72812000Y-64236000I57000J0D01*
G01*
X73838000Y-64236000D01*
G75*
G02*
X73895000Y-64293000I0J-57000D01*
G01*
X73895000Y-64407000D01*
G75*
G02*
X73838000Y-64464000I-57000J0D01*
G01*
X72812000Y-64464000D01*
G75*
G02*
X72755000Y-64407000I0J57000D01*
G01*
G37*
G36*
G01*
X72755000Y-63907000D02*
X72755000Y-63793000D01*
G75*
G02*
X72812000Y-63736000I57000J0D01*
G01*
X73838000Y-63736000D01*
G75*
G02*
X73895000Y-63793000I0J-57000D01*
G01*
X73895000Y-63907000D01*
G75*
G02*
X73838000Y-63964000I-57000J0D01*
G01*
X72812000Y-63964000D01*
G75*
G02*
X72755000Y-63907000I0J57000D01*
G01*
G37*
G36*
G01*
X72755000Y-63407000D02*
X72755000Y-63293000D01*
G75*
G02*
X72812000Y-63236000I57000J0D01*
G01*
X73838000Y-63236000D01*
G75*
G02*
X73895000Y-63293000I0J-57000D01*
G01*
X73895000Y-63407000D01*
G75*
G02*
X73838000Y-63464000I-57000J0D01*
G01*
X72812000Y-63464000D01*
G75*
G02*
X72755000Y-63407000I0J57000D01*
G01*
G37*
G36*
G01*
X72755000Y-62907000D02*
X72755000Y-62793000D01*
G75*
G02*
X72812000Y-62736000I57000J0D01*
G01*
X73838000Y-62736000D01*
G75*
G02*
X73895000Y-62793000I0J-57000D01*
G01*
X73895000Y-62907000D01*
G75*
G02*
X73838000Y-62964000I-57000J0D01*
G01*
X72812000Y-62964000D01*
G75*
G02*
X72755000Y-62907000I0J57000D01*
G01*
G37*
G36*
G01*
X72755000Y-62407000D02*
X72755000Y-62293000D01*
G75*
G02*
X72812000Y-62236000I57000J0D01*
G01*
X73838000Y-62236000D01*
G75*
G02*
X73895000Y-62293000I0J-57000D01*
G01*
X73895000Y-62407000D01*
G75*
G02*
X73838000Y-62464000I-57000J0D01*
G01*
X72812000Y-62464000D01*
G75*
G02*
X72755000Y-62407000I0J57000D01*
G01*
G37*
G36*
G01*
X72755000Y-61907000D02*
X72755000Y-61793000D01*
G75*
G02*
X72812000Y-61736000I57000J0D01*
G01*
X73838000Y-61736000D01*
G75*
G02*
X73895000Y-61793000I0J-57000D01*
G01*
X73895000Y-61907000D01*
G75*
G02*
X73838000Y-61964000I-57000J0D01*
G01*
X72812000Y-61964000D01*
G75*
G02*
X72755000Y-61907000I0J57000D01*
G01*
G37*
G36*
G01*
X72755000Y-61407000D02*
X72755000Y-61293000D01*
G75*
G02*
X72812000Y-61236000I57000J0D01*
G01*
X73838000Y-61236000D01*
G75*
G02*
X73895000Y-61293000I0J-57000D01*
G01*
X73895000Y-61407000D01*
G75*
G02*
X73838000Y-61464000I-57000J0D01*
G01*
X72812000Y-61464000D01*
G75*
G02*
X72755000Y-61407000I0J57000D01*
G01*
G37*
G36*
G01*
X72755000Y-60907000D02*
X72755000Y-60793000D01*
G75*
G02*
X72812000Y-60736000I57000J0D01*
G01*
X73838000Y-60736000D01*
G75*
G02*
X73895000Y-60793000I0J-57000D01*
G01*
X73895000Y-60907000D01*
G75*
G02*
X73838000Y-60964000I-57000J0D01*
G01*
X72812000Y-60964000D01*
G75*
G02*
X72755000Y-60907000I0J57000D01*
G01*
G37*
G36*
G01*
X72755000Y-60407000D02*
X72755000Y-60293000D01*
G75*
G02*
X72812000Y-60236000I57000J0D01*
G01*
X73838000Y-60236000D01*
G75*
G02*
X73895000Y-60293000I0J-57000D01*
G01*
X73895000Y-60407000D01*
G75*
G02*
X73838000Y-60464000I-57000J0D01*
G01*
X72812000Y-60464000D01*
G75*
G02*
X72755000Y-60407000I0J57000D01*
G01*
G37*
G36*
G01*
X72755000Y-59907000D02*
X72755000Y-59793000D01*
G75*
G02*
X72812000Y-59736000I57000J0D01*
G01*
X73838000Y-59736000D01*
G75*
G02*
X73895000Y-59793000I0J-57000D01*
G01*
X73895000Y-59907000D01*
G75*
G02*
X73838000Y-59964000I-57000J0D01*
G01*
X72812000Y-59964000D01*
G75*
G02*
X72755000Y-59907000I0J57000D01*
G01*
G37*
G36*
G01*
X72755000Y-59407000D02*
X72755000Y-59293000D01*
G75*
G02*
X72812000Y-59236000I57000J0D01*
G01*
X73838000Y-59236000D01*
G75*
G02*
X73895000Y-59293000I0J-57000D01*
G01*
X73895000Y-59407000D01*
G75*
G02*
X73838000Y-59464000I-57000J0D01*
G01*
X72812000Y-59464000D01*
G75*
G02*
X72755000Y-59407000I0J57000D01*
G01*
G37*
G36*
G01*
X72755000Y-58907000D02*
X72755000Y-58793000D01*
G75*
G02*
X72812000Y-58736000I57000J0D01*
G01*
X73838000Y-58736000D01*
G75*
G02*
X73895000Y-58793000I0J-57000D01*
G01*
X73895000Y-58907000D01*
G75*
G02*
X73838000Y-58964000I-57000J0D01*
G01*
X72812000Y-58964000D01*
G75*
G02*
X72755000Y-58907000I0J57000D01*
G01*
G37*
G36*
G01*
X72755000Y-58407000D02*
X72755000Y-58293000D01*
G75*
G02*
X72812000Y-58236000I57000J0D01*
G01*
X73838000Y-58236000D01*
G75*
G02*
X73895000Y-58293000I0J-57000D01*
G01*
X73895000Y-58407000D01*
G75*
G02*
X73838000Y-58464000I-57000J0D01*
G01*
X72812000Y-58464000D01*
G75*
G02*
X72755000Y-58407000I0J57000D01*
G01*
G37*
G36*
G01*
X72755000Y-57907000D02*
X72755000Y-57793000D01*
G75*
G02*
X72812000Y-57736000I57000J0D01*
G01*
X73838000Y-57736000D01*
G75*
G02*
X73895000Y-57793000I0J-57000D01*
G01*
X73895000Y-57907000D01*
G75*
G02*
X73838000Y-57964000I-57000J0D01*
G01*
X72812000Y-57964000D01*
G75*
G02*
X72755000Y-57907000I0J57000D01*
G01*
G37*
G36*
G01*
X72755000Y-57407000D02*
X72755000Y-57293000D01*
G75*
G02*
X72812000Y-57236000I57000J0D01*
G01*
X73838000Y-57236000D01*
G75*
G02*
X73895000Y-57293000I0J-57000D01*
G01*
X73895000Y-57407000D01*
G75*
G02*
X73838000Y-57464000I-57000J0D01*
G01*
X72812000Y-57464000D01*
G75*
G02*
X72755000Y-57407000I0J57000D01*
G01*
G37*
G36*
G01*
X72755000Y-56907000D02*
X72755000Y-56793000D01*
G75*
G02*
X72812000Y-56736000I57000J0D01*
G01*
X73838000Y-56736000D01*
G75*
G02*
X73895000Y-56793000I0J-57000D01*
G01*
X73895000Y-56907000D01*
G75*
G02*
X73838000Y-56964000I-57000J0D01*
G01*
X72812000Y-56964000D01*
G75*
G02*
X72755000Y-56907000I0J57000D01*
G01*
G37*
G36*
G01*
X72755000Y-56407000D02*
X72755000Y-56293000D01*
G75*
G02*
X72812000Y-56236000I57000J0D01*
G01*
X73838000Y-56236000D01*
G75*
G02*
X73895000Y-56293000I0J-57000D01*
G01*
X73895000Y-56407000D01*
G75*
G02*
X73838000Y-56464000I-57000J0D01*
G01*
X72812000Y-56464000D01*
G75*
G02*
X72755000Y-56407000I0J57000D01*
G01*
G37*
%TD*%
M02*
