%TF.GenerationSoftware,KiCad,Pcbnew,5.1.6*%
%TF.CreationDate,2020-08-11T14:57:00+02:00*%
%TF.ProjectId,CMM2-JLC,434d4d32-2d4a-44c4-932e-6b696361645f,C*%
%TF.SameCoordinates,Original*%
%TF.FileFunction,Soldermask,Bot*%
%TF.FilePolarity,Negative*%
%FSLAX46Y46*%
G04 Gerber Fmt 4.6, Leading zero omitted, Abs format (unit mm)*
G04 Created by KiCad (PCBNEW 5.1.6) date 2020-08-11 14:57:00*
%MOMM*%
%LPD*%
G01*
G04 APERTURE LIST*
%ADD10C,1.620000*%
%ADD11C,4.020000*%
%ADD12R,1.620000X1.620000*%
%ADD13C,0.620000*%
%ADD14O,0.920000X1.720000*%
%ADD15O,0.920000X2.020000*%
%ADD16C,1.720000*%
%ADD17C,1.820000*%
%ADD18R,1.070000X1.520000*%
%ADD19O,1.070000X1.520000*%
%ADD20O,1.720000X1.720000*%
%ADD21R,1.720000X1.720000*%
%ADD22C,1.020000*%
%ADD23R,1.620000X1.520000*%
%ADD24C,3.020000*%
%ADD25C,2.420000*%
%ADD26C,0.920000*%
%ADD27R,1.290000X7.020000*%
G04 APERTURE END LIST*
D10*
%TO.C,J2*%
X132435000Y-30210000D03*
X133580000Y-27670000D03*
X135870000Y-27670000D03*
X138160000Y-27670000D03*
X134725000Y-30210000D03*
D11*
X145815000Y-30210000D03*
X120815000Y-30210000D03*
D10*
X137015000Y-30210000D03*
X129000000Y-27670000D03*
X131290000Y-27670000D03*
X135870000Y-32750000D03*
X133580000Y-32750000D03*
X131290000Y-32750000D03*
X130145000Y-30210000D03*
D12*
X129000000Y-32750000D03*
D10*
X127855000Y-30210000D03*
X138160000Y-32750000D03*
%TD*%
D13*
%TO.C,J4*%
X45790000Y-25850000D03*
X40010000Y-25850000D03*
D14*
X38580000Y-22160000D03*
X47220000Y-22160000D03*
D15*
X38580000Y-26330000D03*
X47220000Y-26330000D03*
%TD*%
D16*
%TO.C,J3*%
X111260000Y-24360000D03*
X108720000Y-24360000D03*
X106180000Y-24360000D03*
X103640000Y-24360000D03*
X101100000Y-24360000D03*
X98560000Y-24360000D03*
X96020000Y-24360000D03*
X93480000Y-24360000D03*
X90940000Y-24360000D03*
X88400000Y-24360000D03*
X85860000Y-24360000D03*
X83320000Y-24360000D03*
X80780000Y-24360000D03*
X78240000Y-24360000D03*
X75700000Y-24360000D03*
X73160000Y-24360000D03*
X70620000Y-24360000D03*
X68080000Y-24360000D03*
X65540000Y-24360000D03*
X63000000Y-24360000D03*
X111260000Y-26900000D03*
X108720000Y-26900000D03*
X106180000Y-26900000D03*
X103640000Y-26900000D03*
X101100000Y-26900000D03*
X98560000Y-26900000D03*
X96020000Y-26900000D03*
X93480000Y-26900000D03*
X90940000Y-26900000D03*
X88400000Y-26900000D03*
X85860000Y-26900000D03*
X83320000Y-26900000D03*
X80780000Y-26900000D03*
X78240000Y-26900000D03*
X75700000Y-26900000D03*
X73160000Y-26900000D03*
X70620000Y-26900000D03*
X68080000Y-26900000D03*
X65540000Y-26900000D03*
G36*
G01*
X63607059Y-27760000D02*
X62392941Y-27760000D01*
G75*
G02*
X62140000Y-27507059I0J252941D01*
G01*
X62140000Y-26292941D01*
G75*
G02*
X62392941Y-26040000I252941J0D01*
G01*
X63607059Y-26040000D01*
G75*
G02*
X63860000Y-26292941I0J-252941D01*
G01*
X63860000Y-27507059D01*
G75*
G02*
X63607059Y-27760000I-252941J0D01*
G01*
G37*
%TD*%
%TO.C,C31*%
G36*
G01*
X88316000Y-77648100D02*
X88316000Y-78003100D01*
G75*
G02*
X88163500Y-78155600I-152500J0D01*
G01*
X87858500Y-78155600D01*
G75*
G02*
X87706000Y-78003100I0J152500D01*
G01*
X87706000Y-77648100D01*
G75*
G02*
X87858500Y-77495600I152500J0D01*
G01*
X88163500Y-77495600D01*
G75*
G02*
X88316000Y-77648100I0J-152500D01*
G01*
G37*
G36*
G01*
X89286000Y-77648100D02*
X89286000Y-78003100D01*
G75*
G02*
X89133500Y-78155600I-152500J0D01*
G01*
X88828500Y-78155600D01*
G75*
G02*
X88676000Y-78003100I0J152500D01*
G01*
X88676000Y-77648100D01*
G75*
G02*
X88828500Y-77495600I152500J0D01*
G01*
X89133500Y-77495600D01*
G75*
G02*
X89286000Y-77648100I0J-152500D01*
G01*
G37*
%TD*%
D17*
%TO.C,U7*%
X29680000Y-115600000D03*
X27140000Y-115600000D03*
G36*
G01*
X23690000Y-116258840D02*
X23690000Y-114941160D01*
G75*
G02*
X23941160Y-114690000I251160J0D01*
G01*
X25258840Y-114690000D01*
G75*
G02*
X25510000Y-114941160I0J-251160D01*
G01*
X25510000Y-116258840D01*
G75*
G02*
X25258840Y-116510000I-251160J0D01*
G01*
X23941160Y-116510000D01*
G75*
G02*
X23690000Y-116258840I0J251160D01*
G01*
G37*
%TD*%
D18*
%TO.C,U5*%
X25930000Y-107800000D03*
D19*
X28470000Y-107800000D03*
X27200000Y-107800000D03*
%TD*%
D20*
%TO.C,J9*%
X124030000Y-46500000D03*
X121490000Y-46500000D03*
D21*
X118950000Y-46500000D03*
%TD*%
D22*
%TO.C,J8*%
X81600000Y-117000000D03*
X89600000Y-117000000D03*
%TD*%
D20*
%TO.C,J7*%
X112800000Y-55190000D03*
X112800000Y-57730000D03*
X112800000Y-60270000D03*
X112800000Y-62810000D03*
D21*
X112800000Y-65350000D03*
%TD*%
D10*
%TO.C,J6*%
X25500000Y-33500000D03*
X28000000Y-33500000D03*
X30000000Y-33500000D03*
D23*
X32500000Y-33500000D03*
D24*
X22430000Y-30790000D03*
X35570000Y-30790000D03*
%TD*%
D25*
%TO.C,J5*%
X55020000Y-24100000D03*
X50180000Y-25000000D03*
X55020000Y-27700000D03*
X54820000Y-33400000D03*
X50180000Y-31700000D03*
D26*
X52600000Y-25400000D03*
X52600000Y-31400000D03*
%TD*%
%TO.C,C23*%
G36*
G01*
X77497600Y-90030000D02*
X77497600Y-89675000D01*
G75*
G02*
X77650100Y-89522500I152500J0D01*
G01*
X77955100Y-89522500D01*
G75*
G02*
X78107600Y-89675000I0J-152500D01*
G01*
X78107600Y-90030000D01*
G75*
G02*
X77955100Y-90182500I-152500J0D01*
G01*
X77650100Y-90182500D01*
G75*
G02*
X77497600Y-90030000I0J152500D01*
G01*
G37*
G36*
G01*
X76527600Y-90030000D02*
X76527600Y-89675000D01*
G75*
G02*
X76680100Y-89522500I152500J0D01*
G01*
X76985100Y-89522500D01*
G75*
G02*
X77137600Y-89675000I0J-152500D01*
G01*
X77137600Y-90030000D01*
G75*
G02*
X76985100Y-90182500I-152500J0D01*
G01*
X76680100Y-90182500D01*
G75*
G02*
X76527600Y-90030000I0J152500D01*
G01*
G37*
%TD*%
%TO.C,C22*%
G36*
G01*
X80617400Y-89713100D02*
X80617400Y-90068100D01*
G75*
G02*
X80464900Y-90220600I-152500J0D01*
G01*
X80159900Y-90220600D01*
G75*
G02*
X80007400Y-90068100I0J152500D01*
G01*
X80007400Y-89713100D01*
G75*
G02*
X80159900Y-89560600I152500J0D01*
G01*
X80464900Y-89560600D01*
G75*
G02*
X80617400Y-89713100I0J-152500D01*
G01*
G37*
G36*
G01*
X81587400Y-89713100D02*
X81587400Y-90068100D01*
G75*
G02*
X81434900Y-90220600I-152500J0D01*
G01*
X81129900Y-90220600D01*
G75*
G02*
X80977400Y-90068100I0J152500D01*
G01*
X80977400Y-89713100D01*
G75*
G02*
X81129900Y-89560600I152500J0D01*
G01*
X81434900Y-89560600D01*
G75*
G02*
X81587400Y-89713100I0J-152500D01*
G01*
G37*
%TD*%
%TO.C,C5*%
G36*
G01*
X87985800Y-86601600D02*
X87985800Y-86956600D01*
G75*
G02*
X87833300Y-87109100I-152500J0D01*
G01*
X87528300Y-87109100D01*
G75*
G02*
X87375800Y-86956600I0J152500D01*
G01*
X87375800Y-86601600D01*
G75*
G02*
X87528300Y-86449100I152500J0D01*
G01*
X87833300Y-86449100D01*
G75*
G02*
X87985800Y-86601600I0J-152500D01*
G01*
G37*
G36*
G01*
X88955800Y-86601600D02*
X88955800Y-86956600D01*
G75*
G02*
X88803300Y-87109100I-152500J0D01*
G01*
X88498300Y-87109100D01*
G75*
G02*
X88345800Y-86956600I0J152500D01*
G01*
X88345800Y-86601600D01*
G75*
G02*
X88498300Y-86449100I152500J0D01*
G01*
X88803300Y-86449100D01*
G75*
G02*
X88955800Y-86601600I0J-152500D01*
G01*
G37*
%TD*%
%TO.C,C4*%
G36*
G01*
X93888900Y-89675000D02*
X93888900Y-90030000D01*
G75*
G02*
X93736400Y-90182500I-152500J0D01*
G01*
X93431400Y-90182500D01*
G75*
G02*
X93278900Y-90030000I0J152500D01*
G01*
X93278900Y-89675000D01*
G75*
G02*
X93431400Y-89522500I152500J0D01*
G01*
X93736400Y-89522500D01*
G75*
G02*
X93888900Y-89675000I0J-152500D01*
G01*
G37*
G36*
G01*
X94858900Y-89675000D02*
X94858900Y-90030000D01*
G75*
G02*
X94706400Y-90182500I-152500J0D01*
G01*
X94401400Y-90182500D01*
G75*
G02*
X94248900Y-90030000I0J152500D01*
G01*
X94248900Y-89675000D01*
G75*
G02*
X94401400Y-89522500I152500J0D01*
G01*
X94706400Y-89522500D01*
G75*
G02*
X94858900Y-89675000I0J-152500D01*
G01*
G37*
%TD*%
D27*
%TO.C,J1*%
X43600000Y-118400000D03*
X39800000Y-118400000D03*
%TD*%
M02*
