%TF.GenerationSoftware,KiCad,Pcbnew,5.1.6*%
%TF.CreationDate,2020-08-11T14:57:00+02:00*%
%TF.ProjectId,CMM2-JLC,434d4d32-2d4a-44c4-932e-6b696361645f,C*%
%TF.SameCoordinates,Original*%
%TF.FileFunction,Paste,Bot*%
%TF.FilePolarity,Positive*%
%FSLAX46Y46*%
G04 Gerber Fmt 4.6, Leading zero omitted, Abs format (unit mm)*
G04 Created by KiCad (PCBNEW 5.1.6) date 2020-08-11 14:57:00*
%MOMM*%
%LPD*%
G01*
G04 APERTURE LIST*
%ADD10R,0.965200X5.320000*%
G04 APERTURE END LIST*
%TO.C,C31*%
G36*
G01*
X88235200Y-77694500D02*
X88235200Y-77956700D01*
G75*
G02*
X88123100Y-78068800I-112100J0D01*
G01*
X87898900Y-78068800D01*
G75*
G02*
X87786800Y-77956700I0J112100D01*
G01*
X87786800Y-77694500D01*
G75*
G02*
X87898900Y-77582400I112100J0D01*
G01*
X88123100Y-77582400D01*
G75*
G02*
X88235200Y-77694500I0J-112100D01*
G01*
G37*
G36*
G01*
X89205200Y-77694500D02*
X89205200Y-77956700D01*
G75*
G02*
X89093100Y-78068800I-112100J0D01*
G01*
X88868900Y-78068800D01*
G75*
G02*
X88756800Y-77956700I0J112100D01*
G01*
X88756800Y-77694500D01*
G75*
G02*
X88868900Y-77582400I112100J0D01*
G01*
X89093100Y-77582400D01*
G75*
G02*
X89205200Y-77694500I0J-112100D01*
G01*
G37*
%TD*%
%TO.C,C23*%
G36*
G01*
X77578400Y-89983600D02*
X77578400Y-89721400D01*
G75*
G02*
X77690500Y-89609300I112100J0D01*
G01*
X77914700Y-89609300D01*
G75*
G02*
X78026800Y-89721400I0J-112100D01*
G01*
X78026800Y-89983600D01*
G75*
G02*
X77914700Y-90095700I-112100J0D01*
G01*
X77690500Y-90095700D01*
G75*
G02*
X77578400Y-89983600I0J112100D01*
G01*
G37*
G36*
G01*
X76608400Y-89983600D02*
X76608400Y-89721400D01*
G75*
G02*
X76720500Y-89609300I112100J0D01*
G01*
X76944700Y-89609300D01*
G75*
G02*
X77056800Y-89721400I0J-112100D01*
G01*
X77056800Y-89983600D01*
G75*
G02*
X76944700Y-90095700I-112100J0D01*
G01*
X76720500Y-90095700D01*
G75*
G02*
X76608400Y-89983600I0J112100D01*
G01*
G37*
%TD*%
%TO.C,C22*%
G36*
G01*
X80536600Y-89759500D02*
X80536600Y-90021700D01*
G75*
G02*
X80424500Y-90133800I-112100J0D01*
G01*
X80200300Y-90133800D01*
G75*
G02*
X80088200Y-90021700I0J112100D01*
G01*
X80088200Y-89759500D01*
G75*
G02*
X80200300Y-89647400I112100J0D01*
G01*
X80424500Y-89647400D01*
G75*
G02*
X80536600Y-89759500I0J-112100D01*
G01*
G37*
G36*
G01*
X81506600Y-89759500D02*
X81506600Y-90021700D01*
G75*
G02*
X81394500Y-90133800I-112100J0D01*
G01*
X81170300Y-90133800D01*
G75*
G02*
X81058200Y-90021700I0J112100D01*
G01*
X81058200Y-89759500D01*
G75*
G02*
X81170300Y-89647400I112100J0D01*
G01*
X81394500Y-89647400D01*
G75*
G02*
X81506600Y-89759500I0J-112100D01*
G01*
G37*
%TD*%
%TO.C,C5*%
G36*
G01*
X87905000Y-86648000D02*
X87905000Y-86910200D01*
G75*
G02*
X87792900Y-87022300I-112100J0D01*
G01*
X87568700Y-87022300D01*
G75*
G02*
X87456600Y-86910200I0J112100D01*
G01*
X87456600Y-86648000D01*
G75*
G02*
X87568700Y-86535900I112100J0D01*
G01*
X87792900Y-86535900D01*
G75*
G02*
X87905000Y-86648000I0J-112100D01*
G01*
G37*
G36*
G01*
X88875000Y-86648000D02*
X88875000Y-86910200D01*
G75*
G02*
X88762900Y-87022300I-112100J0D01*
G01*
X88538700Y-87022300D01*
G75*
G02*
X88426600Y-86910200I0J112100D01*
G01*
X88426600Y-86648000D01*
G75*
G02*
X88538700Y-86535900I112100J0D01*
G01*
X88762900Y-86535900D01*
G75*
G02*
X88875000Y-86648000I0J-112100D01*
G01*
G37*
%TD*%
%TO.C,C4*%
G36*
G01*
X93808100Y-89721400D02*
X93808100Y-89983600D01*
G75*
G02*
X93696000Y-90095700I-112100J0D01*
G01*
X93471800Y-90095700D01*
G75*
G02*
X93359700Y-89983600I0J112100D01*
G01*
X93359700Y-89721400D01*
G75*
G02*
X93471800Y-89609300I112100J0D01*
G01*
X93696000Y-89609300D01*
G75*
G02*
X93808100Y-89721400I0J-112100D01*
G01*
G37*
G36*
G01*
X94778100Y-89721400D02*
X94778100Y-89983600D01*
G75*
G02*
X94666000Y-90095700I-112100J0D01*
G01*
X94441800Y-90095700D01*
G75*
G02*
X94329700Y-89983600I0J112100D01*
G01*
X94329700Y-89721400D01*
G75*
G02*
X94441800Y-89609300I112100J0D01*
G01*
X94666000Y-89609300D01*
G75*
G02*
X94778100Y-89721400I0J-112100D01*
G01*
G37*
%TD*%
D10*
%TO.C,J1*%
X43600000Y-118400000D03*
X39800000Y-118400000D03*
%TD*%
M02*
