%TF.GenerationSoftware,KiCad,Pcbnew,5.1.8*%
%TF.CreationDate,2020-12-29T13:57:53+01:00*%
%TF.ProjectId,CMM2-JLC,434d4d32-2d4a-44c4-932e-6b696361645f,E*%
%TF.SameCoordinates,Original*%
%TF.FileFunction,Legend,Bot*%
%TF.FilePolarity,Positive*%
%FSLAX46Y46*%
G04 Gerber Fmt 4.6, Leading zero omitted, Abs format (unit mm)*
G04 Created by KiCad (PCBNEW 5.1.8) date 2020-12-29 13:57:53*
%MOMM*%
%LPD*%
G01*
G04 APERTURE LIST*
%ADD10C,0.150000*%
G04 APERTURE END LIST*
%TO.C,C31*%
D10*
X89138857Y-77012742D02*
X89186476Y-77060361D01*
X89329333Y-77107980D01*
X89424571Y-77107980D01*
X89567428Y-77060361D01*
X89662666Y-76965123D01*
X89710285Y-76869885D01*
X89757904Y-76679409D01*
X89757904Y-76536552D01*
X89710285Y-76346076D01*
X89662666Y-76250838D01*
X89567428Y-76155600D01*
X89424571Y-76107980D01*
X89329333Y-76107980D01*
X89186476Y-76155600D01*
X89138857Y-76203219D01*
X88805523Y-76107980D02*
X88186476Y-76107980D01*
X88519809Y-76488933D01*
X88376952Y-76488933D01*
X88281714Y-76536552D01*
X88234095Y-76584171D01*
X88186476Y-76679409D01*
X88186476Y-76917504D01*
X88234095Y-77012742D01*
X88281714Y-77060361D01*
X88376952Y-77107980D01*
X88662666Y-77107980D01*
X88757904Y-77060361D01*
X88805523Y-77012742D01*
X87234095Y-77107980D02*
X87805523Y-77107980D01*
X87519809Y-77107980D02*
X87519809Y-76107980D01*
X87615047Y-76250838D01*
X87710285Y-76346076D01*
X87805523Y-76393695D01*
%TO.C,C23*%
X77960457Y-91379642D02*
X78008076Y-91427261D01*
X78150933Y-91474880D01*
X78246171Y-91474880D01*
X78389028Y-91427261D01*
X78484266Y-91332023D01*
X78531885Y-91236785D01*
X78579504Y-91046309D01*
X78579504Y-90903452D01*
X78531885Y-90712976D01*
X78484266Y-90617738D01*
X78389028Y-90522500D01*
X78246171Y-90474880D01*
X78150933Y-90474880D01*
X78008076Y-90522500D01*
X77960457Y-90570119D01*
X77579504Y-90570119D02*
X77531885Y-90522500D01*
X77436647Y-90474880D01*
X77198552Y-90474880D01*
X77103314Y-90522500D01*
X77055695Y-90570119D01*
X77008076Y-90665357D01*
X77008076Y-90760595D01*
X77055695Y-90903452D01*
X77627123Y-91474880D01*
X77008076Y-91474880D01*
X76674742Y-90474880D02*
X76055695Y-90474880D01*
X76389028Y-90855833D01*
X76246171Y-90855833D01*
X76150933Y-90903452D01*
X76103314Y-90951071D01*
X76055695Y-91046309D01*
X76055695Y-91284404D01*
X76103314Y-91379642D01*
X76150933Y-91427261D01*
X76246171Y-91474880D01*
X76531885Y-91474880D01*
X76627123Y-91427261D01*
X76674742Y-91379642D01*
%TO.C,C22*%
X81442857Y-91457142D02*
X81490476Y-91504761D01*
X81633333Y-91552380D01*
X81728571Y-91552380D01*
X81871428Y-91504761D01*
X81966666Y-91409523D01*
X82014285Y-91314285D01*
X82061904Y-91123809D01*
X82061904Y-90980952D01*
X82014285Y-90790476D01*
X81966666Y-90695238D01*
X81871428Y-90600000D01*
X81728571Y-90552380D01*
X81633333Y-90552380D01*
X81490476Y-90600000D01*
X81442857Y-90647619D01*
X81061904Y-90647619D02*
X81014285Y-90600000D01*
X80919047Y-90552380D01*
X80680952Y-90552380D01*
X80585714Y-90600000D01*
X80538095Y-90647619D01*
X80490476Y-90742857D01*
X80490476Y-90838095D01*
X80538095Y-90980952D01*
X81109523Y-91552380D01*
X80490476Y-91552380D01*
X80109523Y-90647619D02*
X80061904Y-90600000D01*
X79966666Y-90552380D01*
X79728571Y-90552380D01*
X79633333Y-90600000D01*
X79585714Y-90647619D01*
X79538095Y-90742857D01*
X79538095Y-90838095D01*
X79585714Y-90980952D01*
X80157142Y-91552380D01*
X79538095Y-91552380D01*
%TO.C,C5*%
X88332466Y-85966242D02*
X88380085Y-86013861D01*
X88522942Y-86061480D01*
X88618180Y-86061480D01*
X88761038Y-86013861D01*
X88856276Y-85918623D01*
X88903895Y-85823385D01*
X88951514Y-85632909D01*
X88951514Y-85490052D01*
X88903895Y-85299576D01*
X88856276Y-85204338D01*
X88761038Y-85109100D01*
X88618180Y-85061480D01*
X88522942Y-85061480D01*
X88380085Y-85109100D01*
X88332466Y-85156719D01*
X87427704Y-85061480D02*
X87903895Y-85061480D01*
X87951514Y-85537671D01*
X87903895Y-85490052D01*
X87808657Y-85442433D01*
X87570561Y-85442433D01*
X87475323Y-85490052D01*
X87427704Y-85537671D01*
X87380085Y-85632909D01*
X87380085Y-85871004D01*
X87427704Y-85966242D01*
X87475323Y-86013861D01*
X87570561Y-86061480D01*
X87808657Y-86061480D01*
X87903895Y-86013861D01*
X87951514Y-85966242D01*
%TO.C,C4*%
X94266666Y-91457142D02*
X94314285Y-91504761D01*
X94457142Y-91552380D01*
X94552380Y-91552380D01*
X94695238Y-91504761D01*
X94790476Y-91409523D01*
X94838095Y-91314285D01*
X94885714Y-91123809D01*
X94885714Y-90980952D01*
X94838095Y-90790476D01*
X94790476Y-90695238D01*
X94695238Y-90600000D01*
X94552380Y-90552380D01*
X94457142Y-90552380D01*
X94314285Y-90600000D01*
X94266666Y-90647619D01*
X93409523Y-90885714D02*
X93409523Y-91552380D01*
X93647619Y-90504761D02*
X93885714Y-91219047D01*
X93266666Y-91219047D01*
%TD*%
M02*
