%FSLAX45Y45*%
G04 Gerber Fmt 4.5, Leading zero omitted, Abs format (unit mm)*
G04 Created by KiCad (PCBNEW 5.1.6) date 2020-07-15 16:20:27*
%MOMM*%
%LPD*%
G01*
G04 APERTURE LIST*
%TA.AperFunction,Profile*%
%ADD10C,0.050000*%
%TD*%
%ADD11C,0.200000*%
%ADD12C,0.300000*%
G04 APERTURE END LIST*
D10*
X3850000Y-12200000D02*
X3840000Y-12200000D01*
X4500000Y-12200000D02*
X3850000Y-12200000D01*
X14470000Y-7630000D02*
G75*
G02*
X14470000Y-6570000I0J530000D01*
G01*
X15000000Y-6570000D02*
X15000000Y-2000000D01*
X14470000Y-7630000D02*
X15000000Y-7630000D01*
X14470000Y-6570000D02*
X15000000Y-6570000D01*
X4790000Y-12200000D02*
X15000000Y-12200000D01*
X3550000Y-12200000D02*
X2000000Y-12200000D01*
X3550000Y-11930000D02*
X3550000Y-12200000D01*
X3430000Y-11930000D02*
X3550000Y-11930000D01*
X3430000Y-11720000D02*
X3430000Y-11930000D01*
X3550000Y-11720000D02*
X3430000Y-11720000D01*
X3550000Y-11380000D02*
X3550000Y-11720000D01*
X3560000Y-11380000D02*
X3550000Y-11380000D01*
X3840000Y-11380000D02*
X3560000Y-11380000D01*
X3840000Y-12200000D02*
X3840000Y-11380000D01*
X4500000Y-11460000D02*
X4500000Y-12200000D01*
X4500000Y-11380000D02*
X4500000Y-11460000D01*
X4510000Y-11380000D02*
X4500000Y-11380000D01*
X4790000Y-11380000D02*
X4510000Y-11380000D01*
X4790000Y-11720000D02*
X4790000Y-11380000D01*
X4910000Y-11720000D02*
X4790000Y-11720000D01*
X4910000Y-11930000D02*
X4910000Y-11720000D01*
X4790000Y-11930000D02*
X4910000Y-11930000D01*
X4790000Y-12200000D02*
X4790000Y-11930000D01*
X15000000Y-7630000D02*
X15000000Y-12200000D01*
X2000000Y-7630000D02*
X2000000Y-12200000D01*
X2000000Y-2000000D02*
X2000000Y-6570000D01*
X2520000Y-6569906D02*
G75*
G02*
X2530000Y-7630000I0J-530094D01*
G01*
X2530000Y-7630000D02*
X2000000Y-7630000D01*
X2520000Y-6569906D02*
X2000000Y-6570000D01*
X2100000Y-2000000D02*
X2000000Y-2000000D01*
X15000000Y-2000000D02*
X2100000Y-2000000D01*
D11*
X3971000Y-2555000D02*
X4031000Y-2615000D01*
X4031000Y-2555000D02*
X3971000Y-2615000D01*
X4549000Y-2555000D02*
X4609000Y-2615000D01*
X4609000Y-2555000D02*
X4549000Y-2615000D01*
X5305000Y-2540000D02*
G75*
G03*
X5305000Y-2540000I-45000J0D01*
G01*
X5305000Y-3140000D02*
G75*
G03*
X5305000Y-3140000I-45000J0D01*
G01*
X8160000Y-11650000D02*
X8160000Y-11750000D01*
X8110000Y-11700000D02*
X8210000Y-11700000D01*
X8960000Y-11650000D02*
X8960000Y-11750000D01*
X8910000Y-11700000D02*
X9010000Y-11700000D01*
D12*
X2283928Y-12668214D02*
X2283928Y-12368214D01*
X2355357Y-12368214D01*
X2398214Y-12382500D01*
X2426786Y-12411071D01*
X2441071Y-12439643D01*
X2455357Y-12496786D01*
X2455357Y-12539643D01*
X2441071Y-12596786D01*
X2426786Y-12625357D01*
X2398214Y-12653929D01*
X2355357Y-12668214D01*
X2283928Y-12668214D01*
X2583928Y-12668214D02*
X2583928Y-12468214D01*
X2583928Y-12525357D02*
X2598214Y-12496786D01*
X2612500Y-12482500D01*
X2641071Y-12468214D01*
X2669643Y-12468214D01*
X2769643Y-12668214D02*
X2769643Y-12468214D01*
X2769643Y-12368214D02*
X2755357Y-12382500D01*
X2769643Y-12396786D01*
X2783928Y-12382500D01*
X2769643Y-12368214D01*
X2769643Y-12396786D01*
X2955357Y-12668214D02*
X2926786Y-12653929D01*
X2912500Y-12625357D01*
X2912500Y-12368214D01*
X3112500Y-12668214D02*
X3083928Y-12653929D01*
X3069643Y-12625357D01*
X3069643Y-12368214D01*
X3455357Y-12668214D02*
X3455357Y-12368214D01*
X3555357Y-12582500D01*
X3655357Y-12368214D01*
X3655357Y-12668214D01*
X3926786Y-12668214D02*
X3926786Y-12511071D01*
X3912500Y-12482500D01*
X3883928Y-12468214D01*
X3826786Y-12468214D01*
X3798214Y-12482500D01*
X3926786Y-12653929D02*
X3898214Y-12668214D01*
X3826786Y-12668214D01*
X3798214Y-12653929D01*
X3783928Y-12625357D01*
X3783928Y-12596786D01*
X3798214Y-12568214D01*
X3826786Y-12553929D01*
X3898214Y-12553929D01*
X3926786Y-12539643D01*
X4069643Y-12468214D02*
X4069643Y-12768214D01*
X4069643Y-12482500D02*
X4098214Y-12468214D01*
X4155357Y-12468214D01*
X4183928Y-12482500D01*
X4198214Y-12496786D01*
X4212500Y-12525357D01*
X4212500Y-12611071D01*
X4198214Y-12639643D01*
X4183928Y-12653929D01*
X4155357Y-12668214D01*
X4098214Y-12668214D01*
X4069643Y-12653929D01*
X4341071Y-12639643D02*
X4355357Y-12653929D01*
X4341071Y-12668214D01*
X4326786Y-12653929D01*
X4341071Y-12639643D01*
X4341071Y-12668214D01*
X4341071Y-12482500D02*
X4355357Y-12496786D01*
X4341071Y-12511071D01*
X4326786Y-12496786D01*
X4341071Y-12482500D01*
X4341071Y-12511071D01*
X1937500Y-13132500D02*
X1997500Y-13192500D01*
X1997500Y-13132500D02*
X1937500Y-13192500D01*
X2341071Y-12998214D02*
X2369643Y-12998214D01*
X2398214Y-13012500D01*
X2412500Y-13026786D01*
X2426786Y-13055357D01*
X2441071Y-13112500D01*
X2441071Y-13183929D01*
X2426786Y-13241071D01*
X2412500Y-13269643D01*
X2398214Y-13283929D01*
X2369643Y-13298214D01*
X2341071Y-13298214D01*
X2312500Y-13283929D01*
X2298214Y-13269643D01*
X2283928Y-13241071D01*
X2269643Y-13183929D01*
X2269643Y-13112500D01*
X2283928Y-13055357D01*
X2298214Y-13026786D01*
X2312500Y-13012500D01*
X2341071Y-12998214D01*
X2569643Y-13269643D02*
X2583928Y-13283929D01*
X2569643Y-13298214D01*
X2555357Y-13283929D01*
X2569643Y-13269643D01*
X2569643Y-13298214D01*
X2841071Y-12998214D02*
X2783928Y-12998214D01*
X2755357Y-13012500D01*
X2741071Y-13026786D01*
X2712500Y-13069643D01*
X2698214Y-13126786D01*
X2698214Y-13241071D01*
X2712500Y-13269643D01*
X2726786Y-13283929D01*
X2755357Y-13298214D01*
X2812500Y-13298214D01*
X2841071Y-13283929D01*
X2855357Y-13269643D01*
X2869643Y-13241071D01*
X2869643Y-13169643D01*
X2855357Y-13141071D01*
X2841071Y-13126786D01*
X2812500Y-13112500D01*
X2755357Y-13112500D01*
X2726786Y-13126786D01*
X2712500Y-13141071D01*
X2698214Y-13169643D01*
X3055357Y-12998214D02*
X3083928Y-12998214D01*
X3112500Y-13012500D01*
X3126786Y-13026786D01*
X3141071Y-13055357D01*
X3155357Y-13112500D01*
X3155357Y-13183929D01*
X3141071Y-13241071D01*
X3126786Y-13269643D01*
X3112500Y-13283929D01*
X3083928Y-13298214D01*
X3055357Y-13298214D01*
X3026786Y-13283929D01*
X3012500Y-13269643D01*
X2998214Y-13241071D01*
X2983928Y-13183929D01*
X2983928Y-13112500D01*
X2998214Y-13055357D01*
X3012500Y-13026786D01*
X3026786Y-13012500D01*
X3055357Y-12998214D01*
X3283928Y-13298214D02*
X3283928Y-13098214D01*
X3283928Y-13126786D02*
X3298214Y-13112500D01*
X3326786Y-13098214D01*
X3369643Y-13098214D01*
X3398214Y-13112500D01*
X3412500Y-13141071D01*
X3412500Y-13298214D01*
X3412500Y-13141071D02*
X3426786Y-13112500D01*
X3455357Y-13098214D01*
X3498214Y-13098214D01*
X3526786Y-13112500D01*
X3541071Y-13141071D01*
X3541071Y-13298214D01*
X3683928Y-13298214D02*
X3683928Y-13098214D01*
X3683928Y-13126786D02*
X3698214Y-13112500D01*
X3726786Y-13098214D01*
X3769643Y-13098214D01*
X3798214Y-13112500D01*
X3812500Y-13141071D01*
X3812500Y-13298214D01*
X3812500Y-13141071D02*
X3826786Y-13112500D01*
X3855357Y-13098214D01*
X3898214Y-13098214D01*
X3926786Y-13112500D01*
X3941071Y-13141071D01*
X3941071Y-13298214D01*
X4526786Y-12983929D02*
X4269643Y-13369643D01*
X4912500Y-12998214D02*
X4941071Y-12998214D01*
X4969643Y-13012500D01*
X4983928Y-13026786D01*
X4998214Y-13055357D01*
X5012500Y-13112500D01*
X5012500Y-13183929D01*
X4998214Y-13241071D01*
X4983928Y-13269643D01*
X4969643Y-13283929D01*
X4941071Y-13298214D01*
X4912500Y-13298214D01*
X4883928Y-13283929D01*
X4869643Y-13269643D01*
X4855357Y-13241071D01*
X4841071Y-13183929D01*
X4841071Y-13112500D01*
X4855357Y-13055357D01*
X4869643Y-13026786D01*
X4883928Y-13012500D01*
X4912500Y-12998214D01*
X5141071Y-13269643D02*
X5155357Y-13283929D01*
X5141071Y-13298214D01*
X5126786Y-13283929D01*
X5141071Y-13269643D01*
X5141071Y-13298214D01*
X5341071Y-12998214D02*
X5369643Y-12998214D01*
X5398214Y-13012500D01*
X5412500Y-13026786D01*
X5426786Y-13055357D01*
X5441071Y-13112500D01*
X5441071Y-13183929D01*
X5426786Y-13241071D01*
X5412500Y-13269643D01*
X5398214Y-13283929D01*
X5369643Y-13298214D01*
X5341071Y-13298214D01*
X5312500Y-13283929D01*
X5298214Y-13269643D01*
X5283928Y-13241071D01*
X5269643Y-13183929D01*
X5269643Y-13112500D01*
X5283928Y-13055357D01*
X5298214Y-13026786D01*
X5312500Y-13012500D01*
X5341071Y-12998214D01*
X5555357Y-13026786D02*
X5569643Y-13012500D01*
X5598214Y-12998214D01*
X5669643Y-12998214D01*
X5698214Y-13012500D01*
X5712500Y-13026786D01*
X5726786Y-13055357D01*
X5726786Y-13083929D01*
X5712500Y-13126786D01*
X5541071Y-13298214D01*
X5726786Y-13298214D01*
X5983928Y-13098214D02*
X5983928Y-13298214D01*
X5912500Y-12983929D02*
X5841071Y-13198214D01*
X6026786Y-13198214D01*
X6126786Y-12998214D02*
X6126786Y-13055357D01*
X6241071Y-12998214D02*
X6241071Y-13055357D01*
X6683928Y-13412500D02*
X6669643Y-13398214D01*
X6641071Y-13355357D01*
X6626786Y-13326786D01*
X6612500Y-13283929D01*
X6598214Y-13212500D01*
X6598214Y-13155357D01*
X6612500Y-13083929D01*
X6626786Y-13041071D01*
X6641071Y-13012500D01*
X6669643Y-12969643D01*
X6683928Y-12955357D01*
X6783928Y-13026786D02*
X6798214Y-13012500D01*
X6826786Y-12998214D01*
X6898214Y-12998214D01*
X6926786Y-13012500D01*
X6941071Y-13026786D01*
X6955357Y-13055357D01*
X6955357Y-13083929D01*
X6941071Y-13126786D01*
X6769643Y-13298214D01*
X6955357Y-13298214D01*
X7312500Y-13298214D02*
X7312500Y-12998214D01*
X7441071Y-13298214D02*
X7441071Y-13141071D01*
X7426786Y-13112500D01*
X7398214Y-13098214D01*
X7355357Y-13098214D01*
X7326786Y-13112500D01*
X7312500Y-13126786D01*
X7626786Y-13298214D02*
X7598214Y-13283929D01*
X7583928Y-13269643D01*
X7569643Y-13241071D01*
X7569643Y-13155357D01*
X7583928Y-13126786D01*
X7598214Y-13112500D01*
X7626786Y-13098214D01*
X7669643Y-13098214D01*
X7698214Y-13112500D01*
X7712500Y-13126786D01*
X7726786Y-13155357D01*
X7726786Y-13241071D01*
X7712500Y-13269643D01*
X7698214Y-13283929D01*
X7669643Y-13298214D01*
X7626786Y-13298214D01*
X7898214Y-13298214D02*
X7869643Y-13283929D01*
X7855357Y-13255357D01*
X7855357Y-12998214D01*
X8126786Y-13283929D02*
X8098214Y-13298214D01*
X8041071Y-13298214D01*
X8012500Y-13283929D01*
X7998214Y-13255357D01*
X7998214Y-13141071D01*
X8012500Y-13112500D01*
X8041071Y-13098214D01*
X8098214Y-13098214D01*
X8126786Y-13112500D01*
X8141071Y-13141071D01*
X8141071Y-13169643D01*
X7998214Y-13198214D01*
X8255357Y-13283929D02*
X8283928Y-13298214D01*
X8341071Y-13298214D01*
X8369643Y-13283929D01*
X8383928Y-13255357D01*
X8383928Y-13241071D01*
X8369643Y-13212500D01*
X8341071Y-13198214D01*
X8298214Y-13198214D01*
X8269643Y-13183929D01*
X8255357Y-13155357D01*
X8255357Y-13141071D01*
X8269643Y-13112500D01*
X8298214Y-13098214D01*
X8341071Y-13098214D01*
X8369643Y-13112500D01*
X8483928Y-13412500D02*
X8498214Y-13398214D01*
X8526786Y-13355357D01*
X8541071Y-13326786D01*
X8555357Y-13283929D01*
X8569643Y-13212500D01*
X8569643Y-13155357D01*
X8555357Y-13083929D01*
X8541071Y-13041071D01*
X8526786Y-13012500D01*
X8498214Y-12969643D01*
X8483928Y-12955357D01*
X9026786Y-13412500D02*
X9012500Y-13398214D01*
X8983928Y-13355357D01*
X8969643Y-13326786D01*
X8955357Y-13283929D01*
X8941071Y-13212500D01*
X8941071Y-13155357D01*
X8955357Y-13083929D01*
X8969643Y-13041071D01*
X8983928Y-13012500D01*
X9012500Y-12969643D01*
X9026786Y-12955357D01*
X9141071Y-13098214D02*
X9141071Y-13298214D01*
X9141071Y-13126786D02*
X9155357Y-13112500D01*
X9183928Y-13098214D01*
X9226786Y-13098214D01*
X9255357Y-13112500D01*
X9269643Y-13141071D01*
X9269643Y-13298214D01*
X9455357Y-13298214D02*
X9426786Y-13283929D01*
X9412500Y-13269643D01*
X9398214Y-13241071D01*
X9398214Y-13155357D01*
X9412500Y-13126786D01*
X9426786Y-13112500D01*
X9455357Y-13098214D01*
X9498214Y-13098214D01*
X9526786Y-13112500D01*
X9541071Y-13126786D01*
X9555357Y-13155357D01*
X9555357Y-13241071D01*
X9541071Y-13269643D01*
X9526786Y-13283929D01*
X9498214Y-13298214D01*
X9455357Y-13298214D01*
X9641071Y-13098214D02*
X9755357Y-13098214D01*
X9683928Y-12998214D02*
X9683928Y-13255357D01*
X9698214Y-13283929D01*
X9726786Y-13298214D01*
X9755357Y-13298214D01*
X10083928Y-13098214D02*
X10083928Y-13398214D01*
X10083928Y-13112500D02*
X10112500Y-13098214D01*
X10169643Y-13098214D01*
X10198214Y-13112500D01*
X10212500Y-13126786D01*
X10226786Y-13155357D01*
X10226786Y-13241071D01*
X10212500Y-13269643D01*
X10198214Y-13283929D01*
X10169643Y-13298214D01*
X10112500Y-13298214D01*
X10083928Y-13283929D01*
X10398214Y-13298214D02*
X10369643Y-13283929D01*
X10355357Y-13255357D01*
X10355357Y-12998214D01*
X10641071Y-13298214D02*
X10641071Y-13141071D01*
X10626786Y-13112500D01*
X10598214Y-13098214D01*
X10541071Y-13098214D01*
X10512500Y-13112500D01*
X10641071Y-13283929D02*
X10612500Y-13298214D01*
X10541071Y-13298214D01*
X10512500Y-13283929D01*
X10498214Y-13255357D01*
X10498214Y-13226786D01*
X10512500Y-13198214D01*
X10541071Y-13183929D01*
X10612500Y-13183929D01*
X10641071Y-13169643D01*
X10741071Y-13098214D02*
X10855357Y-13098214D01*
X10783928Y-12998214D02*
X10783928Y-13255357D01*
X10798214Y-13283929D01*
X10826786Y-13298214D01*
X10855357Y-13298214D01*
X11069643Y-13283929D02*
X11041071Y-13298214D01*
X10983928Y-13298214D01*
X10955357Y-13283929D01*
X10941071Y-13255357D01*
X10941071Y-13141071D01*
X10955357Y-13112500D01*
X10983928Y-13098214D01*
X11041071Y-13098214D01*
X11069643Y-13112500D01*
X11083928Y-13141071D01*
X11083928Y-13169643D01*
X10941071Y-13198214D01*
X11341071Y-13298214D02*
X11341071Y-12998214D01*
X11341071Y-13283929D02*
X11312500Y-13298214D01*
X11255357Y-13298214D01*
X11226786Y-13283929D01*
X11212500Y-13269643D01*
X11198214Y-13241071D01*
X11198214Y-13155357D01*
X11212500Y-13126786D01*
X11226786Y-13112500D01*
X11255357Y-13098214D01*
X11312500Y-13098214D01*
X11341071Y-13112500D01*
X11455357Y-13412500D02*
X11469643Y-13398214D01*
X11498214Y-13355357D01*
X11512500Y-13326786D01*
X11526786Y-13283929D01*
X11541071Y-13212500D01*
X11541071Y-13155357D01*
X11526786Y-13083929D01*
X11512500Y-13041071D01*
X11498214Y-13012500D01*
X11469643Y-12969643D01*
X11455357Y-12955357D01*
X1997500Y-13558500D02*
G75*
G03*
X1997500Y-13558500I-45000J0D01*
G01*
X2341071Y-13394214D02*
X2369643Y-13394214D01*
X2398214Y-13408500D01*
X2412500Y-13422786D01*
X2426786Y-13451357D01*
X2441071Y-13508500D01*
X2441071Y-13579929D01*
X2426786Y-13637071D01*
X2412500Y-13665643D01*
X2398214Y-13679929D01*
X2369643Y-13694214D01*
X2341071Y-13694214D01*
X2312500Y-13679929D01*
X2298214Y-13665643D01*
X2283928Y-13637071D01*
X2269643Y-13579929D01*
X2269643Y-13508500D01*
X2283928Y-13451357D01*
X2298214Y-13422786D01*
X2312500Y-13408500D01*
X2341071Y-13394214D01*
X2569643Y-13665643D02*
X2583928Y-13679929D01*
X2569643Y-13694214D01*
X2555357Y-13679929D01*
X2569643Y-13665643D01*
X2569643Y-13694214D01*
X2726786Y-13694214D02*
X2783928Y-13694214D01*
X2812500Y-13679929D01*
X2826786Y-13665643D01*
X2855357Y-13622786D01*
X2869643Y-13565643D01*
X2869643Y-13451357D01*
X2855357Y-13422786D01*
X2841071Y-13408500D01*
X2812500Y-13394214D01*
X2755357Y-13394214D01*
X2726786Y-13408500D01*
X2712500Y-13422786D01*
X2698214Y-13451357D01*
X2698214Y-13522786D01*
X2712500Y-13551357D01*
X2726786Y-13565643D01*
X2755357Y-13579929D01*
X2812500Y-13579929D01*
X2841071Y-13565643D01*
X2855357Y-13551357D01*
X2869643Y-13522786D01*
X3055357Y-13394214D02*
X3083928Y-13394214D01*
X3112500Y-13408500D01*
X3126786Y-13422786D01*
X3141071Y-13451357D01*
X3155357Y-13508500D01*
X3155357Y-13579929D01*
X3141071Y-13637071D01*
X3126786Y-13665643D01*
X3112500Y-13679929D01*
X3083928Y-13694214D01*
X3055357Y-13694214D01*
X3026786Y-13679929D01*
X3012500Y-13665643D01*
X2998214Y-13637071D01*
X2983928Y-13579929D01*
X2983928Y-13508500D01*
X2998214Y-13451357D01*
X3012500Y-13422786D01*
X3026786Y-13408500D01*
X3055357Y-13394214D01*
X3283928Y-13694214D02*
X3283928Y-13494214D01*
X3283928Y-13522786D02*
X3298214Y-13508500D01*
X3326786Y-13494214D01*
X3369643Y-13494214D01*
X3398214Y-13508500D01*
X3412500Y-13537071D01*
X3412500Y-13694214D01*
X3412500Y-13537071D02*
X3426786Y-13508500D01*
X3455357Y-13494214D01*
X3498214Y-13494214D01*
X3526786Y-13508500D01*
X3541071Y-13537071D01*
X3541071Y-13694214D01*
X3683928Y-13694214D02*
X3683928Y-13494214D01*
X3683928Y-13522786D02*
X3698214Y-13508500D01*
X3726786Y-13494214D01*
X3769643Y-13494214D01*
X3798214Y-13508500D01*
X3812500Y-13537071D01*
X3812500Y-13694214D01*
X3812500Y-13537071D02*
X3826786Y-13508500D01*
X3855357Y-13494214D01*
X3898214Y-13494214D01*
X3926786Y-13508500D01*
X3941071Y-13537071D01*
X3941071Y-13694214D01*
X4526786Y-13379929D02*
X4269643Y-13765643D01*
X4912500Y-13394214D02*
X4941071Y-13394214D01*
X4969643Y-13408500D01*
X4983928Y-13422786D01*
X4998214Y-13451357D01*
X5012500Y-13508500D01*
X5012500Y-13579929D01*
X4998214Y-13637071D01*
X4983928Y-13665643D01*
X4969643Y-13679929D01*
X4941071Y-13694214D01*
X4912500Y-13694214D01*
X4883928Y-13679929D01*
X4869643Y-13665643D01*
X4855357Y-13637071D01*
X4841071Y-13579929D01*
X4841071Y-13508500D01*
X4855357Y-13451357D01*
X4869643Y-13422786D01*
X4883928Y-13408500D01*
X4912500Y-13394214D01*
X5141071Y-13665643D02*
X5155357Y-13679929D01*
X5141071Y-13694214D01*
X5126786Y-13679929D01*
X5141071Y-13665643D01*
X5141071Y-13694214D01*
X5341071Y-13394214D02*
X5369643Y-13394214D01*
X5398214Y-13408500D01*
X5412500Y-13422786D01*
X5426786Y-13451357D01*
X5441071Y-13508500D01*
X5441071Y-13579929D01*
X5426786Y-13637071D01*
X5412500Y-13665643D01*
X5398214Y-13679929D01*
X5369643Y-13694214D01*
X5341071Y-13694214D01*
X5312500Y-13679929D01*
X5298214Y-13665643D01*
X5283928Y-13637071D01*
X5269643Y-13579929D01*
X5269643Y-13508500D01*
X5283928Y-13451357D01*
X5298214Y-13422786D01*
X5312500Y-13408500D01*
X5341071Y-13394214D01*
X5541071Y-13394214D02*
X5726786Y-13394214D01*
X5626786Y-13508500D01*
X5669643Y-13508500D01*
X5698214Y-13522786D01*
X5712500Y-13537071D01*
X5726786Y-13565643D01*
X5726786Y-13637071D01*
X5712500Y-13665643D01*
X5698214Y-13679929D01*
X5669643Y-13694214D01*
X5583928Y-13694214D01*
X5555357Y-13679929D01*
X5541071Y-13665643D01*
X5998214Y-13394214D02*
X5855357Y-13394214D01*
X5841071Y-13537071D01*
X5855357Y-13522786D01*
X5883928Y-13508500D01*
X5955357Y-13508500D01*
X5983928Y-13522786D01*
X5998214Y-13537071D01*
X6012500Y-13565643D01*
X6012500Y-13637071D01*
X5998214Y-13665643D01*
X5983928Y-13679929D01*
X5955357Y-13694214D01*
X5883928Y-13694214D01*
X5855357Y-13679929D01*
X5841071Y-13665643D01*
X6126786Y-13394214D02*
X6126786Y-13451357D01*
X6241071Y-13394214D02*
X6241071Y-13451357D01*
X6683928Y-13808500D02*
X6669643Y-13794214D01*
X6641071Y-13751357D01*
X6626786Y-13722786D01*
X6612500Y-13679929D01*
X6598214Y-13608500D01*
X6598214Y-13551357D01*
X6612500Y-13479929D01*
X6626786Y-13437071D01*
X6641071Y-13408500D01*
X6669643Y-13365643D01*
X6683928Y-13351357D01*
X6783928Y-13422786D02*
X6798214Y-13408500D01*
X6826786Y-13394214D01*
X6898214Y-13394214D01*
X6926786Y-13408500D01*
X6941071Y-13422786D01*
X6955357Y-13451357D01*
X6955357Y-13479929D01*
X6941071Y-13522786D01*
X6769643Y-13694214D01*
X6955357Y-13694214D01*
X7312500Y-13694214D02*
X7312500Y-13394214D01*
X7441071Y-13694214D02*
X7441071Y-13537071D01*
X7426786Y-13508500D01*
X7398214Y-13494214D01*
X7355357Y-13494214D01*
X7326786Y-13508500D01*
X7312500Y-13522786D01*
X7626786Y-13694214D02*
X7598214Y-13679929D01*
X7583928Y-13665643D01*
X7569643Y-13637071D01*
X7569643Y-13551357D01*
X7583928Y-13522786D01*
X7598214Y-13508500D01*
X7626786Y-13494214D01*
X7669643Y-13494214D01*
X7698214Y-13508500D01*
X7712500Y-13522786D01*
X7726786Y-13551357D01*
X7726786Y-13637071D01*
X7712500Y-13665643D01*
X7698214Y-13679929D01*
X7669643Y-13694214D01*
X7626786Y-13694214D01*
X7898214Y-13694214D02*
X7869643Y-13679929D01*
X7855357Y-13651357D01*
X7855357Y-13394214D01*
X8126786Y-13679929D02*
X8098214Y-13694214D01*
X8041071Y-13694214D01*
X8012500Y-13679929D01*
X7998214Y-13651357D01*
X7998214Y-13537071D01*
X8012500Y-13508500D01*
X8041071Y-13494214D01*
X8098214Y-13494214D01*
X8126786Y-13508500D01*
X8141071Y-13537071D01*
X8141071Y-13565643D01*
X7998214Y-13594214D01*
X8255357Y-13679929D02*
X8283928Y-13694214D01*
X8341071Y-13694214D01*
X8369643Y-13679929D01*
X8383928Y-13651357D01*
X8383928Y-13637071D01*
X8369643Y-13608500D01*
X8341071Y-13594214D01*
X8298214Y-13594214D01*
X8269643Y-13579929D01*
X8255357Y-13551357D01*
X8255357Y-13537071D01*
X8269643Y-13508500D01*
X8298214Y-13494214D01*
X8341071Y-13494214D01*
X8369643Y-13508500D01*
X8483928Y-13808500D02*
X8498214Y-13794214D01*
X8526786Y-13751357D01*
X8541071Y-13722786D01*
X8555357Y-13679929D01*
X8569643Y-13608500D01*
X8569643Y-13551357D01*
X8555357Y-13479929D01*
X8541071Y-13437071D01*
X8526786Y-13408500D01*
X8498214Y-13365643D01*
X8483928Y-13351357D01*
X9026786Y-13808500D02*
X9012500Y-13794214D01*
X8983928Y-13751357D01*
X8969643Y-13722786D01*
X8955357Y-13679929D01*
X8941071Y-13608500D01*
X8941071Y-13551357D01*
X8955357Y-13479929D01*
X8969643Y-13437071D01*
X8983928Y-13408500D01*
X9012500Y-13365643D01*
X9026786Y-13351357D01*
X9141071Y-13494214D02*
X9141071Y-13694214D01*
X9141071Y-13522786D02*
X9155357Y-13508500D01*
X9183928Y-13494214D01*
X9226786Y-13494214D01*
X9255357Y-13508500D01*
X9269643Y-13537071D01*
X9269643Y-13694214D01*
X9455357Y-13694214D02*
X9426786Y-13679929D01*
X9412500Y-13665643D01*
X9398214Y-13637071D01*
X9398214Y-13551357D01*
X9412500Y-13522786D01*
X9426786Y-13508500D01*
X9455357Y-13494214D01*
X9498214Y-13494214D01*
X9526786Y-13508500D01*
X9541071Y-13522786D01*
X9555357Y-13551357D01*
X9555357Y-13637071D01*
X9541071Y-13665643D01*
X9526786Y-13679929D01*
X9498214Y-13694214D01*
X9455357Y-13694214D01*
X9641071Y-13494214D02*
X9755357Y-13494214D01*
X9683928Y-13394214D02*
X9683928Y-13651357D01*
X9698214Y-13679929D01*
X9726786Y-13694214D01*
X9755357Y-13694214D01*
X10083928Y-13494214D02*
X10083928Y-13794214D01*
X10083928Y-13508500D02*
X10112500Y-13494214D01*
X10169643Y-13494214D01*
X10198214Y-13508500D01*
X10212500Y-13522786D01*
X10226786Y-13551357D01*
X10226786Y-13637071D01*
X10212500Y-13665643D01*
X10198214Y-13679929D01*
X10169643Y-13694214D01*
X10112500Y-13694214D01*
X10083928Y-13679929D01*
X10398214Y-13694214D02*
X10369643Y-13679929D01*
X10355357Y-13651357D01*
X10355357Y-13394214D01*
X10641071Y-13694214D02*
X10641071Y-13537071D01*
X10626786Y-13508500D01*
X10598214Y-13494214D01*
X10541071Y-13494214D01*
X10512500Y-13508500D01*
X10641071Y-13679929D02*
X10612500Y-13694214D01*
X10541071Y-13694214D01*
X10512500Y-13679929D01*
X10498214Y-13651357D01*
X10498214Y-13622786D01*
X10512500Y-13594214D01*
X10541071Y-13579929D01*
X10612500Y-13579929D01*
X10641071Y-13565643D01*
X10741071Y-13494214D02*
X10855357Y-13494214D01*
X10783928Y-13394214D02*
X10783928Y-13651357D01*
X10798214Y-13679929D01*
X10826786Y-13694214D01*
X10855357Y-13694214D01*
X11069643Y-13679929D02*
X11041071Y-13694214D01*
X10983928Y-13694214D01*
X10955357Y-13679929D01*
X10941071Y-13651357D01*
X10941071Y-13537071D01*
X10955357Y-13508500D01*
X10983928Y-13494214D01*
X11041071Y-13494214D01*
X11069643Y-13508500D01*
X11083928Y-13537071D01*
X11083928Y-13565643D01*
X10941071Y-13594214D01*
X11341071Y-13694214D02*
X11341071Y-13394214D01*
X11341071Y-13679929D02*
X11312500Y-13694214D01*
X11255357Y-13694214D01*
X11226786Y-13679929D01*
X11212500Y-13665643D01*
X11198214Y-13637071D01*
X11198214Y-13551357D01*
X11212500Y-13522786D01*
X11226786Y-13508500D01*
X11255357Y-13494214D01*
X11312500Y-13494214D01*
X11341071Y-13508500D01*
X11455357Y-13808500D02*
X11469643Y-13794214D01*
X11498214Y-13751357D01*
X11512500Y-13722786D01*
X11526786Y-13679929D01*
X11541071Y-13608500D01*
X11541071Y-13551357D01*
X11526786Y-13479929D01*
X11512500Y-13437071D01*
X11498214Y-13408500D01*
X11469643Y-13365643D01*
X11455357Y-13351357D01*
X1947500Y-13904500D02*
X1947500Y-14004500D01*
X1897500Y-13954500D02*
X1997500Y-13954500D01*
X2441071Y-14090214D02*
X2269643Y-14090214D01*
X2355357Y-14090214D02*
X2355357Y-13790214D01*
X2326786Y-13833071D01*
X2298214Y-13861643D01*
X2269643Y-13875929D01*
X2569643Y-14061643D02*
X2583928Y-14075929D01*
X2569643Y-14090214D01*
X2555357Y-14075929D01*
X2569643Y-14061643D01*
X2569643Y-14090214D01*
X2769643Y-13790214D02*
X2798214Y-13790214D01*
X2826786Y-13804500D01*
X2841071Y-13818786D01*
X2855357Y-13847357D01*
X2869643Y-13904500D01*
X2869643Y-13975929D01*
X2855357Y-14033071D01*
X2841071Y-14061643D01*
X2826786Y-14075929D01*
X2798214Y-14090214D01*
X2769643Y-14090214D01*
X2741071Y-14075929D01*
X2726786Y-14061643D01*
X2712500Y-14033071D01*
X2698214Y-13975929D01*
X2698214Y-13904500D01*
X2712500Y-13847357D01*
X2726786Y-13818786D01*
X2741071Y-13804500D01*
X2769643Y-13790214D01*
X3055357Y-13790214D02*
X3083928Y-13790214D01*
X3112500Y-13804500D01*
X3126786Y-13818786D01*
X3141071Y-13847357D01*
X3155357Y-13904500D01*
X3155357Y-13975929D01*
X3141071Y-14033071D01*
X3126786Y-14061643D01*
X3112500Y-14075929D01*
X3083928Y-14090214D01*
X3055357Y-14090214D01*
X3026786Y-14075929D01*
X3012500Y-14061643D01*
X2998214Y-14033071D01*
X2983928Y-13975929D01*
X2983928Y-13904500D01*
X2998214Y-13847357D01*
X3012500Y-13818786D01*
X3026786Y-13804500D01*
X3055357Y-13790214D01*
X3283928Y-14090214D02*
X3283928Y-13890214D01*
X3283928Y-13918786D02*
X3298214Y-13904500D01*
X3326786Y-13890214D01*
X3369643Y-13890214D01*
X3398214Y-13904500D01*
X3412500Y-13933071D01*
X3412500Y-14090214D01*
X3412500Y-13933071D02*
X3426786Y-13904500D01*
X3455357Y-13890214D01*
X3498214Y-13890214D01*
X3526786Y-13904500D01*
X3541071Y-13933071D01*
X3541071Y-14090214D01*
X3683928Y-14090214D02*
X3683928Y-13890214D01*
X3683928Y-13918786D02*
X3698214Y-13904500D01*
X3726786Y-13890214D01*
X3769643Y-13890214D01*
X3798214Y-13904500D01*
X3812500Y-13933071D01*
X3812500Y-14090214D01*
X3812500Y-13933071D02*
X3826786Y-13904500D01*
X3855357Y-13890214D01*
X3898214Y-13890214D01*
X3926786Y-13904500D01*
X3941071Y-13933071D01*
X3941071Y-14090214D01*
X4526786Y-13775929D02*
X4269643Y-14161643D01*
X4912500Y-13790214D02*
X4941071Y-13790214D01*
X4969643Y-13804500D01*
X4983928Y-13818786D01*
X4998214Y-13847357D01*
X5012500Y-13904500D01*
X5012500Y-13975929D01*
X4998214Y-14033071D01*
X4983928Y-14061643D01*
X4969643Y-14075929D01*
X4941071Y-14090214D01*
X4912500Y-14090214D01*
X4883928Y-14075929D01*
X4869643Y-14061643D01*
X4855357Y-14033071D01*
X4841071Y-13975929D01*
X4841071Y-13904500D01*
X4855357Y-13847357D01*
X4869643Y-13818786D01*
X4883928Y-13804500D01*
X4912500Y-13790214D01*
X5141071Y-14061643D02*
X5155357Y-14075929D01*
X5141071Y-14090214D01*
X5126786Y-14075929D01*
X5141071Y-14061643D01*
X5141071Y-14090214D01*
X5341071Y-13790214D02*
X5369643Y-13790214D01*
X5398214Y-13804500D01*
X5412500Y-13818786D01*
X5426786Y-13847357D01*
X5441071Y-13904500D01*
X5441071Y-13975929D01*
X5426786Y-14033071D01*
X5412500Y-14061643D01*
X5398214Y-14075929D01*
X5369643Y-14090214D01*
X5341071Y-14090214D01*
X5312500Y-14075929D01*
X5298214Y-14061643D01*
X5283928Y-14033071D01*
X5269643Y-13975929D01*
X5269643Y-13904500D01*
X5283928Y-13847357D01*
X5298214Y-13818786D01*
X5312500Y-13804500D01*
X5341071Y-13790214D01*
X5541071Y-13790214D02*
X5726786Y-13790214D01*
X5626786Y-13904500D01*
X5669643Y-13904500D01*
X5698214Y-13918786D01*
X5712500Y-13933071D01*
X5726786Y-13961643D01*
X5726786Y-14033071D01*
X5712500Y-14061643D01*
X5698214Y-14075929D01*
X5669643Y-14090214D01*
X5583928Y-14090214D01*
X5555357Y-14075929D01*
X5541071Y-14061643D01*
X5869643Y-14090214D02*
X5926786Y-14090214D01*
X5955357Y-14075929D01*
X5969643Y-14061643D01*
X5998214Y-14018786D01*
X6012500Y-13961643D01*
X6012500Y-13847357D01*
X5998214Y-13818786D01*
X5983928Y-13804500D01*
X5955357Y-13790214D01*
X5898214Y-13790214D01*
X5869643Y-13804500D01*
X5855357Y-13818786D01*
X5841071Y-13847357D01*
X5841071Y-13918786D01*
X5855357Y-13947357D01*
X5869643Y-13961643D01*
X5898214Y-13975929D01*
X5955357Y-13975929D01*
X5983928Y-13961643D01*
X5998214Y-13947357D01*
X6012500Y-13918786D01*
X6126786Y-13790214D02*
X6126786Y-13847357D01*
X6241071Y-13790214D02*
X6241071Y-13847357D01*
X6683928Y-14204500D02*
X6669643Y-14190214D01*
X6641071Y-14147357D01*
X6626786Y-14118786D01*
X6612500Y-14075929D01*
X6598214Y-14004500D01*
X6598214Y-13947357D01*
X6612500Y-13875929D01*
X6626786Y-13833071D01*
X6641071Y-13804500D01*
X6669643Y-13761643D01*
X6683928Y-13747357D01*
X6783928Y-13818786D02*
X6798214Y-13804500D01*
X6826786Y-13790214D01*
X6898214Y-13790214D01*
X6926786Y-13804500D01*
X6941071Y-13818786D01*
X6955357Y-13847357D01*
X6955357Y-13875929D01*
X6941071Y-13918786D01*
X6769643Y-14090214D01*
X6955357Y-14090214D01*
X7312500Y-14090214D02*
X7312500Y-13790214D01*
X7441071Y-14090214D02*
X7441071Y-13933071D01*
X7426786Y-13904500D01*
X7398214Y-13890214D01*
X7355357Y-13890214D01*
X7326786Y-13904500D01*
X7312500Y-13918786D01*
X7626786Y-14090214D02*
X7598214Y-14075929D01*
X7583928Y-14061643D01*
X7569643Y-14033071D01*
X7569643Y-13947357D01*
X7583928Y-13918786D01*
X7598214Y-13904500D01*
X7626786Y-13890214D01*
X7669643Y-13890214D01*
X7698214Y-13904500D01*
X7712500Y-13918786D01*
X7726786Y-13947357D01*
X7726786Y-14033071D01*
X7712500Y-14061643D01*
X7698214Y-14075929D01*
X7669643Y-14090214D01*
X7626786Y-14090214D01*
X7898214Y-14090214D02*
X7869643Y-14075929D01*
X7855357Y-14047357D01*
X7855357Y-13790214D01*
X8126786Y-14075929D02*
X8098214Y-14090214D01*
X8041071Y-14090214D01*
X8012500Y-14075929D01*
X7998214Y-14047357D01*
X7998214Y-13933071D01*
X8012500Y-13904500D01*
X8041071Y-13890214D01*
X8098214Y-13890214D01*
X8126786Y-13904500D01*
X8141071Y-13933071D01*
X8141071Y-13961643D01*
X7998214Y-13990214D01*
X8255357Y-14075929D02*
X8283928Y-14090214D01*
X8341071Y-14090214D01*
X8369643Y-14075929D01*
X8383928Y-14047357D01*
X8383928Y-14033071D01*
X8369643Y-14004500D01*
X8341071Y-13990214D01*
X8298214Y-13990214D01*
X8269643Y-13975929D01*
X8255357Y-13947357D01*
X8255357Y-13933071D01*
X8269643Y-13904500D01*
X8298214Y-13890214D01*
X8341071Y-13890214D01*
X8369643Y-13904500D01*
X8483928Y-14204500D02*
X8498214Y-14190214D01*
X8526786Y-14147357D01*
X8541071Y-14118786D01*
X8555357Y-14075929D01*
X8569643Y-14004500D01*
X8569643Y-13947357D01*
X8555357Y-13875929D01*
X8541071Y-13833071D01*
X8526786Y-13804500D01*
X8498214Y-13761643D01*
X8483928Y-13747357D01*
X9026786Y-14204500D02*
X9012500Y-14190214D01*
X8983928Y-14147357D01*
X8969643Y-14118786D01*
X8955357Y-14075929D01*
X8941071Y-14004500D01*
X8941071Y-13947357D01*
X8955357Y-13875929D01*
X8969643Y-13833071D01*
X8983928Y-13804500D01*
X9012500Y-13761643D01*
X9026786Y-13747357D01*
X9141071Y-13890214D02*
X9141071Y-14090214D01*
X9141071Y-13918786D02*
X9155357Y-13904500D01*
X9183928Y-13890214D01*
X9226786Y-13890214D01*
X9255357Y-13904500D01*
X9269643Y-13933071D01*
X9269643Y-14090214D01*
X9455357Y-14090214D02*
X9426786Y-14075929D01*
X9412500Y-14061643D01*
X9398214Y-14033071D01*
X9398214Y-13947357D01*
X9412500Y-13918786D01*
X9426786Y-13904500D01*
X9455357Y-13890214D01*
X9498214Y-13890214D01*
X9526786Y-13904500D01*
X9541071Y-13918786D01*
X9555357Y-13947357D01*
X9555357Y-14033071D01*
X9541071Y-14061643D01*
X9526786Y-14075929D01*
X9498214Y-14090214D01*
X9455357Y-14090214D01*
X9641071Y-13890214D02*
X9755357Y-13890214D01*
X9683928Y-13790214D02*
X9683928Y-14047357D01*
X9698214Y-14075929D01*
X9726786Y-14090214D01*
X9755357Y-14090214D01*
X10083928Y-13890214D02*
X10083928Y-14190214D01*
X10083928Y-13904500D02*
X10112500Y-13890214D01*
X10169643Y-13890214D01*
X10198214Y-13904500D01*
X10212500Y-13918786D01*
X10226786Y-13947357D01*
X10226786Y-14033071D01*
X10212500Y-14061643D01*
X10198214Y-14075929D01*
X10169643Y-14090214D01*
X10112500Y-14090214D01*
X10083928Y-14075929D01*
X10398214Y-14090214D02*
X10369643Y-14075929D01*
X10355357Y-14047357D01*
X10355357Y-13790214D01*
X10641071Y-14090214D02*
X10641071Y-13933071D01*
X10626786Y-13904500D01*
X10598214Y-13890214D01*
X10541071Y-13890214D01*
X10512500Y-13904500D01*
X10641071Y-14075929D02*
X10612500Y-14090214D01*
X10541071Y-14090214D01*
X10512500Y-14075929D01*
X10498214Y-14047357D01*
X10498214Y-14018786D01*
X10512500Y-13990214D01*
X10541071Y-13975929D01*
X10612500Y-13975929D01*
X10641071Y-13961643D01*
X10741071Y-13890214D02*
X10855357Y-13890214D01*
X10783928Y-13790214D02*
X10783928Y-14047357D01*
X10798214Y-14075929D01*
X10826786Y-14090214D01*
X10855357Y-14090214D01*
X11069643Y-14075929D02*
X11041071Y-14090214D01*
X10983928Y-14090214D01*
X10955357Y-14075929D01*
X10941071Y-14047357D01*
X10941071Y-13933071D01*
X10955357Y-13904500D01*
X10983928Y-13890214D01*
X11041071Y-13890214D01*
X11069643Y-13904500D01*
X11083928Y-13933071D01*
X11083928Y-13961643D01*
X10941071Y-13990214D01*
X11341071Y-14090214D02*
X11341071Y-13790214D01*
X11341071Y-14075929D02*
X11312500Y-14090214D01*
X11255357Y-14090214D01*
X11226786Y-14075929D01*
X11212500Y-14061643D01*
X11198214Y-14033071D01*
X11198214Y-13947357D01*
X11212500Y-13918786D01*
X11226786Y-13904500D01*
X11255357Y-13890214D01*
X11312500Y-13890214D01*
X11341071Y-13904500D01*
X11455357Y-14204500D02*
X11469643Y-14190214D01*
X11498214Y-14147357D01*
X11512500Y-14118786D01*
X11526786Y-14075929D01*
X11541071Y-14004500D01*
X11541071Y-13947357D01*
X11526786Y-13875929D01*
X11512500Y-13833071D01*
X11498214Y-13804500D01*
X11469643Y-13761643D01*
X11455357Y-13747357D01*
M02*
