%FSLAX45Y45*%
G04 Gerber Fmt 4.5, Leading zero omitted, Abs format (unit mm)*
G04 Created by KiCad (PCBNEW 5.1.6) date 2020-07-15 16:20:27*
%MOMM*%
%LPD*%
G01*
G04 APERTURE LIST*
%TA.AperFunction,Profile*%
%ADD10C,0.050000*%
%TD*%
%ADD11C,0.200000*%
%ADD12C,0.300000*%
G04 APERTURE END LIST*
D10*
X3850000Y-12200000D02*
X3840000Y-12200000D01*
X4500000Y-12200000D02*
X3850000Y-12200000D01*
X14470000Y-7630000D02*
G75*
G02*
X14470000Y-6570000I0J530000D01*
G01*
X15000000Y-6570000D02*
X15000000Y-2000000D01*
X14470000Y-7630000D02*
X15000000Y-7630000D01*
X14470000Y-6570000D02*
X15000000Y-6570000D01*
X4790000Y-12200000D02*
X15000000Y-12200000D01*
X3550000Y-12200000D02*
X2000000Y-12200000D01*
X3550000Y-11930000D02*
X3550000Y-12200000D01*
X3430000Y-11930000D02*
X3550000Y-11930000D01*
X3430000Y-11720000D02*
X3430000Y-11930000D01*
X3550000Y-11720000D02*
X3430000Y-11720000D01*
X3550000Y-11380000D02*
X3550000Y-11720000D01*
X3560000Y-11380000D02*
X3550000Y-11380000D01*
X3840000Y-11380000D02*
X3560000Y-11380000D01*
X3840000Y-12200000D02*
X3840000Y-11380000D01*
X4500000Y-11460000D02*
X4500000Y-12200000D01*
X4500000Y-11380000D02*
X4500000Y-11460000D01*
X4510000Y-11380000D02*
X4500000Y-11380000D01*
X4790000Y-11380000D02*
X4510000Y-11380000D01*
X4790000Y-11720000D02*
X4790000Y-11380000D01*
X4910000Y-11720000D02*
X4790000Y-11720000D01*
X4910000Y-11930000D02*
X4910000Y-11720000D01*
X4790000Y-11930000D02*
X4910000Y-11930000D01*
X4790000Y-12200000D02*
X4790000Y-11930000D01*
X15000000Y-7630000D02*
X15000000Y-12200000D01*
X2000000Y-7630000D02*
X2000000Y-12200000D01*
X2000000Y-2000000D02*
X2000000Y-6570000D01*
X2520000Y-6569906D02*
G75*
G02*
X2530000Y-7630000I0J-530094D01*
G01*
X2530000Y-7630000D02*
X2000000Y-7630000D01*
X2520000Y-6569906D02*
X2000000Y-6570000D01*
X2100000Y-2000000D02*
X2000000Y-2000000D01*
X15000000Y-2000000D02*
X2100000Y-2000000D01*
D11*
X2040000Y-2040000D02*
X2060000Y-2060000D01*
X2060000Y-2040000D02*
X2040000Y-2060000D01*
X2040000Y-2140000D02*
X2060000Y-2160000D01*
X2060000Y-2140000D02*
X2040000Y-2160000D01*
X2040000Y-2240000D02*
X2060000Y-2260000D01*
X2060000Y-2240000D02*
X2040000Y-2260000D01*
X2040000Y-2340000D02*
X2060000Y-2360000D01*
X2060000Y-2340000D02*
X2040000Y-2360000D01*
X2040000Y-2440000D02*
X2060000Y-2460000D01*
X2060000Y-2440000D02*
X2040000Y-2460000D01*
X2040000Y-2540000D02*
X2060000Y-2560000D01*
X2060000Y-2540000D02*
X2040000Y-2560000D01*
X2040000Y-2640000D02*
X2060000Y-2660000D01*
X2060000Y-2640000D02*
X2040000Y-2660000D01*
X2040000Y-2740000D02*
X2060000Y-2760000D01*
X2060000Y-2740000D02*
X2040000Y-2760000D01*
X2040000Y-2840000D02*
X2060000Y-2860000D01*
X2060000Y-2840000D02*
X2040000Y-2860000D01*
X2040000Y-2940000D02*
X2060000Y-2960000D01*
X2060000Y-2940000D02*
X2040000Y-2960000D01*
X2040000Y-3040000D02*
X2060000Y-3060000D01*
X2060000Y-3040000D02*
X2040000Y-3060000D01*
X2040000Y-3140000D02*
X2060000Y-3160000D01*
X2060000Y-3140000D02*
X2040000Y-3160000D01*
X2040000Y-3240000D02*
X2060000Y-3260000D01*
X2060000Y-3240000D02*
X2040000Y-3260000D01*
X2040000Y-3340000D02*
X2060000Y-3360000D01*
X2060000Y-3340000D02*
X2040000Y-3360000D01*
X2040000Y-3440000D02*
X2060000Y-3460000D01*
X2060000Y-3440000D02*
X2040000Y-3460000D01*
X2040000Y-3540000D02*
X2060000Y-3560000D01*
X2060000Y-3540000D02*
X2040000Y-3560000D01*
X2040000Y-3640000D02*
X2060000Y-3660000D01*
X2060000Y-3640000D02*
X2040000Y-3660000D01*
X2040000Y-3740000D02*
X2060000Y-3760000D01*
X2060000Y-3740000D02*
X2040000Y-3760000D01*
X2040000Y-3840000D02*
X2060000Y-3860000D01*
X2060000Y-3840000D02*
X2040000Y-3860000D01*
X2040000Y-3940000D02*
X2060000Y-3960000D01*
X2060000Y-3940000D02*
X2040000Y-3960000D01*
X2040000Y-4040000D02*
X2060000Y-4060000D01*
X2060000Y-4040000D02*
X2040000Y-4060000D01*
X2040000Y-4140000D02*
X2060000Y-4160000D01*
X2060000Y-4140000D02*
X2040000Y-4160000D01*
X2040000Y-4240000D02*
X2060000Y-4260000D01*
X2060000Y-4240000D02*
X2040000Y-4260000D01*
X2040000Y-4340000D02*
X2060000Y-4360000D01*
X2060000Y-4340000D02*
X2040000Y-4360000D01*
X2040000Y-4440000D02*
X2060000Y-4460000D01*
X2060000Y-4440000D02*
X2040000Y-4460000D01*
X2040000Y-4540000D02*
X2060000Y-4560000D01*
X2060000Y-4540000D02*
X2040000Y-4560000D01*
X2040000Y-4640000D02*
X2060000Y-4660000D01*
X2060000Y-4640000D02*
X2040000Y-4660000D01*
X2040000Y-4740000D02*
X2060000Y-4760000D01*
X2060000Y-4740000D02*
X2040000Y-4760000D01*
X2040000Y-4840000D02*
X2060000Y-4860000D01*
X2060000Y-4840000D02*
X2040000Y-4860000D01*
X2040000Y-4940000D02*
X2060000Y-4960000D01*
X2060000Y-4940000D02*
X2040000Y-4960000D01*
X2040000Y-5040000D02*
X2060000Y-5060000D01*
X2060000Y-5040000D02*
X2040000Y-5060000D01*
X2040000Y-5140000D02*
X2060000Y-5160000D01*
X2060000Y-5140000D02*
X2040000Y-5160000D01*
X2040000Y-5240000D02*
X2060000Y-5260000D01*
X2060000Y-5240000D02*
X2040000Y-5260000D01*
X2040000Y-5340000D02*
X2060000Y-5360000D01*
X2060000Y-5340000D02*
X2040000Y-5360000D01*
X2040000Y-5440000D02*
X2060000Y-5460000D01*
X2060000Y-5440000D02*
X2040000Y-5460000D01*
X2040000Y-5540000D02*
X2060000Y-5560000D01*
X2060000Y-5540000D02*
X2040000Y-5560000D01*
X2040000Y-5640000D02*
X2060000Y-5660000D01*
X2060000Y-5640000D02*
X2040000Y-5660000D01*
X2040000Y-5740000D02*
X2060000Y-5760000D01*
X2060000Y-5740000D02*
X2040000Y-5760000D01*
X2040000Y-5840000D02*
X2060000Y-5860000D01*
X2060000Y-5840000D02*
X2040000Y-5860000D01*
X2040000Y-5940000D02*
X2060000Y-5960000D01*
X2060000Y-5940000D02*
X2040000Y-5960000D01*
X2040000Y-6040000D02*
X2060000Y-6060000D01*
X2060000Y-6040000D02*
X2040000Y-6060000D01*
X2040000Y-6140000D02*
X2060000Y-6160000D01*
X2060000Y-6140000D02*
X2040000Y-6160000D01*
X2040000Y-6240000D02*
X2060000Y-6260000D01*
X2060000Y-6240000D02*
X2040000Y-6260000D01*
X2040000Y-6340000D02*
X2060000Y-6360000D01*
X2060000Y-6340000D02*
X2040000Y-6360000D01*
X2040000Y-6440000D02*
X2060000Y-6460000D01*
X2060000Y-6440000D02*
X2040000Y-6460000D01*
X2040000Y-7740000D02*
X2060000Y-7760000D01*
X2060000Y-7740000D02*
X2040000Y-7760000D01*
X2040000Y-7840000D02*
X2060000Y-7860000D01*
X2060000Y-7840000D02*
X2040000Y-7860000D01*
X2040000Y-7940000D02*
X2060000Y-7960000D01*
X2060000Y-7940000D02*
X2040000Y-7960000D01*
X2040000Y-8040000D02*
X2060000Y-8060000D01*
X2060000Y-8040000D02*
X2040000Y-8060000D01*
X2040000Y-8140000D02*
X2060000Y-8160000D01*
X2060000Y-8140000D02*
X2040000Y-8160000D01*
X2040000Y-8240000D02*
X2060000Y-8260000D01*
X2060000Y-8240000D02*
X2040000Y-8260000D01*
X2040000Y-8340000D02*
X2060000Y-8360000D01*
X2060000Y-8340000D02*
X2040000Y-8360000D01*
X2040000Y-8440000D02*
X2060000Y-8460000D01*
X2060000Y-8440000D02*
X2040000Y-8460000D01*
X2040000Y-8540000D02*
X2060000Y-8560000D01*
X2060000Y-8540000D02*
X2040000Y-8560000D01*
X2040000Y-8640000D02*
X2060000Y-8660000D01*
X2060000Y-8640000D02*
X2040000Y-8660000D01*
X2040000Y-8740000D02*
X2060000Y-8760000D01*
X2060000Y-8740000D02*
X2040000Y-8760000D01*
X2040000Y-8840000D02*
X2060000Y-8860000D01*
X2060000Y-8840000D02*
X2040000Y-8860000D01*
X2040000Y-8940000D02*
X2060000Y-8960000D01*
X2060000Y-8940000D02*
X2040000Y-8960000D01*
X2040000Y-9040000D02*
X2060000Y-9060000D01*
X2060000Y-9040000D02*
X2040000Y-9060000D01*
X2040000Y-9140000D02*
X2060000Y-9160000D01*
X2060000Y-9140000D02*
X2040000Y-9160000D01*
X2040000Y-9240000D02*
X2060000Y-9260000D01*
X2060000Y-9240000D02*
X2040000Y-9260000D01*
X2040000Y-9340000D02*
X2060000Y-9360000D01*
X2060000Y-9340000D02*
X2040000Y-9360000D01*
X2040000Y-9440000D02*
X2060000Y-9460000D01*
X2060000Y-9440000D02*
X2040000Y-9460000D01*
X2040000Y-9540000D02*
X2060000Y-9560000D01*
X2060000Y-9540000D02*
X2040000Y-9560000D01*
X2040000Y-9640000D02*
X2060000Y-9660000D01*
X2060000Y-9640000D02*
X2040000Y-9660000D01*
X2040000Y-9740000D02*
X2060000Y-9760000D01*
X2060000Y-9740000D02*
X2040000Y-9760000D01*
X2040000Y-9840000D02*
X2060000Y-9860000D01*
X2060000Y-9840000D02*
X2040000Y-9860000D01*
X2040000Y-9940000D02*
X2060000Y-9960000D01*
X2060000Y-9940000D02*
X2040000Y-9960000D01*
X2040000Y-10040000D02*
X2060000Y-10060000D01*
X2060000Y-10040000D02*
X2040000Y-10060000D01*
X2040000Y-10140000D02*
X2060000Y-10160000D01*
X2060000Y-10140000D02*
X2040000Y-10160000D01*
X2040000Y-10240000D02*
X2060000Y-10260000D01*
X2060000Y-10240000D02*
X2040000Y-10260000D01*
X2040000Y-10340000D02*
X2060000Y-10360000D01*
X2060000Y-10340000D02*
X2040000Y-10360000D01*
X2040000Y-10440000D02*
X2060000Y-10460000D01*
X2060000Y-10440000D02*
X2040000Y-10460000D01*
X2040000Y-10540000D02*
X2060000Y-10560000D01*
X2060000Y-10540000D02*
X2040000Y-10560000D01*
X2040000Y-10640000D02*
X2060000Y-10660000D01*
X2060000Y-10640000D02*
X2040000Y-10660000D01*
X2040000Y-10740000D02*
X2060000Y-10760000D01*
X2060000Y-10740000D02*
X2040000Y-10760000D01*
X2040000Y-10840000D02*
X2060000Y-10860000D01*
X2060000Y-10840000D02*
X2040000Y-10860000D01*
X2040000Y-10940000D02*
X2060000Y-10960000D01*
X2060000Y-10940000D02*
X2040000Y-10960000D01*
X2040000Y-11040000D02*
X2060000Y-11060000D01*
X2060000Y-11040000D02*
X2040000Y-11060000D01*
X2040000Y-11140000D02*
X2060000Y-11160000D01*
X2060000Y-11140000D02*
X2040000Y-11160000D01*
X2040000Y-11240000D02*
X2060000Y-11260000D01*
X2060000Y-11240000D02*
X2040000Y-11260000D01*
X2040000Y-11340000D02*
X2060000Y-11360000D01*
X2060000Y-11340000D02*
X2040000Y-11360000D01*
X2040000Y-11440000D02*
X2060000Y-11460000D01*
X2060000Y-11440000D02*
X2040000Y-11460000D01*
X2040000Y-11540000D02*
X2060000Y-11560000D01*
X2060000Y-11540000D02*
X2040000Y-11560000D01*
X2040000Y-11640000D02*
X2060000Y-11660000D01*
X2060000Y-11640000D02*
X2040000Y-11660000D01*
X2040000Y-11740000D02*
X2060000Y-11760000D01*
X2060000Y-11740000D02*
X2040000Y-11760000D01*
X2040000Y-11840000D02*
X2060000Y-11860000D01*
X2060000Y-11840000D02*
X2040000Y-11860000D01*
X2040000Y-11940000D02*
X2060000Y-11960000D01*
X2060000Y-11940000D02*
X2040000Y-11960000D01*
X2040000Y-12040000D02*
X2060000Y-12060000D01*
X2060000Y-12040000D02*
X2040000Y-12060000D01*
X2040000Y-12140000D02*
X2060000Y-12160000D01*
X2060000Y-12140000D02*
X2040000Y-12160000D01*
X2072800Y-7660800D02*
X2092800Y-7680800D01*
X2092800Y-7660800D02*
X2072800Y-7680800D01*
X2123600Y-6492400D02*
X2143600Y-6512400D01*
X2143600Y-6492400D02*
X2123600Y-6512400D01*
X2140000Y-2040000D02*
X2160000Y-2060000D01*
X2160000Y-2040000D02*
X2140000Y-2060000D01*
X2140000Y-4040000D02*
X2160000Y-4060000D01*
X2160000Y-4040000D02*
X2140000Y-4060000D01*
X2140000Y-4140000D02*
X2160000Y-4160000D01*
X2160000Y-4140000D02*
X2140000Y-4160000D01*
X2140000Y-4240000D02*
X2160000Y-4260000D01*
X2160000Y-4240000D02*
X2140000Y-4260000D01*
X2140000Y-4340000D02*
X2160000Y-4360000D01*
X2160000Y-4340000D02*
X2140000Y-4360000D01*
X2140000Y-4440000D02*
X2160000Y-4460000D01*
X2160000Y-4440000D02*
X2140000Y-4460000D01*
X2140000Y-4540000D02*
X2160000Y-4560000D01*
X2160000Y-4540000D02*
X2140000Y-4560000D01*
X2140000Y-4640000D02*
X2160000Y-4660000D01*
X2160000Y-4640000D02*
X2140000Y-4660000D01*
X2140000Y-4740000D02*
X2160000Y-4760000D01*
X2160000Y-4740000D02*
X2140000Y-4760000D01*
X2140000Y-4840000D02*
X2160000Y-4860000D01*
X2160000Y-4840000D02*
X2140000Y-4860000D01*
X2140000Y-4940000D02*
X2160000Y-4960000D01*
X2160000Y-4940000D02*
X2140000Y-4960000D01*
X2140000Y-5040000D02*
X2160000Y-5060000D01*
X2160000Y-5040000D02*
X2140000Y-5060000D01*
X2140000Y-5140000D02*
X2160000Y-5160000D01*
X2160000Y-5140000D02*
X2140000Y-5160000D01*
X2140000Y-5240000D02*
X2160000Y-5260000D01*
X2160000Y-5240000D02*
X2140000Y-5260000D01*
X2140000Y-5340000D02*
X2160000Y-5360000D01*
X2160000Y-5340000D02*
X2140000Y-5360000D01*
X2140000Y-5440000D02*
X2160000Y-5460000D01*
X2160000Y-5440000D02*
X2140000Y-5460000D01*
X2140000Y-5540000D02*
X2160000Y-5560000D01*
X2160000Y-5540000D02*
X2140000Y-5560000D01*
X2140000Y-5640000D02*
X2160000Y-5660000D01*
X2160000Y-5640000D02*
X2140000Y-5660000D01*
X2140000Y-5740000D02*
X2160000Y-5760000D01*
X2160000Y-5740000D02*
X2140000Y-5760000D01*
X2140000Y-5840000D02*
X2160000Y-5860000D01*
X2160000Y-5840000D02*
X2140000Y-5860000D01*
X2140000Y-5940000D02*
X2160000Y-5960000D01*
X2160000Y-5940000D02*
X2140000Y-5960000D01*
X2140000Y-6040000D02*
X2160000Y-6060000D01*
X2160000Y-6040000D02*
X2140000Y-6060000D01*
X2140000Y-6140000D02*
X2160000Y-6160000D01*
X2160000Y-6140000D02*
X2140000Y-6160000D01*
X2140000Y-6240000D02*
X2160000Y-6260000D01*
X2160000Y-6240000D02*
X2140000Y-6260000D01*
X2140000Y-12140000D02*
X2160000Y-12160000D01*
X2160000Y-12140000D02*
X2140000Y-12160000D01*
X2174400Y-7660800D02*
X2194400Y-7680800D01*
X2194400Y-7660800D02*
X2174400Y-7680800D01*
X2190000Y-3690000D02*
X2210000Y-3710000D01*
X2210000Y-3690000D02*
X2190000Y-3710000D01*
X2190000Y-3740000D02*
X2210000Y-3760000D01*
X2210000Y-3740000D02*
X2190000Y-3760000D01*
X2190000Y-3790000D02*
X2210000Y-3810000D01*
X2210000Y-3790000D02*
X2190000Y-3810000D01*
X2190000Y-3840000D02*
X2210000Y-3860000D01*
X2210000Y-3840000D02*
X2190000Y-3860000D01*
X2190000Y-3890000D02*
X2210000Y-3910000D01*
X2210000Y-3890000D02*
X2190000Y-3910000D01*
X2225200Y-6492400D02*
X2245200Y-6512400D01*
X2245200Y-6492400D02*
X2225200Y-6512400D01*
X2240000Y-2040000D02*
X2260000Y-2060000D01*
X2260000Y-2040000D02*
X2240000Y-2060000D01*
X2240000Y-3690000D02*
X2260000Y-3710000D01*
X2260000Y-3690000D02*
X2240000Y-3710000D01*
X2240000Y-3740000D02*
X2260000Y-3760000D01*
X2260000Y-3740000D02*
X2240000Y-3760000D01*
X2240000Y-3790000D02*
X2260000Y-3810000D01*
X2260000Y-3790000D02*
X2240000Y-3810000D01*
X2240000Y-3840000D02*
X2260000Y-3860000D01*
X2260000Y-3840000D02*
X2240000Y-3860000D01*
X2240000Y-3890000D02*
X2260000Y-3910000D01*
X2260000Y-3890000D02*
X2240000Y-3910000D01*
X2240000Y-4040000D02*
X2260000Y-4060000D01*
X2260000Y-4040000D02*
X2240000Y-4060000D01*
X2240000Y-4540000D02*
X2260000Y-4560000D01*
X2260000Y-4540000D02*
X2240000Y-4560000D01*
X2240000Y-4640000D02*
X2260000Y-4660000D01*
X2260000Y-4640000D02*
X2240000Y-4660000D01*
X2240000Y-4740000D02*
X2260000Y-4760000D01*
X2260000Y-4740000D02*
X2240000Y-4760000D01*
X2240000Y-4840000D02*
X2260000Y-4860000D01*
X2260000Y-4840000D02*
X2240000Y-4860000D01*
X2240000Y-4940000D02*
X2260000Y-4960000D01*
X2260000Y-4940000D02*
X2240000Y-4960000D01*
X2240000Y-5040000D02*
X2260000Y-5060000D01*
X2260000Y-5040000D02*
X2240000Y-5060000D01*
X2240000Y-5140000D02*
X2260000Y-5160000D01*
X2260000Y-5140000D02*
X2240000Y-5160000D01*
X2240000Y-5240000D02*
X2260000Y-5260000D01*
X2260000Y-5240000D02*
X2240000Y-5260000D01*
X2240000Y-5340000D02*
X2260000Y-5360000D01*
X2260000Y-5340000D02*
X2240000Y-5360000D01*
X2240000Y-5440000D02*
X2260000Y-5460000D01*
X2260000Y-5440000D02*
X2240000Y-5460000D01*
X2240000Y-5540000D02*
X2260000Y-5560000D01*
X2260000Y-5540000D02*
X2240000Y-5560000D01*
X2240000Y-5640000D02*
X2260000Y-5660000D01*
X2260000Y-5640000D02*
X2240000Y-5660000D01*
X2240000Y-5740000D02*
X2260000Y-5760000D01*
X2260000Y-5740000D02*
X2240000Y-5760000D01*
X2240000Y-5840000D02*
X2260000Y-5860000D01*
X2260000Y-5840000D02*
X2240000Y-5860000D01*
X2240000Y-5940000D02*
X2260000Y-5960000D01*
X2260000Y-5940000D02*
X2240000Y-5960000D01*
X2240000Y-6040000D02*
X2260000Y-6060000D01*
X2260000Y-6040000D02*
X2240000Y-6060000D01*
X2240000Y-6140000D02*
X2260000Y-6160000D01*
X2260000Y-6140000D02*
X2240000Y-6160000D01*
X2240000Y-6240000D02*
X2260000Y-6260000D01*
X2260000Y-6240000D02*
X2240000Y-6260000D01*
X2240000Y-12140000D02*
X2260000Y-12160000D01*
X2260000Y-12140000D02*
X2240000Y-12160000D01*
X2276000Y-7660800D02*
X2296000Y-7680800D01*
X2296000Y-7660800D02*
X2276000Y-7680800D01*
X2290000Y-3690000D02*
X2310000Y-3710000D01*
X2310000Y-3690000D02*
X2290000Y-3710000D01*
X2290000Y-3740000D02*
X2310000Y-3760000D01*
X2310000Y-3740000D02*
X2290000Y-3760000D01*
X2290000Y-3790000D02*
X2310000Y-3810000D01*
X2310000Y-3790000D02*
X2290000Y-3810000D01*
X2290000Y-3840000D02*
X2310000Y-3860000D01*
X2310000Y-3840000D02*
X2290000Y-3860000D01*
X2290000Y-3890000D02*
X2310000Y-3910000D01*
X2310000Y-3890000D02*
X2290000Y-3910000D01*
X2326800Y-6492400D02*
X2346800Y-6512400D01*
X2346800Y-6492400D02*
X2326800Y-6512400D01*
X2340000Y-2040000D02*
X2360000Y-2060000D01*
X2360000Y-2040000D02*
X2340000Y-2060000D01*
X2340000Y-3690000D02*
X2360000Y-3710000D01*
X2360000Y-3690000D02*
X2340000Y-3710000D01*
X2340000Y-3740000D02*
X2360000Y-3760000D01*
X2360000Y-3740000D02*
X2340000Y-3760000D01*
X2340000Y-3790000D02*
X2360000Y-3810000D01*
X2360000Y-3790000D02*
X2340000Y-3810000D01*
X2340000Y-3840000D02*
X2360000Y-3860000D01*
X2360000Y-3840000D02*
X2340000Y-3860000D01*
X2340000Y-3890000D02*
X2360000Y-3910000D01*
X2360000Y-3890000D02*
X2340000Y-3910000D01*
X2340000Y-4040000D02*
X2360000Y-4060000D01*
X2360000Y-4040000D02*
X2340000Y-4060000D01*
X2340000Y-4540000D02*
X2360000Y-4560000D01*
X2360000Y-4540000D02*
X2340000Y-4560000D01*
X2340000Y-4640000D02*
X2360000Y-4660000D01*
X2360000Y-4640000D02*
X2340000Y-4660000D01*
X2340000Y-4740000D02*
X2360000Y-4760000D01*
X2360000Y-4740000D02*
X2340000Y-4760000D01*
X2340000Y-4840000D02*
X2360000Y-4860000D01*
X2360000Y-4840000D02*
X2340000Y-4860000D01*
X2340000Y-4940000D02*
X2360000Y-4960000D01*
X2360000Y-4940000D02*
X2340000Y-4960000D01*
X2340000Y-5040000D02*
X2360000Y-5060000D01*
X2360000Y-5040000D02*
X2340000Y-5060000D01*
X2340000Y-5140000D02*
X2360000Y-5160000D01*
X2360000Y-5140000D02*
X2340000Y-5160000D01*
X2340000Y-5240000D02*
X2360000Y-5260000D01*
X2360000Y-5240000D02*
X2340000Y-5260000D01*
X2340000Y-5340000D02*
X2360000Y-5360000D01*
X2360000Y-5340000D02*
X2340000Y-5360000D01*
X2340000Y-5440000D02*
X2360000Y-5460000D01*
X2360000Y-5440000D02*
X2340000Y-5460000D01*
X2340000Y-5540000D02*
X2360000Y-5560000D01*
X2360000Y-5540000D02*
X2340000Y-5560000D01*
X2340000Y-5640000D02*
X2360000Y-5660000D01*
X2360000Y-5640000D02*
X2340000Y-5660000D01*
X2340000Y-5740000D02*
X2360000Y-5760000D01*
X2360000Y-5740000D02*
X2340000Y-5760000D01*
X2340000Y-5840000D02*
X2360000Y-5860000D01*
X2360000Y-5840000D02*
X2340000Y-5860000D01*
X2340000Y-5940000D02*
X2360000Y-5960000D01*
X2360000Y-5940000D02*
X2340000Y-5960000D01*
X2340000Y-6040000D02*
X2360000Y-6060000D01*
X2360000Y-6040000D02*
X2340000Y-6060000D01*
X2340000Y-6140000D02*
X2360000Y-6160000D01*
X2360000Y-6140000D02*
X2340000Y-6160000D01*
X2340000Y-6240000D02*
X2360000Y-6260000D01*
X2360000Y-6240000D02*
X2340000Y-6260000D01*
X2340000Y-12140000D02*
X2360000Y-12160000D01*
X2360000Y-12140000D02*
X2340000Y-12160000D01*
X2370000Y-4420000D02*
X2390000Y-4440000D01*
X2390000Y-4420000D02*
X2370000Y-4440000D01*
X2377600Y-7660800D02*
X2397600Y-7680800D01*
X2397600Y-7660800D02*
X2377600Y-7680800D01*
X2381410Y-8929530D02*
X2401410Y-8949530D01*
X2401410Y-8929530D02*
X2381410Y-8949530D01*
X2385000Y-3185000D02*
X2405000Y-3205000D01*
X2405000Y-3185000D02*
X2385000Y-3205000D01*
X2390000Y-3690000D02*
X2410000Y-3710000D01*
X2410000Y-3690000D02*
X2390000Y-3710000D01*
X2390000Y-3740000D02*
X2410000Y-3760000D01*
X2410000Y-3740000D02*
X2390000Y-3760000D01*
X2390000Y-3790000D02*
X2410000Y-3810000D01*
X2410000Y-3790000D02*
X2390000Y-3810000D01*
X2390000Y-3840000D02*
X2410000Y-3860000D01*
X2410000Y-3840000D02*
X2390000Y-3860000D01*
X2390000Y-3890000D02*
X2410000Y-3910000D01*
X2410000Y-3890000D02*
X2390000Y-3910000D01*
X2425000Y-3225000D02*
X2445000Y-3245000D01*
X2445000Y-3225000D02*
X2425000Y-3245000D01*
X2428400Y-6492400D02*
X2448400Y-6512400D01*
X2448400Y-6492400D02*
X2428400Y-6512400D01*
X2440000Y-2040000D02*
X2460000Y-2060000D01*
X2460000Y-2040000D02*
X2440000Y-2060000D01*
X2440000Y-3690000D02*
X2460000Y-3710000D01*
X2460000Y-3690000D02*
X2440000Y-3710000D01*
X2440000Y-3740000D02*
X2460000Y-3760000D01*
X2460000Y-3740000D02*
X2440000Y-3760000D01*
X2440000Y-3790000D02*
X2460000Y-3810000D01*
X2460000Y-3790000D02*
X2440000Y-3810000D01*
X2440000Y-3840000D02*
X2460000Y-3860000D01*
X2460000Y-3840000D02*
X2440000Y-3860000D01*
X2440000Y-3890000D02*
X2460000Y-3910000D01*
X2460000Y-3890000D02*
X2440000Y-3910000D01*
X2440000Y-4040000D02*
X2460000Y-4060000D01*
X2460000Y-4040000D02*
X2440000Y-4060000D01*
X2440000Y-4540000D02*
X2460000Y-4560000D01*
X2460000Y-4540000D02*
X2440000Y-4560000D01*
X2440000Y-4640000D02*
X2460000Y-4660000D01*
X2460000Y-4640000D02*
X2440000Y-4660000D01*
X2440000Y-4740000D02*
X2460000Y-4760000D01*
X2460000Y-4740000D02*
X2440000Y-4760000D01*
X2440000Y-4840000D02*
X2460000Y-4860000D01*
X2460000Y-4840000D02*
X2440000Y-4860000D01*
X2440000Y-4940000D02*
X2460000Y-4960000D01*
X2460000Y-4940000D02*
X2440000Y-4960000D01*
X2440000Y-5040000D02*
X2460000Y-5060000D01*
X2460000Y-5040000D02*
X2440000Y-5060000D01*
X2440000Y-5140000D02*
X2460000Y-5160000D01*
X2460000Y-5140000D02*
X2440000Y-5160000D01*
X2440000Y-5240000D02*
X2460000Y-5260000D01*
X2460000Y-5240000D02*
X2440000Y-5260000D01*
X2440000Y-5340000D02*
X2460000Y-5360000D01*
X2460000Y-5340000D02*
X2440000Y-5360000D01*
X2440000Y-5440000D02*
X2460000Y-5460000D01*
X2460000Y-5440000D02*
X2440000Y-5460000D01*
X2440000Y-5540000D02*
X2460000Y-5560000D01*
X2460000Y-5540000D02*
X2440000Y-5560000D01*
X2440000Y-5640000D02*
X2460000Y-5660000D01*
X2460000Y-5640000D02*
X2440000Y-5660000D01*
X2440000Y-5740000D02*
X2460000Y-5760000D01*
X2460000Y-5740000D02*
X2440000Y-5760000D01*
X2440000Y-5840000D02*
X2460000Y-5860000D01*
X2460000Y-5840000D02*
X2440000Y-5860000D01*
X2440000Y-5940000D02*
X2460000Y-5960000D01*
X2460000Y-5940000D02*
X2440000Y-5960000D01*
X2440000Y-6040000D02*
X2460000Y-6060000D01*
X2460000Y-6040000D02*
X2440000Y-6060000D01*
X2440000Y-6140000D02*
X2460000Y-6160000D01*
X2460000Y-6140000D02*
X2440000Y-6160000D01*
X2440000Y-6240000D02*
X2460000Y-6260000D01*
X2460000Y-6240000D02*
X2440000Y-6260000D01*
X2440000Y-12140000D02*
X2460000Y-12160000D01*
X2460000Y-12140000D02*
X2440000Y-12160000D01*
X2460000Y-3260000D02*
X2480000Y-3280000D01*
X2480000Y-3260000D02*
X2460000Y-3280000D01*
X2479200Y-7660800D02*
X2499200Y-7680800D01*
X2499200Y-7660800D02*
X2479200Y-7680800D01*
X2489360Y-10772300D02*
X2509360Y-10792300D01*
X2509360Y-10772300D02*
X2489360Y-10792300D01*
X2490000Y-3690000D02*
X2510000Y-3710000D01*
X2510000Y-3690000D02*
X2490000Y-3710000D01*
X2490000Y-3740000D02*
X2510000Y-3760000D01*
X2510000Y-3740000D02*
X2490000Y-3760000D01*
X2490000Y-3790000D02*
X2510000Y-3810000D01*
X2510000Y-3790000D02*
X2490000Y-3810000D01*
X2490000Y-3840000D02*
X2510000Y-3860000D01*
X2510000Y-3840000D02*
X2490000Y-3860000D01*
X2490000Y-3890000D02*
X2510000Y-3910000D01*
X2510000Y-3890000D02*
X2490000Y-3910000D01*
X2530000Y-6492400D02*
X2550000Y-6512400D01*
X2550000Y-6492400D02*
X2530000Y-6512400D01*
X2540000Y-2040000D02*
X2560000Y-2060000D01*
X2560000Y-2040000D02*
X2540000Y-2060000D01*
X2540000Y-3690000D02*
X2560000Y-3710000D01*
X2560000Y-3690000D02*
X2540000Y-3710000D01*
X2540000Y-3740000D02*
X2560000Y-3760000D01*
X2560000Y-3740000D02*
X2540000Y-3760000D01*
X2540000Y-3790000D02*
X2560000Y-3810000D01*
X2560000Y-3790000D02*
X2540000Y-3810000D01*
X2540000Y-3840000D02*
X2560000Y-3860000D01*
X2560000Y-3840000D02*
X2540000Y-3860000D01*
X2540000Y-3890000D02*
X2560000Y-3910000D01*
X2560000Y-3890000D02*
X2540000Y-3910000D01*
X2540000Y-4540000D02*
X2560000Y-4560000D01*
X2560000Y-4540000D02*
X2540000Y-4560000D01*
X2540000Y-4640000D02*
X2560000Y-4660000D01*
X2560000Y-4640000D02*
X2540000Y-4660000D01*
X2540000Y-4740000D02*
X2560000Y-4760000D01*
X2560000Y-4740000D02*
X2540000Y-4760000D01*
X2540000Y-4840000D02*
X2560000Y-4860000D01*
X2560000Y-4840000D02*
X2540000Y-4860000D01*
X2540000Y-4940000D02*
X2560000Y-4960000D01*
X2560000Y-4940000D02*
X2540000Y-4960000D01*
X2540000Y-5040000D02*
X2560000Y-5060000D01*
X2560000Y-5040000D02*
X2540000Y-5060000D01*
X2540000Y-5140000D02*
X2560000Y-5160000D01*
X2560000Y-5140000D02*
X2540000Y-5160000D01*
X2540000Y-5240000D02*
X2560000Y-5260000D01*
X2560000Y-5240000D02*
X2540000Y-5260000D01*
X2540000Y-5340000D02*
X2560000Y-5360000D01*
X2560000Y-5340000D02*
X2540000Y-5360000D01*
X2540000Y-5440000D02*
X2560000Y-5460000D01*
X2560000Y-5440000D02*
X2540000Y-5460000D01*
X2540000Y-5540000D02*
X2560000Y-5560000D01*
X2560000Y-5540000D02*
X2540000Y-5560000D01*
X2540000Y-5640000D02*
X2560000Y-5660000D01*
X2560000Y-5640000D02*
X2540000Y-5660000D01*
X2540000Y-5740000D02*
X2560000Y-5760000D01*
X2560000Y-5740000D02*
X2540000Y-5760000D01*
X2540000Y-5840000D02*
X2560000Y-5860000D01*
X2560000Y-5840000D02*
X2540000Y-5860000D01*
X2540000Y-5940000D02*
X2560000Y-5960000D01*
X2560000Y-5940000D02*
X2540000Y-5960000D01*
X2540000Y-6040000D02*
X2560000Y-6060000D01*
X2560000Y-6040000D02*
X2540000Y-6060000D01*
X2540000Y-6140000D02*
X2560000Y-6160000D01*
X2560000Y-6140000D02*
X2540000Y-6160000D01*
X2540000Y-6240000D02*
X2560000Y-6260000D01*
X2560000Y-6240000D02*
X2540000Y-6260000D01*
X2540000Y-12140000D02*
X2560000Y-12160000D01*
X2560000Y-12140000D02*
X2540000Y-12160000D01*
X2580800Y-7660800D02*
X2600800Y-7680800D01*
X2600800Y-7660800D02*
X2580800Y-7680800D01*
X2590000Y-3690000D02*
X2610000Y-3710000D01*
X2610000Y-3690000D02*
X2590000Y-3710000D01*
X2590000Y-3740000D02*
X2610000Y-3760000D01*
X2610000Y-3740000D02*
X2590000Y-3760000D01*
X2590000Y-3790000D02*
X2610000Y-3810000D01*
X2610000Y-3790000D02*
X2590000Y-3810000D01*
X2590000Y-3840000D02*
X2610000Y-3860000D01*
X2610000Y-3840000D02*
X2590000Y-3860000D01*
X2590000Y-3890000D02*
X2610000Y-3910000D01*
X2610000Y-3890000D02*
X2590000Y-3910000D01*
X2631600Y-6492400D02*
X2651600Y-6512400D01*
X2651600Y-6492400D02*
X2631600Y-6512400D01*
X2631600Y-6492400D02*
X2651600Y-6512400D01*
X2651600Y-6492400D02*
X2631600Y-6512400D01*
X2640000Y-2040000D02*
X2660000Y-2060000D01*
X2660000Y-2040000D02*
X2640000Y-2060000D01*
X2640000Y-3690000D02*
X2660000Y-3710000D01*
X2660000Y-3690000D02*
X2640000Y-3710000D01*
X2640000Y-3740000D02*
X2660000Y-3760000D01*
X2660000Y-3740000D02*
X2640000Y-3760000D01*
X2640000Y-3790000D02*
X2660000Y-3810000D01*
X2660000Y-3790000D02*
X2640000Y-3810000D01*
X2640000Y-3840000D02*
X2660000Y-3860000D01*
X2660000Y-3840000D02*
X2640000Y-3860000D01*
X2640000Y-3890000D02*
X2660000Y-3910000D01*
X2660000Y-3890000D02*
X2640000Y-3910000D01*
X2640000Y-4540000D02*
X2660000Y-4560000D01*
X2660000Y-4540000D02*
X2640000Y-4560000D01*
X2640000Y-4640000D02*
X2660000Y-4660000D01*
X2660000Y-4640000D02*
X2640000Y-4660000D01*
X2640000Y-4740000D02*
X2660000Y-4760000D01*
X2660000Y-4740000D02*
X2640000Y-4760000D01*
X2640000Y-4840000D02*
X2660000Y-4860000D01*
X2660000Y-4840000D02*
X2640000Y-4860000D01*
X2640000Y-4940000D02*
X2660000Y-4960000D01*
X2660000Y-4940000D02*
X2640000Y-4960000D01*
X2640000Y-5040000D02*
X2660000Y-5060000D01*
X2660000Y-5040000D02*
X2640000Y-5060000D01*
X2640000Y-5140000D02*
X2660000Y-5160000D01*
X2660000Y-5140000D02*
X2640000Y-5160000D01*
X2640000Y-5240000D02*
X2660000Y-5260000D01*
X2660000Y-5240000D02*
X2640000Y-5260000D01*
X2640000Y-5340000D02*
X2660000Y-5360000D01*
X2660000Y-5340000D02*
X2640000Y-5360000D01*
X2640000Y-5440000D02*
X2660000Y-5460000D01*
X2660000Y-5440000D02*
X2640000Y-5460000D01*
X2640000Y-5540000D02*
X2660000Y-5560000D01*
X2660000Y-5540000D02*
X2640000Y-5560000D01*
X2640000Y-5640000D02*
X2660000Y-5660000D01*
X2660000Y-5640000D02*
X2640000Y-5660000D01*
X2640000Y-5740000D02*
X2660000Y-5760000D01*
X2660000Y-5740000D02*
X2640000Y-5760000D01*
X2640000Y-5840000D02*
X2660000Y-5860000D01*
X2660000Y-5840000D02*
X2640000Y-5860000D01*
X2640000Y-5940000D02*
X2660000Y-5960000D01*
X2660000Y-5940000D02*
X2640000Y-5960000D01*
X2640000Y-6040000D02*
X2660000Y-6060000D01*
X2660000Y-6040000D02*
X2640000Y-6060000D01*
X2640000Y-6140000D02*
X2660000Y-6160000D01*
X2660000Y-6140000D02*
X2640000Y-6160000D01*
X2640000Y-6240000D02*
X2660000Y-6260000D01*
X2660000Y-6240000D02*
X2640000Y-6260000D01*
X2640000Y-12140000D02*
X2660000Y-12160000D01*
X2660000Y-12140000D02*
X2640000Y-12160000D01*
X2682400Y-7660800D02*
X2702400Y-7680800D01*
X2702400Y-7660800D02*
X2682400Y-7680800D01*
X2709070Y-11685430D02*
X2729070Y-11705430D01*
X2729070Y-11685430D02*
X2709070Y-11705430D01*
X2733200Y-6543200D02*
X2753200Y-6563200D01*
X2753200Y-6543200D02*
X2733200Y-6563200D01*
X2740000Y-2040000D02*
X2760000Y-2060000D01*
X2760000Y-2040000D02*
X2740000Y-2060000D01*
X2740000Y-4040000D02*
X2760000Y-4060000D01*
X2760000Y-4040000D02*
X2740000Y-4060000D01*
X2740000Y-4540000D02*
X2760000Y-4560000D01*
X2760000Y-4540000D02*
X2740000Y-4560000D01*
X2740000Y-4640000D02*
X2760000Y-4660000D01*
X2760000Y-4640000D02*
X2740000Y-4660000D01*
X2740000Y-4740000D02*
X2760000Y-4760000D01*
X2760000Y-4740000D02*
X2740000Y-4760000D01*
X2740000Y-4840000D02*
X2760000Y-4860000D01*
X2760000Y-4840000D02*
X2740000Y-4860000D01*
X2740000Y-4940000D02*
X2760000Y-4960000D01*
X2760000Y-4940000D02*
X2740000Y-4960000D01*
X2740000Y-5040000D02*
X2760000Y-5060000D01*
X2760000Y-5040000D02*
X2740000Y-5060000D01*
X2740000Y-5140000D02*
X2760000Y-5160000D01*
X2760000Y-5140000D02*
X2740000Y-5160000D01*
X2740000Y-5240000D02*
X2760000Y-5260000D01*
X2760000Y-5240000D02*
X2740000Y-5260000D01*
X2740000Y-5340000D02*
X2760000Y-5360000D01*
X2760000Y-5340000D02*
X2740000Y-5360000D01*
X2740000Y-5440000D02*
X2760000Y-5460000D01*
X2760000Y-5440000D02*
X2740000Y-5460000D01*
X2740000Y-5540000D02*
X2760000Y-5560000D01*
X2760000Y-5540000D02*
X2740000Y-5560000D01*
X2740000Y-5640000D02*
X2760000Y-5660000D01*
X2760000Y-5640000D02*
X2740000Y-5660000D01*
X2740000Y-5740000D02*
X2760000Y-5760000D01*
X2760000Y-5740000D02*
X2740000Y-5760000D01*
X2740000Y-5840000D02*
X2760000Y-5860000D01*
X2760000Y-5840000D02*
X2740000Y-5860000D01*
X2740000Y-5940000D02*
X2760000Y-5960000D01*
X2760000Y-5940000D02*
X2740000Y-5960000D01*
X2740000Y-6040000D02*
X2760000Y-6060000D01*
X2760000Y-6040000D02*
X2740000Y-6060000D01*
X2740000Y-6140000D02*
X2760000Y-6160000D01*
X2760000Y-6140000D02*
X2740000Y-6160000D01*
X2740000Y-6240000D02*
X2760000Y-6260000D01*
X2760000Y-6240000D02*
X2740000Y-6260000D01*
X2740000Y-12140000D02*
X2760000Y-12160000D01*
X2760000Y-12140000D02*
X2740000Y-12160000D01*
X2784000Y-7610000D02*
X2804000Y-7630000D01*
X2804000Y-7610000D02*
X2784000Y-7630000D01*
X2834800Y-6594000D02*
X2854800Y-6614000D01*
X2854800Y-6594000D02*
X2834800Y-6614000D01*
X2840000Y-2040000D02*
X2860000Y-2060000D01*
X2860000Y-2040000D02*
X2840000Y-2060000D01*
X2840000Y-4040000D02*
X2860000Y-4060000D01*
X2860000Y-4040000D02*
X2840000Y-4060000D01*
X2840000Y-4540000D02*
X2860000Y-4560000D01*
X2860000Y-4540000D02*
X2840000Y-4560000D01*
X2840000Y-4640000D02*
X2860000Y-4660000D01*
X2860000Y-4640000D02*
X2840000Y-4660000D01*
X2840000Y-4740000D02*
X2860000Y-4760000D01*
X2860000Y-4740000D02*
X2840000Y-4760000D01*
X2840000Y-4840000D02*
X2860000Y-4860000D01*
X2860000Y-4840000D02*
X2840000Y-4860000D01*
X2840000Y-4940000D02*
X2860000Y-4960000D01*
X2860000Y-4940000D02*
X2840000Y-4960000D01*
X2840000Y-5040000D02*
X2860000Y-5060000D01*
X2860000Y-5040000D02*
X2840000Y-5060000D01*
X2840000Y-5140000D02*
X2860000Y-5160000D01*
X2860000Y-5140000D02*
X2840000Y-5160000D01*
X2840000Y-5240000D02*
X2860000Y-5260000D01*
X2860000Y-5240000D02*
X2840000Y-5260000D01*
X2840000Y-5340000D02*
X2860000Y-5360000D01*
X2860000Y-5340000D02*
X2840000Y-5360000D01*
X2840000Y-5440000D02*
X2860000Y-5460000D01*
X2860000Y-5440000D02*
X2840000Y-5460000D01*
X2840000Y-5540000D02*
X2860000Y-5560000D01*
X2860000Y-5540000D02*
X2840000Y-5560000D01*
X2840000Y-5640000D02*
X2860000Y-5660000D01*
X2860000Y-5640000D02*
X2840000Y-5660000D01*
X2840000Y-5740000D02*
X2860000Y-5760000D01*
X2860000Y-5740000D02*
X2840000Y-5760000D01*
X2840000Y-5840000D02*
X2860000Y-5860000D01*
X2860000Y-5840000D02*
X2840000Y-5860000D01*
X2840000Y-5940000D02*
X2860000Y-5960000D01*
X2860000Y-5940000D02*
X2840000Y-5960000D01*
X2840000Y-6040000D02*
X2860000Y-6060000D01*
X2860000Y-6040000D02*
X2840000Y-6060000D01*
X2840000Y-6140000D02*
X2860000Y-6160000D01*
X2860000Y-6140000D02*
X2840000Y-6160000D01*
X2840000Y-6240000D02*
X2860000Y-6260000D01*
X2860000Y-6240000D02*
X2840000Y-6260000D01*
X2840000Y-12140000D02*
X2860000Y-12160000D01*
X2860000Y-12140000D02*
X2840000Y-12160000D01*
X2846060Y-4384520D02*
X2866060Y-4404520D01*
X2866060Y-4384520D02*
X2846060Y-4404520D01*
X2846060Y-4460720D02*
X2866060Y-4480720D01*
X2866060Y-4460720D02*
X2846060Y-4480720D01*
X2870360Y-10404000D02*
X2890360Y-10424000D01*
X2890360Y-10404000D02*
X2870360Y-10424000D01*
X2885600Y-7559200D02*
X2905600Y-7579200D01*
X2905600Y-7559200D02*
X2885600Y-7579200D01*
X2932320Y-4384620D02*
X2952320Y-4404620D01*
X2952320Y-4384620D02*
X2932320Y-4404620D01*
X2936400Y-6695600D02*
X2956400Y-6715600D01*
X2956400Y-6695600D02*
X2936400Y-6715600D01*
X2940000Y-2040000D02*
X2960000Y-2060000D01*
X2960000Y-2040000D02*
X2940000Y-2060000D01*
X2940000Y-4040000D02*
X2960000Y-4060000D01*
X2960000Y-4040000D02*
X2940000Y-4060000D01*
X2940000Y-4540000D02*
X2960000Y-4560000D01*
X2960000Y-4540000D02*
X2940000Y-4560000D01*
X2940000Y-4640000D02*
X2960000Y-4660000D01*
X2960000Y-4640000D02*
X2940000Y-4660000D01*
X2940000Y-4740000D02*
X2960000Y-4760000D01*
X2960000Y-4740000D02*
X2940000Y-4760000D01*
X2940000Y-4840000D02*
X2960000Y-4860000D01*
X2960000Y-4840000D02*
X2940000Y-4860000D01*
X2940000Y-4940000D02*
X2960000Y-4960000D01*
X2960000Y-4940000D02*
X2940000Y-4960000D01*
X2940000Y-5040000D02*
X2960000Y-5060000D01*
X2960000Y-5040000D02*
X2940000Y-5060000D01*
X2940000Y-5140000D02*
X2960000Y-5160000D01*
X2960000Y-5140000D02*
X2940000Y-5160000D01*
X2940000Y-5240000D02*
X2960000Y-5260000D01*
X2960000Y-5240000D02*
X2940000Y-5260000D01*
X2940000Y-5340000D02*
X2960000Y-5360000D01*
X2960000Y-5340000D02*
X2940000Y-5360000D01*
X2940000Y-5440000D02*
X2960000Y-5460000D01*
X2960000Y-5440000D02*
X2940000Y-5460000D01*
X2940000Y-5540000D02*
X2960000Y-5560000D01*
X2960000Y-5540000D02*
X2940000Y-5560000D01*
X2940000Y-5640000D02*
X2960000Y-5660000D01*
X2960000Y-5640000D02*
X2940000Y-5660000D01*
X2940000Y-5740000D02*
X2960000Y-5760000D01*
X2960000Y-5740000D02*
X2940000Y-5760000D01*
X2940000Y-5840000D02*
X2960000Y-5860000D01*
X2960000Y-5840000D02*
X2940000Y-5860000D01*
X2940000Y-5940000D02*
X2960000Y-5960000D01*
X2960000Y-5940000D02*
X2940000Y-5960000D01*
X2940000Y-6040000D02*
X2960000Y-6060000D01*
X2960000Y-6040000D02*
X2940000Y-6060000D01*
X2940000Y-6140000D02*
X2960000Y-6160000D01*
X2960000Y-6140000D02*
X2940000Y-6160000D01*
X2940000Y-6240000D02*
X2960000Y-6260000D01*
X2960000Y-6240000D02*
X2940000Y-6260000D01*
X2940000Y-12140000D02*
X2960000Y-12160000D01*
X2960000Y-12140000D02*
X2940000Y-12160000D01*
X2966880Y-11695590D02*
X2986880Y-11715590D01*
X2986880Y-11695590D02*
X2966880Y-11715590D01*
X2987200Y-7457600D02*
X3007200Y-7477600D01*
X3007200Y-7457600D02*
X2987200Y-7477600D01*
X2998360Y-4384620D02*
X3018360Y-4404620D01*
X3018360Y-4384620D02*
X2998360Y-4404620D01*
X3038000Y-6797200D02*
X3058000Y-6817200D01*
X3058000Y-6797200D02*
X3038000Y-6817200D01*
X3038000Y-7356000D02*
X3058000Y-7376000D01*
X3058000Y-7356000D02*
X3038000Y-7376000D01*
X3040000Y-2040000D02*
X3060000Y-2060000D01*
X3060000Y-2040000D02*
X3040000Y-2060000D01*
X3040000Y-4040000D02*
X3060000Y-4060000D01*
X3060000Y-4040000D02*
X3040000Y-4060000D01*
X3040000Y-4540000D02*
X3060000Y-4560000D01*
X3060000Y-4540000D02*
X3040000Y-4560000D01*
X3040000Y-4640000D02*
X3060000Y-4660000D01*
X3060000Y-4640000D02*
X3040000Y-4660000D01*
X3040000Y-4740000D02*
X3060000Y-4760000D01*
X3060000Y-4740000D02*
X3040000Y-4760000D01*
X3040000Y-4840000D02*
X3060000Y-4860000D01*
X3060000Y-4840000D02*
X3040000Y-4860000D01*
X3040000Y-4940000D02*
X3060000Y-4960000D01*
X3060000Y-4940000D02*
X3040000Y-4960000D01*
X3040000Y-5040000D02*
X3060000Y-5060000D01*
X3060000Y-5040000D02*
X3040000Y-5060000D01*
X3040000Y-5140000D02*
X3060000Y-5160000D01*
X3060000Y-5140000D02*
X3040000Y-5160000D01*
X3040000Y-5240000D02*
X3060000Y-5260000D01*
X3060000Y-5240000D02*
X3040000Y-5260000D01*
X3040000Y-5340000D02*
X3060000Y-5360000D01*
X3060000Y-5340000D02*
X3040000Y-5360000D01*
X3040000Y-5440000D02*
X3060000Y-5460000D01*
X3060000Y-5440000D02*
X3040000Y-5460000D01*
X3040000Y-5540000D02*
X3060000Y-5560000D01*
X3060000Y-5540000D02*
X3040000Y-5560000D01*
X3040000Y-5640000D02*
X3060000Y-5660000D01*
X3060000Y-5640000D02*
X3040000Y-5660000D01*
X3040000Y-5740000D02*
X3060000Y-5760000D01*
X3060000Y-5740000D02*
X3040000Y-5760000D01*
X3040000Y-5840000D02*
X3060000Y-5860000D01*
X3060000Y-5840000D02*
X3040000Y-5860000D01*
X3040000Y-5940000D02*
X3060000Y-5960000D01*
X3060000Y-5940000D02*
X3040000Y-5960000D01*
X3040000Y-6040000D02*
X3060000Y-6060000D01*
X3060000Y-6040000D02*
X3040000Y-6060000D01*
X3040000Y-6140000D02*
X3060000Y-6160000D01*
X3060000Y-6140000D02*
X3040000Y-6160000D01*
X3040000Y-6240000D02*
X3060000Y-6260000D01*
X3060000Y-6240000D02*
X3040000Y-6260000D01*
X3040000Y-12140000D02*
X3060000Y-12160000D01*
X3060000Y-12140000D02*
X3040000Y-12160000D01*
X3069480Y-4384620D02*
X3089480Y-4404620D01*
X3089480Y-4384620D02*
X3069480Y-4404620D01*
X3088800Y-6898800D02*
X3108800Y-6918800D01*
X3108800Y-6898800D02*
X3088800Y-6918800D01*
X3088800Y-7254400D02*
X3108800Y-7274400D01*
X3108800Y-7254400D02*
X3088800Y-7274400D01*
X3135520Y-4384620D02*
X3155520Y-4404620D01*
X3155520Y-4384620D02*
X3135520Y-4404620D01*
X3139600Y-7000400D02*
X3159600Y-7020400D01*
X3159600Y-7000400D02*
X3139600Y-7020400D01*
X3139600Y-7102000D02*
X3159600Y-7122000D01*
X3159600Y-7102000D02*
X3139600Y-7122000D01*
X3140000Y-2040000D02*
X3160000Y-2060000D01*
X3160000Y-2040000D02*
X3140000Y-2060000D01*
X3140000Y-4040000D02*
X3160000Y-4060000D01*
X3160000Y-4040000D02*
X3140000Y-4060000D01*
X3140000Y-4540000D02*
X3160000Y-4560000D01*
X3160000Y-4540000D02*
X3140000Y-4560000D01*
X3140000Y-4640000D02*
X3160000Y-4660000D01*
X3160000Y-4640000D02*
X3140000Y-4660000D01*
X3140000Y-4740000D02*
X3160000Y-4760000D01*
X3160000Y-4740000D02*
X3140000Y-4760000D01*
X3140000Y-4840000D02*
X3160000Y-4860000D01*
X3160000Y-4840000D02*
X3140000Y-4860000D01*
X3140000Y-4940000D02*
X3160000Y-4960000D01*
X3160000Y-4940000D02*
X3140000Y-4960000D01*
X3140000Y-5040000D02*
X3160000Y-5060000D01*
X3160000Y-5040000D02*
X3140000Y-5060000D01*
X3140000Y-5140000D02*
X3160000Y-5160000D01*
X3160000Y-5140000D02*
X3140000Y-5160000D01*
X3140000Y-5240000D02*
X3160000Y-5260000D01*
X3160000Y-5240000D02*
X3140000Y-5260000D01*
X3140000Y-5340000D02*
X3160000Y-5360000D01*
X3160000Y-5340000D02*
X3140000Y-5360000D01*
X3140000Y-5440000D02*
X3160000Y-5460000D01*
X3160000Y-5440000D02*
X3140000Y-5460000D01*
X3140000Y-5540000D02*
X3160000Y-5560000D01*
X3160000Y-5540000D02*
X3140000Y-5560000D01*
X3140000Y-5640000D02*
X3160000Y-5660000D01*
X3160000Y-5640000D02*
X3140000Y-5660000D01*
X3140000Y-5740000D02*
X3160000Y-5760000D01*
X3160000Y-5740000D02*
X3140000Y-5760000D01*
X3140000Y-5840000D02*
X3160000Y-5860000D01*
X3160000Y-5840000D02*
X3140000Y-5860000D01*
X3140000Y-5940000D02*
X3160000Y-5960000D01*
X3160000Y-5940000D02*
X3140000Y-5960000D01*
X3140000Y-6040000D02*
X3160000Y-6060000D01*
X3160000Y-6040000D02*
X3140000Y-6060000D01*
X3140000Y-6140000D02*
X3160000Y-6160000D01*
X3160000Y-6140000D02*
X3140000Y-6160000D01*
X3140000Y-6240000D02*
X3160000Y-6260000D01*
X3160000Y-6240000D02*
X3140000Y-6260000D01*
X3140000Y-12140000D02*
X3160000Y-12160000D01*
X3160000Y-12140000D02*
X3140000Y-12160000D01*
X3204100Y-4384620D02*
X3224100Y-4404620D01*
X3224100Y-4384620D02*
X3204100Y-4404620D01*
X3220000Y-4170000D02*
X3240000Y-4190000D01*
X3240000Y-4170000D02*
X3220000Y-4190000D01*
X3240000Y-2040000D02*
X3260000Y-2060000D01*
X3260000Y-2040000D02*
X3240000Y-2060000D01*
X3240000Y-4040000D02*
X3260000Y-4060000D01*
X3260000Y-4040000D02*
X3240000Y-4060000D01*
X3240000Y-4540000D02*
X3260000Y-4560000D01*
X3260000Y-4540000D02*
X3240000Y-4560000D01*
X3240000Y-4640000D02*
X3260000Y-4660000D01*
X3260000Y-4640000D02*
X3240000Y-4660000D01*
X3240000Y-4740000D02*
X3260000Y-4760000D01*
X3260000Y-4740000D02*
X3240000Y-4760000D01*
X3240000Y-4840000D02*
X3260000Y-4860000D01*
X3260000Y-4840000D02*
X3240000Y-4860000D01*
X3240000Y-4940000D02*
X3260000Y-4960000D01*
X3260000Y-4940000D02*
X3240000Y-4960000D01*
X3240000Y-5040000D02*
X3260000Y-5060000D01*
X3260000Y-5040000D02*
X3240000Y-5060000D01*
X3240000Y-5140000D02*
X3260000Y-5160000D01*
X3260000Y-5140000D02*
X3240000Y-5160000D01*
X3240000Y-5240000D02*
X3260000Y-5260000D01*
X3260000Y-5240000D02*
X3240000Y-5260000D01*
X3240000Y-5340000D02*
X3260000Y-5360000D01*
X3260000Y-5340000D02*
X3240000Y-5360000D01*
X3240000Y-5440000D02*
X3260000Y-5460000D01*
X3260000Y-5440000D02*
X3240000Y-5460000D01*
X3240000Y-5540000D02*
X3260000Y-5560000D01*
X3260000Y-5540000D02*
X3240000Y-5560000D01*
X3240000Y-5640000D02*
X3260000Y-5660000D01*
X3260000Y-5640000D02*
X3240000Y-5660000D01*
X3240000Y-5740000D02*
X3260000Y-5760000D01*
X3260000Y-5740000D02*
X3240000Y-5760000D01*
X3240000Y-5840000D02*
X3260000Y-5860000D01*
X3260000Y-5840000D02*
X3240000Y-5860000D01*
X3240000Y-5940000D02*
X3260000Y-5960000D01*
X3260000Y-5940000D02*
X3240000Y-5960000D01*
X3240000Y-6040000D02*
X3260000Y-6060000D01*
X3260000Y-6040000D02*
X3240000Y-6060000D01*
X3240000Y-6140000D02*
X3260000Y-6160000D01*
X3260000Y-6140000D02*
X3240000Y-6160000D01*
X3240000Y-6240000D02*
X3260000Y-6260000D01*
X3260000Y-6240000D02*
X3240000Y-6260000D01*
X3240000Y-12140000D02*
X3260000Y-12160000D01*
X3260000Y-12140000D02*
X3240000Y-12160000D01*
X3270140Y-4384620D02*
X3290140Y-4404620D01*
X3290140Y-4384620D02*
X3270140Y-4404620D01*
X3340000Y-2040000D02*
X3360000Y-2060000D01*
X3360000Y-2040000D02*
X3340000Y-2060000D01*
X3340000Y-4040000D02*
X3360000Y-4060000D01*
X3360000Y-4040000D02*
X3340000Y-4060000D01*
X3340000Y-4540000D02*
X3360000Y-4560000D01*
X3360000Y-4540000D02*
X3340000Y-4560000D01*
X3340000Y-4640000D02*
X3360000Y-4660000D01*
X3360000Y-4640000D02*
X3340000Y-4660000D01*
X3340000Y-4740000D02*
X3360000Y-4760000D01*
X3360000Y-4740000D02*
X3340000Y-4760000D01*
X3340000Y-4840000D02*
X3360000Y-4860000D01*
X3360000Y-4840000D02*
X3340000Y-4860000D01*
X3340000Y-4940000D02*
X3360000Y-4960000D01*
X3360000Y-4940000D02*
X3340000Y-4960000D01*
X3340000Y-5040000D02*
X3360000Y-5060000D01*
X3360000Y-5040000D02*
X3340000Y-5060000D01*
X3340000Y-5140000D02*
X3360000Y-5160000D01*
X3360000Y-5140000D02*
X3340000Y-5160000D01*
X3340000Y-5240000D02*
X3360000Y-5260000D01*
X3360000Y-5240000D02*
X3340000Y-5260000D01*
X3340000Y-5340000D02*
X3360000Y-5360000D01*
X3360000Y-5340000D02*
X3340000Y-5360000D01*
X3340000Y-5440000D02*
X3360000Y-5460000D01*
X3360000Y-5440000D02*
X3340000Y-5460000D01*
X3340000Y-5540000D02*
X3360000Y-5560000D01*
X3360000Y-5540000D02*
X3340000Y-5560000D01*
X3340000Y-5640000D02*
X3360000Y-5660000D01*
X3360000Y-5640000D02*
X3340000Y-5660000D01*
X3340000Y-5740000D02*
X3360000Y-5760000D01*
X3360000Y-5740000D02*
X3340000Y-5760000D01*
X3340000Y-5840000D02*
X3360000Y-5860000D01*
X3360000Y-5840000D02*
X3340000Y-5860000D01*
X3340000Y-5940000D02*
X3360000Y-5960000D01*
X3360000Y-5940000D02*
X3340000Y-5960000D01*
X3340000Y-6040000D02*
X3360000Y-6060000D01*
X3360000Y-6040000D02*
X3340000Y-6060000D01*
X3340000Y-6140000D02*
X3360000Y-6160000D01*
X3360000Y-6140000D02*
X3340000Y-6160000D01*
X3340000Y-6240000D02*
X3360000Y-6260000D01*
X3360000Y-6240000D02*
X3340000Y-6260000D01*
X3340000Y-12140000D02*
X3360000Y-12160000D01*
X3360000Y-12140000D02*
X3340000Y-12160000D01*
X3360000Y-3340000D02*
X3380000Y-3360000D01*
X3380000Y-3340000D02*
X3360000Y-3360000D01*
X3361000Y-3069000D02*
X3381000Y-3089000D01*
X3381000Y-3069000D02*
X3361000Y-3089000D01*
X3440000Y-2040000D02*
X3460000Y-2060000D01*
X3460000Y-2040000D02*
X3440000Y-2060000D01*
X3440000Y-4040000D02*
X3460000Y-4060000D01*
X3460000Y-4040000D02*
X3440000Y-4060000D01*
X3440000Y-4540000D02*
X3460000Y-4560000D01*
X3460000Y-4540000D02*
X3440000Y-4560000D01*
X3440000Y-4640000D02*
X3460000Y-4660000D01*
X3460000Y-4640000D02*
X3440000Y-4660000D01*
X3440000Y-4740000D02*
X3460000Y-4760000D01*
X3460000Y-4740000D02*
X3440000Y-4760000D01*
X3440000Y-4840000D02*
X3460000Y-4860000D01*
X3460000Y-4840000D02*
X3440000Y-4860000D01*
X3440000Y-4940000D02*
X3460000Y-4960000D01*
X3460000Y-4940000D02*
X3440000Y-4960000D01*
X3440000Y-5040000D02*
X3460000Y-5060000D01*
X3460000Y-5040000D02*
X3440000Y-5060000D01*
X3440000Y-5140000D02*
X3460000Y-5160000D01*
X3460000Y-5140000D02*
X3440000Y-5160000D01*
X3440000Y-5240000D02*
X3460000Y-5260000D01*
X3460000Y-5240000D02*
X3440000Y-5260000D01*
X3440000Y-5340000D02*
X3460000Y-5360000D01*
X3460000Y-5340000D02*
X3440000Y-5360000D01*
X3440000Y-5440000D02*
X3460000Y-5460000D01*
X3460000Y-5440000D02*
X3440000Y-5460000D01*
X3440000Y-5540000D02*
X3460000Y-5560000D01*
X3460000Y-5540000D02*
X3440000Y-5560000D01*
X3440000Y-5640000D02*
X3460000Y-5660000D01*
X3460000Y-5640000D02*
X3440000Y-5660000D01*
X3440000Y-5740000D02*
X3460000Y-5760000D01*
X3460000Y-5740000D02*
X3440000Y-5760000D01*
X3440000Y-5840000D02*
X3460000Y-5860000D01*
X3460000Y-5840000D02*
X3440000Y-5860000D01*
X3440000Y-5940000D02*
X3460000Y-5960000D01*
X3460000Y-5940000D02*
X3440000Y-5960000D01*
X3440000Y-6040000D02*
X3460000Y-6060000D01*
X3460000Y-6040000D02*
X3440000Y-6060000D01*
X3440000Y-6140000D02*
X3460000Y-6160000D01*
X3460000Y-6140000D02*
X3440000Y-6160000D01*
X3440000Y-6240000D02*
X3460000Y-6260000D01*
X3460000Y-6240000D02*
X3440000Y-6260000D01*
X3440000Y-12140000D02*
X3460000Y-12160000D01*
X3460000Y-12140000D02*
X3440000Y-12160000D01*
X3540000Y-2040000D02*
X3560000Y-2060000D01*
X3560000Y-2040000D02*
X3540000Y-2060000D01*
X3540000Y-4040000D02*
X3560000Y-4060000D01*
X3560000Y-4040000D02*
X3540000Y-4060000D01*
X3540000Y-4540000D02*
X3560000Y-4560000D01*
X3560000Y-4540000D02*
X3540000Y-4560000D01*
X3540000Y-4640000D02*
X3560000Y-4660000D01*
X3560000Y-4640000D02*
X3540000Y-4660000D01*
X3540000Y-4740000D02*
X3560000Y-4760000D01*
X3560000Y-4740000D02*
X3540000Y-4760000D01*
X3540000Y-4840000D02*
X3560000Y-4860000D01*
X3560000Y-4840000D02*
X3540000Y-4860000D01*
X3540000Y-4940000D02*
X3560000Y-4960000D01*
X3560000Y-4940000D02*
X3540000Y-4960000D01*
X3540000Y-5040000D02*
X3560000Y-5060000D01*
X3560000Y-5040000D02*
X3540000Y-5060000D01*
X3540000Y-5140000D02*
X3560000Y-5160000D01*
X3560000Y-5140000D02*
X3540000Y-5160000D01*
X3540000Y-5240000D02*
X3560000Y-5260000D01*
X3560000Y-5240000D02*
X3540000Y-5260000D01*
X3540000Y-5340000D02*
X3560000Y-5360000D01*
X3560000Y-5340000D02*
X3540000Y-5360000D01*
X3540000Y-5440000D02*
X3560000Y-5460000D01*
X3560000Y-5440000D02*
X3540000Y-5460000D01*
X3540000Y-5540000D02*
X3560000Y-5560000D01*
X3560000Y-5540000D02*
X3540000Y-5560000D01*
X3540000Y-5640000D02*
X3560000Y-5660000D01*
X3560000Y-5640000D02*
X3540000Y-5660000D01*
X3540000Y-5740000D02*
X3560000Y-5760000D01*
X3560000Y-5740000D02*
X3540000Y-5760000D01*
X3540000Y-5840000D02*
X3560000Y-5860000D01*
X3560000Y-5840000D02*
X3540000Y-5860000D01*
X3540000Y-5940000D02*
X3560000Y-5960000D01*
X3560000Y-5940000D02*
X3540000Y-5960000D01*
X3540000Y-6040000D02*
X3560000Y-6060000D01*
X3560000Y-6040000D02*
X3540000Y-6060000D01*
X3540000Y-6140000D02*
X3560000Y-6160000D01*
X3560000Y-6140000D02*
X3540000Y-6160000D01*
X3540000Y-6240000D02*
X3560000Y-6260000D01*
X3560000Y-6240000D02*
X3540000Y-6260000D01*
X3547000Y-2863000D02*
X3567000Y-2883000D01*
X3567000Y-2863000D02*
X3547000Y-2883000D01*
X3640000Y-2040000D02*
X3660000Y-2060000D01*
X3660000Y-2040000D02*
X3640000Y-2060000D01*
X3640000Y-4040000D02*
X3660000Y-4060000D01*
X3660000Y-4040000D02*
X3640000Y-4060000D01*
X3640000Y-4540000D02*
X3660000Y-4560000D01*
X3660000Y-4540000D02*
X3640000Y-4560000D01*
X3640000Y-4640000D02*
X3660000Y-4660000D01*
X3660000Y-4640000D02*
X3640000Y-4660000D01*
X3640000Y-4740000D02*
X3660000Y-4760000D01*
X3660000Y-4740000D02*
X3640000Y-4760000D01*
X3640000Y-4840000D02*
X3660000Y-4860000D01*
X3660000Y-4840000D02*
X3640000Y-4860000D01*
X3640000Y-4940000D02*
X3660000Y-4960000D01*
X3660000Y-4940000D02*
X3640000Y-4960000D01*
X3640000Y-5040000D02*
X3660000Y-5060000D01*
X3660000Y-5040000D02*
X3640000Y-5060000D01*
X3640000Y-5140000D02*
X3660000Y-5160000D01*
X3660000Y-5140000D02*
X3640000Y-5160000D01*
X3640000Y-5240000D02*
X3660000Y-5260000D01*
X3660000Y-5240000D02*
X3640000Y-5260000D01*
X3640000Y-5340000D02*
X3660000Y-5360000D01*
X3660000Y-5340000D02*
X3640000Y-5360000D01*
X3640000Y-5440000D02*
X3660000Y-5460000D01*
X3660000Y-5440000D02*
X3640000Y-5460000D01*
X3640000Y-5540000D02*
X3660000Y-5560000D01*
X3660000Y-5540000D02*
X3640000Y-5560000D01*
X3640000Y-5640000D02*
X3660000Y-5660000D01*
X3660000Y-5640000D02*
X3640000Y-5660000D01*
X3640000Y-5740000D02*
X3660000Y-5760000D01*
X3660000Y-5740000D02*
X3640000Y-5760000D01*
X3640000Y-5840000D02*
X3660000Y-5860000D01*
X3660000Y-5840000D02*
X3640000Y-5860000D01*
X3640000Y-5940000D02*
X3660000Y-5960000D01*
X3660000Y-5940000D02*
X3640000Y-5960000D01*
X3640000Y-6040000D02*
X3660000Y-6060000D01*
X3660000Y-6040000D02*
X3640000Y-6060000D01*
X3640000Y-6140000D02*
X3660000Y-6160000D01*
X3660000Y-6140000D02*
X3640000Y-6160000D01*
X3640000Y-6240000D02*
X3660000Y-6260000D01*
X3660000Y-6240000D02*
X3640000Y-6260000D01*
X3730000Y-3355000D02*
X3750000Y-3375000D01*
X3750000Y-3355000D02*
X3730000Y-3375000D01*
X3730000Y-3545000D02*
X3750000Y-3565000D01*
X3750000Y-3545000D02*
X3730000Y-3565000D01*
X3730150Y-3450750D02*
X3750150Y-3470750D01*
X3750150Y-3450750D02*
X3730150Y-3470750D01*
X3740000Y-2040000D02*
X3760000Y-2060000D01*
X3760000Y-2040000D02*
X3740000Y-2060000D01*
X3740000Y-4040000D02*
X3760000Y-4060000D01*
X3760000Y-4040000D02*
X3740000Y-4060000D01*
X3740000Y-4540000D02*
X3760000Y-4560000D01*
X3760000Y-4540000D02*
X3740000Y-4560000D01*
X3740000Y-4640000D02*
X3760000Y-4660000D01*
X3760000Y-4640000D02*
X3740000Y-4660000D01*
X3740000Y-4740000D02*
X3760000Y-4760000D01*
X3760000Y-4740000D02*
X3740000Y-4760000D01*
X3740000Y-4840000D02*
X3760000Y-4860000D01*
X3760000Y-4840000D02*
X3740000Y-4860000D01*
X3740000Y-4940000D02*
X3760000Y-4960000D01*
X3760000Y-4940000D02*
X3740000Y-4960000D01*
X3740000Y-5040000D02*
X3760000Y-5060000D01*
X3760000Y-5040000D02*
X3740000Y-5060000D01*
X3740000Y-5140000D02*
X3760000Y-5160000D01*
X3760000Y-5140000D02*
X3740000Y-5160000D01*
X3740000Y-5240000D02*
X3760000Y-5260000D01*
X3760000Y-5240000D02*
X3740000Y-5260000D01*
X3740000Y-5340000D02*
X3760000Y-5360000D01*
X3760000Y-5340000D02*
X3740000Y-5360000D01*
X3740000Y-5440000D02*
X3760000Y-5460000D01*
X3760000Y-5440000D02*
X3740000Y-5460000D01*
X3740000Y-5540000D02*
X3760000Y-5560000D01*
X3760000Y-5540000D02*
X3740000Y-5560000D01*
X3740000Y-5640000D02*
X3760000Y-5660000D01*
X3760000Y-5640000D02*
X3740000Y-5660000D01*
X3740000Y-5740000D02*
X3760000Y-5760000D01*
X3760000Y-5740000D02*
X3740000Y-5760000D01*
X3740000Y-5840000D02*
X3760000Y-5860000D01*
X3760000Y-5840000D02*
X3740000Y-5860000D01*
X3740000Y-5940000D02*
X3760000Y-5960000D01*
X3760000Y-5940000D02*
X3740000Y-5960000D01*
X3740000Y-6040000D02*
X3760000Y-6060000D01*
X3760000Y-6040000D02*
X3740000Y-6060000D01*
X3740000Y-6140000D02*
X3760000Y-6160000D01*
X3760000Y-6140000D02*
X3740000Y-6160000D01*
X3740000Y-6240000D02*
X3760000Y-6260000D01*
X3760000Y-6240000D02*
X3740000Y-6260000D01*
X3840000Y-2040000D02*
X3860000Y-2060000D01*
X3860000Y-2040000D02*
X3840000Y-2060000D01*
X3840000Y-4040000D02*
X3860000Y-4060000D01*
X3860000Y-4040000D02*
X3840000Y-4060000D01*
X3840000Y-4140000D02*
X3860000Y-4160000D01*
X3860000Y-4140000D02*
X3840000Y-4160000D01*
X3840000Y-4240000D02*
X3860000Y-4260000D01*
X3860000Y-4240000D02*
X3840000Y-4260000D01*
X3840000Y-4340000D02*
X3860000Y-4360000D01*
X3860000Y-4340000D02*
X3840000Y-4360000D01*
X3840000Y-4440000D02*
X3860000Y-4460000D01*
X3860000Y-4440000D02*
X3840000Y-4460000D01*
X3840000Y-4540000D02*
X3860000Y-4560000D01*
X3860000Y-4540000D02*
X3840000Y-4560000D01*
X3840000Y-4640000D02*
X3860000Y-4660000D01*
X3860000Y-4640000D02*
X3840000Y-4660000D01*
X3840000Y-4740000D02*
X3860000Y-4760000D01*
X3860000Y-4740000D02*
X3840000Y-4760000D01*
X3840000Y-4840000D02*
X3860000Y-4860000D01*
X3860000Y-4840000D02*
X3840000Y-4860000D01*
X3840000Y-4940000D02*
X3860000Y-4960000D01*
X3860000Y-4940000D02*
X3840000Y-4960000D01*
X3840000Y-5040000D02*
X3860000Y-5060000D01*
X3860000Y-5040000D02*
X3840000Y-5060000D01*
X3840000Y-5140000D02*
X3860000Y-5160000D01*
X3860000Y-5140000D02*
X3840000Y-5160000D01*
X3840000Y-5240000D02*
X3860000Y-5260000D01*
X3860000Y-5240000D02*
X3840000Y-5260000D01*
X3840000Y-5340000D02*
X3860000Y-5360000D01*
X3860000Y-5340000D02*
X3840000Y-5360000D01*
X3840000Y-5440000D02*
X3860000Y-5460000D01*
X3860000Y-5440000D02*
X3840000Y-5460000D01*
X3840000Y-5540000D02*
X3860000Y-5560000D01*
X3860000Y-5540000D02*
X3840000Y-5560000D01*
X3840000Y-5640000D02*
X3860000Y-5660000D01*
X3860000Y-5640000D02*
X3840000Y-5660000D01*
X3840000Y-5740000D02*
X3860000Y-5760000D01*
X3860000Y-5740000D02*
X3840000Y-5760000D01*
X3840000Y-5840000D02*
X3860000Y-5860000D01*
X3860000Y-5840000D02*
X3840000Y-5860000D01*
X3840000Y-5940000D02*
X3860000Y-5960000D01*
X3860000Y-5940000D02*
X3840000Y-5960000D01*
X3840000Y-6040000D02*
X3860000Y-6060000D01*
X3860000Y-6040000D02*
X3840000Y-6060000D01*
X3840000Y-6140000D02*
X3860000Y-6160000D01*
X3860000Y-6140000D02*
X3840000Y-6160000D01*
X3840000Y-6240000D02*
X3860000Y-6260000D01*
X3860000Y-6240000D02*
X3840000Y-6260000D01*
X3860000Y-11340000D02*
X3880000Y-11360000D01*
X3880000Y-11340000D02*
X3860000Y-11360000D01*
X3940000Y-2040000D02*
X3960000Y-2060000D01*
X3960000Y-2040000D02*
X3940000Y-2060000D01*
X3952400Y-3450750D02*
X3972400Y-3470750D01*
X3972400Y-3450750D02*
X3952400Y-3470750D01*
X3964000Y-2206000D02*
X3984000Y-2226000D01*
X3984000Y-2206000D02*
X3964000Y-2226000D01*
X3965000Y-3840000D02*
X3985000Y-3860000D01*
X3985000Y-3840000D02*
X3965000Y-3860000D01*
X3965000Y-3890000D02*
X3985000Y-3910000D01*
X3985000Y-3890000D02*
X3965000Y-3910000D01*
X3965000Y-3940000D02*
X3985000Y-3960000D01*
X3985000Y-3940000D02*
X3965000Y-3960000D01*
X4005000Y-11355000D02*
X4025000Y-11375000D01*
X4025000Y-11355000D02*
X4005000Y-11375000D01*
X4010000Y-4630000D02*
X4030000Y-4650000D01*
X4030000Y-4630000D02*
X4010000Y-4650000D01*
X4014000Y-2206000D02*
X4034000Y-2226000D01*
X4034000Y-2206000D02*
X4014000Y-2226000D01*
X4040000Y-2040000D02*
X4060000Y-2060000D01*
X4060000Y-2040000D02*
X4040000Y-2060000D01*
X4040000Y-2770000D02*
X4060000Y-2790000D01*
X4060000Y-2770000D02*
X4040000Y-2790000D01*
X4060000Y-2590000D02*
X4080000Y-2610000D01*
X4080000Y-2590000D02*
X4060000Y-2610000D01*
X4061500Y-4438500D02*
X4081500Y-4458500D01*
X4081500Y-4438500D02*
X4061500Y-4458500D01*
X4064000Y-2206000D02*
X4084000Y-2226000D01*
X4084000Y-2206000D02*
X4064000Y-2226000D01*
X4104800Y-3030380D02*
X4124800Y-3050380D01*
X4124800Y-3030380D02*
X4104800Y-3050380D01*
X4110000Y-4090000D02*
X4130000Y-4110000D01*
X4130000Y-4090000D02*
X4110000Y-4110000D01*
X4114000Y-2206000D02*
X4134000Y-2226000D01*
X4134000Y-2206000D02*
X4114000Y-2226000D01*
X4140000Y-2040000D02*
X4160000Y-2060000D01*
X4160000Y-2040000D02*
X4140000Y-2060000D01*
X4164000Y-2206000D02*
X4184000Y-2226000D01*
X4184000Y-2206000D02*
X4164000Y-2226000D01*
X4206400Y-2790350D02*
X4226400Y-2810350D01*
X4226400Y-2790350D02*
X4206400Y-2810350D01*
X4214000Y-2206000D02*
X4234000Y-2226000D01*
X4234000Y-2206000D02*
X4214000Y-2226000D01*
X4240000Y-2040000D02*
X4260000Y-2060000D01*
X4260000Y-2040000D02*
X4240000Y-2060000D01*
X4250000Y-4250000D02*
X4270000Y-4270000D01*
X4270000Y-4250000D02*
X4250000Y-4270000D01*
X4264000Y-2206000D02*
X4284000Y-2226000D01*
X4284000Y-2206000D02*
X4264000Y-2226000D01*
X4301650Y-2790300D02*
X4321650Y-2810300D01*
X4321650Y-2790300D02*
X4301650Y-2810300D01*
X4314000Y-2206000D02*
X4334000Y-2226000D01*
X4334000Y-2206000D02*
X4314000Y-2226000D01*
X4340000Y-2040000D02*
X4360000Y-2060000D01*
X4360000Y-2040000D02*
X4340000Y-2060000D01*
X4364000Y-2206000D02*
X4384000Y-2226000D01*
X4384000Y-2206000D02*
X4364000Y-2226000D01*
X4365000Y-4465000D02*
X4385000Y-4485000D01*
X4385000Y-4465000D02*
X4365000Y-4485000D01*
X4365000Y-4715000D02*
X4385000Y-4735000D01*
X4385000Y-4715000D02*
X4365000Y-4735000D01*
X4378750Y-3748300D02*
X4398750Y-3768300D01*
X4398750Y-3748300D02*
X4378750Y-3768300D01*
X4407060Y-3030380D02*
X4427060Y-3050380D01*
X4427060Y-3030380D02*
X4407060Y-3050380D01*
X4414000Y-2206000D02*
X4434000Y-2226000D01*
X4434000Y-2206000D02*
X4414000Y-2226000D01*
X4428650Y-3699300D02*
X4448650Y-3719300D01*
X4448650Y-3699300D02*
X4428650Y-3719300D01*
X4440000Y-2040000D02*
X4460000Y-2060000D01*
X4460000Y-2040000D02*
X4440000Y-2060000D01*
X4454235Y-11358078D02*
X4474235Y-11378078D01*
X4474235Y-11358078D02*
X4454235Y-11378078D01*
X4464000Y-2206000D02*
X4484000Y-2226000D01*
X4484000Y-2206000D02*
X4464000Y-2226000D01*
X4500000Y-2590000D02*
X4520000Y-2610000D01*
X4520000Y-2590000D02*
X4500000Y-2610000D01*
X4514000Y-2206000D02*
X4534000Y-2226000D01*
X4534000Y-2206000D02*
X4514000Y-2226000D01*
X4520000Y-2770000D02*
X4540000Y-2790000D01*
X4540000Y-2770000D02*
X4520000Y-2790000D01*
X4540000Y-2040000D02*
X4560000Y-2060000D01*
X4560000Y-2040000D02*
X4540000Y-2060000D01*
X4540000Y-4265000D02*
X4560000Y-4285000D01*
X4560000Y-4265000D02*
X4540000Y-4285000D01*
X4564000Y-2206000D02*
X4584000Y-2226000D01*
X4584000Y-2206000D02*
X4564000Y-2226000D01*
X4600000Y-2770000D02*
X4620000Y-2790000D01*
X4620000Y-2770000D02*
X4600000Y-2790000D01*
X4614000Y-2206000D02*
X4634000Y-2226000D01*
X4634000Y-2206000D02*
X4614000Y-2226000D01*
X4615000Y-4465000D02*
X4635000Y-4485000D01*
X4635000Y-4465000D02*
X4615000Y-4485000D01*
X4615000Y-4715000D02*
X4635000Y-4735000D01*
X4635000Y-4715000D02*
X4615000Y-4735000D01*
X4640000Y-2040000D02*
X4660000Y-2060000D01*
X4660000Y-2040000D02*
X4640000Y-2060000D01*
X4712000Y-2348000D02*
X4732000Y-2368000D01*
X4732000Y-2348000D02*
X4712000Y-2368000D01*
X4712000Y-2408000D02*
X4732000Y-2428000D01*
X4732000Y-2408000D02*
X4712000Y-2428000D01*
X4712000Y-2468000D02*
X4732000Y-2488000D01*
X4732000Y-2468000D02*
X4712000Y-2488000D01*
X4740000Y-2040000D02*
X4760000Y-2060000D01*
X4760000Y-2040000D02*
X4740000Y-2060000D01*
X4840000Y-2040000D02*
X4860000Y-2060000D01*
X4860000Y-2040000D02*
X4840000Y-2060000D01*
X4840000Y-12140000D02*
X4860000Y-12160000D01*
X4860000Y-12140000D02*
X4840000Y-12160000D01*
X4940000Y-2040000D02*
X4960000Y-2060000D01*
X4960000Y-2040000D02*
X4940000Y-2060000D01*
X4940000Y-12140000D02*
X4960000Y-12160000D01*
X4960000Y-12140000D02*
X4940000Y-12160000D01*
X4948880Y-2640500D02*
X4968880Y-2660500D01*
X4968880Y-2640500D02*
X4948880Y-2660500D01*
X5035710Y-11982610D02*
X5055710Y-12002610D01*
X5055710Y-11982610D02*
X5035710Y-12002610D01*
X5040000Y-2040000D02*
X5060000Y-2060000D01*
X5060000Y-2040000D02*
X5040000Y-2060000D01*
X5040000Y-12140000D02*
X5060000Y-12160000D01*
X5060000Y-12140000D02*
X5040000Y-12160000D01*
X5140000Y-2040000D02*
X5160000Y-2060000D01*
X5160000Y-2040000D02*
X5140000Y-2060000D01*
X5140000Y-12140000D02*
X5160000Y-12160000D01*
X5160000Y-12140000D02*
X5140000Y-12160000D01*
X5240000Y-2040000D02*
X5260000Y-2060000D01*
X5260000Y-2040000D02*
X5240000Y-2060000D01*
X5240000Y-12140000D02*
X5260000Y-12160000D01*
X5260000Y-12140000D02*
X5240000Y-12160000D01*
X5250000Y-2400000D02*
X5270000Y-2420000D01*
X5270000Y-2400000D02*
X5250000Y-2420000D01*
X5340000Y-2040000D02*
X5360000Y-2060000D01*
X5360000Y-2040000D02*
X5340000Y-2060000D01*
X5340000Y-12140000D02*
X5360000Y-12160000D01*
X5360000Y-12140000D02*
X5340000Y-12160000D01*
X5396390Y-10958990D02*
X5416390Y-10978990D01*
X5416390Y-10958990D02*
X5396390Y-10978990D01*
X5440000Y-2040000D02*
X5460000Y-2060000D01*
X5460000Y-2040000D02*
X5440000Y-2060000D01*
X5440000Y-12140000D02*
X5460000Y-12160000D01*
X5460000Y-12140000D02*
X5440000Y-12160000D01*
X5534820Y-7049930D02*
X5554820Y-7069930D01*
X5554820Y-7049930D02*
X5534820Y-7069930D01*
X5540000Y-2040000D02*
X5560000Y-2060000D01*
X5560000Y-2040000D02*
X5540000Y-2060000D01*
X5540000Y-12140000D02*
X5560000Y-12160000D01*
X5560000Y-12140000D02*
X5540000Y-12160000D01*
X5541170Y-3511710D02*
X5561170Y-3531710D01*
X5561170Y-3511710D02*
X5541170Y-3531710D01*
X5580540Y-11092340D02*
X5600540Y-11112340D01*
X5600540Y-11092340D02*
X5580540Y-11112340D01*
X5593240Y-6928010D02*
X5613240Y-6948010D01*
X5613240Y-6928010D02*
X5593240Y-6948010D01*
X5604200Y-2300140D02*
X5624200Y-2320140D01*
X5624200Y-2300140D02*
X5604200Y-2320140D01*
X5640000Y-2040000D02*
X5660000Y-2060000D01*
X5660000Y-2040000D02*
X5640000Y-2060000D01*
X5640000Y-12140000D02*
X5660000Y-12160000D01*
X5660000Y-12140000D02*
X5640000Y-12160000D01*
X5640230Y-6821330D02*
X5660230Y-6841330D01*
X5660230Y-6821330D02*
X5640230Y-6841330D01*
X5740000Y-2040000D02*
X5760000Y-2060000D01*
X5760000Y-2040000D02*
X5740000Y-2060000D01*
X5740000Y-12140000D02*
X5760000Y-12160000D01*
X5760000Y-12140000D02*
X5740000Y-12160000D01*
X5793900Y-11091070D02*
X5813900Y-11111070D01*
X5813900Y-11091070D02*
X5793900Y-11111070D01*
X5796800Y-8584090D02*
X5816800Y-8604090D01*
X5816800Y-8584090D02*
X5796800Y-8604090D01*
X5821840Y-11754010D02*
X5841840Y-11774010D01*
X5841840Y-11754010D02*
X5821840Y-11774010D01*
X5832140Y-2426000D02*
X5852140Y-2446000D01*
X5852140Y-2426000D02*
X5832140Y-2446000D01*
X5833300Y-11153300D02*
X5853300Y-11173300D01*
X5853300Y-11153300D02*
X5833300Y-11173300D01*
X5840000Y-2040000D02*
X5860000Y-2060000D01*
X5860000Y-2040000D02*
X5840000Y-2060000D01*
X5840000Y-12140000D02*
X5860000Y-12160000D01*
X5860000Y-12140000D02*
X5840000Y-12160000D01*
X5860000Y-10920000D02*
X5880000Y-10940000D01*
X5880000Y-10920000D02*
X5860000Y-10940000D01*
X5890420Y-2425860D02*
X5910420Y-2445860D01*
X5910420Y-2425860D02*
X5890420Y-2445860D01*
X5940000Y-2040000D02*
X5960000Y-2060000D01*
X5960000Y-2040000D02*
X5940000Y-2060000D01*
X5940000Y-12140000D02*
X5960000Y-12160000D01*
X5960000Y-12140000D02*
X5940000Y-12160000D01*
X5983130Y-7155340D02*
X6003130Y-7175340D01*
X6003130Y-7155340D02*
X5983130Y-7175340D01*
X6016150Y-11974990D02*
X6036150Y-11994990D01*
X6036150Y-11974990D02*
X6016150Y-11994990D01*
X6040000Y-2040000D02*
X6060000Y-2060000D01*
X6060000Y-2040000D02*
X6040000Y-2060000D01*
X6040000Y-12140000D02*
X6060000Y-12160000D01*
X6060000Y-12140000D02*
X6040000Y-12160000D01*
X6047900Y-3342800D02*
X6067900Y-3362800D01*
X6067900Y-3342800D02*
X6047900Y-3362800D01*
X6047900Y-7152800D02*
X6067900Y-7172800D01*
X6067900Y-7152800D02*
X6047900Y-7172800D01*
X6070000Y-3075000D02*
X6090000Y-3095000D01*
X6090000Y-3075000D02*
X6070000Y-3095000D01*
X6100000Y-10880000D02*
X6120000Y-10900000D01*
X6120000Y-10880000D02*
X6100000Y-10900000D01*
X6111400Y-7152800D02*
X6131400Y-7172800D01*
X6131400Y-7152800D02*
X6111400Y-7172800D01*
X6120000Y-11230000D02*
X6140000Y-11250000D01*
X6140000Y-11230000D02*
X6120000Y-11250000D01*
X6140000Y-2040000D02*
X6160000Y-2060000D01*
X6160000Y-2040000D02*
X6140000Y-2060000D01*
X6140000Y-12140000D02*
X6160000Y-12160000D01*
X6160000Y-12140000D02*
X6140000Y-12160000D01*
X6174900Y-7279800D02*
X6194900Y-7299800D01*
X6194900Y-7279800D02*
X6174900Y-7299800D01*
X6240000Y-2040000D02*
X6260000Y-2060000D01*
X6260000Y-2040000D02*
X6240000Y-2060000D01*
X6240000Y-12140000D02*
X6260000Y-12160000D01*
X6260000Y-12140000D02*
X6240000Y-12160000D01*
X6240773Y-7286912D02*
X6260773Y-7306912D01*
X6260773Y-7286912D02*
X6240773Y-7306912D01*
X6289200Y-2811940D02*
X6309200Y-2831940D01*
X6309200Y-2811940D02*
X6289200Y-2831940D01*
X6340000Y-2040000D02*
X6360000Y-2060000D01*
X6360000Y-2040000D02*
X6340000Y-2060000D01*
X6340000Y-12140000D02*
X6360000Y-12160000D01*
X6360000Y-12140000D02*
X6340000Y-12160000D01*
X6367700Y-7047300D02*
X6387700Y-7067300D01*
X6387700Y-7047300D02*
X6367700Y-7067300D01*
X6367940Y-7828440D02*
X6387940Y-7848440D01*
X6387940Y-7828440D02*
X6367940Y-7848440D01*
X6416200Y-3050700D02*
X6436200Y-3070700D01*
X6436200Y-3050700D02*
X6416200Y-3070700D01*
X6439060Y-7824630D02*
X6459060Y-7844630D01*
X6459060Y-7824630D02*
X6439060Y-7844630D01*
X6440000Y-2040000D02*
X6460000Y-2060000D01*
X6460000Y-2040000D02*
X6440000Y-2060000D01*
X6440000Y-12140000D02*
X6460000Y-12160000D01*
X6460000Y-12140000D02*
X6440000Y-12160000D01*
X6470000Y-6060000D02*
X6490000Y-6080000D01*
X6490000Y-6060000D02*
X6470000Y-6080000D01*
X6529230Y-7719220D02*
X6549230Y-7739220D01*
X6549230Y-7719220D02*
X6529230Y-7739220D01*
X6536879Y-7789041D02*
X6556879Y-7809041D01*
X6556879Y-7789041D02*
X6536879Y-7809041D01*
X6540000Y-2040000D02*
X6560000Y-2060000D01*
X6560000Y-2040000D02*
X6540000Y-2060000D01*
X6540000Y-12140000D02*
X6560000Y-12160000D01*
X6560000Y-12140000D02*
X6540000Y-12160000D01*
X6544000Y-3086000D02*
X6564000Y-3106000D01*
X6564000Y-3086000D02*
X6544000Y-3106000D01*
X6560000Y-3170000D02*
X6580000Y-3190000D01*
X6580000Y-3170000D02*
X6560000Y-3190000D01*
X6577490Y-11470800D02*
X6597490Y-11490800D01*
X6597490Y-11470800D02*
X6577490Y-11490800D01*
X6580381Y-7831899D02*
X6600381Y-7851899D01*
X6600381Y-7831899D02*
X6580381Y-7851899D01*
X6640000Y-2040000D02*
X6660000Y-2060000D01*
X6660000Y-2040000D02*
X6640000Y-2060000D01*
X6640000Y-12140000D02*
X6660000Y-12160000D01*
X6660000Y-12140000D02*
X6640000Y-12160000D01*
X6681630Y-11153300D02*
X6701630Y-11173300D01*
X6701630Y-11153300D02*
X6681630Y-11173300D01*
X6685440Y-11088530D02*
X6705440Y-11108530D01*
X6705440Y-11088530D02*
X6685440Y-11108530D01*
X6740000Y-2040000D02*
X6760000Y-2060000D01*
X6760000Y-2040000D02*
X6740000Y-2060000D01*
X6740000Y-12140000D02*
X6760000Y-12160000D01*
X6760000Y-12140000D02*
X6740000Y-12160000D01*
X6743860Y-8002430D02*
X6763860Y-8022430D01*
X6763860Y-8002430D02*
X6743860Y-8022430D01*
X6744100Y-11388490D02*
X6764100Y-11408490D01*
X6764100Y-11388490D02*
X6744100Y-11408490D01*
X6793390Y-5612290D02*
X6813390Y-5632290D01*
X6813390Y-5612290D02*
X6793390Y-5632290D01*
X6797200Y-2298860D02*
X6817200Y-2318860D01*
X6817200Y-2298860D02*
X6797200Y-2318860D01*
X6806090Y-11087260D02*
X6826090Y-11107260D01*
X6826090Y-11087260D02*
X6806090Y-11107260D01*
X6806090Y-11152030D02*
X6826090Y-11172030D01*
X6826090Y-11152030D02*
X6806090Y-11172030D01*
X6840000Y-2040000D02*
X6860000Y-2060000D01*
X6860000Y-2040000D02*
X6840000Y-2060000D01*
X6840000Y-12140000D02*
X6860000Y-12160000D01*
X6860000Y-12140000D02*
X6840000Y-12160000D01*
X6905000Y-3155000D02*
X6925000Y-3175000D01*
X6925000Y-3155000D02*
X6905000Y-3175000D01*
X6940000Y-2040000D02*
X6960000Y-2060000D01*
X6960000Y-2040000D02*
X6940000Y-2060000D01*
X6940000Y-5915000D02*
X6960000Y-5935000D01*
X6960000Y-5915000D02*
X6940000Y-5935000D01*
X6940000Y-12140000D02*
X6960000Y-12160000D01*
X6960000Y-12140000D02*
X6940000Y-12160000D01*
X6948330Y-7790349D02*
X6968330Y-7810349D01*
X6968330Y-7790349D02*
X6948330Y-7810349D01*
X6948330Y-7883450D02*
X6968330Y-7903450D01*
X6968330Y-7883450D02*
X6948330Y-7903450D01*
X6991609Y-5889196D02*
X7011609Y-5909196D01*
X7011609Y-5889196D02*
X6991609Y-5909196D01*
X6992866Y-7748799D02*
X7012866Y-7768799D01*
X7012866Y-7748799D02*
X6992866Y-7768799D01*
X7000400Y-7831899D02*
X7020400Y-7851899D01*
X7020400Y-7831899D02*
X7000400Y-7851899D01*
X7018180Y-11472070D02*
X7038180Y-11492070D01*
X7038180Y-11472070D02*
X7018180Y-11492070D01*
X7040000Y-2040000D02*
X7060000Y-2060000D01*
X7060000Y-2040000D02*
X7040000Y-2060000D01*
X7040000Y-12140000D02*
X7060000Y-12160000D01*
X7060000Y-12140000D02*
X7040000Y-12160000D01*
X7045000Y-6970000D02*
X7065000Y-6990000D01*
X7065000Y-6970000D02*
X7045000Y-6990000D01*
X7072790Y-5621180D02*
X7092790Y-5641180D01*
X7092790Y-5621180D02*
X7072790Y-5641180D01*
X7076600Y-7781097D02*
X7096600Y-7801097D01*
X7096600Y-7781097D02*
X7076600Y-7801097D01*
X7093110Y-6347620D02*
X7113110Y-6367620D01*
X7113110Y-6347620D02*
X7093110Y-6367620D01*
X7094380Y-6256180D02*
X7114380Y-6276180D01*
X7114380Y-6256180D02*
X7094380Y-6276180D01*
X7109080Y-7179080D02*
X7129080Y-7199080D01*
X7129080Y-7179080D02*
X7109080Y-7199080D01*
X7140000Y-2040000D02*
X7160000Y-2060000D01*
X7160000Y-2040000D02*
X7140000Y-2060000D01*
X7140000Y-12140000D02*
X7160000Y-12160000D01*
X7160000Y-12140000D02*
X7140000Y-12160000D01*
X7165500Y-7622700D02*
X7185500Y-7642700D01*
X7185500Y-7622700D02*
X7165500Y-7642700D01*
X7190000Y-6116550D02*
X7210000Y-6136550D01*
X7210000Y-6116550D02*
X7190000Y-6136550D01*
X7200000Y-7225000D02*
X7220000Y-7245000D01*
X7220000Y-7225000D02*
X7200000Y-7245000D01*
X7202938Y-7577266D02*
X7222938Y-7597266D01*
X7222938Y-7577266D02*
X7202938Y-7597266D01*
X7210000Y-7370000D02*
X7230000Y-7390000D01*
X7230000Y-7370000D02*
X7210000Y-7390000D01*
X7210000Y-7427700D02*
X7230000Y-7447700D01*
X7230000Y-7427700D02*
X7210000Y-7447700D01*
X7210000Y-7520000D02*
X7230000Y-7540000D01*
X7230000Y-7520000D02*
X7210000Y-7540000D01*
X7210000Y-7675000D02*
X7230000Y-7695000D01*
X7230000Y-7675000D02*
X7210000Y-7695000D01*
X7216458Y-6167826D02*
X7236458Y-6187826D01*
X7236458Y-6167826D02*
X7216458Y-6187826D01*
X7220000Y-6670000D02*
X7240000Y-6690000D01*
X7240000Y-6670000D02*
X7220000Y-6690000D01*
X7220000Y-6730000D02*
X7240000Y-6750000D01*
X7240000Y-6730000D02*
X7220000Y-6750000D01*
X7240000Y-2040000D02*
X7260000Y-2060000D01*
X7260000Y-2040000D02*
X7240000Y-2060000D01*
X7240000Y-12140000D02*
X7260000Y-12160000D01*
X7260000Y-12140000D02*
X7240000Y-12160000D01*
X7255000Y-7925000D02*
X7275000Y-7945000D01*
X7275000Y-7925000D02*
X7255000Y-7945000D01*
X7292500Y-4930300D02*
X7312500Y-4950300D01*
X7312500Y-4930300D02*
X7292500Y-4950300D01*
X7310280Y-2822100D02*
X7330280Y-2842100D01*
X7330280Y-2822100D02*
X7310280Y-2842100D01*
X7335680Y-4876960D02*
X7355680Y-4896960D01*
X7355680Y-4876960D02*
X7335680Y-4896960D01*
X7340000Y-2040000D02*
X7360000Y-2060000D01*
X7360000Y-2040000D02*
X7340000Y-2060000D01*
X7340000Y-12140000D02*
X7360000Y-12160000D01*
X7360000Y-12140000D02*
X7340000Y-12160000D01*
X7347110Y-9347360D02*
X7367110Y-9367360D01*
X7367110Y-9347360D02*
X7347110Y-9367360D01*
X7382670Y-9738520D02*
X7402670Y-9758520D01*
X7402670Y-9738520D02*
X7382670Y-9758520D01*
X7383940Y-9807100D02*
X7403940Y-9827100D01*
X7403940Y-9807100D02*
X7383940Y-9827100D01*
X7394100Y-5057300D02*
X7414100Y-5077300D01*
X7414100Y-5057300D02*
X7394100Y-5077300D01*
X7415000Y-6424674D02*
X7435000Y-6444674D01*
X7435000Y-6424674D02*
X7415000Y-6444674D01*
X7415000Y-6525000D02*
X7435000Y-6545000D01*
X7435000Y-6525000D02*
X7415000Y-6545000D01*
X7415000Y-6625000D02*
X7435000Y-6645000D01*
X7435000Y-6625000D02*
X7415000Y-6645000D01*
X7420770Y-9866790D02*
X7440770Y-9886790D01*
X7440770Y-9866790D02*
X7420770Y-9886790D01*
X7428088Y-5010673D02*
X7448088Y-5030673D01*
X7448088Y-5010673D02*
X7428088Y-5030673D01*
X7436516Y-7781097D02*
X7456516Y-7801097D01*
X7456516Y-7781097D02*
X7436516Y-7801097D01*
X7440000Y-2040000D02*
X7460000Y-2060000D01*
X7460000Y-2040000D02*
X7440000Y-2060000D01*
X7440000Y-12140000D02*
X7460000Y-12160000D01*
X7460000Y-12140000D02*
X7440000Y-12160000D01*
X7450000Y-6375000D02*
X7470000Y-6395000D01*
X7470000Y-6375000D02*
X7450000Y-6395000D01*
X7450000Y-6475000D02*
X7470000Y-6495000D01*
X7470000Y-6475000D02*
X7450000Y-6495000D01*
X7450000Y-6575000D02*
X7470000Y-6595000D01*
X7470000Y-6575000D02*
X7450000Y-6595000D01*
X7455000Y-6215000D02*
X7475000Y-6235000D01*
X7475000Y-6215000D02*
X7455000Y-6235000D01*
X7470300Y-9921400D02*
X7490300Y-9941400D01*
X7490300Y-9921400D02*
X7470300Y-9941400D01*
X7470330Y-4968430D02*
X7490330Y-4988430D01*
X7490330Y-4968430D02*
X7470330Y-4988430D01*
X7486902Y-9603821D02*
X7506902Y-9623821D01*
X7506902Y-9603821D02*
X7486902Y-9623821D01*
X7540000Y-2040000D02*
X7560000Y-2060000D01*
X7560000Y-2040000D02*
X7540000Y-2060000D01*
X7540000Y-12140000D02*
X7560000Y-12160000D01*
X7560000Y-12140000D02*
X7540000Y-12160000D01*
X7550000Y-10100000D02*
X7570000Y-10120000D01*
X7570000Y-10100000D02*
X7550000Y-10120000D01*
X7595291Y-8970000D02*
X7615291Y-8990000D01*
X7615291Y-8970000D02*
X7595291Y-8990000D01*
X7599840Y-3220880D02*
X7619840Y-3240880D01*
X7619840Y-3220880D02*
X7599840Y-3240880D01*
X7620160Y-3667920D02*
X7640160Y-3687920D01*
X7640160Y-3667920D02*
X7620160Y-3687920D01*
X7622336Y-9340271D02*
X7642336Y-9360271D01*
X7642336Y-9340271D02*
X7622336Y-9360271D01*
X7630000Y-8700000D02*
X7650000Y-8720000D01*
X7650000Y-8700000D02*
X7630000Y-8720000D01*
X7630000Y-9897500D02*
X7650000Y-9917500D01*
X7650000Y-9897500D02*
X7630000Y-9917500D01*
X7640000Y-2040000D02*
X7660000Y-2060000D01*
X7660000Y-2040000D02*
X7640000Y-2060000D01*
X7640000Y-12140000D02*
X7660000Y-12160000D01*
X7660000Y-12140000D02*
X7640000Y-12160000D01*
X7672500Y-7855000D02*
X7692500Y-7875000D01*
X7692500Y-7855000D02*
X7672500Y-7875000D01*
X7672500Y-8090000D02*
X7692500Y-8110000D01*
X7692500Y-8090000D02*
X7672500Y-8110000D01*
X7686200Y-3662840D02*
X7706200Y-3682840D01*
X7706200Y-3662840D02*
X7686200Y-3682840D01*
X7710000Y-8650000D02*
X7730000Y-8670000D01*
X7730000Y-8650000D02*
X7710000Y-8670000D01*
X7711600Y-2870360D02*
X7731600Y-2890360D01*
X7731600Y-2870360D02*
X7711600Y-2890360D01*
X7711600Y-2936400D02*
X7731600Y-2956400D01*
X7731600Y-2936400D02*
X7711600Y-2956400D01*
X7720000Y-5330000D02*
X7740000Y-5350000D01*
X7740000Y-5330000D02*
X7720000Y-5350000D01*
X7740000Y-2040000D02*
X7760000Y-2060000D01*
X7760000Y-2040000D02*
X7740000Y-2060000D01*
X7740000Y-12140000D02*
X7760000Y-12160000D01*
X7760000Y-12140000D02*
X7740000Y-12160000D01*
X7790000Y-8700000D02*
X7810000Y-8720000D01*
X7810000Y-8700000D02*
X7790000Y-8720000D01*
X7814000Y-2303140D02*
X7834000Y-2323140D01*
X7834000Y-2303140D02*
X7814000Y-2323140D01*
X7823360Y-5256690D02*
X7843360Y-5276690D01*
X7843360Y-5256690D02*
X7823360Y-5276690D01*
X7840000Y-2040000D02*
X7860000Y-2060000D01*
X7860000Y-2040000D02*
X7840000Y-2060000D01*
X7840000Y-4935000D02*
X7860000Y-4955000D01*
X7860000Y-4935000D02*
X7840000Y-4955000D01*
X7840000Y-12140000D02*
X7860000Y-12160000D01*
X7860000Y-12140000D02*
X7840000Y-12160000D01*
X7842410Y-8976520D02*
X7862410Y-8996520D01*
X7862410Y-8976520D02*
X7842410Y-8996520D01*
X7870000Y-8650000D02*
X7890000Y-8670000D01*
X7890000Y-8650000D02*
X7870000Y-8670000D01*
X7870000Y-11810000D02*
X7890000Y-11830000D01*
X7890000Y-11810000D02*
X7870000Y-11830000D01*
X7871620Y-10805320D02*
X7891620Y-10825320D01*
X7891620Y-10805320D02*
X7871620Y-10825320D01*
X7915000Y-5315000D02*
X7935000Y-5335000D01*
X7935000Y-5315000D02*
X7915000Y-5335000D01*
X7940000Y-2040000D02*
X7960000Y-2060000D01*
X7960000Y-2040000D02*
X7940000Y-2060000D01*
X7940000Y-7392500D02*
X7960000Y-7412500D01*
X7960000Y-7392500D02*
X7940000Y-7412500D01*
X7940000Y-9120000D02*
X7960000Y-9140000D01*
X7960000Y-9120000D02*
X7940000Y-9140000D01*
X7940000Y-12140000D02*
X7960000Y-12160000D01*
X7960000Y-12140000D02*
X7940000Y-12160000D01*
X7965000Y-5265000D02*
X7985000Y-5285000D01*
X7985000Y-5265000D02*
X7965000Y-5285000D01*
X8021240Y-8979060D02*
X8041240Y-8999060D01*
X8041240Y-8979060D02*
X8021240Y-8999060D01*
X8030000Y-7650000D02*
X8050000Y-7670000D01*
X8050000Y-7650000D02*
X8030000Y-7670000D01*
X8030000Y-8650000D02*
X8050000Y-8670000D01*
X8050000Y-8650000D02*
X8030000Y-8670000D01*
X8040000Y-2040000D02*
X8060000Y-2060000D01*
X8060000Y-2040000D02*
X8040000Y-2060000D01*
X8040000Y-12140000D02*
X8060000Y-12160000D01*
X8060000Y-12140000D02*
X8040000Y-12160000D01*
X8110000Y-7470000D02*
X8130000Y-7490000D01*
X8130000Y-7470000D02*
X8110000Y-7490000D01*
X8110000Y-8700000D02*
X8130000Y-8720000D01*
X8130000Y-8700000D02*
X8110000Y-8720000D01*
X8125000Y-4205000D02*
X8145000Y-4225000D01*
X8145000Y-4205000D02*
X8125000Y-4225000D01*
X8135000Y-3500000D02*
X8155000Y-3520000D01*
X8155000Y-3500000D02*
X8135000Y-3520000D01*
X8140000Y-2040000D02*
X8160000Y-2060000D01*
X8160000Y-2040000D02*
X8140000Y-2060000D01*
X8140000Y-12140000D02*
X8160000Y-12160000D01*
X8160000Y-12140000D02*
X8140000Y-12160000D01*
X8180000Y-8680000D02*
X8200000Y-8700000D01*
X8200000Y-8680000D02*
X8180000Y-8700000D01*
X8189120Y-8143400D02*
X8209120Y-8163400D01*
X8209120Y-8143400D02*
X8189120Y-8163400D01*
X8190000Y-8940000D02*
X8210000Y-8960000D01*
X8210000Y-8940000D02*
X8190000Y-8960000D01*
X8215000Y-7825000D02*
X8235000Y-7845000D01*
X8235000Y-7825000D02*
X8215000Y-7845000D01*
X8240000Y-2040000D02*
X8260000Y-2060000D01*
X8260000Y-2040000D02*
X8240000Y-2060000D01*
X8240000Y-12140000D02*
X8260000Y-12160000D01*
X8260000Y-12140000D02*
X8240000Y-12160000D01*
X8245000Y-4206400D02*
X8265000Y-4226400D01*
X8265000Y-4206400D02*
X8245000Y-4226400D01*
X8260000Y-8740100D02*
X8280000Y-8760100D01*
X8280000Y-8740100D02*
X8260000Y-8760100D01*
X8270000Y-9890000D02*
X8290000Y-9910000D01*
X8290000Y-9890000D02*
X8270000Y-9910000D01*
X8296000Y-9112000D02*
X8316000Y-9132000D01*
X8316000Y-9112000D02*
X8296000Y-9132000D01*
X8308500Y-4206400D02*
X8328500Y-4226400D01*
X8328500Y-4206400D02*
X8308500Y-4226400D01*
X8312308Y-7794800D02*
X8332308Y-7814800D01*
X8332308Y-7794800D02*
X8312308Y-7814800D01*
X8312500Y-7852500D02*
X8332500Y-7872500D01*
X8332500Y-7852500D02*
X8312500Y-7872500D01*
X8315000Y-6265000D02*
X8335000Y-6285000D01*
X8335000Y-6265000D02*
X8315000Y-6285000D01*
X8318660Y-10711340D02*
X8338660Y-10731340D01*
X8338660Y-10711340D02*
X8318660Y-10731340D01*
X8321200Y-2814480D02*
X8341200Y-2834480D01*
X8341200Y-2814480D02*
X8321200Y-2834480D01*
X8340000Y-2040000D02*
X8360000Y-2060000D01*
X8360000Y-2040000D02*
X8340000Y-2060000D01*
X8340000Y-12140000D02*
X8360000Y-12160000D01*
X8360000Y-12140000D02*
X8340000Y-12160000D01*
X8350000Y-9657000D02*
X8370000Y-9677000D01*
X8370000Y-9657000D02*
X8350000Y-9677000D01*
X8366200Y-4206400D02*
X8386200Y-4226400D01*
X8386200Y-4206400D02*
X8366200Y-4226400D01*
X8370000Y-5530000D02*
X8390000Y-5550000D01*
X8390000Y-5530000D02*
X8370000Y-5550000D01*
X8384000Y-8739500D02*
X8404000Y-8759500D01*
X8404000Y-8739500D02*
X8384000Y-8759500D01*
X8416160Y-5564620D02*
X8436160Y-5584620D01*
X8436160Y-5564620D02*
X8416160Y-5584620D01*
X8440000Y-2040000D02*
X8460000Y-2060000D01*
X8460000Y-2040000D02*
X8440000Y-2060000D01*
X8440000Y-12140000D02*
X8460000Y-12160000D01*
X8460000Y-12140000D02*
X8440000Y-12160000D01*
X8453300Y-9517273D02*
X8473300Y-9537273D01*
X8473300Y-9517273D02*
X8453300Y-9537273D01*
X8475000Y-6505000D02*
X8495000Y-6525000D01*
X8495000Y-6505000D02*
X8475000Y-6525000D01*
X8510000Y-8740000D02*
X8530000Y-8760000D01*
X8530000Y-8740000D02*
X8510000Y-8760000D01*
X8540000Y-2040000D02*
X8560000Y-2060000D01*
X8560000Y-2040000D02*
X8540000Y-2060000D01*
X8540000Y-12140000D02*
X8560000Y-12160000D01*
X8560000Y-12140000D02*
X8540000Y-12160000D01*
X8542180Y-10716420D02*
X8562180Y-10736420D01*
X8562180Y-10716420D02*
X8542180Y-10736420D01*
X8545000Y-4150000D02*
X8565000Y-4170000D01*
X8565000Y-4150000D02*
X8545000Y-4170000D01*
X8565000Y-8965000D02*
X8585000Y-8985000D01*
X8585000Y-8965000D02*
X8565000Y-8985000D01*
X8565326Y-8070000D02*
X8585326Y-8090000D01*
X8585326Y-8070000D02*
X8565326Y-8090000D01*
X8575200Y-2298860D02*
X8595200Y-2318860D01*
X8595200Y-2298860D02*
X8575200Y-2318860D01*
X8576470Y-7656990D02*
X8596470Y-7676990D01*
X8596470Y-7656990D02*
X8576470Y-7676990D01*
X8596790Y-10114440D02*
X8616790Y-10134440D01*
X8616790Y-10114440D02*
X8596790Y-10134440D01*
X8613300Y-5717700D02*
X8633300Y-5737700D01*
X8633300Y-5717700D02*
X8613300Y-5737700D01*
X8630000Y-8965000D02*
X8650000Y-8985000D01*
X8650000Y-8965000D02*
X8630000Y-8985000D01*
X8640000Y-2040000D02*
X8660000Y-2060000D01*
X8660000Y-2040000D02*
X8640000Y-2060000D01*
X8640000Y-12140000D02*
X8660000Y-12160000D01*
X8660000Y-12140000D02*
X8640000Y-12160000D01*
X8655600Y-5762550D02*
X8675600Y-5782550D01*
X8675600Y-5762550D02*
X8655600Y-5782550D01*
X8695850Y-5711350D02*
X8715850Y-5731350D01*
X8715850Y-5711350D02*
X8695850Y-5731350D01*
X8735000Y-4150000D02*
X8755000Y-4170000D01*
X8755000Y-4150000D02*
X8735000Y-4170000D01*
X8740000Y-2040000D02*
X8760000Y-2060000D01*
X8760000Y-2040000D02*
X8740000Y-2060000D01*
X8740000Y-12140000D02*
X8760000Y-12160000D01*
X8760000Y-12140000D02*
X8740000Y-12160000D01*
X8750000Y-8845000D02*
X8770000Y-8865000D01*
X8770000Y-8845000D02*
X8750000Y-8865000D01*
X8753000Y-5755800D02*
X8773000Y-5775800D01*
X8773000Y-5755800D02*
X8753000Y-5775800D01*
X8758080Y-10109360D02*
X8778080Y-10129360D01*
X8778080Y-10109360D02*
X8758080Y-10129360D01*
X8810000Y-7850000D02*
X8830000Y-7870000D01*
X8830000Y-7850000D02*
X8810000Y-7870000D01*
X8838090Y-5200810D02*
X8858090Y-5220810D01*
X8858090Y-5200810D02*
X8838090Y-5220810D01*
X8840000Y-2040000D02*
X8860000Y-2060000D01*
X8860000Y-2040000D02*
X8840000Y-2060000D01*
X8840000Y-12140000D02*
X8860000Y-12160000D01*
X8860000Y-12140000D02*
X8840000Y-12160000D01*
X8854600Y-4130200D02*
X8874600Y-4150200D01*
X8874600Y-4130200D02*
X8854600Y-4150200D01*
X8860000Y-5550000D02*
X8880000Y-5570000D01*
X8880000Y-5550000D02*
X8860000Y-5570000D01*
X8867700Y-7850000D02*
X8887700Y-7870000D01*
X8887700Y-7850000D02*
X8867700Y-7870000D01*
X8920000Y-5550000D02*
X8940000Y-5570000D01*
X8940000Y-5550000D02*
X8920000Y-5570000D01*
X8938420Y-5200810D02*
X8958420Y-5220810D01*
X8958420Y-5200810D02*
X8938420Y-5220810D01*
X8940000Y-2040000D02*
X8960000Y-2060000D01*
X8960000Y-2040000D02*
X8940000Y-2060000D01*
X8940000Y-12140000D02*
X8960000Y-12160000D01*
X8960000Y-12140000D02*
X8940000Y-12160000D01*
X8956200Y-2885600D02*
X8976200Y-2905600D01*
X8976200Y-2885600D02*
X8956200Y-2905600D01*
X8970170Y-10109360D02*
X8990170Y-10129360D01*
X8990170Y-10109360D02*
X8970170Y-10129360D01*
X8990000Y-8745000D02*
X9010000Y-8765000D01*
X9010000Y-8745000D02*
X8990000Y-8765000D01*
X9040000Y-2040000D02*
X9060000Y-2060000D01*
X9060000Y-2040000D02*
X9040000Y-2060000D01*
X9040000Y-12140000D02*
X9060000Y-12160000D01*
X9060000Y-12140000D02*
X9040000Y-12160000D01*
X9068450Y-5320800D02*
X9088450Y-5340800D01*
X9088450Y-5320800D02*
X9068450Y-5340800D01*
X9070000Y-5815000D02*
X9090000Y-5835000D01*
X9090000Y-5815000D02*
X9070000Y-5835000D01*
X9080000Y-7255000D02*
X9100000Y-7275000D01*
X9100000Y-7255000D02*
X9080000Y-7275000D01*
X9098350Y-6890000D02*
X9118350Y-6910000D01*
X9118350Y-6890000D02*
X9098350Y-6910000D01*
X9110000Y-5280000D02*
X9130000Y-5300000D01*
X9130000Y-5280000D02*
X9110000Y-5300000D01*
X9121300Y-2955450D02*
X9141300Y-2975450D01*
X9141300Y-2955450D02*
X9121300Y-2975450D01*
X9140000Y-2040000D02*
X9160000Y-2060000D01*
X9160000Y-2040000D02*
X9140000Y-2060000D01*
X9140000Y-12140000D02*
X9160000Y-12160000D01*
X9160000Y-12140000D02*
X9140000Y-12160000D01*
X9150000Y-5570000D02*
X9170000Y-5590000D01*
X9170000Y-5570000D02*
X9150000Y-5590000D01*
X9150000Y-8720000D02*
X9170000Y-8740000D01*
X9170000Y-8720000D02*
X9150000Y-8740000D01*
X9230000Y-5570000D02*
X9250000Y-5590000D01*
X9250000Y-5570000D02*
X9230000Y-5590000D01*
X9230000Y-8700000D02*
X9250000Y-8720000D01*
X9250000Y-8700000D02*
X9230000Y-8720000D01*
X9230000Y-8975000D02*
X9250000Y-8995000D01*
X9250000Y-8975000D02*
X9230000Y-8995000D01*
X9236870Y-10114440D02*
X9256870Y-10134440D01*
X9256870Y-10114440D02*
X9236870Y-10134440D01*
X9240000Y-2040000D02*
X9260000Y-2060000D01*
X9260000Y-2040000D02*
X9240000Y-2060000D01*
X9240000Y-12140000D02*
X9260000Y-12160000D01*
X9260000Y-12140000D02*
X9240000Y-12160000D01*
X9253740Y-5270000D02*
X9273740Y-5290000D01*
X9273740Y-5270000D02*
X9253740Y-5290000D01*
X9295000Y-7045000D02*
X9315000Y-7065000D01*
X9315000Y-7045000D02*
X9295000Y-7065000D01*
X9295290Y-5212240D02*
X9315290Y-5232240D01*
X9315290Y-5212240D02*
X9295290Y-5232240D01*
X9295290Y-6940710D02*
X9315290Y-6960710D01*
X9315290Y-6940710D02*
X9295290Y-6960710D01*
X9297830Y-8086250D02*
X9317830Y-8106250D01*
X9317830Y-8086250D02*
X9297830Y-8106250D01*
X9299100Y-3055900D02*
X9319100Y-3075900D01*
X9319100Y-3055900D02*
X9299100Y-3075900D01*
X9299100Y-4295300D02*
X9319100Y-4315300D01*
X9319100Y-4295300D02*
X9299100Y-4315300D01*
X9299100Y-7782720D02*
X9319100Y-7802720D01*
X9319100Y-7782720D02*
X9299100Y-7802720D01*
X9316940Y-7880626D02*
X9336940Y-7900626D01*
X9336940Y-7880626D02*
X9316940Y-7900626D01*
X9330000Y-10810000D02*
X9350000Y-10830000D01*
X9350000Y-10810000D02*
X9330000Y-10830000D01*
X9340000Y-2040000D02*
X9360000Y-2060000D01*
X9360000Y-2040000D02*
X9340000Y-2060000D01*
X9340000Y-12140000D02*
X9360000Y-12160000D01*
X9360000Y-12140000D02*
X9340000Y-12160000D01*
X9350000Y-5820000D02*
X9370000Y-5840000D01*
X9370000Y-5820000D02*
X9350000Y-5840000D01*
X9352418Y-5220343D02*
X9372418Y-5240343D01*
X9372418Y-5220343D02*
X9352418Y-5240343D01*
X9357520Y-3266600D02*
X9377520Y-3286600D01*
X9377520Y-3266600D02*
X9357520Y-3286600D01*
X9370000Y-5280000D02*
X9390000Y-5300000D01*
X9390000Y-5280000D02*
X9370000Y-5300000D01*
X9415000Y-8065000D02*
X9435000Y-8085000D01*
X9435000Y-8065000D02*
X9415000Y-8085000D01*
X9430000Y-11820000D02*
X9450000Y-11840000D01*
X9450000Y-11820000D02*
X9430000Y-11840000D01*
X9440000Y-2040000D02*
X9460000Y-2060000D01*
X9460000Y-2040000D02*
X9440000Y-2060000D01*
X9440000Y-12140000D02*
X9460000Y-12160000D01*
X9460000Y-12140000D02*
X9440000Y-12160000D01*
X9456700Y-10112020D02*
X9476700Y-10132020D01*
X9476700Y-10112020D02*
X9456700Y-10132020D01*
X9460000Y-3055000D02*
X9480000Y-3075000D01*
X9480000Y-3055000D02*
X9460000Y-3075000D01*
X9465000Y-8123965D02*
X9485000Y-8143965D01*
X9485000Y-8123965D02*
X9465000Y-8143965D01*
X9465000Y-8716520D02*
X9485000Y-8736520D01*
X9485000Y-8716520D02*
X9465000Y-8736520D01*
X9475630Y-5141120D02*
X9495630Y-5161120D01*
X9495630Y-5141120D02*
X9475630Y-5161120D01*
X9476900Y-3342800D02*
X9496900Y-3362800D01*
X9496900Y-3342800D02*
X9476900Y-3362800D01*
X9500000Y-6570000D02*
X9520000Y-6590000D01*
X9520000Y-6570000D02*
X9500000Y-6590000D01*
X9510000Y-5530000D02*
X9530000Y-5550000D01*
X9530000Y-5530000D02*
X9510000Y-5550000D01*
X9518810Y-6938170D02*
X9538810Y-6958170D01*
X9538810Y-6938170D02*
X9518810Y-6958170D01*
X9540000Y-2040000D02*
X9560000Y-2060000D01*
X9560000Y-2040000D02*
X9540000Y-2060000D01*
X9540000Y-12140000D02*
X9560000Y-12160000D01*
X9560000Y-12140000D02*
X9540000Y-12160000D01*
X9541670Y-8084980D02*
X9561670Y-8104980D01*
X9561670Y-8084980D02*
X9541670Y-8104980D01*
X9550000Y-8710000D02*
X9570000Y-8730000D01*
X9570000Y-8710000D02*
X9550000Y-8730000D01*
X9550000Y-8980000D02*
X9570000Y-9000000D01*
X9570000Y-8980000D02*
X9550000Y-9000000D01*
X9565000Y-3060000D02*
X9585000Y-3080000D01*
X9585000Y-3060000D02*
X9565000Y-3080000D01*
X9565000Y-7190000D02*
X9585000Y-7210000D01*
X9585000Y-7190000D02*
X9565000Y-7210000D01*
X9570000Y-5530000D02*
X9590000Y-5550000D01*
X9590000Y-5530000D02*
X9570000Y-5550000D01*
X9603900Y-3342800D02*
X9623900Y-3362800D01*
X9623900Y-3342800D02*
X9603900Y-3362800D01*
X9615000Y-7040000D02*
X9635000Y-7060000D01*
X9635000Y-7040000D02*
X9615000Y-7060000D01*
X9640000Y-2040000D02*
X9660000Y-2060000D01*
X9660000Y-2040000D02*
X9640000Y-2060000D01*
X9640000Y-12140000D02*
X9660000Y-12160000D01*
X9660000Y-12140000D02*
X9640000Y-12160000D01*
X9651280Y-4104800D02*
X9671280Y-4124800D01*
X9671280Y-4104800D02*
X9651280Y-4124800D01*
X9660000Y-3055000D02*
X9680000Y-3075000D01*
X9680000Y-3055000D02*
X9660000Y-3075000D01*
X9665000Y-7685070D02*
X9685000Y-7705070D01*
X9685000Y-7685070D02*
X9665000Y-7705070D01*
X9674951Y-4650900D02*
X9694951Y-4670900D01*
X9694951Y-4650900D02*
X9674951Y-4670900D01*
X9690000Y-6890000D02*
X9710000Y-6910000D01*
X9710000Y-6890000D02*
X9690000Y-6910000D01*
X9715000Y-6625000D02*
X9735000Y-6645000D01*
X9735000Y-6625000D02*
X9715000Y-6645000D01*
X9715000Y-6715000D02*
X9735000Y-6735000D01*
X9735000Y-6715000D02*
X9715000Y-6735000D01*
X9718200Y-4363880D02*
X9738200Y-4383880D01*
X9738200Y-4363880D02*
X9718200Y-4383880D01*
X9718200Y-7927500D02*
X9738200Y-7947500D01*
X9738200Y-7927500D02*
X9718200Y-7947500D01*
X9721817Y-5424415D02*
X9741817Y-5444415D01*
X9741817Y-5424415D02*
X9721817Y-5444415D01*
X9737729Y-6571965D02*
X9757729Y-6591965D01*
X9757729Y-6571965D02*
X9737729Y-6591965D01*
X9740000Y-2040000D02*
X9760000Y-2060000D01*
X9760000Y-2040000D02*
X9740000Y-2060000D01*
X9740000Y-6510000D02*
X9760000Y-6530000D01*
X9760000Y-6510000D02*
X9740000Y-6530000D01*
X9740000Y-12140000D02*
X9760000Y-12160000D01*
X9760000Y-12140000D02*
X9740000Y-12160000D01*
X9758840Y-5776120D02*
X9778840Y-5796120D01*
X9778840Y-5776120D02*
X9758840Y-5796120D01*
X9760000Y-5870000D02*
X9780000Y-5890000D01*
X9780000Y-5870000D02*
X9760000Y-5890000D01*
X9760000Y-5927700D02*
X9780000Y-5947700D01*
X9780000Y-5927700D02*
X9760000Y-5947700D01*
X9760000Y-7070000D02*
X9780000Y-7090000D01*
X9780000Y-7070000D02*
X9760000Y-7090000D01*
X9760000Y-7127700D02*
X9780000Y-7147700D01*
X9780000Y-7127700D02*
X9760000Y-7147700D01*
X9760000Y-7670000D02*
X9780000Y-7690000D01*
X9780000Y-7670000D02*
X9760000Y-7690000D01*
X9760000Y-7727700D02*
X9780000Y-7747700D01*
X9780000Y-7727700D02*
X9760000Y-7747700D01*
X9840000Y-2040000D02*
X9860000Y-2060000D01*
X9860000Y-2040000D02*
X9840000Y-2060000D01*
X9840000Y-12140000D02*
X9860000Y-12160000D01*
X9860000Y-12140000D02*
X9840000Y-12160000D01*
X9846000Y-2303140D02*
X9866000Y-2323140D01*
X9866000Y-2303140D02*
X9846000Y-2323140D01*
X9928650Y-3640350D02*
X9948650Y-3660350D01*
X9948650Y-3640350D02*
X9928650Y-3660350D01*
X9928650Y-4351550D02*
X9948650Y-4371550D01*
X9948650Y-4351550D02*
X9928650Y-4371550D01*
X9940000Y-2040000D02*
X9960000Y-2060000D01*
X9960000Y-2040000D02*
X9940000Y-2060000D01*
X9940000Y-12140000D02*
X9960000Y-12160000D01*
X9960000Y-12140000D02*
X9940000Y-12160000D01*
X9977650Y-3603370D02*
X9997650Y-3623370D01*
X9997650Y-3603370D02*
X9977650Y-3623370D01*
X9977650Y-4308900D02*
X9997650Y-4328900D01*
X9997650Y-4308900D02*
X9977650Y-4328900D01*
X9991335Y-7858835D02*
X10011335Y-7878835D01*
X10011335Y-7858835D02*
X9991335Y-7878835D01*
X10017350Y-5136040D02*
X10037350Y-5156040D01*
X10037350Y-5136040D02*
X10017350Y-5156040D01*
X10030000Y-6975326D02*
X10050000Y-6995326D01*
X10050000Y-6975326D02*
X10030000Y-6995326D01*
X10040000Y-2040000D02*
X10060000Y-2060000D01*
X10060000Y-2040000D02*
X10040000Y-2060000D01*
X10040000Y-12140000D02*
X10060000Y-12160000D01*
X10060000Y-12140000D02*
X10040000Y-12160000D01*
X10065000Y-6766550D02*
X10085000Y-6786550D01*
X10085000Y-6766550D02*
X10065000Y-6786550D01*
X10095390Y-5849780D02*
X10115390Y-5869780D01*
X10115390Y-5849780D02*
X10095390Y-5869780D01*
X10096660Y-5948840D02*
X10116660Y-5968840D01*
X10116660Y-5948840D02*
X10096660Y-5968840D01*
X10099200Y-10886600D02*
X10119200Y-10906600D01*
X10119200Y-10886600D02*
X10099200Y-10906600D01*
X10137454Y-7150000D02*
X10157454Y-7170000D01*
X10157454Y-7150000D02*
X10137454Y-7170000D01*
X10140000Y-2040000D02*
X10160000Y-2060000D01*
X10160000Y-2040000D02*
X10140000Y-2060000D01*
X10140000Y-6865000D02*
X10160000Y-6885000D01*
X10160000Y-6865000D02*
X10140000Y-6885000D01*
X10140000Y-12140000D02*
X10160000Y-12160000D01*
X10160000Y-12140000D02*
X10140000Y-12160000D01*
X10162700Y-8350410D02*
X10182700Y-8370410D01*
X10182700Y-8350410D02*
X10162700Y-8370410D01*
X10162700Y-10594500D02*
X10182700Y-10614500D01*
X10182700Y-10594500D02*
X10162700Y-10614500D01*
X10165000Y-6940000D02*
X10185000Y-6960000D01*
X10185000Y-6940000D02*
X10165000Y-6960000D01*
X10209690Y-7857650D02*
X10229690Y-7877650D01*
X10229690Y-7857650D02*
X10209690Y-7877650D01*
X10213500Y-7616350D02*
X10233500Y-7636350D01*
X10233500Y-7616350D02*
X10213500Y-7636350D01*
X10216040Y-7697630D02*
X10236040Y-7717630D01*
X10236040Y-7697630D02*
X10216040Y-7717630D01*
X10216040Y-7773830D02*
X10236040Y-7793830D01*
X10236040Y-7773830D02*
X10216040Y-7793830D01*
X10238900Y-4193700D02*
X10258900Y-4213700D01*
X10258900Y-4193700D02*
X10238900Y-4213700D01*
X10240000Y-2040000D02*
X10260000Y-2060000D01*
X10260000Y-2040000D02*
X10240000Y-2060000D01*
X10240000Y-12140000D02*
X10260000Y-12160000D01*
X10260000Y-12140000D02*
X10240000Y-12160000D01*
X10290000Y-6815000D02*
X10310000Y-6835000D01*
X10310000Y-6815000D02*
X10290000Y-6835000D01*
X10340000Y-2040000D02*
X10360000Y-2060000D01*
X10360000Y-2040000D02*
X10340000Y-2060000D01*
X10340000Y-12140000D02*
X10360000Y-12160000D01*
X10360000Y-12140000D02*
X10340000Y-12160000D01*
X10353200Y-2291240D02*
X10373200Y-2311240D01*
X10373200Y-2291240D02*
X10353200Y-2311240D01*
X10404000Y-6350160D02*
X10424000Y-6370160D01*
X10424000Y-6350160D02*
X10404000Y-6370160D01*
X10440000Y-2040000D02*
X10460000Y-2060000D01*
X10460000Y-2040000D02*
X10440000Y-2060000D01*
X10440000Y-12140000D02*
X10460000Y-12160000D01*
X10460000Y-12140000D02*
X10440000Y-12160000D01*
X10459880Y-6289200D02*
X10479880Y-6309200D01*
X10479880Y-6289200D02*
X10459880Y-6309200D01*
X10505600Y-7396640D02*
X10525600Y-7416640D01*
X10525600Y-7396640D02*
X10505600Y-7416640D01*
X10540000Y-2040000D02*
X10560000Y-2060000D01*
X10560000Y-2040000D02*
X10540000Y-2060000D01*
X10540000Y-12140000D02*
X10560000Y-12160000D01*
X10560000Y-12140000D02*
X10540000Y-12160000D01*
X10556400Y-7330600D02*
X10576400Y-7350600D01*
X10576400Y-7330600D02*
X10556400Y-7350600D01*
X10607200Y-7051200D02*
X10627200Y-7071200D01*
X10627200Y-7051200D02*
X10607200Y-7071200D01*
X10640000Y-2040000D02*
X10660000Y-2060000D01*
X10660000Y-2040000D02*
X10640000Y-2060000D01*
X10640000Y-12140000D02*
X10660000Y-12160000D01*
X10660000Y-12140000D02*
X10640000Y-12160000D01*
X10648750Y-7120000D02*
X10668750Y-7140000D01*
X10668750Y-7120000D02*
X10648750Y-7140000D01*
X10648750Y-7120000D02*
X10668750Y-7140000D01*
X10668750Y-7120000D02*
X10648750Y-7140000D01*
X10650000Y-7010000D02*
X10670000Y-7030000D01*
X10670000Y-7010000D02*
X10650000Y-7030000D01*
X10691550Y-6345080D02*
X10711550Y-6365080D01*
X10711550Y-6345080D02*
X10691550Y-6365080D01*
X10694023Y-7303994D02*
X10714023Y-7323994D01*
X10714023Y-7303994D02*
X10694023Y-7323994D01*
X10740000Y-2040000D02*
X10760000Y-2060000D01*
X10760000Y-2040000D02*
X10740000Y-2060000D01*
X10740000Y-12140000D02*
X10760000Y-12160000D01*
X10760000Y-12140000D02*
X10740000Y-12160000D01*
X10745630Y-6398420D02*
X10765630Y-6418420D01*
X10765630Y-6398420D02*
X10745630Y-6418420D01*
X10750000Y-7290000D02*
X10770000Y-7310000D01*
X10770000Y-7290000D02*
X10750000Y-7310000D01*
X10840000Y-2040000D02*
X10860000Y-2060000D01*
X10860000Y-2040000D02*
X10840000Y-2060000D01*
X10840000Y-12140000D02*
X10860000Y-12160000D01*
X10860000Y-12140000D02*
X10840000Y-12160000D01*
X10940000Y-2040000D02*
X10960000Y-2060000D01*
X10960000Y-2040000D02*
X10940000Y-2060000D01*
X10940000Y-12140000D02*
X10960000Y-12160000D01*
X10960000Y-12140000D02*
X10940000Y-12160000D01*
X11040000Y-2040000D02*
X11060000Y-2060000D01*
X11060000Y-2040000D02*
X11040000Y-2060000D01*
X11040000Y-12140000D02*
X11060000Y-12160000D01*
X11060000Y-12140000D02*
X11040000Y-12160000D01*
X11064400Y-5128450D02*
X11084400Y-5148450D01*
X11084400Y-5128450D02*
X11064400Y-5148450D01*
X11117740Y-2811940D02*
X11137740Y-2831940D01*
X11137740Y-2811940D02*
X11117740Y-2831940D01*
X11140000Y-2040000D02*
X11160000Y-2060000D01*
X11160000Y-2040000D02*
X11140000Y-2060000D01*
X11140000Y-12140000D02*
X11160000Y-12160000D01*
X11160000Y-12140000D02*
X11140000Y-12160000D01*
X11240000Y-2040000D02*
X11260000Y-2060000D01*
X11260000Y-2040000D02*
X11240000Y-2060000D01*
X11240000Y-12140000D02*
X11260000Y-12160000D01*
X11260000Y-12140000D02*
X11240000Y-12160000D01*
X11340000Y-2040000D02*
X11360000Y-2060000D01*
X11360000Y-2040000D02*
X11340000Y-2060000D01*
X11340000Y-12140000D02*
X11360000Y-12160000D01*
X11360000Y-12140000D02*
X11340000Y-12160000D01*
X11440000Y-2040000D02*
X11460000Y-2060000D01*
X11460000Y-2040000D02*
X11440000Y-2060000D01*
X11440000Y-12140000D02*
X11460000Y-12160000D01*
X11460000Y-12140000D02*
X11440000Y-12160000D01*
X11475880Y-2610010D02*
X11495880Y-2630010D01*
X11495880Y-2610010D02*
X11475880Y-2630010D01*
X11540000Y-2040000D02*
X11560000Y-2060000D01*
X11560000Y-2040000D02*
X11540000Y-2060000D01*
X11540000Y-12140000D02*
X11560000Y-12160000D01*
X11560000Y-12140000D02*
X11540000Y-12160000D01*
X11640000Y-2040000D02*
X11660000Y-2060000D01*
X11660000Y-2040000D02*
X11640000Y-2060000D01*
X11640000Y-12140000D02*
X11660000Y-12160000D01*
X11660000Y-12140000D02*
X11640000Y-12160000D01*
X11674000Y-6649880D02*
X11694000Y-6669880D01*
X11694000Y-6649880D02*
X11674000Y-6669880D01*
X11740000Y-2040000D02*
X11760000Y-2060000D01*
X11760000Y-2040000D02*
X11740000Y-2060000D01*
X11740000Y-12140000D02*
X11760000Y-12160000D01*
X11760000Y-12140000D02*
X11740000Y-12160000D01*
X11840000Y-2040000D02*
X11860000Y-2060000D01*
X11860000Y-2040000D02*
X11840000Y-2060000D01*
X11840000Y-12140000D02*
X11860000Y-12160000D01*
X11860000Y-12140000D02*
X11840000Y-12160000D01*
X11940000Y-2040000D02*
X11960000Y-2060000D01*
X11960000Y-2040000D02*
X11940000Y-2060000D01*
X11940000Y-12140000D02*
X11960000Y-12160000D01*
X11960000Y-12140000D02*
X11940000Y-12160000D01*
X12040000Y-2040000D02*
X12060000Y-2060000D01*
X12060000Y-2040000D02*
X12040000Y-2060000D01*
X12040000Y-12140000D02*
X12060000Y-12160000D01*
X12060000Y-12140000D02*
X12040000Y-12160000D01*
X12140000Y-2040000D02*
X12160000Y-2060000D01*
X12160000Y-2040000D02*
X12140000Y-2060000D01*
X12140000Y-12140000D02*
X12160000Y-12160000D01*
X12160000Y-12140000D02*
X12140000Y-12160000D01*
X12240000Y-2040000D02*
X12260000Y-2060000D01*
X12260000Y-2040000D02*
X12240000Y-2060000D01*
X12240000Y-12140000D02*
X12260000Y-12160000D01*
X12260000Y-12140000D02*
X12240000Y-12160000D01*
X12340000Y-2040000D02*
X12360000Y-2060000D01*
X12360000Y-2040000D02*
X12340000Y-2060000D01*
X12340000Y-12140000D02*
X12360000Y-12160000D01*
X12360000Y-12140000D02*
X12340000Y-12160000D01*
X12390000Y-4165000D02*
X12410000Y-4185000D01*
X12410000Y-4165000D02*
X12390000Y-4185000D01*
X12420000Y-5225059D02*
X12440000Y-5245059D01*
X12440000Y-5225059D02*
X12420000Y-5245059D01*
X12440000Y-2040000D02*
X12460000Y-2060000D01*
X12460000Y-2040000D02*
X12440000Y-2060000D01*
X12440000Y-12140000D02*
X12460000Y-12160000D01*
X12460000Y-12140000D02*
X12440000Y-12160000D01*
X12540000Y-2040000D02*
X12560000Y-2060000D01*
X12560000Y-2040000D02*
X12540000Y-2060000D01*
X12540000Y-12140000D02*
X12560000Y-12160000D01*
X12560000Y-12140000D02*
X12540000Y-12160000D01*
X12615000Y-5090000D02*
X12635000Y-5110000D01*
X12635000Y-5090000D02*
X12615000Y-5110000D01*
X12640000Y-2040000D02*
X12660000Y-2060000D01*
X12660000Y-2040000D02*
X12640000Y-2060000D01*
X12640000Y-12140000D02*
X12660000Y-12160000D01*
X12660000Y-12140000D02*
X12640000Y-12160000D01*
X12640804Y-5266609D02*
X12660804Y-5286609D01*
X12660804Y-5266609D02*
X12640804Y-5286609D01*
X12645000Y-5170000D02*
X12665000Y-5190000D01*
X12665000Y-5170000D02*
X12645000Y-5190000D01*
X12690000Y-5465000D02*
X12710000Y-5485000D01*
X12710000Y-5465000D02*
X12690000Y-5485000D01*
X12740000Y-2040000D02*
X12760000Y-2060000D01*
X12760000Y-2040000D02*
X12740000Y-2060000D01*
X12740000Y-12140000D02*
X12760000Y-12160000D01*
X12760000Y-12140000D02*
X12740000Y-12160000D01*
X12765000Y-5815000D02*
X12785000Y-5835000D01*
X12785000Y-5815000D02*
X12765000Y-5835000D01*
X12790000Y-5365000D02*
X12810000Y-5385000D01*
X12810000Y-5365000D02*
X12790000Y-5385000D01*
X12790000Y-5465000D02*
X12810000Y-5485000D01*
X12810000Y-5465000D02*
X12790000Y-5485000D01*
X12816609Y-5840804D02*
X12836609Y-5860804D01*
X12836609Y-5840804D02*
X12816609Y-5860804D01*
X12840000Y-2040000D02*
X12860000Y-2060000D01*
X12860000Y-2040000D02*
X12840000Y-2060000D01*
X12840000Y-12140000D02*
X12860000Y-12160000D01*
X12860000Y-12140000D02*
X12840000Y-12160000D01*
X12865000Y-5890000D02*
X12885000Y-5910000D01*
X12885000Y-5890000D02*
X12865000Y-5910000D01*
X12870000Y-4935000D02*
X12890000Y-4955000D01*
X12890000Y-4935000D02*
X12870000Y-4955000D01*
X12912100Y-5962500D02*
X12932100Y-5982500D01*
X12932100Y-5962500D02*
X12912100Y-5982500D01*
X12940000Y-2040000D02*
X12960000Y-2060000D01*
X12960000Y-2040000D02*
X12940000Y-2060000D01*
X12940000Y-12140000D02*
X12960000Y-12160000D01*
X12960000Y-12140000D02*
X12940000Y-12160000D01*
X12990000Y-6040000D02*
X13010000Y-6060000D01*
X13010000Y-6040000D02*
X12990000Y-6060000D01*
X13040000Y-2040000D02*
X13060000Y-2060000D01*
X13060000Y-2040000D02*
X13040000Y-2060000D01*
X13040000Y-12140000D02*
X13060000Y-12160000D01*
X13060000Y-12140000D02*
X13040000Y-12160000D01*
X13073000Y-3540000D02*
X13093000Y-3560000D01*
X13093000Y-3540000D02*
X13073000Y-3560000D01*
X13115000Y-5940000D02*
X13135000Y-5960000D01*
X13135000Y-5940000D02*
X13115000Y-5960000D01*
X13140000Y-2040000D02*
X13160000Y-2060000D01*
X13160000Y-2040000D02*
X13140000Y-2060000D01*
X13140000Y-12140000D02*
X13160000Y-12160000D01*
X13160000Y-12140000D02*
X13140000Y-12160000D01*
X13240000Y-2040000D02*
X13260000Y-2060000D01*
X13260000Y-2040000D02*
X13240000Y-2060000D01*
X13240000Y-3915000D02*
X13260000Y-3935000D01*
X13260000Y-3915000D02*
X13240000Y-3935000D01*
X13240000Y-12140000D02*
X13260000Y-12160000D01*
X13260000Y-12140000D02*
X13240000Y-12160000D01*
X13265000Y-4365000D02*
X13285000Y-4385000D01*
X13285000Y-4365000D02*
X13265000Y-4385000D01*
X13265000Y-5265000D02*
X13285000Y-5285000D01*
X13285000Y-5265000D02*
X13265000Y-5285000D01*
X13290000Y-3640000D02*
X13310000Y-3660000D01*
X13310000Y-3640000D02*
X13290000Y-3660000D01*
X13340000Y-2040000D02*
X13360000Y-2060000D01*
X13360000Y-2040000D02*
X13340000Y-2060000D01*
X13340000Y-12140000D02*
X13360000Y-12160000D01*
X13360000Y-12140000D02*
X13340000Y-12160000D01*
X13365000Y-3440000D02*
X13385000Y-3460000D01*
X13385000Y-3440000D02*
X13365000Y-3460000D01*
X13440000Y-2040000D02*
X13460000Y-2060000D01*
X13460000Y-2040000D02*
X13440000Y-2060000D01*
X13440000Y-12140000D02*
X13460000Y-12160000D01*
X13460000Y-12140000D02*
X13440000Y-12160000D01*
X13515000Y-3640000D02*
X13535000Y-3660000D01*
X13535000Y-3640000D02*
X13515000Y-3660000D01*
X13540000Y-2040000D02*
X13560000Y-2060000D01*
X13560000Y-2040000D02*
X13540000Y-2060000D01*
X13540000Y-12140000D02*
X13560000Y-12160000D01*
X13560000Y-12140000D02*
X13540000Y-12160000D01*
X13615000Y-6515000D02*
X13635000Y-6535000D01*
X13635000Y-6515000D02*
X13615000Y-6535000D01*
X13640000Y-2040000D02*
X13660000Y-2060000D01*
X13660000Y-2040000D02*
X13640000Y-2060000D01*
X13640000Y-12140000D02*
X13660000Y-12160000D01*
X13660000Y-12140000D02*
X13640000Y-12160000D01*
X13740000Y-2040000D02*
X13760000Y-2060000D01*
X13760000Y-2040000D02*
X13740000Y-2060000D01*
X13740000Y-12140000D02*
X13760000Y-12160000D01*
X13760000Y-12140000D02*
X13740000Y-12160000D01*
X13790000Y-3965000D02*
X13810000Y-3985000D01*
X13810000Y-3965000D02*
X13790000Y-3985000D01*
X13790000Y-4440000D02*
X13810000Y-4460000D01*
X13810000Y-4440000D02*
X13790000Y-4460000D01*
X13790000Y-4890000D02*
X13810000Y-4910000D01*
X13810000Y-4890000D02*
X13790000Y-4910000D01*
X13790000Y-5340000D02*
X13810000Y-5360000D01*
X13810000Y-5340000D02*
X13790000Y-5360000D01*
X13790000Y-5790000D02*
X13810000Y-5810000D01*
X13810000Y-5790000D02*
X13790000Y-5810000D01*
X13815000Y-3740000D02*
X13835000Y-3760000D01*
X13835000Y-3740000D02*
X13815000Y-3760000D01*
X13840000Y-2040000D02*
X13860000Y-2060000D01*
X13860000Y-2040000D02*
X13840000Y-2060000D01*
X13840000Y-12140000D02*
X13860000Y-12160000D01*
X13860000Y-12140000D02*
X13840000Y-12160000D01*
X13880000Y-7100000D02*
X13900000Y-7120000D01*
X13900000Y-7100000D02*
X13880000Y-7120000D01*
X13880000Y-7190000D02*
X13900000Y-7210000D01*
X13900000Y-7190000D02*
X13880000Y-7210000D01*
X13890000Y-6990000D02*
X13910000Y-7010000D01*
X13910000Y-6990000D02*
X13890000Y-7010000D01*
X13890000Y-7290000D02*
X13910000Y-7310000D01*
X13910000Y-7290000D02*
X13890000Y-7310000D01*
X13915000Y-3365000D02*
X13935000Y-3385000D01*
X13935000Y-3365000D02*
X13915000Y-3385000D01*
X13940000Y-2040000D02*
X13960000Y-2060000D01*
X13960000Y-2040000D02*
X13940000Y-2060000D01*
X13940000Y-6860000D02*
X13960000Y-6880000D01*
X13960000Y-6860000D02*
X13940000Y-6880000D01*
X13940000Y-7390000D02*
X13960000Y-7410000D01*
X13960000Y-7390000D02*
X13940000Y-7410000D01*
X13940000Y-12140000D02*
X13960000Y-12160000D01*
X13960000Y-12140000D02*
X13940000Y-12160000D01*
X14000000Y-6760000D02*
X14020000Y-6780000D01*
X14020000Y-6760000D02*
X14000000Y-6780000D01*
X14030000Y-7500000D02*
X14050000Y-7520000D01*
X14050000Y-7500000D02*
X14030000Y-7520000D01*
X14040000Y-2040000D02*
X14060000Y-2060000D01*
X14060000Y-2040000D02*
X14040000Y-2060000D01*
X14040000Y-12140000D02*
X14060000Y-12160000D01*
X14060000Y-12140000D02*
X14040000Y-12160000D01*
X14100000Y-6650000D02*
X14120000Y-6670000D01*
X14120000Y-6650000D02*
X14100000Y-6670000D01*
X14140000Y-2040000D02*
X14160000Y-2060000D01*
X14160000Y-2040000D02*
X14140000Y-2060000D01*
X14140000Y-7590000D02*
X14160000Y-7610000D01*
X14160000Y-7590000D02*
X14140000Y-7610000D01*
X14140000Y-12140000D02*
X14160000Y-12160000D01*
X14160000Y-12140000D02*
X14140000Y-12160000D01*
X14165000Y-6165000D02*
X14185000Y-6185000D01*
X14185000Y-6165000D02*
X14165000Y-6185000D01*
X14170000Y-6590000D02*
X14190000Y-6610000D01*
X14190000Y-6590000D02*
X14170000Y-6610000D01*
X14240000Y-2040000D02*
X14260000Y-2060000D01*
X14260000Y-2040000D02*
X14240000Y-2060000D01*
X14240000Y-6540000D02*
X14260000Y-6560000D01*
X14260000Y-6540000D02*
X14240000Y-6560000D01*
X14240000Y-7650000D02*
X14260000Y-7670000D01*
X14260000Y-7650000D02*
X14240000Y-7670000D01*
X14240000Y-12140000D02*
X14260000Y-12160000D01*
X14260000Y-12140000D02*
X14240000Y-12160000D01*
X14315000Y-3815000D02*
X14335000Y-3835000D01*
X14335000Y-3815000D02*
X14315000Y-3835000D01*
X14340000Y-2040000D02*
X14360000Y-2060000D01*
X14360000Y-2040000D02*
X14340000Y-2060000D01*
X14340000Y-6490000D02*
X14360000Y-6510000D01*
X14360000Y-6490000D02*
X14340000Y-6510000D01*
X14340000Y-7680000D02*
X14360000Y-7700000D01*
X14360000Y-7680000D02*
X14340000Y-7700000D01*
X14340000Y-12140000D02*
X14360000Y-12160000D01*
X14360000Y-12140000D02*
X14340000Y-12160000D01*
X14440000Y-2040000D02*
X14460000Y-2060000D01*
X14460000Y-2040000D02*
X14440000Y-2060000D01*
X14440000Y-6490000D02*
X14460000Y-6510000D01*
X14460000Y-6490000D02*
X14440000Y-6510000D01*
X14440000Y-7690000D02*
X14460000Y-7710000D01*
X14460000Y-7690000D02*
X14440000Y-7710000D01*
X14440000Y-12140000D02*
X14460000Y-12160000D01*
X14460000Y-12140000D02*
X14440000Y-12160000D01*
X14540000Y-2040000D02*
X14560000Y-2060000D01*
X14560000Y-2040000D02*
X14540000Y-2060000D01*
X14540000Y-6490000D02*
X14560000Y-6510000D01*
X14560000Y-6490000D02*
X14540000Y-6510000D01*
X14540000Y-7690000D02*
X14560000Y-7710000D01*
X14560000Y-7690000D02*
X14540000Y-7710000D01*
X14540000Y-12140000D02*
X14560000Y-12160000D01*
X14560000Y-12140000D02*
X14540000Y-12160000D01*
X14640000Y-2040000D02*
X14660000Y-2060000D01*
X14660000Y-2040000D02*
X14640000Y-2060000D01*
X14640000Y-6490000D02*
X14660000Y-6510000D01*
X14660000Y-6490000D02*
X14640000Y-6510000D01*
X14640000Y-7690000D02*
X14660000Y-7710000D01*
X14660000Y-7690000D02*
X14640000Y-7710000D01*
X14640000Y-12140000D02*
X14660000Y-12160000D01*
X14660000Y-12140000D02*
X14640000Y-12160000D01*
X14740000Y-2040000D02*
X14760000Y-2060000D01*
X14760000Y-2040000D02*
X14740000Y-2060000D01*
X14740000Y-6490000D02*
X14760000Y-6510000D01*
X14760000Y-6490000D02*
X14740000Y-6510000D01*
X14740000Y-7690000D02*
X14760000Y-7710000D01*
X14760000Y-7690000D02*
X14740000Y-7710000D01*
X14740000Y-12140000D02*
X14760000Y-12160000D01*
X14760000Y-12140000D02*
X14740000Y-12160000D01*
X14840000Y-2040000D02*
X14860000Y-2060000D01*
X14860000Y-2040000D02*
X14840000Y-2060000D01*
X14840000Y-6490000D02*
X14860000Y-6510000D01*
X14860000Y-6490000D02*
X14840000Y-6510000D01*
X14840000Y-7690000D02*
X14860000Y-7710000D01*
X14860000Y-7690000D02*
X14840000Y-7710000D01*
X14840000Y-12140000D02*
X14860000Y-12160000D01*
X14860000Y-12140000D02*
X14840000Y-12160000D01*
X14940000Y-2040000D02*
X14960000Y-2060000D01*
X14960000Y-2040000D02*
X14940000Y-2060000D01*
X14940000Y-2140000D02*
X14960000Y-2160000D01*
X14960000Y-2140000D02*
X14940000Y-2160000D01*
X14940000Y-2240000D02*
X14960000Y-2260000D01*
X14960000Y-2240000D02*
X14940000Y-2260000D01*
X14940000Y-2340000D02*
X14960000Y-2360000D01*
X14960000Y-2340000D02*
X14940000Y-2360000D01*
X14940000Y-2440000D02*
X14960000Y-2460000D01*
X14960000Y-2440000D02*
X14940000Y-2460000D01*
X14940000Y-2540000D02*
X14960000Y-2560000D01*
X14960000Y-2540000D02*
X14940000Y-2560000D01*
X14940000Y-2640000D02*
X14960000Y-2660000D01*
X14960000Y-2640000D02*
X14940000Y-2660000D01*
X14940000Y-2740000D02*
X14960000Y-2760000D01*
X14960000Y-2740000D02*
X14940000Y-2760000D01*
X14940000Y-2840000D02*
X14960000Y-2860000D01*
X14960000Y-2840000D02*
X14940000Y-2860000D01*
X14940000Y-2940000D02*
X14960000Y-2960000D01*
X14960000Y-2940000D02*
X14940000Y-2960000D01*
X14940000Y-3040000D02*
X14960000Y-3060000D01*
X14960000Y-3040000D02*
X14940000Y-3060000D01*
X14940000Y-3140000D02*
X14960000Y-3160000D01*
X14960000Y-3140000D02*
X14940000Y-3160000D01*
X14940000Y-3240000D02*
X14960000Y-3260000D01*
X14960000Y-3240000D02*
X14940000Y-3260000D01*
X14940000Y-3340000D02*
X14960000Y-3360000D01*
X14960000Y-3340000D02*
X14940000Y-3360000D01*
X14940000Y-3440000D02*
X14960000Y-3460000D01*
X14960000Y-3440000D02*
X14940000Y-3460000D01*
X14940000Y-3540000D02*
X14960000Y-3560000D01*
X14960000Y-3540000D02*
X14940000Y-3560000D01*
X14940000Y-3640000D02*
X14960000Y-3660000D01*
X14960000Y-3640000D02*
X14940000Y-3660000D01*
X14940000Y-3740000D02*
X14960000Y-3760000D01*
X14960000Y-3740000D02*
X14940000Y-3760000D01*
X14940000Y-3840000D02*
X14960000Y-3860000D01*
X14960000Y-3840000D02*
X14940000Y-3860000D01*
X14940000Y-3940000D02*
X14960000Y-3960000D01*
X14960000Y-3940000D02*
X14940000Y-3960000D01*
X14940000Y-4040000D02*
X14960000Y-4060000D01*
X14960000Y-4040000D02*
X14940000Y-4060000D01*
X14940000Y-4140000D02*
X14960000Y-4160000D01*
X14960000Y-4140000D02*
X14940000Y-4160000D01*
X14940000Y-4240000D02*
X14960000Y-4260000D01*
X14960000Y-4240000D02*
X14940000Y-4260000D01*
X14940000Y-4340000D02*
X14960000Y-4360000D01*
X14960000Y-4340000D02*
X14940000Y-4360000D01*
X14940000Y-4440000D02*
X14960000Y-4460000D01*
X14960000Y-4440000D02*
X14940000Y-4460000D01*
X14940000Y-4540000D02*
X14960000Y-4560000D01*
X14960000Y-4540000D02*
X14940000Y-4560000D01*
X14940000Y-4640000D02*
X14960000Y-4660000D01*
X14960000Y-4640000D02*
X14940000Y-4660000D01*
X14940000Y-4740000D02*
X14960000Y-4760000D01*
X14960000Y-4740000D02*
X14940000Y-4760000D01*
X14940000Y-4840000D02*
X14960000Y-4860000D01*
X14960000Y-4840000D02*
X14940000Y-4860000D01*
X14940000Y-4940000D02*
X14960000Y-4960000D01*
X14960000Y-4940000D02*
X14940000Y-4960000D01*
X14940000Y-5040000D02*
X14960000Y-5060000D01*
X14960000Y-5040000D02*
X14940000Y-5060000D01*
X14940000Y-5140000D02*
X14960000Y-5160000D01*
X14960000Y-5140000D02*
X14940000Y-5160000D01*
X14940000Y-5240000D02*
X14960000Y-5260000D01*
X14960000Y-5240000D02*
X14940000Y-5260000D01*
X14940000Y-5340000D02*
X14960000Y-5360000D01*
X14960000Y-5340000D02*
X14940000Y-5360000D01*
X14940000Y-5440000D02*
X14960000Y-5460000D01*
X14960000Y-5440000D02*
X14940000Y-5460000D01*
X14940000Y-5540000D02*
X14960000Y-5560000D01*
X14960000Y-5540000D02*
X14940000Y-5560000D01*
X14940000Y-5640000D02*
X14960000Y-5660000D01*
X14960000Y-5640000D02*
X14940000Y-5660000D01*
X14940000Y-5740000D02*
X14960000Y-5760000D01*
X14960000Y-5740000D02*
X14940000Y-5760000D01*
X14940000Y-5840000D02*
X14960000Y-5860000D01*
X14960000Y-5840000D02*
X14940000Y-5860000D01*
X14940000Y-5940000D02*
X14960000Y-5960000D01*
X14960000Y-5940000D02*
X14940000Y-5960000D01*
X14940000Y-6040000D02*
X14960000Y-6060000D01*
X14960000Y-6040000D02*
X14940000Y-6060000D01*
X14940000Y-6140000D02*
X14960000Y-6160000D01*
X14960000Y-6140000D02*
X14940000Y-6160000D01*
X14940000Y-6240000D02*
X14960000Y-6260000D01*
X14960000Y-6240000D02*
X14940000Y-6260000D01*
X14940000Y-6340000D02*
X14960000Y-6360000D01*
X14960000Y-6340000D02*
X14940000Y-6360000D01*
X14940000Y-6440000D02*
X14960000Y-6460000D01*
X14960000Y-6440000D02*
X14940000Y-6460000D01*
X14940000Y-7740000D02*
X14960000Y-7760000D01*
X14960000Y-7740000D02*
X14940000Y-7760000D01*
X14940000Y-7840000D02*
X14960000Y-7860000D01*
X14960000Y-7840000D02*
X14940000Y-7860000D01*
X14940000Y-7940000D02*
X14960000Y-7960000D01*
X14960000Y-7940000D02*
X14940000Y-7960000D01*
X14940000Y-8040000D02*
X14960000Y-8060000D01*
X14960000Y-8040000D02*
X14940000Y-8060000D01*
X14940000Y-8140000D02*
X14960000Y-8160000D01*
X14960000Y-8140000D02*
X14940000Y-8160000D01*
X14940000Y-8240000D02*
X14960000Y-8260000D01*
X14960000Y-8240000D02*
X14940000Y-8260000D01*
X14940000Y-8340000D02*
X14960000Y-8360000D01*
X14960000Y-8340000D02*
X14940000Y-8360000D01*
X14940000Y-8440000D02*
X14960000Y-8460000D01*
X14960000Y-8440000D02*
X14940000Y-8460000D01*
X14940000Y-8540000D02*
X14960000Y-8560000D01*
X14960000Y-8540000D02*
X14940000Y-8560000D01*
X14940000Y-8640000D02*
X14960000Y-8660000D01*
X14960000Y-8640000D02*
X14940000Y-8660000D01*
X14940000Y-8740000D02*
X14960000Y-8760000D01*
X14960000Y-8740000D02*
X14940000Y-8760000D01*
X14940000Y-8840000D02*
X14960000Y-8860000D01*
X14960000Y-8840000D02*
X14940000Y-8860000D01*
X14940000Y-8940000D02*
X14960000Y-8960000D01*
X14960000Y-8940000D02*
X14940000Y-8960000D01*
X14940000Y-9040000D02*
X14960000Y-9060000D01*
X14960000Y-9040000D02*
X14940000Y-9060000D01*
X14940000Y-9140000D02*
X14960000Y-9160000D01*
X14960000Y-9140000D02*
X14940000Y-9160000D01*
X14940000Y-9240000D02*
X14960000Y-9260000D01*
X14960000Y-9240000D02*
X14940000Y-9260000D01*
X14940000Y-9340000D02*
X14960000Y-9360000D01*
X14960000Y-9340000D02*
X14940000Y-9360000D01*
X14940000Y-9440000D02*
X14960000Y-9460000D01*
X14960000Y-9440000D02*
X14940000Y-9460000D01*
X14940000Y-9540000D02*
X14960000Y-9560000D01*
X14960000Y-9540000D02*
X14940000Y-9560000D01*
X14940000Y-9640000D02*
X14960000Y-9660000D01*
X14960000Y-9640000D02*
X14940000Y-9660000D01*
X14940000Y-9740000D02*
X14960000Y-9760000D01*
X14960000Y-9740000D02*
X14940000Y-9760000D01*
X14940000Y-9840000D02*
X14960000Y-9860000D01*
X14960000Y-9840000D02*
X14940000Y-9860000D01*
X14940000Y-9940000D02*
X14960000Y-9960000D01*
X14960000Y-9940000D02*
X14940000Y-9960000D01*
X14940000Y-10040000D02*
X14960000Y-10060000D01*
X14960000Y-10040000D02*
X14940000Y-10060000D01*
X14940000Y-10140000D02*
X14960000Y-10160000D01*
X14960000Y-10140000D02*
X14940000Y-10160000D01*
X14940000Y-10240000D02*
X14960000Y-10260000D01*
X14960000Y-10240000D02*
X14940000Y-10260000D01*
X14940000Y-10340000D02*
X14960000Y-10360000D01*
X14960000Y-10340000D02*
X14940000Y-10360000D01*
X14940000Y-10440000D02*
X14960000Y-10460000D01*
X14960000Y-10440000D02*
X14940000Y-10460000D01*
X14940000Y-10540000D02*
X14960000Y-10560000D01*
X14960000Y-10540000D02*
X14940000Y-10560000D01*
X14940000Y-10640000D02*
X14960000Y-10660000D01*
X14960000Y-10640000D02*
X14940000Y-10660000D01*
X14940000Y-10740000D02*
X14960000Y-10760000D01*
X14960000Y-10740000D02*
X14940000Y-10760000D01*
X14940000Y-10840000D02*
X14960000Y-10860000D01*
X14960000Y-10840000D02*
X14940000Y-10860000D01*
X14940000Y-10940000D02*
X14960000Y-10960000D01*
X14960000Y-10940000D02*
X14940000Y-10960000D01*
X14940000Y-11040000D02*
X14960000Y-11060000D01*
X14960000Y-11040000D02*
X14940000Y-11060000D01*
X14940000Y-11140000D02*
X14960000Y-11160000D01*
X14960000Y-11140000D02*
X14940000Y-11160000D01*
X14940000Y-11240000D02*
X14960000Y-11260000D01*
X14960000Y-11240000D02*
X14940000Y-11260000D01*
X14940000Y-11340000D02*
X14960000Y-11360000D01*
X14960000Y-11340000D02*
X14940000Y-11360000D01*
X14940000Y-11440000D02*
X14960000Y-11460000D01*
X14960000Y-11440000D02*
X14940000Y-11460000D01*
X14940000Y-11540000D02*
X14960000Y-11560000D01*
X14960000Y-11540000D02*
X14940000Y-11560000D01*
X14940000Y-11640000D02*
X14960000Y-11660000D01*
X14960000Y-11640000D02*
X14940000Y-11660000D01*
X14940000Y-11740000D02*
X14960000Y-11760000D01*
X14960000Y-11740000D02*
X14940000Y-11760000D01*
X14940000Y-11840000D02*
X14960000Y-11860000D01*
X14960000Y-11840000D02*
X14940000Y-11860000D01*
X14940000Y-11940000D02*
X14960000Y-11960000D01*
X14960000Y-11940000D02*
X14940000Y-11960000D01*
X14940000Y-12040000D02*
X14960000Y-12060000D01*
X14960000Y-12040000D02*
X14940000Y-12060000D01*
X14940000Y-12140000D02*
X14960000Y-12160000D01*
X14960000Y-12140000D02*
X14940000Y-12160000D01*
X3888000Y-2216000D02*
G75*
G03*
X3888000Y-2216000I-30000J0D01*
G01*
X3838000Y-2176000D02*
X3838000Y-2256000D01*
X3878000Y-2176000D02*
X3878000Y-2256000D01*
X3838000Y-2256000D02*
G75*
G03*
X3878000Y-2256000I20000J0D01*
G01*
X3878000Y-2176000D02*
G75*
G03*
X3838000Y-2176000I-20000J0D01*
G01*
X3888000Y-2633000D02*
G75*
G03*
X3888000Y-2633000I-30000J0D01*
G01*
X3838000Y-2578000D02*
X3838000Y-2688000D01*
X3878000Y-2578000D02*
X3878000Y-2688000D01*
X3838000Y-2688000D02*
G75*
G03*
X3878000Y-2688000I20000J0D01*
G01*
X3878000Y-2578000D02*
G75*
G03*
X3838000Y-2578000I-20000J0D01*
G01*
X4752000Y-2216000D02*
G75*
G03*
X4752000Y-2216000I-30000J0D01*
G01*
X4702000Y-2176000D02*
X4702000Y-2256000D01*
X4742000Y-2176000D02*
X4742000Y-2256000D01*
X4702000Y-2256000D02*
G75*
G03*
X4742000Y-2256000I20000J0D01*
G01*
X4742000Y-2176000D02*
G75*
G03*
X4702000Y-2176000I-20000J0D01*
G01*
X4752000Y-2633000D02*
G75*
G03*
X4752000Y-2633000I-30000J0D01*
G01*
X4702000Y-2578000D02*
X4702000Y-2688000D01*
X4742000Y-2578000D02*
X4742000Y-2688000D01*
X4702000Y-2688000D02*
G75*
G03*
X4742000Y-2688000I20000J0D01*
G01*
X4742000Y-2578000D02*
G75*
G03*
X4702000Y-2578000I-20000J0D01*
G01*
X2593000Y-10742500D02*
X2593000Y-10817500D01*
X2555500Y-10780000D02*
X2630500Y-10780000D01*
X2720000Y-10742500D02*
X2720000Y-10817500D01*
X2682500Y-10780000D02*
X2757500Y-10780000D01*
X2847000Y-10742500D02*
X2847000Y-10817500D01*
X2809500Y-10780000D02*
X2884500Y-10780000D01*
X2491820Y-11591820D02*
X2491820Y-11528180D01*
X2428180Y-11528180D01*
X2428180Y-11591820D01*
X2491820Y-11591820D01*
X2745820Y-11591820D02*
X2745820Y-11528180D01*
X2682180Y-11528180D01*
X2682180Y-11591820D01*
X2745820Y-11591820D01*
X2999820Y-11591820D02*
X2999820Y-11528180D01*
X2936180Y-11528180D01*
X2936180Y-11591820D01*
X2999820Y-11591820D01*
X2550000Y-3397500D02*
X2597500Y-3350000D01*
X2550000Y-3302500D01*
X2502500Y-3350000D01*
X2550000Y-3397500D01*
X2800000Y-3397500D02*
X2847500Y-3350000D01*
X2800000Y-3302500D01*
X2752500Y-3350000D01*
X2800000Y-3397500D01*
X3000000Y-3397500D02*
X3047500Y-3350000D01*
X3000000Y-3302500D01*
X2952500Y-3350000D01*
X3000000Y-3397500D01*
X3250000Y-3397500D02*
X3297500Y-3350000D01*
X3250000Y-3302500D01*
X3202500Y-3350000D01*
X3250000Y-3397500D01*
X6250000Y-2386000D02*
X6350000Y-2486000D01*
X6350000Y-2386000D02*
X6250000Y-2486000D01*
X6350000Y-2436000D02*
G75*
G03*
X6350000Y-2436000I-50000J0D01*
G01*
X6250000Y-2640000D02*
X6350000Y-2740000D01*
X6350000Y-2640000D02*
X6250000Y-2740000D01*
X6350000Y-2690000D02*
G75*
G03*
X6350000Y-2690000I-50000J0D01*
G01*
X6504000Y-2386000D02*
X6604000Y-2486000D01*
X6604000Y-2386000D02*
X6504000Y-2486000D01*
X6604000Y-2436000D02*
G75*
G03*
X6604000Y-2436000I-50000J0D01*
G01*
X6504000Y-2640000D02*
X6604000Y-2740000D01*
X6604000Y-2640000D02*
X6504000Y-2740000D01*
X6604000Y-2690000D02*
G75*
G03*
X6604000Y-2690000I-50000J0D01*
G01*
X6758000Y-2386000D02*
X6858000Y-2486000D01*
X6858000Y-2386000D02*
X6758000Y-2486000D01*
X6858000Y-2436000D02*
G75*
G03*
X6858000Y-2436000I-50000J0D01*
G01*
X6758000Y-2640000D02*
X6858000Y-2740000D01*
X6858000Y-2640000D02*
X6758000Y-2740000D01*
X6858000Y-2690000D02*
G75*
G03*
X6858000Y-2690000I-50000J0D01*
G01*
X7012000Y-2386000D02*
X7112000Y-2486000D01*
X7112000Y-2386000D02*
X7012000Y-2486000D01*
X7112000Y-2436000D02*
G75*
G03*
X7112000Y-2436000I-50000J0D01*
G01*
X7012000Y-2640000D02*
X7112000Y-2740000D01*
X7112000Y-2640000D02*
X7012000Y-2740000D01*
X7112000Y-2690000D02*
G75*
G03*
X7112000Y-2690000I-50000J0D01*
G01*
X7266000Y-2386000D02*
X7366000Y-2486000D01*
X7366000Y-2386000D02*
X7266000Y-2486000D01*
X7366000Y-2436000D02*
G75*
G03*
X7366000Y-2436000I-50000J0D01*
G01*
X7266000Y-2640000D02*
X7366000Y-2740000D01*
X7366000Y-2640000D02*
X7266000Y-2740000D01*
X7366000Y-2690000D02*
G75*
G03*
X7366000Y-2690000I-50000J0D01*
G01*
X7520000Y-2386000D02*
X7620000Y-2486000D01*
X7620000Y-2386000D02*
X7520000Y-2486000D01*
X7620000Y-2436000D02*
G75*
G03*
X7620000Y-2436000I-50000J0D01*
G01*
X7520000Y-2640000D02*
X7620000Y-2740000D01*
X7620000Y-2640000D02*
X7520000Y-2740000D01*
X7620000Y-2690000D02*
G75*
G03*
X7620000Y-2690000I-50000J0D01*
G01*
X7774000Y-2386000D02*
X7874000Y-2486000D01*
X7874000Y-2386000D02*
X7774000Y-2486000D01*
X7874000Y-2436000D02*
G75*
G03*
X7874000Y-2436000I-50000J0D01*
G01*
X7774000Y-2640000D02*
X7874000Y-2740000D01*
X7874000Y-2640000D02*
X7774000Y-2740000D01*
X7874000Y-2690000D02*
G75*
G03*
X7874000Y-2690000I-50000J0D01*
G01*
X8028000Y-2386000D02*
X8128000Y-2486000D01*
X8128000Y-2386000D02*
X8028000Y-2486000D01*
X8128000Y-2436000D02*
G75*
G03*
X8128000Y-2436000I-50000J0D01*
G01*
X8028000Y-2640000D02*
X8128000Y-2740000D01*
X8128000Y-2640000D02*
X8028000Y-2740000D01*
X8128000Y-2690000D02*
G75*
G03*
X8128000Y-2690000I-50000J0D01*
G01*
X8282000Y-2386000D02*
X8382000Y-2486000D01*
X8382000Y-2386000D02*
X8282000Y-2486000D01*
X8382000Y-2436000D02*
G75*
G03*
X8382000Y-2436000I-50000J0D01*
G01*
X8282000Y-2640000D02*
X8382000Y-2740000D01*
X8382000Y-2640000D02*
X8282000Y-2740000D01*
X8382000Y-2690000D02*
G75*
G03*
X8382000Y-2690000I-50000J0D01*
G01*
X8536000Y-2386000D02*
X8636000Y-2486000D01*
X8636000Y-2386000D02*
X8536000Y-2486000D01*
X8636000Y-2436000D02*
G75*
G03*
X8636000Y-2436000I-50000J0D01*
G01*
X8536000Y-2640000D02*
X8636000Y-2740000D01*
X8636000Y-2640000D02*
X8536000Y-2740000D01*
X8636000Y-2690000D02*
G75*
G03*
X8636000Y-2690000I-50000J0D01*
G01*
X8790000Y-2386000D02*
X8890000Y-2486000D01*
X8890000Y-2386000D02*
X8790000Y-2486000D01*
X8890000Y-2436000D02*
G75*
G03*
X8890000Y-2436000I-50000J0D01*
G01*
X8790000Y-2640000D02*
X8890000Y-2740000D01*
X8890000Y-2640000D02*
X8790000Y-2740000D01*
X8890000Y-2690000D02*
G75*
G03*
X8890000Y-2690000I-50000J0D01*
G01*
X9044000Y-2386000D02*
X9144000Y-2486000D01*
X9144000Y-2386000D02*
X9044000Y-2486000D01*
X9144000Y-2436000D02*
G75*
G03*
X9144000Y-2436000I-50000J0D01*
G01*
X9044000Y-2640000D02*
X9144000Y-2740000D01*
X9144000Y-2640000D02*
X9044000Y-2740000D01*
X9144000Y-2690000D02*
G75*
G03*
X9144000Y-2690000I-50000J0D01*
G01*
X9298000Y-2386000D02*
X9398000Y-2486000D01*
X9398000Y-2386000D02*
X9298000Y-2486000D01*
X9398000Y-2436000D02*
G75*
G03*
X9398000Y-2436000I-50000J0D01*
G01*
X9298000Y-2640000D02*
X9398000Y-2740000D01*
X9398000Y-2640000D02*
X9298000Y-2740000D01*
X9398000Y-2690000D02*
G75*
G03*
X9398000Y-2690000I-50000J0D01*
G01*
X9552000Y-2386000D02*
X9652000Y-2486000D01*
X9652000Y-2386000D02*
X9552000Y-2486000D01*
X9652000Y-2436000D02*
G75*
G03*
X9652000Y-2436000I-50000J0D01*
G01*
X9552000Y-2640000D02*
X9652000Y-2740000D01*
X9652000Y-2640000D02*
X9552000Y-2740000D01*
X9652000Y-2690000D02*
G75*
G03*
X9652000Y-2690000I-50000J0D01*
G01*
X9806000Y-2386000D02*
X9906000Y-2486000D01*
X9906000Y-2386000D02*
X9806000Y-2486000D01*
X9906000Y-2436000D02*
G75*
G03*
X9906000Y-2436000I-50000J0D01*
G01*
X9806000Y-2640000D02*
X9906000Y-2740000D01*
X9906000Y-2640000D02*
X9806000Y-2740000D01*
X9906000Y-2690000D02*
G75*
G03*
X9906000Y-2690000I-50000J0D01*
G01*
X10060000Y-2386000D02*
X10160000Y-2486000D01*
X10160000Y-2386000D02*
X10060000Y-2486000D01*
X10160000Y-2436000D02*
G75*
G03*
X10160000Y-2436000I-50000J0D01*
G01*
X10060000Y-2640000D02*
X10160000Y-2740000D01*
X10160000Y-2640000D02*
X10060000Y-2740000D01*
X10160000Y-2690000D02*
G75*
G03*
X10160000Y-2690000I-50000J0D01*
G01*
X10314000Y-2386000D02*
X10414000Y-2486000D01*
X10414000Y-2386000D02*
X10314000Y-2486000D01*
X10414000Y-2436000D02*
G75*
G03*
X10414000Y-2436000I-50000J0D01*
G01*
X10314000Y-2640000D02*
X10414000Y-2740000D01*
X10414000Y-2640000D02*
X10314000Y-2740000D01*
X10414000Y-2690000D02*
G75*
G03*
X10414000Y-2690000I-50000J0D01*
G01*
X10568000Y-2386000D02*
X10668000Y-2486000D01*
X10668000Y-2386000D02*
X10568000Y-2486000D01*
X10668000Y-2436000D02*
G75*
G03*
X10668000Y-2436000I-50000J0D01*
G01*
X10568000Y-2640000D02*
X10668000Y-2740000D01*
X10668000Y-2640000D02*
X10568000Y-2740000D01*
X10668000Y-2690000D02*
G75*
G03*
X10668000Y-2690000I-50000J0D01*
G01*
X10822000Y-2386000D02*
X10922000Y-2486000D01*
X10922000Y-2386000D02*
X10822000Y-2486000D01*
X10922000Y-2436000D02*
G75*
G03*
X10922000Y-2436000I-50000J0D01*
G01*
X10822000Y-2640000D02*
X10922000Y-2740000D01*
X10922000Y-2640000D02*
X10822000Y-2740000D01*
X10922000Y-2690000D02*
G75*
G03*
X10922000Y-2690000I-50000J0D01*
G01*
X11076000Y-2386000D02*
X11176000Y-2486000D01*
X11176000Y-2386000D02*
X11076000Y-2486000D01*
X11176000Y-2436000D02*
G75*
G03*
X11176000Y-2436000I-50000J0D01*
G01*
X11076000Y-2640000D02*
X11176000Y-2740000D01*
X11176000Y-2640000D02*
X11076000Y-2740000D01*
X11176000Y-2690000D02*
G75*
G03*
X11176000Y-2690000I-50000J0D01*
G01*
X11230000Y-5469000D02*
X11330000Y-5569000D01*
X11330000Y-5469000D02*
X11230000Y-5569000D01*
X11330000Y-5519000D02*
G75*
G03*
X11330000Y-5519000I-50000J0D01*
G01*
X11230000Y-5723000D02*
X11330000Y-5823000D01*
X11330000Y-5723000D02*
X11230000Y-5823000D01*
X11330000Y-5773000D02*
G75*
G03*
X11330000Y-5773000I-50000J0D01*
G01*
X11230000Y-5977000D02*
X11330000Y-6077000D01*
X11330000Y-5977000D02*
X11230000Y-6077000D01*
X11330000Y-6027000D02*
G75*
G03*
X11330000Y-6027000I-50000J0D01*
G01*
X11230000Y-6231000D02*
X11330000Y-6331000D01*
X11330000Y-6231000D02*
X11230000Y-6331000D01*
X11330000Y-6281000D02*
G75*
G03*
X11330000Y-6281000I-50000J0D01*
G01*
X11230000Y-6485000D02*
X11330000Y-6585000D01*
X11330000Y-6485000D02*
X11230000Y-6585000D01*
X11330000Y-6535000D02*
G75*
G03*
X11330000Y-6535000I-50000J0D01*
G01*
X12735500Y-3027000D02*
X12835500Y-3127000D01*
X12835500Y-3027000D02*
X12735500Y-3127000D01*
X12835500Y-3077000D02*
G75*
G03*
X12835500Y-3077000I-50000J0D01*
G01*
X12850000Y-2829000D02*
X12950000Y-2929000D01*
X12950000Y-2829000D02*
X12850000Y-2929000D01*
X12950000Y-2879000D02*
G75*
G03*
X12950000Y-2879000I-50000J0D01*
G01*
X12850000Y-3225000D02*
X12950000Y-3325000D01*
X12950000Y-3225000D02*
X12850000Y-3325000D01*
X12950000Y-3275000D02*
G75*
G03*
X12950000Y-3275000I-50000J0D01*
G01*
X12964500Y-3027000D02*
X13064500Y-3127000D01*
X13064500Y-3027000D02*
X12964500Y-3127000D01*
X13064500Y-3077000D02*
G75*
G03*
X13064500Y-3077000I-50000J0D01*
G01*
X13079000Y-2829000D02*
X13179000Y-2929000D01*
X13179000Y-2829000D02*
X13079000Y-2929000D01*
X13179000Y-2879000D02*
G75*
G03*
X13179000Y-2879000I-50000J0D01*
G01*
X13079000Y-3225000D02*
X13179000Y-3325000D01*
X13179000Y-3225000D02*
X13079000Y-3325000D01*
X13179000Y-3275000D02*
G75*
G03*
X13179000Y-3275000I-50000J0D01*
G01*
X13193500Y-3027000D02*
X13293500Y-3127000D01*
X13293500Y-3027000D02*
X13193500Y-3127000D01*
X13293500Y-3077000D02*
G75*
G03*
X13293500Y-3077000I-50000J0D01*
G01*
X13308000Y-2829000D02*
X13408000Y-2929000D01*
X13408000Y-2829000D02*
X13308000Y-2929000D01*
X13408000Y-2879000D02*
G75*
G03*
X13408000Y-2879000I-50000J0D01*
G01*
X13308000Y-3225000D02*
X13408000Y-3325000D01*
X13408000Y-3225000D02*
X13308000Y-3325000D01*
X13408000Y-3275000D02*
G75*
G03*
X13408000Y-3275000I-50000J0D01*
G01*
X13422500Y-3027000D02*
X13522500Y-3127000D01*
X13522500Y-3027000D02*
X13422500Y-3127000D01*
X13522500Y-3077000D02*
G75*
G03*
X13522500Y-3077000I-50000J0D01*
G01*
X13537000Y-2829000D02*
X13637000Y-2929000D01*
X13637000Y-2829000D02*
X13537000Y-2929000D01*
X13637000Y-2879000D02*
G75*
G03*
X13637000Y-2879000I-50000J0D01*
G01*
X13537000Y-3225000D02*
X13637000Y-3325000D01*
X13637000Y-3225000D02*
X13537000Y-3325000D01*
X13637000Y-3275000D02*
G75*
G03*
X13637000Y-3275000I-50000J0D01*
G01*
X13651500Y-3027000D02*
X13751500Y-3127000D01*
X13751500Y-3027000D02*
X13651500Y-3127000D01*
X13751500Y-3077000D02*
G75*
G03*
X13751500Y-3077000I-50000J0D01*
G01*
X13766000Y-2829000D02*
X13866000Y-2929000D01*
X13866000Y-2829000D02*
X13766000Y-2929000D01*
X13866000Y-2879000D02*
G75*
G03*
X13866000Y-2879000I-50000J0D01*
G01*
X13766000Y-3225000D02*
X13866000Y-3325000D01*
X13866000Y-3225000D02*
X13766000Y-3325000D01*
X13866000Y-3275000D02*
G75*
G03*
X13866000Y-3275000I-50000J0D01*
G01*
X11845000Y-4600000D02*
X11945000Y-4700000D01*
X11945000Y-4600000D02*
X11845000Y-4700000D01*
X11945000Y-4650000D02*
G75*
G03*
X11945000Y-4650000I-50000J0D01*
G01*
X12099000Y-4600000D02*
X12199000Y-4700000D01*
X12199000Y-4600000D02*
X12099000Y-4700000D01*
X12199000Y-4650000D02*
G75*
G03*
X12199000Y-4650000I-50000J0D01*
G01*
X12353000Y-4600000D02*
X12453000Y-4700000D01*
X12453000Y-4600000D02*
X12353000Y-4700000D01*
X12453000Y-4650000D02*
G75*
G03*
X12453000Y-4650000I-50000J0D01*
G01*
X4943000Y-2425000D02*
X5093000Y-2575000D01*
X5093000Y-2425000D02*
X4943000Y-2575000D01*
X5018000Y-2425000D02*
X5018000Y-2575000D01*
X4943000Y-2500000D02*
X5093000Y-2500000D01*
X4943000Y-3095000D02*
X5093000Y-3245000D01*
X5093000Y-3095000D02*
X4943000Y-3245000D01*
X5018000Y-3095000D02*
X5018000Y-3245000D01*
X4943000Y-3170000D02*
X5093000Y-3170000D01*
X5407000Y-3265000D02*
X5557000Y-3415000D01*
X5557000Y-3265000D02*
X5407000Y-3415000D01*
X5482000Y-3265000D02*
X5482000Y-3415000D01*
X5407000Y-3340000D02*
X5557000Y-3340000D01*
X5427000Y-2335000D02*
X5577000Y-2485000D01*
X5577000Y-2335000D02*
X5427000Y-2485000D01*
X5502000Y-2335000D02*
X5502000Y-2485000D01*
X5427000Y-2410000D02*
X5577000Y-2410000D01*
X5427000Y-2695000D02*
X5577000Y-2845000D01*
X5577000Y-2695000D02*
X5427000Y-2845000D01*
X5502000Y-2695000D02*
X5502000Y-2845000D01*
X5427000Y-2770000D02*
X5577000Y-2770000D01*
X2128000Y-2964000D02*
X2358000Y-3194000D01*
X2358000Y-2964000D02*
X2128000Y-3194000D01*
X2324318Y-3160318D02*
X2324318Y-2997682D01*
X2161682Y-2997682D01*
X2161682Y-3160318D01*
X2324318Y-3160318D01*
X3442000Y-2964000D02*
X3672000Y-3194000D01*
X3672000Y-2964000D02*
X3442000Y-3194000D01*
X3638318Y-3160318D02*
X3638318Y-2997682D01*
X3475682Y-2997682D01*
X3475682Y-3160318D01*
X3638318Y-3160318D01*
X11921500Y-2973000D02*
X12241500Y-3293000D01*
X12241500Y-2973000D02*
X11921500Y-3293000D01*
X12081500Y-3293000D02*
X12241500Y-3133000D01*
X12081500Y-2973000D01*
X11921500Y-3133000D01*
X12081500Y-3293000D01*
X14421500Y-2973000D02*
X14741500Y-3293000D01*
X14741500Y-2973000D02*
X14421500Y-3293000D01*
X14581500Y-3293000D02*
X14741500Y-3133000D01*
X14581500Y-2973000D01*
X14421500Y-3133000D01*
X14581500Y-3293000D01*
D12*
X2283928Y-12668214D02*
X2283928Y-12368214D01*
X2355357Y-12368214D01*
X2398214Y-12382500D01*
X2426786Y-12411071D01*
X2441071Y-12439643D01*
X2455357Y-12496786D01*
X2455357Y-12539643D01*
X2441071Y-12596786D01*
X2426786Y-12625357D01*
X2398214Y-12653929D01*
X2355357Y-12668214D01*
X2283928Y-12668214D01*
X2583928Y-12668214D02*
X2583928Y-12468214D01*
X2583928Y-12525357D02*
X2598214Y-12496786D01*
X2612500Y-12482500D01*
X2641071Y-12468214D01*
X2669643Y-12468214D01*
X2769643Y-12668214D02*
X2769643Y-12468214D01*
X2769643Y-12368214D02*
X2755357Y-12382500D01*
X2769643Y-12396786D01*
X2783928Y-12382500D01*
X2769643Y-12368214D01*
X2769643Y-12396786D01*
X2955357Y-12668214D02*
X2926786Y-12653929D01*
X2912500Y-12625357D01*
X2912500Y-12368214D01*
X3112500Y-12668214D02*
X3083928Y-12653929D01*
X3069643Y-12625357D01*
X3069643Y-12368214D01*
X3455357Y-12668214D02*
X3455357Y-12368214D01*
X3555357Y-12582500D01*
X3655357Y-12368214D01*
X3655357Y-12668214D01*
X3926786Y-12668214D02*
X3926786Y-12511071D01*
X3912500Y-12482500D01*
X3883928Y-12468214D01*
X3826786Y-12468214D01*
X3798214Y-12482500D01*
X3926786Y-12653929D02*
X3898214Y-12668214D01*
X3826786Y-12668214D01*
X3798214Y-12653929D01*
X3783928Y-12625357D01*
X3783928Y-12596786D01*
X3798214Y-12568214D01*
X3826786Y-12553929D01*
X3898214Y-12553929D01*
X3926786Y-12539643D01*
X4069643Y-12468214D02*
X4069643Y-12768214D01*
X4069643Y-12482500D02*
X4098214Y-12468214D01*
X4155357Y-12468214D01*
X4183928Y-12482500D01*
X4198214Y-12496786D01*
X4212500Y-12525357D01*
X4212500Y-12611071D01*
X4198214Y-12639643D01*
X4183928Y-12653929D01*
X4155357Y-12668214D01*
X4098214Y-12668214D01*
X4069643Y-12653929D01*
X4341071Y-12639643D02*
X4355357Y-12653929D01*
X4341071Y-12668214D01*
X4326786Y-12653929D01*
X4341071Y-12639643D01*
X4341071Y-12668214D01*
X4341071Y-12482500D02*
X4355357Y-12496786D01*
X4341071Y-12511071D01*
X4326786Y-12496786D01*
X4341071Y-12482500D01*
X4341071Y-12511071D01*
X1977500Y-13152500D02*
X1997500Y-13172500D01*
X1997500Y-13152500D02*
X1977500Y-13172500D01*
X2341071Y-12998214D02*
X2369643Y-12998214D01*
X2398214Y-13012500D01*
X2412500Y-13026786D01*
X2426786Y-13055357D01*
X2441071Y-13112500D01*
X2441071Y-13183929D01*
X2426786Y-13241071D01*
X2412500Y-13269643D01*
X2398214Y-13283929D01*
X2369643Y-13298214D01*
X2341071Y-13298214D01*
X2312500Y-13283929D01*
X2298214Y-13269643D01*
X2283928Y-13241071D01*
X2269643Y-13183929D01*
X2269643Y-13112500D01*
X2283928Y-13055357D01*
X2298214Y-13026786D01*
X2312500Y-13012500D01*
X2341071Y-12998214D01*
X2569643Y-13269643D02*
X2583928Y-13283929D01*
X2569643Y-13298214D01*
X2555357Y-13283929D01*
X2569643Y-13269643D01*
X2569643Y-13298214D01*
X2698214Y-13026786D02*
X2712500Y-13012500D01*
X2741071Y-12998214D01*
X2812500Y-12998214D01*
X2841071Y-13012500D01*
X2855357Y-13026786D01*
X2869643Y-13055357D01*
X2869643Y-13083929D01*
X2855357Y-13126786D01*
X2683928Y-13298214D01*
X2869643Y-13298214D01*
X3055357Y-12998214D02*
X3083928Y-12998214D01*
X3112500Y-13012500D01*
X3126786Y-13026786D01*
X3141071Y-13055357D01*
X3155357Y-13112500D01*
X3155357Y-13183929D01*
X3141071Y-13241071D01*
X3126786Y-13269643D01*
X3112500Y-13283929D01*
X3083928Y-13298214D01*
X3055357Y-13298214D01*
X3026786Y-13283929D01*
X3012500Y-13269643D01*
X2998214Y-13241071D01*
X2983928Y-13183929D01*
X2983928Y-13112500D01*
X2998214Y-13055357D01*
X3012500Y-13026786D01*
X3026786Y-13012500D01*
X3055357Y-12998214D01*
X3283928Y-13298214D02*
X3283928Y-13098214D01*
X3283928Y-13126786D02*
X3298214Y-13112500D01*
X3326786Y-13098214D01*
X3369643Y-13098214D01*
X3398214Y-13112500D01*
X3412500Y-13141071D01*
X3412500Y-13298214D01*
X3412500Y-13141071D02*
X3426786Y-13112500D01*
X3455357Y-13098214D01*
X3498214Y-13098214D01*
X3526786Y-13112500D01*
X3541071Y-13141071D01*
X3541071Y-13298214D01*
X3683928Y-13298214D02*
X3683928Y-13098214D01*
X3683928Y-13126786D02*
X3698214Y-13112500D01*
X3726786Y-13098214D01*
X3769643Y-13098214D01*
X3798214Y-13112500D01*
X3812500Y-13141071D01*
X3812500Y-13298214D01*
X3812500Y-13141071D02*
X3826786Y-13112500D01*
X3855357Y-13098214D01*
X3898214Y-13098214D01*
X3926786Y-13112500D01*
X3941071Y-13141071D01*
X3941071Y-13298214D01*
X4526786Y-12983929D02*
X4269643Y-13369643D01*
X4912500Y-12998214D02*
X4941071Y-12998214D01*
X4969643Y-13012500D01*
X4983928Y-13026786D01*
X4998214Y-13055357D01*
X5012500Y-13112500D01*
X5012500Y-13183929D01*
X4998214Y-13241071D01*
X4983928Y-13269643D01*
X4969643Y-13283929D01*
X4941071Y-13298214D01*
X4912500Y-13298214D01*
X4883928Y-13283929D01*
X4869643Y-13269643D01*
X4855357Y-13241071D01*
X4841071Y-13183929D01*
X4841071Y-13112500D01*
X4855357Y-13055357D01*
X4869643Y-13026786D01*
X4883928Y-13012500D01*
X4912500Y-12998214D01*
X5141071Y-13269643D02*
X5155357Y-13283929D01*
X5141071Y-13298214D01*
X5126786Y-13283929D01*
X5141071Y-13269643D01*
X5141071Y-13298214D01*
X5341071Y-12998214D02*
X5369643Y-12998214D01*
X5398214Y-13012500D01*
X5412500Y-13026786D01*
X5426786Y-13055357D01*
X5441071Y-13112500D01*
X5441071Y-13183929D01*
X5426786Y-13241071D01*
X5412500Y-13269643D01*
X5398214Y-13283929D01*
X5369643Y-13298214D01*
X5341071Y-13298214D01*
X5312500Y-13283929D01*
X5298214Y-13269643D01*
X5283928Y-13241071D01*
X5269643Y-13183929D01*
X5269643Y-13112500D01*
X5283928Y-13055357D01*
X5298214Y-13026786D01*
X5312500Y-13012500D01*
X5341071Y-12998214D01*
X5626786Y-12998214D02*
X5655357Y-12998214D01*
X5683928Y-13012500D01*
X5698214Y-13026786D01*
X5712500Y-13055357D01*
X5726786Y-13112500D01*
X5726786Y-13183929D01*
X5712500Y-13241071D01*
X5698214Y-13269643D01*
X5683928Y-13283929D01*
X5655357Y-13298214D01*
X5626786Y-13298214D01*
X5598214Y-13283929D01*
X5583928Y-13269643D01*
X5569643Y-13241071D01*
X5555357Y-13183929D01*
X5555357Y-13112500D01*
X5569643Y-13055357D01*
X5583928Y-13026786D01*
X5598214Y-13012500D01*
X5626786Y-12998214D01*
X5898214Y-13126786D02*
X5869643Y-13112500D01*
X5855357Y-13098214D01*
X5841071Y-13069643D01*
X5841071Y-13055357D01*
X5855357Y-13026786D01*
X5869643Y-13012500D01*
X5898214Y-12998214D01*
X5955357Y-12998214D01*
X5983928Y-13012500D01*
X5998214Y-13026786D01*
X6012500Y-13055357D01*
X6012500Y-13069643D01*
X5998214Y-13098214D01*
X5983928Y-13112500D01*
X5955357Y-13126786D01*
X5898214Y-13126786D01*
X5869643Y-13141071D01*
X5855357Y-13155357D01*
X5841071Y-13183929D01*
X5841071Y-13241071D01*
X5855357Y-13269643D01*
X5869643Y-13283929D01*
X5898214Y-13298214D01*
X5955357Y-13298214D01*
X5983928Y-13283929D01*
X5998214Y-13269643D01*
X6012500Y-13241071D01*
X6012500Y-13183929D01*
X5998214Y-13155357D01*
X5983928Y-13141071D01*
X5955357Y-13126786D01*
X6126786Y-12998214D02*
X6126786Y-13055357D01*
X6241071Y-12998214D02*
X6241071Y-13055357D01*
X6683928Y-13412500D02*
X6669643Y-13398214D01*
X6641071Y-13355357D01*
X6626786Y-13326786D01*
X6612500Y-13283929D01*
X6598214Y-13212500D01*
X6598214Y-13155357D01*
X6612500Y-13083929D01*
X6626786Y-13041071D01*
X6641071Y-13012500D01*
X6669643Y-12969643D01*
X6683928Y-12955357D01*
X6955357Y-13298214D02*
X6783928Y-13298214D01*
X6869643Y-13298214D02*
X6869643Y-12998214D01*
X6841071Y-13041071D01*
X6812500Y-13069643D01*
X6783928Y-13083929D01*
X7069643Y-13026786D02*
X7083928Y-13012500D01*
X7112500Y-12998214D01*
X7183928Y-12998214D01*
X7212500Y-13012500D01*
X7226786Y-13026786D01*
X7241071Y-13055357D01*
X7241071Y-13083929D01*
X7226786Y-13126786D01*
X7055357Y-13298214D01*
X7241071Y-13298214D01*
X7498214Y-13098214D02*
X7498214Y-13298214D01*
X7426786Y-12983929D02*
X7355357Y-13198214D01*
X7541071Y-13198214D01*
X7669643Y-13298214D02*
X7726786Y-13298214D01*
X7755357Y-13283929D01*
X7769643Y-13269643D01*
X7798214Y-13226786D01*
X7812500Y-13169643D01*
X7812500Y-13055357D01*
X7798214Y-13026786D01*
X7783928Y-13012500D01*
X7755357Y-12998214D01*
X7698214Y-12998214D01*
X7669643Y-13012500D01*
X7655357Y-13026786D01*
X7641071Y-13055357D01*
X7641071Y-13126786D01*
X7655357Y-13155357D01*
X7669643Y-13169643D01*
X7698214Y-13183929D01*
X7755357Y-13183929D01*
X7783928Y-13169643D01*
X7798214Y-13155357D01*
X7812500Y-13126786D01*
X8169643Y-13298214D02*
X8169643Y-12998214D01*
X8298214Y-13298214D02*
X8298214Y-13141071D01*
X8283928Y-13112500D01*
X8255357Y-13098214D01*
X8212500Y-13098214D01*
X8183928Y-13112500D01*
X8169643Y-13126786D01*
X8483928Y-13298214D02*
X8455357Y-13283929D01*
X8441071Y-13269643D01*
X8426786Y-13241071D01*
X8426786Y-13155357D01*
X8441071Y-13126786D01*
X8455357Y-13112500D01*
X8483928Y-13098214D01*
X8526786Y-13098214D01*
X8555357Y-13112500D01*
X8569643Y-13126786D01*
X8583928Y-13155357D01*
X8583928Y-13241071D01*
X8569643Y-13269643D01*
X8555357Y-13283929D01*
X8526786Y-13298214D01*
X8483928Y-13298214D01*
X8755357Y-13298214D02*
X8726786Y-13283929D01*
X8712500Y-13255357D01*
X8712500Y-12998214D01*
X8983928Y-13283929D02*
X8955357Y-13298214D01*
X8898214Y-13298214D01*
X8869643Y-13283929D01*
X8855357Y-13255357D01*
X8855357Y-13141071D01*
X8869643Y-13112500D01*
X8898214Y-13098214D01*
X8955357Y-13098214D01*
X8983928Y-13112500D01*
X8998214Y-13141071D01*
X8998214Y-13169643D01*
X8855357Y-13198214D01*
X9112500Y-13283929D02*
X9141071Y-13298214D01*
X9198214Y-13298214D01*
X9226786Y-13283929D01*
X9241071Y-13255357D01*
X9241071Y-13241071D01*
X9226786Y-13212500D01*
X9198214Y-13198214D01*
X9155357Y-13198214D01*
X9126786Y-13183929D01*
X9112500Y-13155357D01*
X9112500Y-13141071D01*
X9126786Y-13112500D01*
X9155357Y-13098214D01*
X9198214Y-13098214D01*
X9226786Y-13112500D01*
X9341071Y-13412500D02*
X9355357Y-13398214D01*
X9383928Y-13355357D01*
X9398214Y-13326786D01*
X9412500Y-13283929D01*
X9426786Y-13212500D01*
X9426786Y-13155357D01*
X9412500Y-13083929D01*
X9398214Y-13041071D01*
X9383928Y-13012500D01*
X9355357Y-12969643D01*
X9341071Y-12955357D01*
X1997500Y-13558500D02*
G75*
G03*
X1997500Y-13558500I-30000J0D01*
G01*
X2341071Y-13394214D02*
X2369643Y-13394214D01*
X2398214Y-13408500D01*
X2412500Y-13422786D01*
X2426786Y-13451357D01*
X2441071Y-13508500D01*
X2441071Y-13579929D01*
X2426786Y-13637071D01*
X2412500Y-13665643D01*
X2398214Y-13679929D01*
X2369643Y-13694214D01*
X2341071Y-13694214D01*
X2312500Y-13679929D01*
X2298214Y-13665643D01*
X2283928Y-13637071D01*
X2269643Y-13579929D01*
X2269643Y-13508500D01*
X2283928Y-13451357D01*
X2298214Y-13422786D01*
X2312500Y-13408500D01*
X2341071Y-13394214D01*
X2569643Y-13665643D02*
X2583928Y-13679929D01*
X2569643Y-13694214D01*
X2555357Y-13679929D01*
X2569643Y-13665643D01*
X2569643Y-13694214D01*
X2841071Y-13394214D02*
X2783928Y-13394214D01*
X2755357Y-13408500D01*
X2741071Y-13422786D01*
X2712500Y-13465643D01*
X2698214Y-13522786D01*
X2698214Y-13637071D01*
X2712500Y-13665643D01*
X2726786Y-13679929D01*
X2755357Y-13694214D01*
X2812500Y-13694214D01*
X2841071Y-13679929D01*
X2855357Y-13665643D01*
X2869643Y-13637071D01*
X2869643Y-13565643D01*
X2855357Y-13537071D01*
X2841071Y-13522786D01*
X2812500Y-13508500D01*
X2755357Y-13508500D01*
X2726786Y-13522786D01*
X2712500Y-13537071D01*
X2698214Y-13565643D01*
X3055357Y-13394214D02*
X3083928Y-13394214D01*
X3112500Y-13408500D01*
X3126786Y-13422786D01*
X3141071Y-13451357D01*
X3155357Y-13508500D01*
X3155357Y-13579929D01*
X3141071Y-13637071D01*
X3126786Y-13665643D01*
X3112500Y-13679929D01*
X3083928Y-13694214D01*
X3055357Y-13694214D01*
X3026786Y-13679929D01*
X3012500Y-13665643D01*
X2998214Y-13637071D01*
X2983928Y-13579929D01*
X2983928Y-13508500D01*
X2998214Y-13451357D01*
X3012500Y-13422786D01*
X3026786Y-13408500D01*
X3055357Y-13394214D01*
X3283928Y-13694214D02*
X3283928Y-13494214D01*
X3283928Y-13522786D02*
X3298214Y-13508500D01*
X3326786Y-13494214D01*
X3369643Y-13494214D01*
X3398214Y-13508500D01*
X3412500Y-13537071D01*
X3412500Y-13694214D01*
X3412500Y-13537071D02*
X3426786Y-13508500D01*
X3455357Y-13494214D01*
X3498214Y-13494214D01*
X3526786Y-13508500D01*
X3541071Y-13537071D01*
X3541071Y-13694214D01*
X3683928Y-13694214D02*
X3683928Y-13494214D01*
X3683928Y-13522786D02*
X3698214Y-13508500D01*
X3726786Y-13494214D01*
X3769643Y-13494214D01*
X3798214Y-13508500D01*
X3812500Y-13537071D01*
X3812500Y-13694214D01*
X3812500Y-13537071D02*
X3826786Y-13508500D01*
X3855357Y-13494214D01*
X3898214Y-13494214D01*
X3926786Y-13508500D01*
X3941071Y-13537071D01*
X3941071Y-13694214D01*
X4526786Y-13379929D02*
X4269643Y-13765643D01*
X4912500Y-13394214D02*
X4941071Y-13394214D01*
X4969643Y-13408500D01*
X4983928Y-13422786D01*
X4998214Y-13451357D01*
X5012500Y-13508500D01*
X5012500Y-13579929D01*
X4998214Y-13637071D01*
X4983928Y-13665643D01*
X4969643Y-13679929D01*
X4941071Y-13694214D01*
X4912500Y-13694214D01*
X4883928Y-13679929D01*
X4869643Y-13665643D01*
X4855357Y-13637071D01*
X4841071Y-13579929D01*
X4841071Y-13508500D01*
X4855357Y-13451357D01*
X4869643Y-13422786D01*
X4883928Y-13408500D01*
X4912500Y-13394214D01*
X5141071Y-13665643D02*
X5155357Y-13679929D01*
X5141071Y-13694214D01*
X5126786Y-13679929D01*
X5141071Y-13665643D01*
X5141071Y-13694214D01*
X5341071Y-13394214D02*
X5369643Y-13394214D01*
X5398214Y-13408500D01*
X5412500Y-13422786D01*
X5426786Y-13451357D01*
X5441071Y-13508500D01*
X5441071Y-13579929D01*
X5426786Y-13637071D01*
X5412500Y-13665643D01*
X5398214Y-13679929D01*
X5369643Y-13694214D01*
X5341071Y-13694214D01*
X5312500Y-13679929D01*
X5298214Y-13665643D01*
X5283928Y-13637071D01*
X5269643Y-13579929D01*
X5269643Y-13508500D01*
X5283928Y-13451357D01*
X5298214Y-13422786D01*
X5312500Y-13408500D01*
X5341071Y-13394214D01*
X5555357Y-13422786D02*
X5569643Y-13408500D01*
X5598214Y-13394214D01*
X5669643Y-13394214D01*
X5698214Y-13408500D01*
X5712500Y-13422786D01*
X5726786Y-13451357D01*
X5726786Y-13479929D01*
X5712500Y-13522786D01*
X5541071Y-13694214D01*
X5726786Y-13694214D01*
X5983928Y-13494214D02*
X5983928Y-13694214D01*
X5912500Y-13379929D02*
X5841071Y-13594214D01*
X6026786Y-13594214D01*
X6126786Y-13394214D02*
X6126786Y-13451357D01*
X6241071Y-13394214D02*
X6241071Y-13451357D01*
X6683928Y-13808500D02*
X6669643Y-13794214D01*
X6641071Y-13751357D01*
X6626786Y-13722786D01*
X6612500Y-13679929D01*
X6598214Y-13608500D01*
X6598214Y-13551357D01*
X6612500Y-13479929D01*
X6626786Y-13437071D01*
X6641071Y-13408500D01*
X6669643Y-13365643D01*
X6683928Y-13351357D01*
X6855357Y-13394214D02*
X6883928Y-13394214D01*
X6912500Y-13408500D01*
X6926786Y-13422786D01*
X6941071Y-13451357D01*
X6955357Y-13508500D01*
X6955357Y-13579929D01*
X6941071Y-13637071D01*
X6926786Y-13665643D01*
X6912500Y-13679929D01*
X6883928Y-13694214D01*
X6855357Y-13694214D01*
X6826786Y-13679929D01*
X6812500Y-13665643D01*
X6798214Y-13637071D01*
X6783928Y-13579929D01*
X6783928Y-13508500D01*
X6798214Y-13451357D01*
X6812500Y-13422786D01*
X6826786Y-13408500D01*
X6855357Y-13394214D01*
X7312500Y-13694214D02*
X7312500Y-13394214D01*
X7441071Y-13694214D02*
X7441071Y-13537071D01*
X7426786Y-13508500D01*
X7398214Y-13494214D01*
X7355357Y-13494214D01*
X7326786Y-13508500D01*
X7312500Y-13522786D01*
X7626786Y-13694214D02*
X7598214Y-13679929D01*
X7583928Y-13665643D01*
X7569643Y-13637071D01*
X7569643Y-13551357D01*
X7583928Y-13522786D01*
X7598214Y-13508500D01*
X7626786Y-13494214D01*
X7669643Y-13494214D01*
X7698214Y-13508500D01*
X7712500Y-13522786D01*
X7726786Y-13551357D01*
X7726786Y-13637071D01*
X7712500Y-13665643D01*
X7698214Y-13679929D01*
X7669643Y-13694214D01*
X7626786Y-13694214D01*
X7898214Y-13694214D02*
X7869643Y-13679929D01*
X7855357Y-13651357D01*
X7855357Y-13394214D01*
X8126786Y-13679929D02*
X8098214Y-13694214D01*
X8041071Y-13694214D01*
X8012500Y-13679929D01*
X7998214Y-13651357D01*
X7998214Y-13537071D01*
X8012500Y-13508500D01*
X8041071Y-13494214D01*
X8098214Y-13494214D01*
X8126786Y-13508500D01*
X8141071Y-13537071D01*
X8141071Y-13565643D01*
X7998214Y-13594214D01*
X8255357Y-13679929D02*
X8283928Y-13694214D01*
X8341071Y-13694214D01*
X8369643Y-13679929D01*
X8383928Y-13651357D01*
X8383928Y-13637071D01*
X8369643Y-13608500D01*
X8341071Y-13594214D01*
X8298214Y-13594214D01*
X8269643Y-13579929D01*
X8255357Y-13551357D01*
X8255357Y-13537071D01*
X8269643Y-13508500D01*
X8298214Y-13494214D01*
X8341071Y-13494214D01*
X8369643Y-13508500D01*
X8741071Y-13579929D02*
X8969643Y-13579929D01*
X8855357Y-13694214D02*
X8855357Y-13465643D01*
X9469643Y-13494214D02*
X9469643Y-13694214D01*
X9398214Y-13379929D02*
X9326786Y-13594214D01*
X9512500Y-13594214D01*
X9841071Y-13679929D02*
X9869643Y-13694214D01*
X9926786Y-13694214D01*
X9955357Y-13679929D01*
X9969643Y-13651357D01*
X9969643Y-13637071D01*
X9955357Y-13608500D01*
X9926786Y-13594214D01*
X9883928Y-13594214D01*
X9855357Y-13579929D01*
X9841071Y-13551357D01*
X9841071Y-13537071D01*
X9855357Y-13508500D01*
X9883928Y-13494214D01*
X9926786Y-13494214D01*
X9955357Y-13508500D01*
X10141071Y-13694214D02*
X10112500Y-13679929D01*
X10098214Y-13651357D01*
X10098214Y-13394214D01*
X10298214Y-13694214D02*
X10269643Y-13679929D01*
X10255357Y-13665643D01*
X10241071Y-13637071D01*
X10241071Y-13551357D01*
X10255357Y-13522786D01*
X10269643Y-13508500D01*
X10298214Y-13494214D01*
X10341071Y-13494214D01*
X10369643Y-13508500D01*
X10383928Y-13522786D01*
X10398214Y-13551357D01*
X10398214Y-13637071D01*
X10383928Y-13665643D01*
X10369643Y-13679929D01*
X10341071Y-13694214D01*
X10298214Y-13694214D01*
X10483928Y-13494214D02*
X10598214Y-13494214D01*
X10526786Y-13394214D02*
X10526786Y-13651357D01*
X10541071Y-13679929D01*
X10569643Y-13694214D01*
X10598214Y-13694214D01*
X10683928Y-13679929D02*
X10712500Y-13694214D01*
X10769643Y-13694214D01*
X10798214Y-13679929D01*
X10812500Y-13651357D01*
X10812500Y-13637071D01*
X10798214Y-13608500D01*
X10769643Y-13594214D01*
X10726786Y-13594214D01*
X10698214Y-13579929D01*
X10683928Y-13551357D01*
X10683928Y-13537071D01*
X10698214Y-13508500D01*
X10726786Y-13494214D01*
X10769643Y-13494214D01*
X10798214Y-13508500D01*
X10912500Y-13808500D02*
X10926786Y-13794214D01*
X10955357Y-13751357D01*
X10969643Y-13722786D01*
X10983928Y-13679929D01*
X10998214Y-13608500D01*
X10998214Y-13551357D01*
X10983928Y-13479929D01*
X10969643Y-13437071D01*
X10955357Y-13408500D01*
X10926786Y-13365643D01*
X10912500Y-13351357D01*
X1960000Y-13917000D02*
X1960000Y-13992000D01*
X1922500Y-13954500D02*
X1997500Y-13954500D01*
X2341071Y-13790214D02*
X2369643Y-13790214D01*
X2398214Y-13804500D01*
X2412500Y-13818786D01*
X2426786Y-13847357D01*
X2441071Y-13904500D01*
X2441071Y-13975929D01*
X2426786Y-14033071D01*
X2412500Y-14061643D01*
X2398214Y-14075929D01*
X2369643Y-14090214D01*
X2341071Y-14090214D01*
X2312500Y-14075929D01*
X2298214Y-14061643D01*
X2283928Y-14033071D01*
X2269643Y-13975929D01*
X2269643Y-13904500D01*
X2283928Y-13847357D01*
X2298214Y-13818786D01*
X2312500Y-13804500D01*
X2341071Y-13790214D01*
X2569643Y-14061643D02*
X2583928Y-14075929D01*
X2569643Y-14090214D01*
X2555357Y-14075929D01*
X2569643Y-14061643D01*
X2569643Y-14090214D01*
X2683928Y-13790214D02*
X2883928Y-13790214D01*
X2755357Y-14090214D01*
X3141071Y-13790214D02*
X2998214Y-13790214D01*
X2983928Y-13933071D01*
X2998214Y-13918786D01*
X3026786Y-13904500D01*
X3098214Y-13904500D01*
X3126786Y-13918786D01*
X3141071Y-13933071D01*
X3155357Y-13961643D01*
X3155357Y-14033071D01*
X3141071Y-14061643D01*
X3126786Y-14075929D01*
X3098214Y-14090214D01*
X3026786Y-14090214D01*
X2998214Y-14075929D01*
X2983928Y-14061643D01*
X3283928Y-14090214D02*
X3283928Y-13890214D01*
X3283928Y-13918786D02*
X3298214Y-13904500D01*
X3326786Y-13890214D01*
X3369643Y-13890214D01*
X3398214Y-13904500D01*
X3412500Y-13933071D01*
X3412500Y-14090214D01*
X3412500Y-13933071D02*
X3426786Y-13904500D01*
X3455357Y-13890214D01*
X3498214Y-13890214D01*
X3526786Y-13904500D01*
X3541071Y-13933071D01*
X3541071Y-14090214D01*
X3683928Y-14090214D02*
X3683928Y-13890214D01*
X3683928Y-13918786D02*
X3698214Y-13904500D01*
X3726786Y-13890214D01*
X3769643Y-13890214D01*
X3798214Y-13904500D01*
X3812500Y-13933071D01*
X3812500Y-14090214D01*
X3812500Y-13933071D02*
X3826786Y-13904500D01*
X3855357Y-13890214D01*
X3898214Y-13890214D01*
X3926786Y-13904500D01*
X3941071Y-13933071D01*
X3941071Y-14090214D01*
X4526786Y-13775929D02*
X4269643Y-14161643D01*
X4912500Y-13790214D02*
X4941071Y-13790214D01*
X4969643Y-13804500D01*
X4983928Y-13818786D01*
X4998214Y-13847357D01*
X5012500Y-13904500D01*
X5012500Y-13975929D01*
X4998214Y-14033071D01*
X4983928Y-14061643D01*
X4969643Y-14075929D01*
X4941071Y-14090214D01*
X4912500Y-14090214D01*
X4883928Y-14075929D01*
X4869643Y-14061643D01*
X4855357Y-14033071D01*
X4841071Y-13975929D01*
X4841071Y-13904500D01*
X4855357Y-13847357D01*
X4869643Y-13818786D01*
X4883928Y-13804500D01*
X4912500Y-13790214D01*
X5141071Y-14061643D02*
X5155357Y-14075929D01*
X5141071Y-14090214D01*
X5126786Y-14075929D01*
X5141071Y-14061643D01*
X5141071Y-14090214D01*
X5341071Y-13790214D02*
X5369643Y-13790214D01*
X5398214Y-13804500D01*
X5412500Y-13818786D01*
X5426786Y-13847357D01*
X5441071Y-13904500D01*
X5441071Y-13975929D01*
X5426786Y-14033071D01*
X5412500Y-14061643D01*
X5398214Y-14075929D01*
X5369643Y-14090214D01*
X5341071Y-14090214D01*
X5312500Y-14075929D01*
X5298214Y-14061643D01*
X5283928Y-14033071D01*
X5269643Y-13975929D01*
X5269643Y-13904500D01*
X5283928Y-13847357D01*
X5298214Y-13818786D01*
X5312500Y-13804500D01*
X5341071Y-13790214D01*
X5541071Y-13790214D02*
X5726786Y-13790214D01*
X5626786Y-13904500D01*
X5669643Y-13904500D01*
X5698214Y-13918786D01*
X5712500Y-13933071D01*
X5726786Y-13961643D01*
X5726786Y-14033071D01*
X5712500Y-14061643D01*
X5698214Y-14075929D01*
X5669643Y-14090214D01*
X5583928Y-14090214D01*
X5555357Y-14075929D01*
X5541071Y-14061643D01*
X5912500Y-13790214D02*
X5941071Y-13790214D01*
X5969643Y-13804500D01*
X5983928Y-13818786D01*
X5998214Y-13847357D01*
X6012500Y-13904500D01*
X6012500Y-13975929D01*
X5998214Y-14033071D01*
X5983928Y-14061643D01*
X5969643Y-14075929D01*
X5941071Y-14090214D01*
X5912500Y-14090214D01*
X5883928Y-14075929D01*
X5869643Y-14061643D01*
X5855357Y-14033071D01*
X5841071Y-13975929D01*
X5841071Y-13904500D01*
X5855357Y-13847357D01*
X5869643Y-13818786D01*
X5883928Y-13804500D01*
X5912500Y-13790214D01*
X6126786Y-13790214D02*
X6126786Y-13847357D01*
X6241071Y-13790214D02*
X6241071Y-13847357D01*
X6683928Y-14204500D02*
X6669643Y-14190214D01*
X6641071Y-14147357D01*
X6626786Y-14118786D01*
X6612500Y-14075929D01*
X6598214Y-14004500D01*
X6598214Y-13947357D01*
X6612500Y-13875929D01*
X6626786Y-13833071D01*
X6641071Y-13804500D01*
X6669643Y-13761643D01*
X6683928Y-13747357D01*
X6769643Y-13790214D02*
X6955357Y-13790214D01*
X6855357Y-13904500D01*
X6898214Y-13904500D01*
X6926786Y-13918786D01*
X6941071Y-13933071D01*
X6955357Y-13961643D01*
X6955357Y-14033071D01*
X6941071Y-14061643D01*
X6926786Y-14075929D01*
X6898214Y-14090214D01*
X6812500Y-14090214D01*
X6783928Y-14075929D01*
X6769643Y-14061643D01*
X7312500Y-14090214D02*
X7312500Y-13790214D01*
X7441071Y-14090214D02*
X7441071Y-13933071D01*
X7426786Y-13904500D01*
X7398214Y-13890214D01*
X7355357Y-13890214D01*
X7326786Y-13904500D01*
X7312500Y-13918786D01*
X7626786Y-14090214D02*
X7598214Y-14075929D01*
X7583928Y-14061643D01*
X7569643Y-14033071D01*
X7569643Y-13947357D01*
X7583928Y-13918786D01*
X7598214Y-13904500D01*
X7626786Y-13890214D01*
X7669643Y-13890214D01*
X7698214Y-13904500D01*
X7712500Y-13918786D01*
X7726786Y-13947357D01*
X7726786Y-14033071D01*
X7712500Y-14061643D01*
X7698214Y-14075929D01*
X7669643Y-14090214D01*
X7626786Y-14090214D01*
X7898214Y-14090214D02*
X7869643Y-14075929D01*
X7855357Y-14047357D01*
X7855357Y-13790214D01*
X8126786Y-14075929D02*
X8098214Y-14090214D01*
X8041071Y-14090214D01*
X8012500Y-14075929D01*
X7998214Y-14047357D01*
X7998214Y-13933071D01*
X8012500Y-13904500D01*
X8041071Y-13890214D01*
X8098214Y-13890214D01*
X8126786Y-13904500D01*
X8141071Y-13933071D01*
X8141071Y-13961643D01*
X7998214Y-13990214D01*
X8255357Y-14075929D02*
X8283928Y-14090214D01*
X8341071Y-14090214D01*
X8369643Y-14075929D01*
X8383928Y-14047357D01*
X8383928Y-14033071D01*
X8369643Y-14004500D01*
X8341071Y-13990214D01*
X8298214Y-13990214D01*
X8269643Y-13975929D01*
X8255357Y-13947357D01*
X8255357Y-13933071D01*
X8269643Y-13904500D01*
X8298214Y-13890214D01*
X8341071Y-13890214D01*
X8369643Y-13904500D01*
X8483928Y-14204500D02*
X8498214Y-14190214D01*
X8526786Y-14147357D01*
X8541071Y-14118786D01*
X8555357Y-14075929D01*
X8569643Y-14004500D01*
X8569643Y-13947357D01*
X8555357Y-13875929D01*
X8541071Y-13833071D01*
X8526786Y-13804500D01*
X8498214Y-13761643D01*
X8483928Y-13747357D01*
X1984320Y-14382320D02*
X1984320Y-14318680D01*
X1920680Y-14318680D01*
X1920680Y-14382320D01*
X1984320Y-14382320D01*
X2341071Y-14186214D02*
X2369643Y-14186214D01*
X2398214Y-14200500D01*
X2412500Y-14214786D01*
X2426786Y-14243357D01*
X2441071Y-14300500D01*
X2441071Y-14371929D01*
X2426786Y-14429071D01*
X2412500Y-14457643D01*
X2398214Y-14471929D01*
X2369643Y-14486214D01*
X2341071Y-14486214D01*
X2312500Y-14471929D01*
X2298214Y-14457643D01*
X2283928Y-14429071D01*
X2269643Y-14371929D01*
X2269643Y-14300500D01*
X2283928Y-14243357D01*
X2298214Y-14214786D01*
X2312500Y-14200500D01*
X2341071Y-14186214D01*
X2569643Y-14457643D02*
X2583928Y-14471929D01*
X2569643Y-14486214D01*
X2555357Y-14471929D01*
X2569643Y-14457643D01*
X2569643Y-14486214D01*
X2726786Y-14486214D02*
X2783928Y-14486214D01*
X2812500Y-14471929D01*
X2826786Y-14457643D01*
X2855357Y-14414786D01*
X2869643Y-14357643D01*
X2869643Y-14243357D01*
X2855357Y-14214786D01*
X2841071Y-14200500D01*
X2812500Y-14186214D01*
X2755357Y-14186214D01*
X2726786Y-14200500D01*
X2712500Y-14214786D01*
X2698214Y-14243357D01*
X2698214Y-14314786D01*
X2712500Y-14343357D01*
X2726786Y-14357643D01*
X2755357Y-14371929D01*
X2812500Y-14371929D01*
X2841071Y-14357643D01*
X2855357Y-14343357D01*
X2869643Y-14314786D01*
X3055357Y-14186214D02*
X3083928Y-14186214D01*
X3112500Y-14200500D01*
X3126786Y-14214786D01*
X3141071Y-14243357D01*
X3155357Y-14300500D01*
X3155357Y-14371929D01*
X3141071Y-14429071D01*
X3126786Y-14457643D01*
X3112500Y-14471929D01*
X3083928Y-14486214D01*
X3055357Y-14486214D01*
X3026786Y-14471929D01*
X3012500Y-14457643D01*
X2998214Y-14429071D01*
X2983928Y-14371929D01*
X2983928Y-14300500D01*
X2998214Y-14243357D01*
X3012500Y-14214786D01*
X3026786Y-14200500D01*
X3055357Y-14186214D01*
X3283928Y-14486214D02*
X3283928Y-14286214D01*
X3283928Y-14314786D02*
X3298214Y-14300500D01*
X3326786Y-14286214D01*
X3369643Y-14286214D01*
X3398214Y-14300500D01*
X3412500Y-14329071D01*
X3412500Y-14486214D01*
X3412500Y-14329071D02*
X3426786Y-14300500D01*
X3455357Y-14286214D01*
X3498214Y-14286214D01*
X3526786Y-14300500D01*
X3541071Y-14329071D01*
X3541071Y-14486214D01*
X3683928Y-14486214D02*
X3683928Y-14286214D01*
X3683928Y-14314786D02*
X3698214Y-14300500D01*
X3726786Y-14286214D01*
X3769643Y-14286214D01*
X3798214Y-14300500D01*
X3812500Y-14329071D01*
X3812500Y-14486214D01*
X3812500Y-14329071D02*
X3826786Y-14300500D01*
X3855357Y-14286214D01*
X3898214Y-14286214D01*
X3926786Y-14300500D01*
X3941071Y-14329071D01*
X3941071Y-14486214D01*
X4526786Y-14171929D02*
X4269643Y-14557643D01*
X4912500Y-14186214D02*
X4941071Y-14186214D01*
X4969643Y-14200500D01*
X4983928Y-14214786D01*
X4998214Y-14243357D01*
X5012500Y-14300500D01*
X5012500Y-14371929D01*
X4998214Y-14429071D01*
X4983928Y-14457643D01*
X4969643Y-14471929D01*
X4941071Y-14486214D01*
X4912500Y-14486214D01*
X4883928Y-14471929D01*
X4869643Y-14457643D01*
X4855357Y-14429071D01*
X4841071Y-14371929D01*
X4841071Y-14300500D01*
X4855357Y-14243357D01*
X4869643Y-14214786D01*
X4883928Y-14200500D01*
X4912500Y-14186214D01*
X5141071Y-14457643D02*
X5155357Y-14471929D01*
X5141071Y-14486214D01*
X5126786Y-14471929D01*
X5141071Y-14457643D01*
X5141071Y-14486214D01*
X5341071Y-14186214D02*
X5369643Y-14186214D01*
X5398214Y-14200500D01*
X5412500Y-14214786D01*
X5426786Y-14243357D01*
X5441071Y-14300500D01*
X5441071Y-14371929D01*
X5426786Y-14429071D01*
X5412500Y-14457643D01*
X5398214Y-14471929D01*
X5369643Y-14486214D01*
X5341071Y-14486214D01*
X5312500Y-14471929D01*
X5298214Y-14457643D01*
X5283928Y-14429071D01*
X5269643Y-14371929D01*
X5269643Y-14300500D01*
X5283928Y-14243357D01*
X5298214Y-14214786D01*
X5312500Y-14200500D01*
X5341071Y-14186214D01*
X5541071Y-14186214D02*
X5726786Y-14186214D01*
X5626786Y-14300500D01*
X5669643Y-14300500D01*
X5698214Y-14314786D01*
X5712500Y-14329071D01*
X5726786Y-14357643D01*
X5726786Y-14429071D01*
X5712500Y-14457643D01*
X5698214Y-14471929D01*
X5669643Y-14486214D01*
X5583928Y-14486214D01*
X5555357Y-14471929D01*
X5541071Y-14457643D01*
X5998214Y-14186214D02*
X5855357Y-14186214D01*
X5841071Y-14329071D01*
X5855357Y-14314786D01*
X5883928Y-14300500D01*
X5955357Y-14300500D01*
X5983928Y-14314786D01*
X5998214Y-14329071D01*
X6012500Y-14357643D01*
X6012500Y-14429071D01*
X5998214Y-14457643D01*
X5983928Y-14471929D01*
X5955357Y-14486214D01*
X5883928Y-14486214D01*
X5855357Y-14471929D01*
X5841071Y-14457643D01*
X6126786Y-14186214D02*
X6126786Y-14243357D01*
X6241071Y-14186214D02*
X6241071Y-14243357D01*
X6683928Y-14600500D02*
X6669643Y-14586214D01*
X6641071Y-14543357D01*
X6626786Y-14514786D01*
X6612500Y-14471929D01*
X6598214Y-14400500D01*
X6598214Y-14343357D01*
X6612500Y-14271929D01*
X6626786Y-14229071D01*
X6641071Y-14200500D01*
X6669643Y-14157643D01*
X6683928Y-14143357D01*
X6769643Y-14186214D02*
X6955357Y-14186214D01*
X6855357Y-14300500D01*
X6898214Y-14300500D01*
X6926786Y-14314786D01*
X6941071Y-14329071D01*
X6955357Y-14357643D01*
X6955357Y-14429071D01*
X6941071Y-14457643D01*
X6926786Y-14471929D01*
X6898214Y-14486214D01*
X6812500Y-14486214D01*
X6783928Y-14471929D01*
X6769643Y-14457643D01*
X7312500Y-14486214D02*
X7312500Y-14186214D01*
X7441071Y-14486214D02*
X7441071Y-14329071D01*
X7426786Y-14300500D01*
X7398214Y-14286214D01*
X7355357Y-14286214D01*
X7326786Y-14300500D01*
X7312500Y-14314786D01*
X7626786Y-14486214D02*
X7598214Y-14471929D01*
X7583928Y-14457643D01*
X7569643Y-14429071D01*
X7569643Y-14343357D01*
X7583928Y-14314786D01*
X7598214Y-14300500D01*
X7626786Y-14286214D01*
X7669643Y-14286214D01*
X7698214Y-14300500D01*
X7712500Y-14314786D01*
X7726786Y-14343357D01*
X7726786Y-14429071D01*
X7712500Y-14457643D01*
X7698214Y-14471929D01*
X7669643Y-14486214D01*
X7626786Y-14486214D01*
X7898214Y-14486214D02*
X7869643Y-14471929D01*
X7855357Y-14443357D01*
X7855357Y-14186214D01*
X8126786Y-14471929D02*
X8098214Y-14486214D01*
X8041071Y-14486214D01*
X8012500Y-14471929D01*
X7998214Y-14443357D01*
X7998214Y-14329071D01*
X8012500Y-14300500D01*
X8041071Y-14286214D01*
X8098214Y-14286214D01*
X8126786Y-14300500D01*
X8141071Y-14329071D01*
X8141071Y-14357643D01*
X7998214Y-14386214D01*
X8255357Y-14471929D02*
X8283928Y-14486214D01*
X8341071Y-14486214D01*
X8369643Y-14471929D01*
X8383928Y-14443357D01*
X8383928Y-14429071D01*
X8369643Y-14400500D01*
X8341071Y-14386214D01*
X8298214Y-14386214D01*
X8269643Y-14371929D01*
X8255357Y-14343357D01*
X8255357Y-14329071D01*
X8269643Y-14300500D01*
X8298214Y-14286214D01*
X8341071Y-14286214D01*
X8369643Y-14300500D01*
X8483928Y-14600500D02*
X8498214Y-14586214D01*
X8526786Y-14543357D01*
X8541071Y-14514786D01*
X8555357Y-14471929D01*
X8569643Y-14400500D01*
X8569643Y-14343357D01*
X8555357Y-14271929D01*
X8541071Y-14229071D01*
X8526786Y-14200500D01*
X8498214Y-14157643D01*
X8483928Y-14143357D01*
X1950000Y-14794000D02*
X1997500Y-14746500D01*
X1950000Y-14699000D01*
X1902500Y-14746500D01*
X1950000Y-14794000D01*
X2341071Y-14582214D02*
X2369643Y-14582214D01*
X2398214Y-14596500D01*
X2412500Y-14610786D01*
X2426786Y-14639357D01*
X2441071Y-14696500D01*
X2441071Y-14767929D01*
X2426786Y-14825071D01*
X2412500Y-14853643D01*
X2398214Y-14867929D01*
X2369643Y-14882214D01*
X2341071Y-14882214D01*
X2312500Y-14867929D01*
X2298214Y-14853643D01*
X2283928Y-14825071D01*
X2269643Y-14767929D01*
X2269643Y-14696500D01*
X2283928Y-14639357D01*
X2298214Y-14610786D01*
X2312500Y-14596500D01*
X2341071Y-14582214D01*
X2569643Y-14853643D02*
X2583928Y-14867929D01*
X2569643Y-14882214D01*
X2555357Y-14867929D01*
X2569643Y-14853643D01*
X2569643Y-14882214D01*
X2726786Y-14882214D02*
X2783928Y-14882214D01*
X2812500Y-14867929D01*
X2826786Y-14853643D01*
X2855357Y-14810786D01*
X2869643Y-14753643D01*
X2869643Y-14639357D01*
X2855357Y-14610786D01*
X2841071Y-14596500D01*
X2812500Y-14582214D01*
X2755357Y-14582214D01*
X2726786Y-14596500D01*
X2712500Y-14610786D01*
X2698214Y-14639357D01*
X2698214Y-14710786D01*
X2712500Y-14739357D01*
X2726786Y-14753643D01*
X2755357Y-14767929D01*
X2812500Y-14767929D01*
X2841071Y-14753643D01*
X2855357Y-14739357D01*
X2869643Y-14710786D01*
X3141071Y-14582214D02*
X2998214Y-14582214D01*
X2983928Y-14725071D01*
X2998214Y-14710786D01*
X3026786Y-14696500D01*
X3098214Y-14696500D01*
X3126786Y-14710786D01*
X3141071Y-14725071D01*
X3155357Y-14753643D01*
X3155357Y-14825071D01*
X3141071Y-14853643D01*
X3126786Y-14867929D01*
X3098214Y-14882214D01*
X3026786Y-14882214D01*
X2998214Y-14867929D01*
X2983928Y-14853643D01*
X3283928Y-14882214D02*
X3283928Y-14682214D01*
X3283928Y-14710786D02*
X3298214Y-14696500D01*
X3326786Y-14682214D01*
X3369643Y-14682214D01*
X3398214Y-14696500D01*
X3412500Y-14725071D01*
X3412500Y-14882214D01*
X3412500Y-14725071D02*
X3426786Y-14696500D01*
X3455357Y-14682214D01*
X3498214Y-14682214D01*
X3526786Y-14696500D01*
X3541071Y-14725071D01*
X3541071Y-14882214D01*
X3683928Y-14882214D02*
X3683928Y-14682214D01*
X3683928Y-14710786D02*
X3698214Y-14696500D01*
X3726786Y-14682214D01*
X3769643Y-14682214D01*
X3798214Y-14696500D01*
X3812500Y-14725071D01*
X3812500Y-14882214D01*
X3812500Y-14725071D02*
X3826786Y-14696500D01*
X3855357Y-14682214D01*
X3898214Y-14682214D01*
X3926786Y-14696500D01*
X3941071Y-14725071D01*
X3941071Y-14882214D01*
X4526786Y-14567929D02*
X4269643Y-14953643D01*
X4912500Y-14582214D02*
X4941071Y-14582214D01*
X4969643Y-14596500D01*
X4983928Y-14610786D01*
X4998214Y-14639357D01*
X5012500Y-14696500D01*
X5012500Y-14767929D01*
X4998214Y-14825071D01*
X4983928Y-14853643D01*
X4969643Y-14867929D01*
X4941071Y-14882214D01*
X4912500Y-14882214D01*
X4883928Y-14867929D01*
X4869643Y-14853643D01*
X4855357Y-14825071D01*
X4841071Y-14767929D01*
X4841071Y-14696500D01*
X4855357Y-14639357D01*
X4869643Y-14610786D01*
X4883928Y-14596500D01*
X4912500Y-14582214D01*
X5141071Y-14853643D02*
X5155357Y-14867929D01*
X5141071Y-14882214D01*
X5126786Y-14867929D01*
X5141071Y-14853643D01*
X5141071Y-14882214D01*
X5341071Y-14582214D02*
X5369643Y-14582214D01*
X5398214Y-14596500D01*
X5412500Y-14610786D01*
X5426786Y-14639357D01*
X5441071Y-14696500D01*
X5441071Y-14767929D01*
X5426786Y-14825071D01*
X5412500Y-14853643D01*
X5398214Y-14867929D01*
X5369643Y-14882214D01*
X5341071Y-14882214D01*
X5312500Y-14867929D01*
X5298214Y-14853643D01*
X5283928Y-14825071D01*
X5269643Y-14767929D01*
X5269643Y-14696500D01*
X5283928Y-14639357D01*
X5298214Y-14610786D01*
X5312500Y-14596500D01*
X5341071Y-14582214D01*
X5541071Y-14582214D02*
X5726786Y-14582214D01*
X5626786Y-14696500D01*
X5669643Y-14696500D01*
X5698214Y-14710786D01*
X5712500Y-14725071D01*
X5726786Y-14753643D01*
X5726786Y-14825071D01*
X5712500Y-14853643D01*
X5698214Y-14867929D01*
X5669643Y-14882214D01*
X5583928Y-14882214D01*
X5555357Y-14867929D01*
X5541071Y-14853643D01*
X5826786Y-14582214D02*
X6026786Y-14582214D01*
X5898214Y-14882214D01*
X6126786Y-14582214D02*
X6126786Y-14639357D01*
X6241071Y-14582214D02*
X6241071Y-14639357D01*
X6683928Y-14996500D02*
X6669643Y-14982214D01*
X6641071Y-14939357D01*
X6626786Y-14910786D01*
X6612500Y-14867929D01*
X6598214Y-14796500D01*
X6598214Y-14739357D01*
X6612500Y-14667929D01*
X6626786Y-14625071D01*
X6641071Y-14596500D01*
X6669643Y-14553643D01*
X6683928Y-14539357D01*
X6926786Y-14682214D02*
X6926786Y-14882214D01*
X6855357Y-14567929D02*
X6783928Y-14782214D01*
X6969643Y-14782214D01*
X7312500Y-14882214D02*
X7312500Y-14582214D01*
X7441071Y-14882214D02*
X7441071Y-14725071D01*
X7426786Y-14696500D01*
X7398214Y-14682214D01*
X7355357Y-14682214D01*
X7326786Y-14696500D01*
X7312500Y-14710786D01*
X7626786Y-14882214D02*
X7598214Y-14867929D01*
X7583928Y-14853643D01*
X7569643Y-14825071D01*
X7569643Y-14739357D01*
X7583928Y-14710786D01*
X7598214Y-14696500D01*
X7626786Y-14682214D01*
X7669643Y-14682214D01*
X7698214Y-14696500D01*
X7712500Y-14710786D01*
X7726786Y-14739357D01*
X7726786Y-14825071D01*
X7712500Y-14853643D01*
X7698214Y-14867929D01*
X7669643Y-14882214D01*
X7626786Y-14882214D01*
X7898214Y-14882214D02*
X7869643Y-14867929D01*
X7855357Y-14839357D01*
X7855357Y-14582214D01*
X8126786Y-14867929D02*
X8098214Y-14882214D01*
X8041071Y-14882214D01*
X8012500Y-14867929D01*
X7998214Y-14839357D01*
X7998214Y-14725071D01*
X8012500Y-14696500D01*
X8041071Y-14682214D01*
X8098214Y-14682214D01*
X8126786Y-14696500D01*
X8141071Y-14725071D01*
X8141071Y-14753643D01*
X7998214Y-14782214D01*
X8255357Y-14867929D02*
X8283928Y-14882214D01*
X8341071Y-14882214D01*
X8369643Y-14867929D01*
X8383928Y-14839357D01*
X8383928Y-14825071D01*
X8369643Y-14796500D01*
X8341071Y-14782214D01*
X8298214Y-14782214D01*
X8269643Y-14767929D01*
X8255357Y-14739357D01*
X8255357Y-14725071D01*
X8269643Y-14696500D01*
X8298214Y-14682214D01*
X8341071Y-14682214D01*
X8369643Y-14696500D01*
X8483928Y-14996500D02*
X8498214Y-14982214D01*
X8526786Y-14939357D01*
X8541071Y-14910786D01*
X8555357Y-14867929D01*
X8569643Y-14796500D01*
X8569643Y-14739357D01*
X8555357Y-14667929D01*
X8541071Y-14625071D01*
X8526786Y-14596500D01*
X8498214Y-14553643D01*
X8483928Y-14539357D01*
X1897500Y-15092500D02*
X1997500Y-15192500D01*
X1997500Y-15092500D02*
X1897500Y-15192500D01*
X1997500Y-15142500D02*
G75*
G03*
X1997500Y-15142500I-50000J0D01*
G01*
X2441071Y-15278214D02*
X2269643Y-15278214D01*
X2355357Y-15278214D02*
X2355357Y-14978214D01*
X2326786Y-15021071D01*
X2298214Y-15049643D01*
X2269643Y-15063929D01*
X2569643Y-15249643D02*
X2583928Y-15263929D01*
X2569643Y-15278214D01*
X2555357Y-15263929D01*
X2569643Y-15249643D01*
X2569643Y-15278214D01*
X2769643Y-14978214D02*
X2798214Y-14978214D01*
X2826786Y-14992500D01*
X2841071Y-15006786D01*
X2855357Y-15035357D01*
X2869643Y-15092500D01*
X2869643Y-15163929D01*
X2855357Y-15221071D01*
X2841071Y-15249643D01*
X2826786Y-15263929D01*
X2798214Y-15278214D01*
X2769643Y-15278214D01*
X2741071Y-15263929D01*
X2726786Y-15249643D01*
X2712500Y-15221071D01*
X2698214Y-15163929D01*
X2698214Y-15092500D01*
X2712500Y-15035357D01*
X2726786Y-15006786D01*
X2741071Y-14992500D01*
X2769643Y-14978214D01*
X3055357Y-14978214D02*
X3083928Y-14978214D01*
X3112500Y-14992500D01*
X3126786Y-15006786D01*
X3141071Y-15035357D01*
X3155357Y-15092500D01*
X3155357Y-15163929D01*
X3141071Y-15221071D01*
X3126786Y-15249643D01*
X3112500Y-15263929D01*
X3083928Y-15278214D01*
X3055357Y-15278214D01*
X3026786Y-15263929D01*
X3012500Y-15249643D01*
X2998214Y-15221071D01*
X2983928Y-15163929D01*
X2983928Y-15092500D01*
X2998214Y-15035357D01*
X3012500Y-15006786D01*
X3026786Y-14992500D01*
X3055357Y-14978214D01*
X3283928Y-15278214D02*
X3283928Y-15078214D01*
X3283928Y-15106786D02*
X3298214Y-15092500D01*
X3326786Y-15078214D01*
X3369643Y-15078214D01*
X3398214Y-15092500D01*
X3412500Y-15121071D01*
X3412500Y-15278214D01*
X3412500Y-15121071D02*
X3426786Y-15092500D01*
X3455357Y-15078214D01*
X3498214Y-15078214D01*
X3526786Y-15092500D01*
X3541071Y-15121071D01*
X3541071Y-15278214D01*
X3683928Y-15278214D02*
X3683928Y-15078214D01*
X3683928Y-15106786D02*
X3698214Y-15092500D01*
X3726786Y-15078214D01*
X3769643Y-15078214D01*
X3798214Y-15092500D01*
X3812500Y-15121071D01*
X3812500Y-15278214D01*
X3812500Y-15121071D02*
X3826786Y-15092500D01*
X3855357Y-15078214D01*
X3898214Y-15078214D01*
X3926786Y-15092500D01*
X3941071Y-15121071D01*
X3941071Y-15278214D01*
X4526786Y-14963929D02*
X4269643Y-15349643D01*
X4912500Y-14978214D02*
X4941071Y-14978214D01*
X4969643Y-14992500D01*
X4983928Y-15006786D01*
X4998214Y-15035357D01*
X5012500Y-15092500D01*
X5012500Y-15163929D01*
X4998214Y-15221071D01*
X4983928Y-15249643D01*
X4969643Y-15263929D01*
X4941071Y-15278214D01*
X4912500Y-15278214D01*
X4883928Y-15263929D01*
X4869643Y-15249643D01*
X4855357Y-15221071D01*
X4841071Y-15163929D01*
X4841071Y-15092500D01*
X4855357Y-15035357D01*
X4869643Y-15006786D01*
X4883928Y-14992500D01*
X4912500Y-14978214D01*
X5141071Y-15249643D02*
X5155357Y-15263929D01*
X5141071Y-15278214D01*
X5126786Y-15263929D01*
X5141071Y-15249643D01*
X5141071Y-15278214D01*
X5341071Y-14978214D02*
X5369643Y-14978214D01*
X5398214Y-14992500D01*
X5412500Y-15006786D01*
X5426786Y-15035357D01*
X5441071Y-15092500D01*
X5441071Y-15163929D01*
X5426786Y-15221071D01*
X5412500Y-15249643D01*
X5398214Y-15263929D01*
X5369643Y-15278214D01*
X5341071Y-15278214D01*
X5312500Y-15263929D01*
X5298214Y-15249643D01*
X5283928Y-15221071D01*
X5269643Y-15163929D01*
X5269643Y-15092500D01*
X5283928Y-15035357D01*
X5298214Y-15006786D01*
X5312500Y-14992500D01*
X5341071Y-14978214D01*
X5541071Y-14978214D02*
X5726786Y-14978214D01*
X5626786Y-15092500D01*
X5669643Y-15092500D01*
X5698214Y-15106786D01*
X5712500Y-15121071D01*
X5726786Y-15149643D01*
X5726786Y-15221071D01*
X5712500Y-15249643D01*
X5698214Y-15263929D01*
X5669643Y-15278214D01*
X5583928Y-15278214D01*
X5555357Y-15263929D01*
X5541071Y-15249643D01*
X5869643Y-15278214D02*
X5926786Y-15278214D01*
X5955357Y-15263929D01*
X5969643Y-15249643D01*
X5998214Y-15206786D01*
X6012500Y-15149643D01*
X6012500Y-15035357D01*
X5998214Y-15006786D01*
X5983928Y-14992500D01*
X5955357Y-14978214D01*
X5898214Y-14978214D01*
X5869643Y-14992500D01*
X5855357Y-15006786D01*
X5841071Y-15035357D01*
X5841071Y-15106786D01*
X5855357Y-15135357D01*
X5869643Y-15149643D01*
X5898214Y-15163929D01*
X5955357Y-15163929D01*
X5983928Y-15149643D01*
X5998214Y-15135357D01*
X6012500Y-15106786D01*
X6126786Y-14978214D02*
X6126786Y-15035357D01*
X6241071Y-14978214D02*
X6241071Y-15035357D01*
X6683928Y-15392500D02*
X6669643Y-15378214D01*
X6641071Y-15335357D01*
X6626786Y-15306786D01*
X6612500Y-15263929D01*
X6598214Y-15192500D01*
X6598214Y-15135357D01*
X6612500Y-15063929D01*
X6626786Y-15021071D01*
X6641071Y-14992500D01*
X6669643Y-14949643D01*
X6683928Y-14935357D01*
X6926786Y-14978214D02*
X6869643Y-14978214D01*
X6841071Y-14992500D01*
X6826786Y-15006786D01*
X6798214Y-15049643D01*
X6783928Y-15106786D01*
X6783928Y-15221071D01*
X6798214Y-15249643D01*
X6812500Y-15263929D01*
X6841071Y-15278214D01*
X6898214Y-15278214D01*
X6926786Y-15263929D01*
X6941071Y-15249643D01*
X6955357Y-15221071D01*
X6955357Y-15149643D01*
X6941071Y-15121071D01*
X6926786Y-15106786D01*
X6898214Y-15092500D01*
X6841071Y-15092500D01*
X6812500Y-15106786D01*
X6798214Y-15121071D01*
X6783928Y-15149643D01*
X7055357Y-14978214D02*
X7241071Y-14978214D01*
X7141071Y-15092500D01*
X7183928Y-15092500D01*
X7212500Y-15106786D01*
X7226786Y-15121071D01*
X7241071Y-15149643D01*
X7241071Y-15221071D01*
X7226786Y-15249643D01*
X7212500Y-15263929D01*
X7183928Y-15278214D01*
X7098214Y-15278214D01*
X7069643Y-15263929D01*
X7055357Y-15249643D01*
X7598214Y-15278214D02*
X7598214Y-14978214D01*
X7726786Y-15278214D02*
X7726786Y-15121071D01*
X7712500Y-15092500D01*
X7683928Y-15078214D01*
X7641071Y-15078214D01*
X7612500Y-15092500D01*
X7598214Y-15106786D01*
X7912500Y-15278214D02*
X7883928Y-15263929D01*
X7869643Y-15249643D01*
X7855357Y-15221071D01*
X7855357Y-15135357D01*
X7869643Y-15106786D01*
X7883928Y-15092500D01*
X7912500Y-15078214D01*
X7955357Y-15078214D01*
X7983928Y-15092500D01*
X7998214Y-15106786D01*
X8012500Y-15135357D01*
X8012500Y-15221071D01*
X7998214Y-15249643D01*
X7983928Y-15263929D01*
X7955357Y-15278214D01*
X7912500Y-15278214D01*
X8183928Y-15278214D02*
X8155357Y-15263929D01*
X8141071Y-15235357D01*
X8141071Y-14978214D01*
X8412500Y-15263929D02*
X8383928Y-15278214D01*
X8326786Y-15278214D01*
X8298214Y-15263929D01*
X8283928Y-15235357D01*
X8283928Y-15121071D01*
X8298214Y-15092500D01*
X8326786Y-15078214D01*
X8383928Y-15078214D01*
X8412500Y-15092500D01*
X8426786Y-15121071D01*
X8426786Y-15149643D01*
X8283928Y-15178214D01*
X8541071Y-15263929D02*
X8569643Y-15278214D01*
X8626786Y-15278214D01*
X8655357Y-15263929D01*
X8669643Y-15235357D01*
X8669643Y-15221071D01*
X8655357Y-15192500D01*
X8626786Y-15178214D01*
X8583928Y-15178214D01*
X8555357Y-15163929D01*
X8541071Y-15135357D01*
X8541071Y-15121071D01*
X8555357Y-15092500D01*
X8583928Y-15078214D01*
X8626786Y-15078214D01*
X8655357Y-15092500D01*
X8769643Y-15392500D02*
X8783928Y-15378214D01*
X8812500Y-15335357D01*
X8826786Y-15306786D01*
X8841071Y-15263929D01*
X8855357Y-15192500D01*
X8855357Y-15135357D01*
X8841071Y-15063929D01*
X8826786Y-15021071D01*
X8812500Y-14992500D01*
X8783928Y-14949643D01*
X8769643Y-14935357D01*
X1847500Y-15463500D02*
X1997500Y-15613500D01*
X1997500Y-15463500D02*
X1847500Y-15613500D01*
X1922500Y-15463500D02*
X1922500Y-15613500D01*
X1847500Y-15538500D02*
X1997500Y-15538500D01*
X2441071Y-15674214D02*
X2269643Y-15674214D01*
X2355357Y-15674214D02*
X2355357Y-15374214D01*
X2326786Y-15417071D01*
X2298214Y-15445643D01*
X2269643Y-15459929D01*
X2569643Y-15645643D02*
X2583928Y-15659929D01*
X2569643Y-15674214D01*
X2555357Y-15659929D01*
X2569643Y-15645643D01*
X2569643Y-15674214D01*
X2855357Y-15374214D02*
X2712500Y-15374214D01*
X2698214Y-15517071D01*
X2712500Y-15502786D01*
X2741071Y-15488500D01*
X2812500Y-15488500D01*
X2841071Y-15502786D01*
X2855357Y-15517071D01*
X2869643Y-15545643D01*
X2869643Y-15617071D01*
X2855357Y-15645643D01*
X2841071Y-15659929D01*
X2812500Y-15674214D01*
X2741071Y-15674214D01*
X2712500Y-15659929D01*
X2698214Y-15645643D01*
X3055357Y-15374214D02*
X3083928Y-15374214D01*
X3112500Y-15388500D01*
X3126786Y-15402786D01*
X3141071Y-15431357D01*
X3155357Y-15488500D01*
X3155357Y-15559929D01*
X3141071Y-15617071D01*
X3126786Y-15645643D01*
X3112500Y-15659929D01*
X3083928Y-15674214D01*
X3055357Y-15674214D01*
X3026786Y-15659929D01*
X3012500Y-15645643D01*
X2998214Y-15617071D01*
X2983928Y-15559929D01*
X2983928Y-15488500D01*
X2998214Y-15431357D01*
X3012500Y-15402786D01*
X3026786Y-15388500D01*
X3055357Y-15374214D01*
X3283928Y-15674214D02*
X3283928Y-15474214D01*
X3283928Y-15502786D02*
X3298214Y-15488500D01*
X3326786Y-15474214D01*
X3369643Y-15474214D01*
X3398214Y-15488500D01*
X3412500Y-15517071D01*
X3412500Y-15674214D01*
X3412500Y-15517071D02*
X3426786Y-15488500D01*
X3455357Y-15474214D01*
X3498214Y-15474214D01*
X3526786Y-15488500D01*
X3541071Y-15517071D01*
X3541071Y-15674214D01*
X3683928Y-15674214D02*
X3683928Y-15474214D01*
X3683928Y-15502786D02*
X3698214Y-15488500D01*
X3726786Y-15474214D01*
X3769643Y-15474214D01*
X3798214Y-15488500D01*
X3812500Y-15517071D01*
X3812500Y-15674214D01*
X3812500Y-15517071D02*
X3826786Y-15488500D01*
X3855357Y-15474214D01*
X3898214Y-15474214D01*
X3926786Y-15488500D01*
X3941071Y-15517071D01*
X3941071Y-15674214D01*
X4526786Y-15359929D02*
X4269643Y-15745643D01*
X4912500Y-15374214D02*
X4941071Y-15374214D01*
X4969643Y-15388500D01*
X4983928Y-15402786D01*
X4998214Y-15431357D01*
X5012500Y-15488500D01*
X5012500Y-15559929D01*
X4998214Y-15617071D01*
X4983928Y-15645643D01*
X4969643Y-15659929D01*
X4941071Y-15674214D01*
X4912500Y-15674214D01*
X4883928Y-15659929D01*
X4869643Y-15645643D01*
X4855357Y-15617071D01*
X4841071Y-15559929D01*
X4841071Y-15488500D01*
X4855357Y-15431357D01*
X4869643Y-15402786D01*
X4883928Y-15388500D01*
X4912500Y-15374214D01*
X5141071Y-15645643D02*
X5155357Y-15659929D01*
X5141071Y-15674214D01*
X5126786Y-15659929D01*
X5141071Y-15645643D01*
X5141071Y-15674214D01*
X5341071Y-15374214D02*
X5369643Y-15374214D01*
X5398214Y-15388500D01*
X5412500Y-15402786D01*
X5426786Y-15431357D01*
X5441071Y-15488500D01*
X5441071Y-15559929D01*
X5426786Y-15617071D01*
X5412500Y-15645643D01*
X5398214Y-15659929D01*
X5369643Y-15674214D01*
X5341071Y-15674214D01*
X5312500Y-15659929D01*
X5298214Y-15645643D01*
X5283928Y-15617071D01*
X5269643Y-15559929D01*
X5269643Y-15488500D01*
X5283928Y-15431357D01*
X5298214Y-15402786D01*
X5312500Y-15388500D01*
X5341071Y-15374214D01*
X5712500Y-15374214D02*
X5569643Y-15374214D01*
X5555357Y-15517071D01*
X5569643Y-15502786D01*
X5598214Y-15488500D01*
X5669643Y-15488500D01*
X5698214Y-15502786D01*
X5712500Y-15517071D01*
X5726786Y-15545643D01*
X5726786Y-15617071D01*
X5712500Y-15645643D01*
X5698214Y-15659929D01*
X5669643Y-15674214D01*
X5598214Y-15674214D01*
X5569643Y-15659929D01*
X5555357Y-15645643D01*
X5869643Y-15674214D02*
X5926786Y-15674214D01*
X5955357Y-15659929D01*
X5969643Y-15645643D01*
X5998214Y-15602786D01*
X6012500Y-15545643D01*
X6012500Y-15431357D01*
X5998214Y-15402786D01*
X5983928Y-15388500D01*
X5955357Y-15374214D01*
X5898214Y-15374214D01*
X5869643Y-15388500D01*
X5855357Y-15402786D01*
X5841071Y-15431357D01*
X5841071Y-15502786D01*
X5855357Y-15531357D01*
X5869643Y-15545643D01*
X5898214Y-15559929D01*
X5955357Y-15559929D01*
X5983928Y-15545643D01*
X5998214Y-15531357D01*
X6012500Y-15502786D01*
X6126786Y-15374214D02*
X6126786Y-15431357D01*
X6241071Y-15374214D02*
X6241071Y-15431357D01*
X6683928Y-15788500D02*
X6669643Y-15774214D01*
X6641071Y-15731357D01*
X6626786Y-15702786D01*
X6612500Y-15659929D01*
X6598214Y-15588500D01*
X6598214Y-15531357D01*
X6612500Y-15459929D01*
X6626786Y-15417071D01*
X6641071Y-15388500D01*
X6669643Y-15345643D01*
X6683928Y-15331357D01*
X6941071Y-15374214D02*
X6798214Y-15374214D01*
X6783928Y-15517071D01*
X6798214Y-15502786D01*
X6826786Y-15488500D01*
X6898214Y-15488500D01*
X6926786Y-15502786D01*
X6941071Y-15517071D01*
X6955357Y-15545643D01*
X6955357Y-15617071D01*
X6941071Y-15645643D01*
X6926786Y-15659929D01*
X6898214Y-15674214D01*
X6826786Y-15674214D01*
X6798214Y-15659929D01*
X6783928Y-15645643D01*
X7312500Y-15674214D02*
X7312500Y-15374214D01*
X7441071Y-15674214D02*
X7441071Y-15517071D01*
X7426786Y-15488500D01*
X7398214Y-15474214D01*
X7355357Y-15474214D01*
X7326786Y-15488500D01*
X7312500Y-15502786D01*
X7626786Y-15674214D02*
X7598214Y-15659929D01*
X7583928Y-15645643D01*
X7569643Y-15617071D01*
X7569643Y-15531357D01*
X7583928Y-15502786D01*
X7598214Y-15488500D01*
X7626786Y-15474214D01*
X7669643Y-15474214D01*
X7698214Y-15488500D01*
X7712500Y-15502786D01*
X7726786Y-15531357D01*
X7726786Y-15617071D01*
X7712500Y-15645643D01*
X7698214Y-15659929D01*
X7669643Y-15674214D01*
X7626786Y-15674214D01*
X7898214Y-15674214D02*
X7869643Y-15659929D01*
X7855357Y-15631357D01*
X7855357Y-15374214D01*
X8126786Y-15659929D02*
X8098214Y-15674214D01*
X8041071Y-15674214D01*
X8012500Y-15659929D01*
X7998214Y-15631357D01*
X7998214Y-15517071D01*
X8012500Y-15488500D01*
X8041071Y-15474214D01*
X8098214Y-15474214D01*
X8126786Y-15488500D01*
X8141071Y-15517071D01*
X8141071Y-15545643D01*
X7998214Y-15574214D01*
X8255357Y-15659929D02*
X8283928Y-15674214D01*
X8341071Y-15674214D01*
X8369643Y-15659929D01*
X8383928Y-15631357D01*
X8383928Y-15617071D01*
X8369643Y-15588500D01*
X8341071Y-15574214D01*
X8298214Y-15574214D01*
X8269643Y-15559929D01*
X8255357Y-15531357D01*
X8255357Y-15517071D01*
X8269643Y-15488500D01*
X8298214Y-15474214D01*
X8341071Y-15474214D01*
X8369643Y-15488500D01*
X8483928Y-15788500D02*
X8498214Y-15774214D01*
X8526786Y-15731357D01*
X8541071Y-15702786D01*
X8555357Y-15659929D01*
X8569643Y-15588500D01*
X8569643Y-15531357D01*
X8555357Y-15459929D01*
X8541071Y-15417071D01*
X8526786Y-15388500D01*
X8498214Y-15345643D01*
X8483928Y-15331357D01*
X1767500Y-15819500D02*
X1997500Y-16049500D01*
X1997500Y-15819500D02*
X1767500Y-16049500D01*
X1963818Y-16015818D02*
X1963818Y-15853182D01*
X1801182Y-15853182D01*
X1801182Y-16015818D01*
X1963818Y-16015818D01*
X2269643Y-15798786D02*
X2283928Y-15784500D01*
X2312500Y-15770214D01*
X2383928Y-15770214D01*
X2412500Y-15784500D01*
X2426786Y-15798786D01*
X2441071Y-15827357D01*
X2441071Y-15855929D01*
X2426786Y-15898786D01*
X2255357Y-16070214D01*
X2441071Y-16070214D01*
X2569643Y-16041643D02*
X2583928Y-16055929D01*
X2569643Y-16070214D01*
X2555357Y-16055929D01*
X2569643Y-16041643D01*
X2569643Y-16070214D01*
X2683928Y-15770214D02*
X2869643Y-15770214D01*
X2769643Y-15884500D01*
X2812500Y-15884500D01*
X2841071Y-15898786D01*
X2855357Y-15913071D01*
X2869643Y-15941643D01*
X2869643Y-16013071D01*
X2855357Y-16041643D01*
X2841071Y-16055929D01*
X2812500Y-16070214D01*
X2726786Y-16070214D01*
X2698214Y-16055929D01*
X2683928Y-16041643D01*
X3055357Y-15770214D02*
X3083928Y-15770214D01*
X3112500Y-15784500D01*
X3126786Y-15798786D01*
X3141071Y-15827357D01*
X3155357Y-15884500D01*
X3155357Y-15955929D01*
X3141071Y-16013071D01*
X3126786Y-16041643D01*
X3112500Y-16055929D01*
X3083928Y-16070214D01*
X3055357Y-16070214D01*
X3026786Y-16055929D01*
X3012500Y-16041643D01*
X2998214Y-16013071D01*
X2983928Y-15955929D01*
X2983928Y-15884500D01*
X2998214Y-15827357D01*
X3012500Y-15798786D01*
X3026786Y-15784500D01*
X3055357Y-15770214D01*
X3283928Y-16070214D02*
X3283928Y-15870214D01*
X3283928Y-15898786D02*
X3298214Y-15884500D01*
X3326786Y-15870214D01*
X3369643Y-15870214D01*
X3398214Y-15884500D01*
X3412500Y-15913071D01*
X3412500Y-16070214D01*
X3412500Y-15913071D02*
X3426786Y-15884500D01*
X3455357Y-15870214D01*
X3498214Y-15870214D01*
X3526786Y-15884500D01*
X3541071Y-15913071D01*
X3541071Y-16070214D01*
X3683928Y-16070214D02*
X3683928Y-15870214D01*
X3683928Y-15898786D02*
X3698214Y-15884500D01*
X3726786Y-15870214D01*
X3769643Y-15870214D01*
X3798214Y-15884500D01*
X3812500Y-15913071D01*
X3812500Y-16070214D01*
X3812500Y-15913071D02*
X3826786Y-15884500D01*
X3855357Y-15870214D01*
X3898214Y-15870214D01*
X3926786Y-15884500D01*
X3941071Y-15913071D01*
X3941071Y-16070214D01*
X4526786Y-15755929D02*
X4269643Y-16141643D01*
X4912500Y-15770214D02*
X4941071Y-15770214D01*
X4969643Y-15784500D01*
X4983928Y-15798786D01*
X4998214Y-15827357D01*
X5012500Y-15884500D01*
X5012500Y-15955929D01*
X4998214Y-16013071D01*
X4983928Y-16041643D01*
X4969643Y-16055929D01*
X4941071Y-16070214D01*
X4912500Y-16070214D01*
X4883928Y-16055929D01*
X4869643Y-16041643D01*
X4855357Y-16013071D01*
X4841071Y-15955929D01*
X4841071Y-15884500D01*
X4855357Y-15827357D01*
X4869643Y-15798786D01*
X4883928Y-15784500D01*
X4912500Y-15770214D01*
X5141071Y-16041643D02*
X5155357Y-16055929D01*
X5141071Y-16070214D01*
X5126786Y-16055929D01*
X5141071Y-16041643D01*
X5141071Y-16070214D01*
X5341071Y-15770214D02*
X5369643Y-15770214D01*
X5398214Y-15784500D01*
X5412500Y-15798786D01*
X5426786Y-15827357D01*
X5441071Y-15884500D01*
X5441071Y-15955929D01*
X5426786Y-16013071D01*
X5412500Y-16041643D01*
X5398214Y-16055929D01*
X5369643Y-16070214D01*
X5341071Y-16070214D01*
X5312500Y-16055929D01*
X5298214Y-16041643D01*
X5283928Y-16013071D01*
X5269643Y-15955929D01*
X5269643Y-15884500D01*
X5283928Y-15827357D01*
X5298214Y-15798786D01*
X5312500Y-15784500D01*
X5341071Y-15770214D01*
X5583928Y-16070214D02*
X5641071Y-16070214D01*
X5669643Y-16055929D01*
X5683928Y-16041643D01*
X5712500Y-15998786D01*
X5726786Y-15941643D01*
X5726786Y-15827357D01*
X5712500Y-15798786D01*
X5698214Y-15784500D01*
X5669643Y-15770214D01*
X5612500Y-15770214D01*
X5583928Y-15784500D01*
X5569643Y-15798786D01*
X5555357Y-15827357D01*
X5555357Y-15898786D01*
X5569643Y-15927357D01*
X5583928Y-15941643D01*
X5612500Y-15955929D01*
X5669643Y-15955929D01*
X5698214Y-15941643D01*
X5712500Y-15927357D01*
X5726786Y-15898786D01*
X6012500Y-16070214D02*
X5841071Y-16070214D01*
X5926786Y-16070214D02*
X5926786Y-15770214D01*
X5898214Y-15813071D01*
X5869643Y-15841643D01*
X5841071Y-15855929D01*
X6126786Y-15770214D02*
X6126786Y-15827357D01*
X6241071Y-15770214D02*
X6241071Y-15827357D01*
X6683928Y-16184500D02*
X6669643Y-16170214D01*
X6641071Y-16127357D01*
X6626786Y-16098786D01*
X6612500Y-16055929D01*
X6598214Y-15984500D01*
X6598214Y-15927357D01*
X6612500Y-15855929D01*
X6626786Y-15813071D01*
X6641071Y-15784500D01*
X6669643Y-15741643D01*
X6683928Y-15727357D01*
X6783928Y-15798786D02*
X6798214Y-15784500D01*
X6826786Y-15770214D01*
X6898214Y-15770214D01*
X6926786Y-15784500D01*
X6941071Y-15798786D01*
X6955357Y-15827357D01*
X6955357Y-15855929D01*
X6941071Y-15898786D01*
X6769643Y-16070214D01*
X6955357Y-16070214D01*
X7312500Y-16070214D02*
X7312500Y-15770214D01*
X7441071Y-16070214D02*
X7441071Y-15913071D01*
X7426786Y-15884500D01*
X7398214Y-15870214D01*
X7355357Y-15870214D01*
X7326786Y-15884500D01*
X7312500Y-15898786D01*
X7626786Y-16070214D02*
X7598214Y-16055929D01*
X7583928Y-16041643D01*
X7569643Y-16013071D01*
X7569643Y-15927357D01*
X7583928Y-15898786D01*
X7598214Y-15884500D01*
X7626786Y-15870214D01*
X7669643Y-15870214D01*
X7698214Y-15884500D01*
X7712500Y-15898786D01*
X7726786Y-15927357D01*
X7726786Y-16013071D01*
X7712500Y-16041643D01*
X7698214Y-16055929D01*
X7669643Y-16070214D01*
X7626786Y-16070214D01*
X7898214Y-16070214D02*
X7869643Y-16055929D01*
X7855357Y-16027357D01*
X7855357Y-15770214D01*
X8126786Y-16055929D02*
X8098214Y-16070214D01*
X8041071Y-16070214D01*
X8012500Y-16055929D01*
X7998214Y-16027357D01*
X7998214Y-15913071D01*
X8012500Y-15884500D01*
X8041071Y-15870214D01*
X8098214Y-15870214D01*
X8126786Y-15884500D01*
X8141071Y-15913071D01*
X8141071Y-15941643D01*
X7998214Y-15970214D01*
X8255357Y-16055929D02*
X8283928Y-16070214D01*
X8341071Y-16070214D01*
X8369643Y-16055929D01*
X8383928Y-16027357D01*
X8383928Y-16013071D01*
X8369643Y-15984500D01*
X8341071Y-15970214D01*
X8298214Y-15970214D01*
X8269643Y-15955929D01*
X8255357Y-15927357D01*
X8255357Y-15913071D01*
X8269643Y-15884500D01*
X8298214Y-15870214D01*
X8341071Y-15870214D01*
X8369643Y-15884500D01*
X8483928Y-16184500D02*
X8498214Y-16170214D01*
X8526786Y-16127357D01*
X8541071Y-16098786D01*
X8555357Y-16055929D01*
X8569643Y-15984500D01*
X8569643Y-15927357D01*
X8555357Y-15855929D01*
X8541071Y-15813071D01*
X8526786Y-15784500D01*
X8498214Y-15741643D01*
X8483928Y-15727357D01*
X1677500Y-16170500D02*
X1997500Y-16490500D01*
X1997500Y-16170500D02*
X1677500Y-16490500D01*
X1837500Y-16490500D02*
X1997500Y-16330500D01*
X1837500Y-16170500D01*
X1677500Y-16330500D01*
X1837500Y-16490500D01*
X2255357Y-16166214D02*
X2441071Y-16166214D01*
X2341071Y-16280500D01*
X2383928Y-16280500D01*
X2412500Y-16294786D01*
X2426786Y-16309071D01*
X2441071Y-16337643D01*
X2441071Y-16409071D01*
X2426786Y-16437643D01*
X2412500Y-16451929D01*
X2383928Y-16466214D01*
X2298214Y-16466214D01*
X2269643Y-16451929D01*
X2255357Y-16437643D01*
X2569643Y-16437643D02*
X2583928Y-16451929D01*
X2569643Y-16466214D01*
X2555357Y-16451929D01*
X2569643Y-16437643D01*
X2569643Y-16466214D01*
X2698214Y-16194786D02*
X2712500Y-16180500D01*
X2741071Y-16166214D01*
X2812500Y-16166214D01*
X2841071Y-16180500D01*
X2855357Y-16194786D01*
X2869643Y-16223357D01*
X2869643Y-16251929D01*
X2855357Y-16294786D01*
X2683928Y-16466214D01*
X2869643Y-16466214D01*
X3055357Y-16166214D02*
X3083928Y-16166214D01*
X3112500Y-16180500D01*
X3126786Y-16194786D01*
X3141071Y-16223357D01*
X3155357Y-16280500D01*
X3155357Y-16351929D01*
X3141071Y-16409071D01*
X3126786Y-16437643D01*
X3112500Y-16451929D01*
X3083928Y-16466214D01*
X3055357Y-16466214D01*
X3026786Y-16451929D01*
X3012500Y-16437643D01*
X2998214Y-16409071D01*
X2983928Y-16351929D01*
X2983928Y-16280500D01*
X2998214Y-16223357D01*
X3012500Y-16194786D01*
X3026786Y-16180500D01*
X3055357Y-16166214D01*
X3283928Y-16466214D02*
X3283928Y-16266214D01*
X3283928Y-16294786D02*
X3298214Y-16280500D01*
X3326786Y-16266214D01*
X3369643Y-16266214D01*
X3398214Y-16280500D01*
X3412500Y-16309071D01*
X3412500Y-16466214D01*
X3412500Y-16309071D02*
X3426786Y-16280500D01*
X3455357Y-16266214D01*
X3498214Y-16266214D01*
X3526786Y-16280500D01*
X3541071Y-16309071D01*
X3541071Y-16466214D01*
X3683928Y-16466214D02*
X3683928Y-16266214D01*
X3683928Y-16294786D02*
X3698214Y-16280500D01*
X3726786Y-16266214D01*
X3769643Y-16266214D01*
X3798214Y-16280500D01*
X3812500Y-16309071D01*
X3812500Y-16466214D01*
X3812500Y-16309071D02*
X3826786Y-16280500D01*
X3855357Y-16266214D01*
X3898214Y-16266214D01*
X3926786Y-16280500D01*
X3941071Y-16309071D01*
X3941071Y-16466214D01*
X4526786Y-16151929D02*
X4269643Y-16537643D01*
X4912500Y-16166214D02*
X4941071Y-16166214D01*
X4969643Y-16180500D01*
X4983928Y-16194786D01*
X4998214Y-16223357D01*
X5012500Y-16280500D01*
X5012500Y-16351929D01*
X4998214Y-16409071D01*
X4983928Y-16437643D01*
X4969643Y-16451929D01*
X4941071Y-16466214D01*
X4912500Y-16466214D01*
X4883928Y-16451929D01*
X4869643Y-16437643D01*
X4855357Y-16409071D01*
X4841071Y-16351929D01*
X4841071Y-16280500D01*
X4855357Y-16223357D01*
X4869643Y-16194786D01*
X4883928Y-16180500D01*
X4912500Y-16166214D01*
X5141071Y-16437643D02*
X5155357Y-16451929D01*
X5141071Y-16466214D01*
X5126786Y-16451929D01*
X5141071Y-16437643D01*
X5141071Y-16466214D01*
X5441071Y-16466214D02*
X5269643Y-16466214D01*
X5355357Y-16466214D02*
X5355357Y-16166214D01*
X5326786Y-16209071D01*
X5298214Y-16237643D01*
X5269643Y-16251929D01*
X5555357Y-16194786D02*
X5569643Y-16180500D01*
X5598214Y-16166214D01*
X5669643Y-16166214D01*
X5698214Y-16180500D01*
X5712500Y-16194786D01*
X5726786Y-16223357D01*
X5726786Y-16251929D01*
X5712500Y-16294786D01*
X5541071Y-16466214D01*
X5726786Y-16466214D01*
X5983928Y-16166214D02*
X5926786Y-16166214D01*
X5898214Y-16180500D01*
X5883928Y-16194786D01*
X5855357Y-16237643D01*
X5841071Y-16294786D01*
X5841071Y-16409071D01*
X5855357Y-16437643D01*
X5869643Y-16451929D01*
X5898214Y-16466214D01*
X5955357Y-16466214D01*
X5983928Y-16451929D01*
X5998214Y-16437643D01*
X6012500Y-16409071D01*
X6012500Y-16337643D01*
X5998214Y-16309071D01*
X5983928Y-16294786D01*
X5955357Y-16280500D01*
X5898214Y-16280500D01*
X5869643Y-16294786D01*
X5855357Y-16309071D01*
X5841071Y-16337643D01*
X6126786Y-16166214D02*
X6126786Y-16223357D01*
X6241071Y-16166214D02*
X6241071Y-16223357D01*
X6683928Y-16580500D02*
X6669643Y-16566214D01*
X6641071Y-16523357D01*
X6626786Y-16494786D01*
X6612500Y-16451929D01*
X6598214Y-16380500D01*
X6598214Y-16323357D01*
X6612500Y-16251929D01*
X6626786Y-16209071D01*
X6641071Y-16180500D01*
X6669643Y-16137643D01*
X6683928Y-16123357D01*
X6783928Y-16194786D02*
X6798214Y-16180500D01*
X6826786Y-16166214D01*
X6898214Y-16166214D01*
X6926786Y-16180500D01*
X6941071Y-16194786D01*
X6955357Y-16223357D01*
X6955357Y-16251929D01*
X6941071Y-16294786D01*
X6769643Y-16466214D01*
X6955357Y-16466214D01*
X7312500Y-16466214D02*
X7312500Y-16166214D01*
X7441071Y-16466214D02*
X7441071Y-16309071D01*
X7426786Y-16280500D01*
X7398214Y-16266214D01*
X7355357Y-16266214D01*
X7326786Y-16280500D01*
X7312500Y-16294786D01*
X7626786Y-16466214D02*
X7598214Y-16451929D01*
X7583928Y-16437643D01*
X7569643Y-16409071D01*
X7569643Y-16323357D01*
X7583928Y-16294786D01*
X7598214Y-16280500D01*
X7626786Y-16266214D01*
X7669643Y-16266214D01*
X7698214Y-16280500D01*
X7712500Y-16294786D01*
X7726786Y-16323357D01*
X7726786Y-16409071D01*
X7712500Y-16437643D01*
X7698214Y-16451929D01*
X7669643Y-16466214D01*
X7626786Y-16466214D01*
X7898214Y-16466214D02*
X7869643Y-16451929D01*
X7855357Y-16423357D01*
X7855357Y-16166214D01*
X8126786Y-16451929D02*
X8098214Y-16466214D01*
X8041071Y-16466214D01*
X8012500Y-16451929D01*
X7998214Y-16423357D01*
X7998214Y-16309071D01*
X8012500Y-16280500D01*
X8041071Y-16266214D01*
X8098214Y-16266214D01*
X8126786Y-16280500D01*
X8141071Y-16309071D01*
X8141071Y-16337643D01*
X7998214Y-16366214D01*
X8255357Y-16451929D02*
X8283928Y-16466214D01*
X8341071Y-16466214D01*
X8369643Y-16451929D01*
X8383928Y-16423357D01*
X8383928Y-16409071D01*
X8369643Y-16380500D01*
X8341071Y-16366214D01*
X8298214Y-16366214D01*
X8269643Y-16351929D01*
X8255357Y-16323357D01*
X8255357Y-16309071D01*
X8269643Y-16280500D01*
X8298214Y-16266214D01*
X8341071Y-16266214D01*
X8369643Y-16280500D01*
X8483928Y-16580500D02*
X8498214Y-16566214D01*
X8526786Y-16523357D01*
X8541071Y-16494786D01*
X8555357Y-16451929D01*
X8569643Y-16380500D01*
X8569643Y-16323357D01*
X8555357Y-16251929D01*
X8541071Y-16209071D01*
X8526786Y-16180500D01*
X8498214Y-16137643D01*
X8483928Y-16123357D01*
M02*
