M48
; DRILL file {KiCad 5.1.6} date Wed Jul 15 20:44:45 2020
; FORMAT={-:-/ absolute / metric / decimal}
; #@! TF.CreationDate,2020-07-15T20:44:45+02:00
; #@! TF.GenerationSoftware,Kicad,Pcbnew,5.1.6
; #@! TF.FileFunction,Plated,1,4,PTH
FMAT,2
METRIC
T1C0.200
T2C0.600
T3C0.750
T4C0.900
T5C0.950
T6C1.000
T7C1.500
T8C2.300
T9C3.200
%
G90
G05
T1
X20.5Y-20.5
X20.5Y-21.5
X20.5Y-22.5
X20.5Y-23.5
X20.5Y-24.5
X20.5Y-25.5
X20.5Y-26.5
X20.5Y-27.5
X20.5Y-28.5
X20.5Y-29.5
X20.5Y-30.5
X20.5Y-31.5
X20.5Y-32.5
X20.5Y-33.5
X20.5Y-34.5
X20.5Y-35.5
X20.5Y-36.5
X20.5Y-37.5
X20.5Y-38.5
X20.5Y-39.5
X20.5Y-40.5
X20.5Y-41.5
X20.5Y-42.5
X20.5Y-43.5
X20.5Y-44.5
X20.5Y-45.5
X20.5Y-46.5
X20.5Y-47.5
X20.5Y-48.5
X20.5Y-49.5
X20.5Y-50.5
X20.5Y-51.5
X20.5Y-52.5
X20.5Y-53.5
X20.5Y-54.5
X20.5Y-55.5
X20.5Y-56.5
X20.5Y-57.5
X20.5Y-58.5
X20.5Y-59.5
X20.5Y-60.5
X20.5Y-61.5
X20.5Y-62.5
X20.5Y-63.5
X20.5Y-64.5
X20.5Y-77.5
X20.5Y-78.5
X20.5Y-79.5
X20.5Y-80.5
X20.5Y-81.5
X20.5Y-82.5
X20.5Y-83.5
X20.5Y-84.5
X20.5Y-85.5
X20.5Y-86.5
X20.5Y-87.5
X20.5Y-88.5
X20.5Y-89.5
X20.5Y-90.5
X20.5Y-91.5
X20.5Y-92.5
X20.5Y-93.5
X20.5Y-94.5
X20.5Y-95.5
X20.5Y-96.5
X20.5Y-97.5
X20.5Y-98.5
X20.5Y-99.5
X20.5Y-100.5
X20.5Y-101.5
X20.5Y-102.5
X20.5Y-103.5
X20.5Y-104.5
X20.5Y-105.5
X20.5Y-106.5
X20.5Y-107.5
X20.5Y-108.5
X20.5Y-109.5
X20.5Y-110.5
X20.5Y-111.5
X20.5Y-112.5
X20.5Y-113.5
X20.5Y-114.5
X20.5Y-115.5
X20.5Y-116.5
X20.5Y-117.5
X20.5Y-118.5
X20.5Y-119.5
X20.5Y-120.5
X20.5Y-121.5
X21.25Y-65.25
X21.25Y-76.75
X21.5Y-20.5
X21.5Y-41.5
X21.5Y-43.5
X21.5Y-44.5
X21.5Y-45.5
X21.5Y-46.5
X21.5Y-47.5
X21.5Y-48.5
X21.5Y-49.5
X21.5Y-50.5
X21.5Y-51.5
X21.5Y-52.5
X21.5Y-53.5
X21.5Y-54.5
X21.5Y-55.5
X21.5Y-56.5
X21.5Y-57.5
X21.5Y-58.5
X21.5Y-59.5
X21.5Y-60.5
X21.5Y-61.5
X21.5Y-121.5
X22.25Y-65.25
X22.25Y-76.75
X22.5Y-20.5
X22.5Y-40.5
X22.5Y-62.5
X22.5Y-121.5
X22.962Y-43.288
X23.0Y-46.5
X23.0Y-48.5
X23.0Y-50.5
X23.0Y-52.5
X23.0Y-54.5
X23.0Y-56.5
X23.0Y-58.5
X23.0Y-60.5
X23.25Y-65.25
X23.25Y-76.75
X23.5Y-20.5
X23.5Y-121.5
X23.8Y-44.3
X23.914Y-89.395
X24.25Y-65.25
X24.25Y-76.75
X24.5Y-20.5
X24.5Y-40.5
X24.5Y-62.5
X24.5Y-121.5
X24.994Y-107.823
X25.0Y-37.0
X25.0Y-37.5
X25.0Y-38.0
X25.0Y-38.5
X25.0Y-39.0
X25.0Y-46.5
X25.0Y-48.5
X25.0Y-50.5
X25.0Y-52.5
X25.0Y-54.5
X25.0Y-56.5
X25.0Y-58.5
X25.0Y-60.5
X25.25Y-76.75
X25.35Y-65.25
X25.5Y-20.5
X25.5Y-37.0
X25.5Y-37.5
X25.5Y-38.0
X25.5Y-38.5
X25.5Y-39.0
X25.5Y-121.5
X26.0Y-37.0
X26.0Y-37.5
X26.0Y-38.0
X26.0Y-38.5
X26.0Y-39.0
X26.5Y-20.5
X26.5Y-37.0
X26.5Y-37.5
X26.5Y-38.0
X26.5Y-38.5
X26.5Y-39.0
X26.5Y-62.5
X26.5Y-121.5
X27.0Y-46.5
X27.0Y-48.5
X27.0Y-50.5
X27.0Y-52.5
X27.0Y-54.5
X27.0Y-56.5
X27.0Y-58.5
X27.0Y-60.5
X27.029Y-76.484
X27.124Y-65.547
X27.191Y-116.954
X27.5Y-20.5
X27.5Y-121.5
X28.5Y-20.5
X28.5Y-40.5
X28.5Y-62.5
X28.5Y-121.5
X28.639Y-75.681
X28.72Y-66.378
X28.804Y-104.14
X29.0Y-46.5
X29.0Y-48.5
X29.0Y-50.5
X29.0Y-52.5
X29.0Y-54.5
X29.0Y-56.5
X29.0Y-58.5
X29.0Y-60.5
X29.5Y-20.5
X29.5Y-121.5
X29.769Y-117.056
X29.922Y-74.42
X29.981Y-67.661
X30.5Y-20.5
X30.5Y-40.5
X30.5Y-43.0
X30.5Y-62.5
X30.5Y-121.5
X30.753Y-72.824
X30.784Y-69.271
X31.0Y-46.5
X31.0Y-48.5
X31.0Y-50.5
X31.0Y-52.5
X31.0Y-54.5
X31.0Y-56.5
X31.0Y-58.5
X31.0Y-60.5
X31.05Y-71.05
X31.5Y-20.5
X31.5Y-121.5
X32.3Y-41.8
X32.5Y-20.5
X32.5Y-40.5
X32.5Y-62.5
X32.5Y-121.5
X33.0Y-46.5
X33.0Y-48.5
X33.0Y-50.5
X33.0Y-52.5
X33.0Y-54.5
X33.0Y-56.5
X33.0Y-58.5
X33.0Y-60.5
X33.5Y-20.5
X33.5Y-121.5
X33.7Y-33.5
X33.71Y-30.79
X34.214Y-41.786
X34.5Y-20.5
X34.5Y-40.5
X34.5Y-62.5
X34.5Y-121.5
X35.0Y-46.5
X35.0Y-48.5
X35.0Y-50.5
X35.0Y-52.5
X35.0Y-54.5
X35.0Y-56.5
X35.0Y-58.5
X35.0Y-60.5
X35.5Y-20.5
X35.57Y-28.73
X36.5Y-20.5
X36.5Y-40.5
X36.5Y-62.5
X37.0Y-46.5
X37.0Y-48.5
X37.0Y-50.5
X37.0Y-52.5
X37.0Y-54.5
X37.0Y-56.5
X37.0Y-58.5
X37.0Y-60.5
X37.4Y-33.65
X37.4Y-35.55
X37.401Y-34.608
X37.5Y-20.5
X38.5Y-20.5
X38.5Y-40.5
X38.5Y-41.5
X38.5Y-42.5
X38.5Y-43.5
X38.5Y-44.5
X38.5Y-45.5
X38.5Y-46.5
X38.5Y-47.5
X38.5Y-48.5
X38.5Y-49.5
X38.5Y-50.5
X38.5Y-51.5
X38.5Y-52.5
X38.5Y-53.5
X38.5Y-54.5
X38.5Y-55.5
X38.5Y-56.5
X38.5Y-57.5
X38.5Y-58.5
X38.5Y-59.5
X38.5Y-60.5
X38.5Y-61.5
X38.5Y-62.5
X38.7Y-113.5
X39.5Y-20.5
X39.624Y-34.608
X39.74Y-22.16
X39.75Y-38.5
X39.75Y-39.0
X39.75Y-39.5
X40.15Y-113.65
X40.2Y-46.4
X40.24Y-22.16
X40.5Y-20.5
X40.5Y-27.8
X40.7Y-26.0
X40.715Y-44.485
X40.74Y-22.16
X41.148Y-30.404
X41.2Y-41.0
X41.24Y-22.16
X41.5Y-20.5
X41.74Y-22.16
X42.164Y-28.003
X42.24Y-22.16
X42.5Y-20.5
X42.6Y-42.6
X42.74Y-22.16
X43.116Y-28.003
X43.24Y-22.16
X43.5Y-20.5
X43.74Y-22.16
X43.75Y-44.75
X43.75Y-47.25
X43.887Y-37.583
X44.171Y-30.404
X44.24Y-22.16
X44.386Y-37.093
X44.5Y-20.5
X44.642Y-113.681
X44.74Y-22.16
X45.1Y-26.0
X45.24Y-22.16
X45.3Y-27.8
X45.5Y-20.5
X45.5Y-42.75
X45.74Y-22.16
X46.1Y-27.8
X46.24Y-22.16
X46.25Y-44.75
X46.25Y-47.25
X46.5Y-20.5
X47.22Y-23.58
X47.22Y-24.18
X47.22Y-24.78
X47.5Y-20.5
X48.5Y-20.5
X48.5Y-121.5
X49.5Y-20.5
X49.5Y-121.5
X49.589Y-26.505
X50.457Y-119.926
X50.5Y-20.5
X50.5Y-121.5
X51.5Y-20.5
X51.5Y-121.5
X52.5Y-20.5
X52.5Y-121.5
X52.6Y-24.1
X53.5Y-20.5
X53.5Y-121.5
X54.064Y-109.69
X54.5Y-20.5
X54.5Y-121.5
X55.448Y-70.599
X55.5Y-20.5
X55.5Y-121.5
X55.512Y-35.217
X55.905Y-111.023
X56.032Y-69.38
X56.142Y-23.101
X56.5Y-20.5
X56.5Y-121.5
X56.502Y-68.313
X57.5Y-20.5
X57.5Y-121.5
X58.039Y-111.011
X58.068Y-85.941
X58.318Y-117.64
X58.421Y-24.36
X58.433Y-111.633
X58.5Y-20.5
X58.5Y-121.5
X58.7Y-109.3
X59.004Y-24.359
X59.5Y-20.5
X59.5Y-121.5
X59.931Y-71.653
X60.261Y-119.85
X60.5Y-20.5
X60.5Y-121.5
X60.579Y-33.528
X60.579Y-71.628
X60.8Y-30.85
X61.1Y-108.9
X61.214Y-71.628
X61.3Y-112.4
X61.5Y-20.5
X61.5Y-121.5
X61.75Y-78.25
X61.849Y-72.898
X62.5Y-20.5
X62.5Y-121.5
X62.508Y-72.969
X62.992Y-28.219
X63.5Y-20.5
X63.5Y-121.5
X63.777Y-70.573
X63.779Y-78.384
X64.262Y-30.607
X64.491Y-78.346
X64.5Y-20.5
X64.5Y-121.5
X64.8Y-60.7
X65.392Y-77.292
X65.469Y-77.99
X65.5Y-20.5
X65.5Y-121.5
X65.54Y-30.96
X65.7Y-31.8
X65.875Y-114.808
X65.904Y-78.419
X66.5Y-20.5
X66.5Y-121.5
X66.75Y-29.0
X66.916Y-111.633
X66.954Y-110.985
X67.5Y-20.5
X67.5Y-121.5
X67.539Y-80.124
X67.541Y-113.985
X68.034Y-56.223
X68.072Y-23.089
X68.161Y-110.973
X68.161Y-111.62
X68.5Y-20.5
X68.5Y-121.5
X69.15Y-31.65
X69.5Y-20.5
X69.5Y-59.25
X69.5Y-121.5
X69.583Y-78.003
X69.583Y-78.934
X70.0Y-71.75
X70.016Y-58.992
X70.029Y-77.588
X70.104Y-78.419
X70.282Y-114.821
X70.5Y-20.5
X70.5Y-121.5
X70.55Y-69.8
X70.828Y-56.312
X70.866Y-77.911
X71.031Y-63.576
X71.044Y-62.662
X71.191Y-71.891
X71.5Y-20.5
X71.5Y-121.5
X71.755Y-76.327
X72.0Y-61.265
X72.1Y-72.35
X72.129Y-75.873
X72.2Y-73.8
X72.2Y-74.377
X72.2Y-75.3
X72.2Y-76.85
X72.265Y-61.778
X72.3Y-66.8
X72.3Y-67.4
X72.5Y-20.5
X72.5Y-121.5
X72.65Y-79.35
X72.75Y-52.75
X73.025Y-49.403
X73.203Y-28.321
X73.457Y-48.87
X73.5Y-20.5
X73.5Y-121.5
X73.571Y-93.574
X73.927Y-97.485
X73.939Y-98.171
X74.041Y-50.673
X74.25Y-64.347
X74.25Y-65.35
X74.25Y-66.35
X74.308Y-98.768
X74.381Y-50.207
X74.465Y-77.911
X74.5Y-20.5
X74.5Y-121.5
X74.6Y-63.85
X74.6Y-64.85
X74.6Y-65.85
X74.65Y-62.25
X74.75Y-60.0
X74.803Y-99.314
X74.803Y-49.784
X74.969Y-96.138
X75.5Y-20.5
X75.5Y-121.5
X75.6Y-101.1
X75.75Y-55.75
X76.053Y-89.8
X76.098Y-32.309
X76.302Y-36.779
X76.323Y-93.503
X76.4Y-87.1
X76.4Y-99.075
X76.5Y-20.5
X76.5Y-121.5
X76.75Y-95.25
X76.825Y-78.65
X76.825Y-81.0
X76.962Y-36.728
X77.2Y-86.6
X77.216Y-28.804
X77.216Y-29.464
X77.3Y-53.4
X77.5Y-20.5
X77.5Y-55.75
X77.5Y-121.5
X78.0Y-87.1
X78.24Y-23.131
X78.334Y-52.667
X78.5Y-20.5
X78.5Y-49.45
X78.5Y-121.5
X78.524Y-89.865
X78.8Y-86.6
X78.8Y-118.2
X78.816Y-108.153
X79.0Y-60.5
X79.25Y-53.25
X79.5Y-20.5
X79.5Y-55.75
X79.5Y-74.025
X79.5Y-91.3
X79.5Y-121.5
X79.75Y-52.75
X80.312Y-89.891
X80.4Y-76.6
X80.4Y-86.6
X80.5Y-20.5
X80.5Y-121.5
X81.2Y-76.6
X81.2Y-87.1
X81.35Y-42.15
X81.45Y-35.1
X81.5Y-20.5
X81.5Y-121.5
X81.75Y-76.0
X81.9Y-86.9
X81.991Y-81.534
X82.0Y-70.25
X82.0Y-89.5
X82.0Y-94.75
X82.0Y-98.75
X82.25Y-78.35
X82.5Y-20.5
X82.5Y-55.75
X82.5Y-61.75
X82.5Y-121.5
X82.55Y-42.164
X82.7Y-87.501
X82.8Y-99.0
X83.068Y-91.221
X83.185Y-42.164
X83.223Y-78.048
X83.225Y-78.625
X83.25Y-62.75
X83.287Y-107.213
X83.312Y-28.245
X83.5Y-20.5
X83.5Y-121.5
X83.6Y-96.67
X83.762Y-42.164
X83.8Y-55.4
X83.94Y-87.495
X84.262Y-55.746
X84.5Y-20.5
X84.5Y-121.5
X84.633Y-95.273
X84.75Y-85.25
X84.75Y-85.25
X84.75Y-86.25
X84.85Y-65.15
X85.2Y-87.5
X85.5Y-20.5
X85.5Y-121.5
X85.522Y-107.264
X85.55Y-41.6
X85.75Y-89.75
X85.75Y-97.5
X85.753Y-80.8
X85.852Y-23.089
X85.865Y-76.67
X86.068Y-101.244
X86.233Y-57.277
X86.4Y-89.75
X86.5Y-20.5
X86.5Y-121.5
X86.656Y-57.726
X87.0Y-92.25
X87.058Y-57.213
X87.45Y-41.6
X87.5Y-20.5
X87.5Y-121.5
X87.6Y-88.55
X87.63Y-57.658
X87.681Y-101.194
X88.2Y-78.6
X88.481Y-52.108
X88.5Y-20.5
X88.5Y-121.5
X88.646Y-41.402
X88.7Y-55.6
X88.777Y-78.6
X89.0Y-69.0
X89.3Y-55.6
X89.484Y-52.108
X89.5Y-20.5
X89.5Y-121.5
X89.662Y-28.956
X89.75Y-93.5
X89.802Y-101.194
X90.0Y-87.55
X90.5Y-20.5
X90.5Y-121.5
X90.784Y-53.308
X90.8Y-58.25
X90.9Y-72.65
X91.0Y-73.5
X91.084Y-69.0
X91.2Y-52.9
X91.313Y-29.654
X91.5Y-20.5
X91.5Y-121.5
X91.6Y-55.8
X91.6Y-87.3
X92.4Y-55.8
X92.4Y-87.1
X92.4Y-89.85
X92.469Y-101.244
X92.5Y-20.5
X92.5Y-121.5
X92.637Y-52.8
X93.053Y-52.222
X93.078Y-80.962
X93.091Y-30.659
X93.091Y-43.053
X93.091Y-77.927
X93.269Y-78.906
X93.4Y-108.2
X93.5Y-20.5
X93.5Y-121.5
X93.6Y-58.3
X93.624Y-52.303
X93.675Y-32.766
X93.8Y-52.9
X93.86Y-69.69
X94.01Y-71.0
X94.25Y-80.75
X94.4Y-118.3
X94.5Y-20.5
X94.5Y-121.5
X94.667Y-101.22
X94.7Y-30.65
X94.75Y-81.34
X94.75Y-87.265
X94.856Y-51.511
X94.869Y-33.528
X95.1Y-65.8
X95.2Y-55.4
X95.5Y-20.5
X95.5Y-121.5
X95.517Y-80.95
X95.6Y-87.2
X95.6Y-89.9
X95.75Y-30.7
X95.75Y-72.0
X95.8Y-55.4
X96.139Y-33.528
X96.25Y-70.5
X96.5Y-20.5
X96.5Y-121.5
X96.613Y-41.148
X96.7Y-30.65
X96.85Y-46.609
X97.0Y-69.0
X97.2Y-66.35
X97.25Y-67.25
X97.282Y-43.739
X97.282Y-79.375
X97.318Y-54.344
X97.477Y-65.82
X97.5Y-20.5
X97.5Y-65.2
X97.5Y-121.5
X97.688Y-57.861
X97.7Y-58.8
X97.7Y-59.377
X97.7Y-70.8
X97.7Y-71.377
X97.7Y-76.8
X97.7Y-77.377
X98.5Y-20.5
X98.5Y-121.5
X98.56Y-23.131
X98.75Y-55.5
X99.386Y-36.503
X99.386Y-43.615
X99.5Y-20.5
X99.5Y-121.5
X99.876Y-36.134
X99.876Y-43.189
X100.0Y-63.0
X100.013Y-78.688
X100.273Y-51.46
X100.4Y-69.853
X100.5Y-20.5
X100.5Y-121.5
X100.75Y-67.766
X101.054Y-58.598
X101.067Y-59.588
X101.092Y-108.966
X101.475Y-71.6
X101.5Y-20.5
X101.5Y-68.75
X101.5Y-121.5
X101.727Y-83.604
X101.727Y-106.045
X101.75Y-69.5
X102.197Y-78.676
X102.235Y-76.263
X102.26Y-77.076
X102.26Y-77.838
X102.489Y-42.037
X102.5Y-20.5
X102.5Y-121.5
X103.0Y-68.25
X103.25Y-52.0
X103.25Y-63.5
X103.5Y-20.5
X103.5Y-121.5
X103.632Y-23.012
X104.14Y-63.602
X104.5Y-20.5
X104.5Y-121.5
X104.699Y-62.992
X105.156Y-74.066
X105.5Y-20.5
X105.5Y-121.5
X105.664Y-73.406
X106.172Y-70.612
X106.5Y-20.5
X106.5Y-121.5
X106.587Y-71.3
X106.587Y-71.3
X106.6Y-70.2
X107.015Y-63.551
X107.04Y-73.14
X107.5Y-20.5
X107.5Y-121.5
X107.556Y-64.084
X107.6Y-73.0
X108.5Y-20.5
X108.5Y-121.5
X109.5Y-20.5
X109.5Y-121.5
X110.5Y-20.5
X110.5Y-121.5
X110.744Y-51.384
X111.277Y-28.219
X111.5Y-20.5
X111.5Y-121.5
X112.5Y-20.5
X112.5Y-121.5
X113.5Y-20.5
X113.5Y-121.5
X114.5Y-20.5
X114.5Y-121.5
X114.859Y-26.2
X115.5Y-20.5
X115.5Y-121.5
X116.5Y-20.5
X116.5Y-121.5
X116.84Y-66.599
X117.5Y-20.5
X117.5Y-121.5
X118.5Y-20.5
X118.5Y-121.5
X119.5Y-20.5
X119.5Y-121.5
X120.5Y-20.5
X120.5Y-121.5
X121.5Y-20.5
X121.5Y-121.5
X122.5Y-20.5
X122.5Y-121.5
X123.5Y-20.5
X123.5Y-121.5
X124.0Y-33.75
X124.0Y-41.75
X124.3Y-52.351
X124.5Y-20.5
X124.5Y-121.5
X125.5Y-20.5
X125.5Y-121.5
X126.25Y-51.0
X126.5Y-20.5
X126.5Y-121.5
X126.508Y-52.766
X126.55Y-51.8
X127.0Y-54.75
X127.5Y-20.5
X127.5Y-121.5
X127.75Y-27.75
X127.75Y-58.25
X128.0Y-53.75
X128.0Y-54.75
X128.266Y-58.508
X128.5Y-20.5
X128.5Y-121.5
X128.75Y-59.0
X128.8Y-49.45
X129.221Y-59.725
X129.5Y-20.5
X129.5Y-121.5
X130.0Y-60.5
X130.5Y-20.5
X130.5Y-121.5
X130.83Y-35.5
X131.25Y-59.5
X131.5Y-20.5
X131.5Y-121.5
X132.5Y-20.5
X132.5Y-39.25
X132.5Y-121.5
X132.75Y-43.75
X132.75Y-52.75
X133.0Y-36.5
X133.5Y-20.5
X133.5Y-121.5
X133.75Y-34.5
X134.5Y-20.5
X134.5Y-121.5
X135.25Y-36.5
X135.5Y-20.5
X135.5Y-121.5
X136.25Y-65.25
X136.5Y-20.5
X136.5Y-121.5
X137.5Y-20.5
X137.5Y-121.5
X138.0Y-39.75
X138.0Y-44.5
X138.0Y-49.0
X138.0Y-53.5
X138.0Y-58.0
X138.25Y-37.5
X138.5Y-20.5
X138.5Y-121.5
X138.95Y-70.95
X139.216Y-72.729
X139.247Y-69.176
X139.25Y-33.75
X139.5Y-20.5
X139.5Y-121.5
X140.019Y-74.339
X140.078Y-67.58
X140.5Y-20.5
X140.5Y-121.5
X141.28Y-75.622
X141.361Y-66.319
X141.5Y-20.5
X141.5Y-121.5
X141.75Y-61.75
X142.5Y-20.5
X142.5Y-121.5
X142.876Y-76.453
X142.971Y-65.516
X143.25Y-38.25
X143.5Y-20.5
X143.5Y-121.5
X144.5Y-20.5
X144.5Y-121.5
X144.65Y-76.75
X144.75Y-65.25
X145.5Y-20.5
X145.5Y-121.5
X145.75Y-65.25
X145.75Y-76.75
X146.5Y-20.5
X146.5Y-121.5
X146.75Y-65.25
X146.75Y-76.75
X147.5Y-20.5
X147.5Y-121.5
X147.75Y-65.25
X147.75Y-76.75
X148.5Y-20.5
X148.5Y-121.5
X148.75Y-65.25
X148.75Y-76.75
X149.5Y-20.5
X149.5Y-21.5
X149.5Y-22.5
X149.5Y-23.5
X149.5Y-24.5
X149.5Y-25.5
X149.5Y-26.5
X149.5Y-27.5
X149.5Y-28.5
X149.5Y-29.5
X149.5Y-30.5
X149.5Y-31.5
X149.5Y-32.5
X149.5Y-33.5
X149.5Y-34.5
X149.5Y-35.5
X149.5Y-36.5
X149.5Y-37.5
X149.5Y-38.5
X149.5Y-39.5
X149.5Y-40.5
X149.5Y-41.5
X149.5Y-42.5
X149.5Y-43.5
X149.5Y-44.5
X149.5Y-45.5
X149.5Y-46.5
X149.5Y-47.5
X149.5Y-48.5
X149.5Y-49.5
X149.5Y-50.5
X149.5Y-51.5
X149.5Y-52.5
X149.5Y-53.5
X149.5Y-54.5
X149.5Y-55.5
X149.5Y-56.5
X149.5Y-57.5
X149.5Y-58.5
X149.5Y-59.5
X149.5Y-60.5
X149.5Y-61.5
X149.5Y-62.5
X149.5Y-63.5
X149.5Y-64.5
X149.5Y-77.5
X149.5Y-78.5
X149.5Y-79.5
X149.5Y-80.5
X149.5Y-81.5
X149.5Y-82.5
X149.5Y-83.5
X149.5Y-84.5
X149.5Y-85.5
X149.5Y-86.5
X149.5Y-87.5
X149.5Y-88.5
X149.5Y-89.5
X149.5Y-90.5
X149.5Y-91.5
X149.5Y-92.5
X149.5Y-93.5
X149.5Y-94.5
X149.5Y-95.5
X149.5Y-96.5
X149.5Y-97.5
X149.5Y-98.5
X149.5Y-99.5
X149.5Y-100.5
X149.5Y-101.5
X149.5Y-102.5
X149.5Y-103.5
X149.5Y-104.5
X149.5Y-105.5
X149.5Y-106.5
X149.5Y-107.5
X149.5Y-108.5
X149.5Y-109.5
X149.5Y-110.5
X149.5Y-111.5
X149.5Y-112.5
X149.5Y-113.5
X149.5Y-114.5
X149.5Y-115.5
X149.5Y-116.5
X149.5Y-117.5
X149.5Y-118.5
X149.5Y-119.5
X149.5Y-120.5
X149.5Y-121.5
T3
X25.93Y-107.8
X27.2Y-107.8
X28.47Y-107.8
T4
X24.6Y-115.6
X27.14Y-115.6
X29.68Y-115.6
T5
X25.5Y-33.5
X28.0Y-33.5
X30.0Y-33.5
X32.5Y-33.5
T6
X127.855Y-30.77
X129.0Y-28.79
X129.0Y-32.75
X130.145Y-30.77
X131.29Y-28.79
X131.29Y-32.75
X132.435Y-30.77
X133.58Y-28.79
X133.58Y-32.75
X134.725Y-30.77
X135.87Y-28.79
X135.87Y-32.75
X137.015Y-30.77
X138.16Y-28.79
X138.16Y-32.75
X112.8Y-55.19
X112.8Y-57.73
X112.8Y-60.27
X112.8Y-62.81
X112.8Y-65.35
X118.95Y-46.5
X121.49Y-46.5
X124.03Y-46.5
X63.0Y-24.36
X63.0Y-26.9
X65.54Y-24.36
X65.54Y-26.9
X68.08Y-24.36
X68.08Y-26.9
X70.62Y-24.36
X70.62Y-26.9
X73.16Y-24.36
X73.16Y-26.9
X75.7Y-24.36
X75.7Y-26.9
X78.24Y-24.36
X78.24Y-26.9
X80.78Y-24.36
X80.78Y-26.9
X83.32Y-24.36
X83.32Y-26.9
X85.86Y-24.36
X85.86Y-26.9
X88.4Y-24.36
X88.4Y-26.9
X90.94Y-24.36
X90.94Y-26.9
X93.48Y-24.36
X93.48Y-26.9
X96.02Y-24.36
X96.02Y-26.9
X98.56Y-24.36
X98.56Y-26.9
X101.1Y-24.36
X101.1Y-26.9
X103.64Y-24.36
X103.64Y-26.9
X106.18Y-24.36
X106.18Y-26.9
X108.72Y-24.36
X108.72Y-26.9
X111.26Y-24.36
X111.26Y-26.9
T7
X50.18Y-25.0
X50.18Y-31.7
X54.82Y-33.4
X55.02Y-24.1
X55.02Y-27.7
T8
X22.43Y-30.79
X35.57Y-30.79
T9
X120.815Y-31.33
X145.815Y-31.33
T2
G00X38.58Y-21.76
M15
G01X38.58Y-22.56
M16
G05
G00X38.58Y-25.78
M15
G01X38.58Y-26.88
M16
G05
G00X47.22Y-21.76
M15
G01X47.22Y-22.56
M16
G05
G00X47.22Y-25.78
M15
G01X47.22Y-26.88
M16
G05
T0
M30
